<svg width="110" height="103" viewBox="0 0 110 103" fill="none" xmlns="http://www.w3.org/2000/svg">
<g clip-path="url(#clip0_2028_758)">
<path d="M26.5996 24.9C28.3996 10.5 40.5996 -0.1 54.7996 -2.6403e-07C69.0996 0.0999997 80.9996 10.8 82.7996 24.9C83.1996 24.9 83.5996 24.9 83.9996 24.8C98.4996 23.1 111 35.6 109.3 50.2C107.9 61.8 98.2996 70.4 86.5996 70.5C83.6996 70.5 80.7996 70.5 77.7996 70.5C77.7996 72.9 77.7996 75.3 77.7996 77.7C77.7996 77.9 78.2996 78.2 78.4996 78.3C81.1996 79.2 83.8996 80.1 86.5996 81C87.9996 81.5 88.2996 81.9 88.2996 83.3C88.2996 84.6 88.3996 85.9 88.2996 87.2C88.2996 88 88.4996 88.4 89.2996 88.7C92.2996 89.9 94.0996 93.1 93.5996 96.2C93.0996 99.5 90.3996 102 87.1996 102.2C83.8996 102.4 80.8996 100.5 79.8996 97.4C78.7996 93.9 80.3996 90.2 83.8996 88.8C84.6996 88.5 84.9996 88.1 84.8996 87.3C84.7996 86.3 85.1996 85 84.6996 84.3C84.1996 83.6 82.8996 83.5 81.8996 83.2C79.8996 82.5 77.8996 81.8 75.7996 81.2C74.6996 80.9 74.1996 80.2 74.1996 79C74.1996 76.2 74.1996 73.5 74.1996 70.7C68.2996 70.7 62.4996 70.7 56.5996 70.7C56.5996 76.6 56.5996 82.5 56.5996 88.4C60.9996 89.9 62.3996 93.9 61.5996 97.1C60.7996 100.3 57.7996 102.4 54.3996 102.3C51.0996 102.2 48.3996 99.8 47.7996 96.4C47.1996 93 48.9996 90.1 52.8996 88.4C52.8996 82.5 52.8996 76.6 52.8996 70.6C47.0996 70.6 41.2996 70.6 35.2996 70.6C35.2996 72.8 35.2996 75 35.2996 77.3C35.2996 80.7 35.4996 80.6 32.1996 81.7C29.9996 82.4 27.7996 83.2 25.4996 83.9C24.8996 84.1 24.5996 84.4 24.6996 85C24.6996 85.2 24.6996 85.4 24.6996 85.7C24.4996 87.4 24.7996 88.5 26.5996 89.4C29.4996 90.8 30.5996 94.4 29.5996 97.5C28.5996 100.6 25.5996 102.6 22.2996 102.3C19.0996 102.1 16.4996 99.6 15.8996 96.3C15.3996 93.3 17.1996 90.1 20.0996 88.9C20.9996 88.5 21.1996 88.1 21.1996 87.2C21.0996 86 21.1996 84.7 21.1996 83.5C21.1996 82 21.4996 81.6 22.8996 81.2C25.5996 80.3 28.2996 79.4 30.8996 78.5C31.5996 78.3 31.7996 78 31.7996 77.3C31.6996 75.1 31.7996 73 31.7996 70.7C31.2996 70.7 30.7996 70.7 30.2996 70.7C26.3996 70.6 22.4996 70.8 18.6996 70.2C6.99959 68.2 -1.30041 56.8 0.19959 45.1C1.69959 33 11.6996 24.3 23.7996 24.7C24.6996 24.7 25.5996 24.9 26.5996 24.9ZM54.5996 67C65.0996 67 75.6996 67 86.1996 67C98.2996 67 107.2 56.9 105.7 44.9C104.4 34.2 93.6996 26.5 83.0996 28.6C79.7996 29.2 79.5996 29.1 79.2996 25.8C77.6996 10.6 62.9996 0.4 48.2996 4.3C39.0996 6.8 30.7996 15 29.9996 26.8C29.8996 28.6 29.0996 29.2 27.3996 28.8C24.9996 28.2 22.5996 28.1 20.1996 28.4C9.19959 29.8 1.49959 40.8 3.89959 51.6C5.89959 60.8 13.5996 67 22.9996 67C33.4996 67 44.0996 67 54.5996 67ZM22.9996 91.7C21.0996 91.7 19.3996 93.2 19.3996 95.1C19.2996 97.1 20.8996 98.7 22.8996 98.7C24.7996 98.7 26.3996 97.2 26.4996 95.2C26.4996 93.4 24.8996 91.8 22.9996 91.7ZM54.6996 91.7C52.7996 91.7 51.1996 93.3 51.1996 95.2C51.1996 97.2 52.7996 98.8 54.7996 98.7C56.6996 98.7 58.2996 97.1 58.1996 95.1C58.1996 93.3 56.5996 91.7 54.6996 91.7ZM89.9996 95.3C89.9996 93.4 88.3996 91.8 86.4996 91.8C84.5996 91.8 82.9996 93.3 82.8996 95.2C82.8996 97.2 84.4996 98.8 86.3996 98.8C88.3996 98.8 89.9996 97.2 89.9996 95.3Z" fill="#01C28D"/>
<path d="M74.0996 51.4C73.8996 51.7 73.6996 52.2 73.2996 52.6C71.6996 54.2 70.0996 55.8 68.4996 57.4C67.6996 58.2 66.8996 58.4 65.8996 57.8C65.1996 57.4 64.3996 57.1 63.6996 56.8C62.3996 56.2 61.3996 56.6 60.8996 57.9C60.5996 58.7 60.1996 59.5 59.8996 60.3C59.4996 61.2 58.8996 61.6 57.8996 61.6C55.6996 61.6 53.4996 61.6 51.2996 61.6C50.2996 61.6 49.6996 61.1 49.3996 60.3C49.0996 59.5 48.7996 58.7 48.4996 58C47.8996 56.5 46.9996 56.1 45.4996 56.8C44.9996 57 44.4996 57.3 43.9996 57.5C42.0996 58.4 41.8996 58.3 40.3996 56.9C38.9996 55.5 37.4996 54 36.0996 52.6C35.0996 51.6 34.9996 51.1 35.5996 49.8C35.8996 49.1 36.1996 48.5 36.4996 47.8C37.0996 46.4 36.6996 45.5 35.2996 44.9C34.4996 44.6 33.6996 44.2 32.8996 43.9C32.0996 43.6 31.5996 42.9 31.5996 42C31.5996 39.8 31.5996 37.5 31.5996 35.3C31.5996 34.4 31.9996 33.8 32.8996 33.4C33.6996 33.1 34.4996 32.7 35.2996 32.4C36.6996 31.8 37.0996 30.9 36.3996 29.5C35.9996 28.7 35.6996 28 35.2996 27.2C34.8996 26.4 34.9996 25.6 35.5996 25C37.2996 23.3 38.9996 21.6 40.6996 19.9C41.2996 19.3 42.0996 19.1 42.8996 19.5C43.6996 19.9 44.4996 20.3 45.2996 20.6C46.5996 21.2 47.5996 20.8 48.0996 19.5C48.3996 18.7 48.7996 17.9 49.0996 17C49.4996 16.1 50.0996 15.7 50.9996 15.7C53.1996 15.7 55.3996 15.7 57.5996 15.7C58.5996 15.7 59.1996 16.1 59.4996 17C59.7996 17.8 60.0996 18.6 60.4996 19.5C61.0996 20.9 61.9996 21.2 63.3996 20.6C64.1996 20.2 64.8996 19.9 65.6996 19.5C66.5996 19 67.3996 19.2 68.0996 19.9C69.7996 21.6 71.3996 23.2 73.0996 24.9C73.7996 25.6 73.8996 26.3 73.4996 27.2C73.0996 28 72.7996 28.7 72.3996 29.5C71.6996 30.9 72.0996 31.8 73.5996 32.4C74.3996 32.7 75.1996 33.1 75.9996 33.4C76.7996 33.7 77.2996 34.4 77.2996 35.3C77.2996 37.5 77.2996 39.8 77.2996 42C77.2996 42.9 76.8996 43.5 75.9996 43.9C75.1996 44.2 74.3996 44.6 73.5996 44.9C72.0996 45.5 71.7996 46.4 72.4996 47.8C72.8996 48.7 73.3996 49.7 73.7996 50.6C74.0996 50.9 74.0996 51 74.0996 51.4ZM52.3996 19.4C51.8996 20.6 51.5996 22 50.7996 22.8C49.9996 23.7 48.6996 24 47.5996 24.6H47.4996C46.7996 24.6 46.0996 24.7 45.4996 24.5C44.4996 24.2 43.4996 23.2 42.6996 23.4C41.7996 23.6 41.0996 24.7 40.3996 25.5C39.1996 26.7 39.1996 26.7 39.8996 28.3C40.2996 29.1 40.8996 30.1 40.6996 30.8C40.0996 32.9 39.5996 35.2 36.7996 35.7C35.4996 35.9 35.0996 36.6 35.2996 37.9C35.3996 38.9 34.9996 40.1 35.4996 40.8C35.8996 41.5 37.1996 41.7 38.0996 42.1C39.2996 42.6 41.0996 45.9 40.7996 47.1C40.7996 47.3 40.6996 47.4 40.5996 47.6C40.1996 48.6 39.2996 49.8 39.4996 50.7C39.6996 51.6 40.9996 52.3 41.7996 53.2C41.8996 53.3 42.0996 53.4 42.1996 53.6C42.5996 54.1 42.9996 54.2 43.4996 53.8C45.4996 52.4 47.4996 52.3 49.5996 53.6C49.6996 53.6 49.7996 53.6 49.7996 53.7C50.2996 54.2 50.8996 54.6 51.1996 55.1C51.6996 56 51.9996 57 52.3996 58C53.7996 58 55.0996 58.1 56.2996 58C56.6996 58 57.1996 57.6 57.2996 57.3C57.8996 55 59.1996 53.4 61.5996 52.9C61.6996 52.9 61.6996 52.8 61.7996 52.8C62.4996 52.8 63.1996 52.6 63.7996 52.8C64.7996 53.1 65.7996 54.1 66.6996 53.9C67.5996 53.7 68.1996 52.4 69.0996 51.7C70.0996 50.9 70.1996 50.2 69.4996 49.1C68.9996 48.3 68.3996 47.2 68.5996 46.5C69.1996 44.5 69.5996 42.3 72.1996 41.6C73.9996 41.1 73.9996 40.9 73.9996 39C73.9996 36.2 73.9996 36.2 71.3996 35.2C70.3996 34.8 69.7996 34.3 69.4996 33.2C69.3996 32.8 69.2996 32.4 68.9996 32.1C68.1996 30.9 68.3996 29.8 68.9996 28.6C69.9996 26.6 69.9996 26.6 68.3996 25C66.4996 23.1 66.4996 23.1 63.8996 24.2C63.2996 24.5 62.4996 24.6 61.8996 24.4C58.4996 23.2 58.4996 23.2 57.0996 19.9C57.0996 19.8 56.9996 19.7 56.9996 19.6C56.6996 19.4 56.4996 19.1 56.1996 19.1C55.0996 19.4 53.7996 19.4 52.3996 19.4Z" fill="#01C28D"/>
<path d="M54.6998 51.1C47.7998 51.1 42.2998 45.5 42.2998 38.7C42.2998 32 47.8998 26.4 54.5998 26.4C61.4998 26.4 66.9998 32 66.9998 38.9C66.9998 45.6 61.3998 51.2 54.6998 51.1ZM54.6998 30C49.7998 30 45.8998 34 45.8998 38.8C45.8998 43.6 49.8998 47.6 54.6998 47.6C59.5998 47.6 63.5998 43.6 63.5998 38.7C63.4998 33.9 59.4998 30 54.6998 30Z" fill="#01C28D"/>
</g>
<defs>
<clipPath id="clip0_2028_758">
<rect width="109.4" height="102.3" fill="white"/>
</clipPath>
</defs>
</svg>
