<svg width="113" height="111" viewBox="0 0 113 111" fill="none" xmlns="http://www.w3.org/2000/svg">
<g clip-path="url(#clip0_2028_776)">
<path d="M0.000390626 72.3C0.800391 71.1 1.90039 70.7 3.40039 70.7C7.40039 70.8 11.3004 70.7 15.3004 70.7C17.5004 70.7 18.1004 71 18.8004 73.2C21.1004 72.8 23.4004 72.4 25.7004 72.1C25.8004 72 25.8004 71.9 25.9004 71.8C24.8004 70.8 23.7004 69.8 22.6004 68.7C13.5004 59.4 11.2004 44.7 17.0004 33.1C17.3004 32.6 17.7004 32 18.2004 31.9C18.7004 31.8 19.6004 32 19.8004 32.4C20.1004 32.9 20.1004 33.8 19.9004 34.4C19.1004 37 17.9004 39.5 17.5004 42.1C16.0004 51.2 18.2004 59.3 24.5004 66.1C26.0004 67.7 27.6004 69.2 29.1004 70.8C29.5004 71.2 29.9004 71.4 30.5004 71.3C35.7004 70.4 40.9004 69.6 46.1004 68.7C49.8004 68.1 53.4004 68.8 57.0004 69.5C58.8004 69.9 60.7004 70.1 62.5004 70.6C65.9004 71.4 68.6004 73.3 69.6004 76.8C70.7004 80.6 68.3004 84.4 64.1004 85.1C62.1004 85.4 60.0004 85.2 58.0004 85C55.4004 84.8 52.8004 84.4 50.2004 84C48.8004 83.8 47.9004 84.5 47.6004 85.8C47.4004 87 48.1004 88.1 49.5004 88.3C54.7004 89.2 60.0004 90.4 65.2004 91C67.6004 91.3 70.0004 90.5 72.5004 90.1C72.8004 90.1 73.0004 89.7 73.3004 89.5C81.2004 81.7 89.0004 74 96.4004 66C104 57.8 105.6 48.2 102.4 37.6C102.3 37.4 102.3 37.3 102.1 37C96.4004 39.7 90.6004 39.9 84.9004 37.2C79.2004 34.5 75.7004 29.9 74.1004 23.7C70.8004 25 68.0004 26.8 65.5004 29.1C64.5004 30 63.5004 31.1 62.5004 32C61.1004 33.3 60.1004 33.3 58.6004 32C57.6004 31.1 56.7004 30.1 55.6004 29.2C51.0004 25 45.5004 22.4 39.2004 22.1C33.7004 21.9 28.9004 23.6 25.0004 27.4C24.9004 27.5 24.7004 27.7 24.6004 27.8C23.7004 28.7 22.7004 28.8 22.0004 28C21.3004 27.3 21.4004 26.3 22.3004 25.4C24.4004 23.2 26.9004 21.5 29.7004 20.4C37.4004 17.4 44.8004 18.6 51.9004 22.4C55.2004 24.2 57.9004 26.6 60.5004 29.3C61.4004 28.5 62.2004 27.7 63.1004 26.9C65.9004 24.2 69.2004 22.2 72.8004 20.8C73.5004 20.5 73.7004 20.2 73.7004 19.5C73.7004 16.7 74.3004 14 75.5004 11.4C76.1004 10.1 76.9004 9.69999 77.9004 10.2C78.9004 10.7 79.1004 11.6 78.5004 12.8C74.2004 22.6 79.7004 33.4 90.1004 35.6C98.7004 37.4 107.3 31.8 109.3 23C111.2 14.5 105.7 5.69999 97.1004 3.79999C92.2004 2.69999 87.7004 3.69999 83.6004 6.59999C83.1004 6.99999 82.3004 7.19999 81.6004 7.09999C81.2004 7.09999 80.6004 6.29999 80.6004 5.89999C80.6004 5.29999 80.9004 4.59999 81.3004 4.19999C83.9004 1.99999 87.0004 0.699994 90.3004 0.199994C101.4 -1.30001 110.9 5.79999 112.7 16.9C112.7 17.1 112.8 17.4 112.9 17.6C112.9 18.9 112.9 20.2 112.9 21.6C112.8 21.8 112.7 22.1 112.7 22.3C112 27.2 109.8 31.2 106.1 34.4C105.3 35.1 105.2 35.5 105.5 36.5C109.3 48.7 107.1 59.6 98.3004 68.9C92.1004 75.3 85.9004 81.6 79.6004 88C79.4004 88.2 79.2004 88.5 78.8004 88.9C81.6004 88.4 84.1004 87.8 86.7004 87.4C88.9004 87 91.2004 86.4 93.4004 86.3C96.6004 86.2 99.1004 87.9 99.9004 90.4C100.8 93 99.9004 96 97.4004 97.9C96.2004 98.8 94.8004 99.5 93.4004 99.9C83.5004 103.1 73.6004 106.2 63.8004 109.4C58.8004 111 53.8004 111.5 48.6004 110.1C39.7004 107.6 30.8004 105.2 21.8004 102.8C20.7004 102.5 19.6004 102.2 18.6004 102C18.1004 103.9 17.3004 104.5 15.5004 104.5C11.3004 104.5 7.20039 104.5 3.00039 104.5C1.60039 104.5 0.500391 104.1 -0.0996094 102.7C0.000390626 92.6 0.000390626 82.4 0.000390626 72.3ZM18.6004 87.6C18.6004 90.9 18.6004 94.2 18.6004 97.5C18.6004 98.3 18.9004 98.6 19.6004 98.8C29.3004 101.4 39.0004 104 48.7004 106.7C53.2004 108 57.5004 108 61.9004 106.6C67.9004 104.6 74.0004 102.7 80.0004 100.8C84.4004 99.4 88.8004 98 93.2004 96.6C94.9004 96 96.3004 95.1 96.8004 93.2C97.2004 91.7 96.6004 90.4 95.2004 90C94.2004 89.7 93.1004 89.5 92.2004 89.7C85.6004 90.9 79.0004 92.3 72.3004 93.6C70.0004 94 67.5004 94.6 65.2004 94.4C59.7004 93.7 54.2004 92.6 48.7004 91.6C45.8004 91 44.1004 88.2 44.6004 85.3C45.2004 82.3 47.6004 80.5 50.7004 80.9C53.3004 81.2 55.9004 81.6 58.5004 81.9C60.3004 82.1 62.2004 82.3 64.0004 81.9C66.9004 81.3 67.7004 78.4 65.8004 76.2C64.7004 74.9 63.1004 74.2 61.4004 73.9C59.9004 73.6 58.4004 73.4 57.0004 73.1C53.0004 72.3 49.0004 71.8 44.9004 72.5C36.4004 73.6 28.0004 75 19.6004 76.4C18.8004 76.5 18.6004 76.8 18.6004 77.5C18.6004 80.9 18.6004 84.2 18.6004 87.6ZM3.40039 74.1C3.40039 83.2 3.40039 92.1 3.40039 101.1C7.40039 101.1 11.3004 101.1 15.3004 101.1C15.3004 92.1 15.3004 83.1 15.3004 74.1C11.3004 74.1 7.40039 74.1 3.40039 74.1Z" fill="#01C28D"/>
<path d="M60.8008 46.7C58.8008 50.3 56.8008 53.7 54.8008 57.1C53.7008 59.1 52.4008 59.1 51.2008 57.2C50.0008 55.4 48.9008 53.5 47.6008 51.5C46.7008 53 45.8008 54.4 45.0008 55.8C44.4008 56.8 43.7008 57.2 42.5008 57.2C39.5008 57.1 36.4008 57.2 33.4008 57.2C32.0008 57.2 31.3008 56.6 31.3008 55.5C31.3008 54.4 32.0008 53.9 33.4008 53.9C35.9008 53.9 38.5008 53.8 41.0008 53.9C42.0008 53.9 42.5008 53.6 43.0008 52.7C43.9008 51 44.9008 49.4 45.9008 47.8C46.9008 46.2 48.2008 46.1 49.2008 47.7C50.4008 49.6 51.6008 51.5 52.8008 53.5C53.1008 53.1 53.3008 52.8 53.4008 52.5C55.2008 49.3 57.0008 46.1 58.9008 42.9C59.3008 42.2 59.7008 41.4 60.8008 41.4C61.8008 41.4 62.2008 42.1 62.6008 42.9C65.1008 47.5 67.6008 52 70.1008 56.6C70.3008 57 70.5008 57.4 70.8008 57.9C72.2008 55.6 73.5008 53.5 74.7008 51.3C75.3008 50.3 76.0008 49.9 77.2008 49.9C81.5008 50 85.7008 49.9 90.0008 49.9C91.4008 49.9 92.1008 50.7 91.9008 51.8C91.7008 52.9 90.9008 53.2 89.9008 53.2C86.1008 53.2 82.3008 53.2 78.4008 53.2C77.6008 53.2 77.2008 53.4 76.8008 54.1C75.4008 56.5 74.0008 58.8 72.6008 61.2C72.1008 62 71.8008 63 70.6008 62.9C69.4008 62.9 69.1008 61.9 68.6008 61C66.2008 56.6 63.7008 52.1 61.3008 47.7C61.3008 47.5 61.1008 47.2 60.8008 46.7Z" fill="#01C28D"/>
<path d="M91.7002 17.9C91.7002 16.3 91.7002 14.9 91.7002 13.5C91.7002 12.1 92.2002 11.4 93.3002 11.4C94.4002 11.4 95.0002 12.1 95.0002 13.5C95.0002 14.9 95.0002 16.3 95.0002 17.9C96.5002 17.9 97.8002 17.9 99.2002 17.9C99.6002 17.9 100.1 17.9 100.5 18.1C101.3 18.4 101.6 19 101.5 19.8C101.4 20.6 100.9 21.1 100 21.2C98.8002 21.3 97.7002 21.2 96.5002 21.2C96.1002 21.2 95.6002 21.2 95.0002 21.2C95.0002 22.4 95.0002 23.5 95.0002 24.7C95.0002 25.2 95.0002 25.8 94.9002 26.3C94.8002 27.2 94.2002 27.8 93.2002 27.7C92.3002 27.7 91.7002 27.1 91.7002 26.2C91.6002 25 91.7002 23.9 91.7002 22.7C91.7002 21.2 91.7002 21.2 90.3002 21.2C89.2002 21.2 88.1002 21.2 87.0002 21.2C85.9002 21.2 85.2002 20.5 85.2002 19.6C85.2002 18.6 85.9002 18 87.0002 17.9C88.5002 17.9 90.0002 17.9 91.7002 17.9Z" fill="#01C28D"/>
</g>
<defs>
<clipPath id="clip0_2028_776">
<rect width="112.9" height="111" fill="white"/>
</clipPath>
</defs>
</svg>
