<svg width="85" height="101" viewBox="0 0 85 101" fill="none" xmlns="http://www.w3.org/2000/svg">
<g clip-path="url(#clip0_2028_752)">
<path d="M50.4002 81.7C48.2002 82.1 46.2002 82.5 44.0002 83C44.0002 83.1 43.9002 83.4 43.9002 83.6C43.9002 84.7 44.0002 85.8 43.9002 87C43.8002 88.5 44.0002 89.5 45.6002 90.3C47.9002 91.5 48.6002 94.4 47.7002 96.8C46.8002 99.3 44.4002 100.8 41.9002 100.6C39.4002 100.4 37.3002 98.5 36.8002 96C36.3002 93.5 37.5002 90.9 39.9002 89.9C40.7002 89.6 40.9002 89.2 40.9002 88.4C40.8002 86.7 40.9002 85 40.9002 83.3C40.9002 83.2 40.9002 83.2 40.9002 83.2C38.8002 82.8 36.7002 82.4 34.5002 81.9C34.5002 82 34.4002 82.1 34.5002 82.3C34.8002 84.3 34.1002 85.9 32.8002 87.4C31.9002 88.4 31.3002 89.6 30.5002 90.7C30.1002 91.2 30.1002 91.5 30.4002 92.1C31.6002 94.2 31.6002 96.3 30.2002 98.3C28.8002 100.2 26.9002 101 24.6002 100.6C22.2002 100.2 20.6002 98.7 20.0002 96.2C19.1002 92.4 22.5002 88.7 26.4002 89.4C27.2002 89.5 27.7002 89.4 28.1002 88.7C28.6002 87.8 29.2002 86.9 29.9002 86.2C31.3002 84.7 31.7002 83 31.4002 81C31.4002 80.7 31.1002 80.2 30.8002 80C29.4002 79 28.0002 78.1 26.6002 77.1C26.2002 76.8 25.7002 76.7 25.0002 76.5C25.0002 78.7 24.9002 80.6 25.0002 82.5C25.1002 84.3 24.5002 85.3 22.9002 86.1C20.6002 87.2 18.5002 88.6 16.3002 89.8C15.9002 90 15.6002 90.2 15.7002 90.8C16.0002 93.5 14.4002 96 11.8002 96.9C9.3002 97.7 6.5002 96.7 5.1002 94.4C3.7002 92.1 4.1002 89.2 6.1002 87.4C8.0002 85.6 11.0002 85.3 13.2002 86.8C13.9002 87.3 14.4002 87.3 15.1002 86.9C17.0002 85.7 19.0002 84.7 21.0002 83.6C21.6002 83.3 21.8002 83 21.8002 82.3C21.8002 80.5 21.8002 78.8 21.8002 76.9C21.3002 76.9 20.9002 76.9 20.6002 76.9C14.6002 76.9 8.6002 76.9 2.6002 76.9C0.800195 76.9 0.400195 76.4 0.400195 74.7C0.400195 73.3 0.400195 71.9 0.400195 70.6C0.400195 69.2 0.900195 68.7 2.4002 68.7C3.3002 68.7 4.2002 68.7 5.2002 68.7C5.2002 67.8 5.2002 67 5.2002 66.2C5.2002 64.6 5.7002 64.1 7.3002 64.1C8.3002 64.1 9.4002 64.1 10.5002 64.1C10.5002 51.5 10.5002 39 10.5002 26.3C9.7002 26.3 8.9002 26.3 8.0002 26.3C5.0002 26 4.8002 25.7 4.8002 23C4.8002 22.5 4.8002 22 4.8002 21.4C3.8002 21.4 2.9002 21.4 1.9002 21.4C1.0002 21.4 0.300195 21.1 0.00019531 20.2C-0.199805 19.3 0.200195 18.7 1.2002 18.2C14.5002 12.2 27.8002 6.2 41.1002 0.199998C41.9002 -0.200002 42.6002 -0.100002 43.3002 0.199998C56.5002 6.2 69.8002 12.1 83.0002 18.1C83.2002 18.2 83.4002 18.3 83.5002 18.4C84.2002 18.8 84.5002 19.4 84.3002 20.2C84.1002 21 83.6002 21.4 82.8002 21.4C81.8002 21.4 80.8002 21.4 79.6002 21.4C79.6002 22.3 79.6002 23.1 79.6002 24C79.6002 25.5 79.0002 26 77.6002 26C76.6002 26 75.6002 26 74.5002 26C74.4002 26 74.4002 26 74.2002 26.1C74.2002 38.6 74.2002 51.1 74.2002 63.8C75.0002 63.8 75.8002 63.8 76.6002 63.8C79.4002 63.8 79.6002 64 79.6002 66.8C79.6002 67.3 79.6002 67.8 79.6002 68.4C80.6002 68.4 81.5002 68.4 82.3002 68.4C83.9002 68.4 84.3002 68.9 84.3002 70.5C84.3002 71.9 84.3002 73.3 84.3002 74.6C84.3002 76.1 83.8002 76.7 82.2002 76.7C76.2002 76.7 70.2002 76.7 64.2002 76.7C63.8002 76.7 63.4002 76.7 62.9002 76.7C62.9002 78.7 62.9002 80.7 62.9002 82.7C62.9002 82.9 63.2002 83.2 63.4002 83.3C65.6002 84.6 67.8002 85.8 70.0002 87C70.6002 87.4 70.9002 87 71.3002 86.7C74.1002 84.8 77.8002 85.6 79.5002 88.5C81.2002 91.4 80.0002 95.1 77.0002 96.5C75.0002 97.4 73.1002 97.2 71.3002 96C69.5002 94.7 68.7002 93 69.0002 90.8C69.1002 90.2 68.8002 89.9 68.4002 89.7C66.1002 88.4 63.8002 87.1 61.5002 85.9C60.2002 85.2 59.6002 84.4 59.7002 82.9C59.8002 80.9 59.7002 78.9 59.7002 76.6C59.1002 76.8 58.6002 76.9 58.2002 77.2C57.0002 78 55.6002 79 54.2002 79.9C53.7002 80.2 53.6002 80.5 53.5002 81.1C53.3002 83 53.7002 84.7 55.1002 86.2C55.8002 87 56.4002 87.9 56.9002 88.8C57.3002 89.4 57.7002 89.5 58.3002 89.4C60.6002 89 62.8002 90 64.1002 91.9C65.3002 93.8 65.3002 96.3 64.0002 98.2C62.2002 100.7 58.8002 101.4 56.3002 99.8C53.7002 98.1 52.9002 94.8 54.4002 92.2C54.8002 91.5 54.7002 91.1 54.3002 90.6C53.3002 89.2 52.4002 87.8 51.3002 86.4C50.6002 85.5 50.2002 84.5 50.3002 83.3C50.4002 82.6 50.4002 82.2 50.4002 81.7ZM9.1002 18.2C31.3002 18.2 53.2002 18.2 75.3002 18.2C75.0002 18 75.0002 17.9 74.9002 17.9C64.3002 13.1 53.6002 8.3 42.9002 3.5C42.5002 3.3 41.9002 3.4 41.5002 3.6C33.1002 7.3 24.8002 11.1 16.5002 14.9C14.1002 15.9 11.7002 17 9.1002 18.2ZM42.3002 79.7C54.5002 79.7 64.4002 69.8 64.4002 57.6C64.4002 45.4 54.5002 35.5 42.3002 35.5C30.1002 35.5 20.2002 45.4 20.2002 57.6C20.2002 69.8 30.1002 79.7 42.3002 79.7ZM13.5002 26C13.5002 38.6 13.5002 51.1 13.5002 63.6C14.9002 63.6 16.3002 63.6 17.7002 63.6C17.7002 63.3 17.7002 63.1 17.6002 62.9C16.5002 57.8 17.0002 52.8 18.9002 47.9C19.1002 47.5 19.1002 47 19.1002 46.6C19.1002 40.1 19.1002 33.5 19.1002 27C19.1002 26.7 19.1002 26.3 19.1002 25.9C17.2002 26 15.4002 26 13.5002 26ZM65.4002 26C65.4002 26.3 65.4002 26.5 65.4002 26.7C65.4002 33.5 65.4002 40.2 65.4002 47C65.4002 47.4 65.5002 47.8 65.7002 48.2C67.2002 52.1 67.9002 56 67.4002 60.2C67.3002 61.4 67.1002 62.5 66.9002 63.7C68.3002 63.7 69.7002 63.7 71.1002 63.7C71.1002 51.1 71.1002 38.6 71.1002 26C69.2002 26 67.4002 26 65.4002 26ZM76.6002 21.5C53.7002 21.5 30.9002 21.5 8.1002 21.5C8.1002 22 8.1002 22.3 8.1002 22.7C31.0002 22.7 53.8002 22.7 76.6002 22.7C76.6002 22.3 76.6002 21.9 76.6002 21.5ZM22.4002 26C22.4002 31.3 22.4002 36.6 22.4002 41.8C24.0002 40.3 25.7002 38.8 27.3002 37.3C27.5002 37.1 27.6002 36.6 27.6002 36.2C27.6002 33.3 27.6002 30.4 27.6002 27.4C27.6002 26.9 27.6002 26.4 27.6002 25.9C25.8002 26 24.1002 26 22.4002 26ZM57.0002 26C57.0002 26.2 56.9002 26.3 56.9002 26.4C56.9002 29.8 56.9002 33.2 56.9002 36.5C56.9002 36.8 57.2002 37.3 57.5002 37.5C58.7002 38.7 59.9002 39.8 61.2002 40.9C61.5002 41.2 61.8002 41.5 62.2002 42C62.2002 36.5 62.2002 31.2 62.2002 25.9C60.4002 26 58.8002 26 57.0002 26ZM30.8002 35C32.6002 34.4 34.4002 33.8 36.1002 33.2C36.3002 33.1 36.5002 32.7 36.5002 32.4C36.5002 31 36.5002 29.6 36.5002 28.3C36.5002 27.6 36.5002 26.8 36.5002 26.1C34.5002 26.1 32.7002 26.1 30.8002 26.1C30.8002 29.1 30.8002 32 30.8002 35ZM48.1002 26C48.1002 28.4 48.1002 30.7 48.1002 32.9C50.0002 33.6 51.8002 34.3 53.7002 34.9C53.7002 31.9 53.7002 28.9 53.7002 25.9C51.8002 26 50.0002 26 48.1002 26ZM3.2002 73.4C9.7002 73.4 16.0002 73.4 22.4002 73.4C21.8002 72.1 21.1002 71.4 19.5002 71.4C14.4002 71.5 9.4002 71.4 4.3002 71.4C3.9002 71.4 3.6002 71.4 3.2002 71.4C3.2002 72.2 3.2002 72.8 3.2002 73.4ZM81.3002 71.5C80.8002 71.5 80.4002 71.5 80.0002 71.5C74.9002 71.5 69.9002 71.5 64.8002 71.5C63.2002 71.5 62.8002 71.8 62.1002 73.4C68.5002 73.4 74.8002 73.4 81.2002 73.4C81.3002 72.8 81.3002 72.2 81.3002 71.5ZM44.9002 32.4C44.9002 30.2 44.9002 28.1 44.9002 26C43.2002 26 41.5002 26 39.7002 26C39.7002 28.2 39.7002 30.3 39.7002 32.4C41.4002 32.4 43.1002 32.4 44.9002 32.4ZM42.3002 97.4C43.7002 97.4 44.8002 96.2 44.8002 94.9C44.8002 93.5 43.6002 92.3 42.2002 92.4C40.8002 92.4 39.7002 93.6 39.7002 94.9C39.7002 96.2 40.9002 97.4 42.3002 97.4ZM9.7002 93.8C11.1002 93.8 12.2002 92.7 12.2002 91.3C12.2002 89.9 11.0002 88.7 9.6002 88.7C8.2002 88.7 7.1002 89.8 7.1002 91.2C7.1002 92.7 8.3002 93.8 9.7002 93.8ZM77.4002 91.3C77.4002 89.9 76.3002 88.8 74.9002 88.8C73.5002 88.8 72.3002 89.9 72.3002 91.3C72.3002 92.7 73.4002 93.8 74.8002 93.8C76.2002 93.9 77.4002 92.7 77.4002 91.3ZM27.8002 94.8C27.8002 93.4 26.6002 92.3 25.3002 92.3C23.9002 92.3 22.8002 93.5 22.8002 94.9C22.8002 96.3 23.9002 97.4 25.3002 97.4C26.6002 97.4 27.8002 96.2 27.8002 94.8ZM59.2002 97.4C60.6002 97.4 61.7002 96.3 61.8002 95C61.8002 93.6 60.7002 92.4 59.3002 92.4C57.9002 92.4 56.7002 93.5 56.7002 94.9C56.8002 96.2 57.9002 97.3 59.2002 97.4ZM8.0002 68.3C11.8002 68.3 15.5002 68.3 19.3002 68.3C19.2002 67.3 18.8002 66.8 17.7002 66.9C15.6002 67 13.4002 66.9 11.3002 66.9C10.2002 66.9 9.1002 66.9 8.0002 66.9C8.0002 67.4 8.0002 67.8 8.0002 68.3ZM65.3002 68.3C69.1002 68.3 72.8002 68.3 76.5002 68.3C76.5002 67.8 76.5002 67.4 76.5002 66.9C76.1002 66.9 75.7002 66.9 75.4002 66.9C72.5002 66.9 69.7002 67 66.8002 66.9C65.8002 66.8 65.4002 67.3 65.3002 68.3Z" fill="#01C28D"/>
<path d="M61.1004 57.6C61.1004 68 52.7004 76.4 42.3004 76.4C31.9004 76.4 23.4004 67.9 23.4004 57.5C23.4004 47.1 31.9004 38.7 42.2004 38.7C52.6004 38.8 61.1004 47.2 61.1004 57.6ZM57.9004 57.7C58.0004 49.1 51.0004 42 42.4004 42C33.7004 41.9 26.6004 48.9 26.6004 57.6C26.6004 66.2 33.5004 73.3 42.1004 73.3C50.8004 73.4 57.9004 66.4 57.9004 57.7Z" fill="#01C28D"/>
<path d="M40.6005 48.8C40.8005 46.8 41.2005 46.3 42.3005 46.3C43.3005 46.3 43.8006 46.9 43.9006 48.4C45.0006 49.2 46.1006 49.7 47.0006 50.5C47.9006 51.3 47.8005 52.3 47.1005 52.9C46.4005 53.6 45.5006 53.5 44.7006 52.6C43.8006 51.7 42.0006 51.4 40.9006 52C40.1006 52.5 39.7005 53.2 39.8005 54.1C39.9005 55 40.5006 55.7 41.4006 55.8C41.8006 55.9 42.2006 55.9 42.7006 55.9C45.5006 56 47.5006 57.8 47.9006 60.5C48.3006 62.9 46.8006 65.3 44.2006 66.2C44.1006 66.2 44.0006 66.3 43.9006 66.3C43.5006 68.4 43.2005 68.9 42.1005 68.8C41.1005 68.8 40.8005 68.2 40.6005 66.7C39.4005 65.9 38.4006 65.3 37.5006 64.5C36.6006 63.7 36.7006 62.7 37.4006 62.1C38.1006 61.5 38.9006 61.6 39.7006 62.4C40.6006 63.3 42.5006 63.6 43.5006 63C44.3006 62.5 44.7005 61.8 44.6005 60.9C44.5005 60 43.8006 59.2 42.9006 59.1C42.4006 59 41.9006 59 41.4006 59C38.8006 58.8 36.8006 57 36.4006 54.4C36.1006 52.1 37.5006 49.7 39.9006 48.8C40.2006 48.9 40.4005 48.8 40.6005 48.8Z" fill="#01C28D"/>
</g>
<defs>
<clipPath id="clip0_2028_752">
<rect width="84.5" height="100.5" fill="white"/>
</clipPath>
</defs>
</svg>
