<svg width="100" height="93" viewBox="0 0 100 93" fill="none" xmlns="http://www.w3.org/2000/svg">
<path d="M34.2076 65.5337C34.9783 68.4249 35.749 71.2197 36.5197 74.1109C37.0014 74.1109 37.3868 74.1109 37.8685 74.1109C57.5217 74.1109 77.1748 74.1109 96.828 74.1109C97.2134 74.1109 97.5987 74.1109 98.0804 74.1109C99.1402 74.3036 99.8145 74.9782 99.8145 76.0383C99.8145 77.0984 99.1402 77.9658 98.0804 78.0622C96.9244 78.1585 95.8646 78.0622 94.7086 78.1585C94.4195 78.1585 94.1305 78.1585 93.6488 78.2549C95.2866 80.9534 95.6719 83.7482 94.7086 86.7358C94.0342 88.7596 92.7818 90.3016 91.0477 91.458C87.6758 93.771 83.2442 93.6746 79.9687 91.1689C77.9455 89.6269 76.6931 87.6995 76.3078 85.1938C75.8261 82.6881 76.4041 80.4715 77.6565 78.2549C70.1421 78.2549 62.724 78.2549 55.2095 78.2549C56.8473 80.9534 57.329 83.8446 56.2692 86.7358C55.4985 88.7596 54.2461 90.3016 52.512 91.5544C49.0438 93.8674 44.5159 93.6746 41.2403 90.9762C37.4831 87.8922 36.8087 83.8446 39.1209 78.1585C37.9648 78.1585 36.8087 78.1585 35.6527 78.1585C33.8222 78.1585 33.3405 77.6767 32.8588 76.0383C26.4041 52.5233 20.0457 28.9119 13.591 5.39689C13.4947 5.0114 13.3983 4.72228 13.302 4.33679C9.83379 4.33679 6.36558 4.33679 2.89737 4.33679C0.874254 4.33679 0.00720153 3.75855 0.00720153 2.31295C-0.0891376 0.674611 0.777915 0 2.80104 0C6.55826 0 10.2191 0 13.9764 0C15.9032 0 16.3849 0.385492 16.8665 2.21658C19.0823 10.4083 21.2981 18.5036 23.5139 26.6953C23.6103 26.9845 23.7066 27.3699 23.803 27.6591C26.4041 27.6591 28.9089 27.6591 31.3174 27.6591C31.7991 25.5389 32.0881 23.3223 32.6662 21.2984C36.6161 7.99896 49.6219 -0.481865 63.302 1.25285C76.1151 2.79482 86.327 12.8176 88.2538 25.6352C88.5428 27.7554 88.5428 27.7554 90.6623 27.7554C92.9744 27.7554 95.2866 27.7554 97.5987 27.7554C99.5255 27.7554 100.296 28.9119 99.6218 30.743C95.1902 41.8259 90.7586 53.0052 86.327 64.0881C85.8454 65.1482 84.9783 65.5337 83.9186 65.5337C76.0188 65.5337 68.2153 65.5337 60.3155 65.5337C52.0303 65.5337 43.7452 65.5337 35.5563 65.5337C35.171 65.5337 34.7856 65.5337 34.2076 65.5337ZM32.9552 61.3896C33.2442 61.3896 33.5332 61.3896 33.7259 61.3896C49.7182 61.3896 65.7105 61.3896 81.7028 61.3896C82.3771 61.3896 82.6662 61.1005 82.9552 60.5223C86.7124 51.1741 90.3733 41.8259 94.1305 32.4777C94.2269 32.1886 94.3232 31.8995 94.4195 31.7067C94.2269 31.7067 94.1305 31.6104 94.1305 31.6104C92.9745 31.6104 91.722 31.6104 90.566 31.6104C88.3502 31.6104 88.3502 31.6104 88.0612 33.8269C86.2307 46.8373 75.5371 57.0529 62.5313 58.2093C49.1402 59.3658 36.327 50.5959 32.6662 37.5855C32.0881 35.658 31.7991 33.6342 31.4138 31.6104C29.2943 31.6104 27.1748 31.6104 24.959 31.6104C27.5602 41.6332 30.2577 51.4632 32.9552 61.3896ZM85.171 78.2549C82.2808 78.2549 79.776 80.6643 79.776 83.6518C79.776 86.543 82.2808 89.1451 85.171 89.0487C88.1575 89.0487 90.566 86.6394 90.566 83.6518C90.6623 80.7606 88.1575 78.2549 85.171 78.2549ZM52.3193 83.6518C52.3193 80.7606 49.9109 78.2549 46.9243 78.2549C43.9378 78.2549 41.433 80.7606 41.5294 83.6518C41.5294 86.543 44.0342 89.0487 46.9243 89.0487C49.8145 89.0487 52.3193 86.543 52.3193 83.6518ZM62.1459 53.2943C65.2288 52.3306 69.564 45.6808 69.6604 42.115C67.1556 42.115 64.6507 42.115 62.1459 42.115C62.1459 45.8736 62.1459 49.5358 62.1459 53.2943ZM62.3386 5.68601C62.2423 5.87876 62.1459 5.97513 62.1459 5.97513C62.1459 9.44456 62.1459 12.914 62.1459 16.4798C62.1459 17.058 62.435 17.1544 62.9166 17.1544C64.7471 17.1544 66.5775 17.1544 68.408 17.1544C68.8897 17.1544 69.275 17.1544 69.9494 17.1544C68.3116 12.4321 66.7702 8.19171 62.3386 5.68601ZM50.1999 42.115C51.7413 46.6446 53.2827 50.9813 57.907 53.5834C57.907 49.6321 57.907 45.9699 57.907 42.115C55.4022 42.115 52.8974 42.115 50.1999 42.115ZM57.907 5.78238C54.7278 6.84249 50.5852 13.2031 50.3926 17.058C52.8974 17.058 55.4022 17.058 57.907 17.058C57.907 13.2031 57.907 9.54093 57.907 5.78238ZM71.2981 27.4663C71.2018 25.9244 71.1055 24.4788 70.9128 23.1295C70.8164 21.2021 70.7201 21.2021 68.8897 21.2021C66.5775 21.2021 64.2654 21.2021 61.9533 21.2021C61.9533 23.3223 61.9533 25.3461 61.9533 27.3699C65.0361 27.4663 68.119 27.4663 71.2981 27.4663ZM48.4658 31.7067C48.6585 33.8269 48.8511 35.8508 49.0438 37.8746C52.1267 37.8746 55.0168 37.8746 57.8107 37.8746C57.8107 35.7544 57.8107 33.7306 57.8107 31.7067C54.8242 31.7067 51.7413 31.7067 48.4658 31.7067ZM71.4908 31.7067C68.3116 31.7067 65.3251 31.7067 62.3386 31.7067C62.3386 33.8269 62.3386 35.7544 62.3386 37.8746C65.2288 37.8746 67.9263 37.8746 70.8165 37.8746C71.1055 35.7544 71.2982 33.7306 71.4908 31.7067ZM57.7143 21.2984C54.8242 21.2984 52.0303 21.2984 49.1401 21.2984C48.9475 23.3223 48.7548 25.3461 48.4658 27.4663C51.645 27.4663 54.6315 27.4663 57.618 27.4663C57.7143 25.3461 57.7143 23.3223 57.7143 21.2984ZM44.4195 27.3699C44.6122 25.2497 44.8049 23.3223 44.9976 21.2021C42.4927 21.2021 40.0843 21.2021 37.5795 21.2021C37.3868 21.2021 37.0978 21.3948 37.0014 21.5876C36.5197 23.4187 36.038 25.3461 35.5563 27.3699C38.6392 27.3699 41.433 27.3699 44.4195 27.3699ZM74.8627 37.8746C77.3675 37.8746 79.8723 37.8746 82.2808 37.8746C82.4735 37.8746 82.7625 37.6819 82.7625 37.4891C83.2442 35.5617 83.7259 33.7306 84.3039 31.7067C81.1247 31.7067 78.3309 31.7067 75.4407 31.7067C75.3444 33.7306 75.1517 35.7544 74.8627 37.8746ZM84.3039 27.4663C83.8222 25.4425 83.3405 23.6114 82.8588 21.6839C82.7625 21.4912 82.4735 21.2021 82.2808 21.2021C79.776 21.2021 77.2712 21.2021 74.8627 21.2021C75.0554 23.3223 75.2481 25.3461 75.5371 27.3699C78.4272 27.4663 81.2211 27.4663 84.3039 27.4663ZM44.9012 37.8746C44.7085 35.7544 44.5159 33.7306 44.3232 31.7067C41.433 31.7067 38.6392 31.7067 35.5563 31.7067C36.038 33.7306 36.5197 35.658 37.0978 37.5855C37.0978 37.6819 37.4831 37.8746 37.6758 37.8746C40.0843 37.8746 42.4928 37.8746 44.9012 37.8746ZM70.3348 7.5171C71.3945 10.2155 72.6469 12.914 73.6103 15.7088C73.9956 16.7689 74.381 17.2508 75.5371 17.1544C77.2712 17.058 79.0053 17.1544 80.9321 17.1544C78.1382 12.6249 74.67 9.44456 70.3348 7.5171ZM49.7182 51.5596C48.0804 48.6684 46.828 45.6808 45.961 42.5005C45.8646 42.3078 45.6719 42.0187 45.4793 42.0187C43.3598 42.0187 41.3367 42.0187 39.0245 42.0187C41.722 46.3554 45.2866 49.4394 49.7182 51.5596ZM69.9494 51.656C73.9956 50.2104 79.5833 45.199 80.643 42.0187C78.5236 42.0187 76.4041 42.0187 74.381 42.0187C74.1883 42.0187 73.8993 42.4041 73.803 42.5969C73.0322 45.7772 71.7798 48.7648 69.9494 51.656ZM49.7182 7.32435C45.2866 9.44456 41.722 12.5285 39.0245 16.8653C41.3367 16.8653 43.3598 16.8653 45.4793 16.8653C45.6719 16.8653 45.961 16.5762 45.961 16.3834C46.828 13.1067 47.9841 10.1192 49.7182 7.32435Z" fill="#01C28D"/>
</svg>
