<svg width="107" height="98" viewBox="0 0 107 98" fill="none" xmlns="http://www.w3.org/2000/svg">
<path d="M63.1 78.9C63.1 80.8 63.1 82.5 63.1 84.2C64.4 84.5 65.7 84.7 66.9 85.1C69.7 86.1 71.5 88.1 71.9 91.1C72.4 94.6 70 97.4 66.5 97.4C60.7 97.4 55 97.4 49.2 97.4C46 97.4 42.8 97.4 39.6 97.4C35.7 97.4 33.3 94.4 34 90.6C34.6 87.5 36.5 85.7 39.4 84.8C40.4 84.5 41.6 84.4 42.7 84.3C43.3 84.2 43.6 84.1 43.6 83.4C43.6 81.9 43.6 80.5 43.6 78.8C43.1 78.8 42.6 78.8 42.2 78.8C32.7 78.8 23.3 78.8 13.8 78.8C7.3 78.8 1.8 74.3 0.4 67.9C0.2 66.9 0.1 65.9 0.1 64.8C0 48 0 31 0 14.1C0 6.2 6.2 0 14.1 0C40.2 0 66.2 0 92.3 0C100.1 0 106.3 6.2 106.3 14C106.3 31 106.3 48 106.3 64.9C106.3 72.8 100.1 78.8 92.2 78.9C83 78.9 73.7 78.9 64.5 78.9C64.1 78.9 63.6 78.9 63.1 78.9ZM3.5 61.5C36.6 61.5 69.7 61.5 102.7 61.5C102.7 61 102.7 60.6 102.7 60.2C102.7 45.1 102.7 29.9 102.7 14.8C102.7 8 98.3 3.6 91.5 3.6C65.9 3.6 40.3 3.6 14.7 3.6C7.9 3.6 3.6 7.9 3.5 14.7C3.5 29.8 3.5 45 3.5 60.1C3.5 60.5 3.5 61 3.5 61.5ZM3.4 65.1C3.6 66.2 3.8 67.3 4.1 68.3C5.6 72.8 9.5 75.4 14.6 75.4C40.3 75.4 65.9 75.4 91.6 75.4C92 75.4 92.3 75.4 92.7 75.4C97.1 75.3 100.9 72.4 102.2 68.2C102.5 67.2 102.6 66.2 102.8 65.2C69.6 65.1 36.7 65.1 3.4 65.1ZM52.8 93.9C57.3 93.9 61.8 93.9 66.3 93.9C67.8 93.9 68.6 93 68.3 91.5C68.1 90 67.2 88.9 65.7 88.5C64.5 88.2 63.2 88 61.9 87.9C55.8 87.8 49.8 87.9 43.7 87.9C43 87.9 42.2 87.9 41.5 88C39.6 88.3 38 88.9 37.4 91C36.9 92.9 37.7 93.9 39.6 93.9C44.1 93.9 48.5 93.9 52.8 93.9ZM47.2 84.2C51.3 84.2 55.4 84.2 59.5 84.2C59.5 82.4 59.5 80.7 59.5 79C55.4 79 51.3 79 47.2 79C47.2 80.8 47.2 82.5 47.2 84.2Z" fill="#01C28D"/>
<path d="M37.5996 19.6C39.7996 18.4 41.7996 17 43.9996 16C48.1996 14.1 52.6996 13.3 57.1996 13.4C60.6996 13.4 63.3996 16.2 63.3996 19.7C63.3996 28.7 63.3996 37.8 63.3996 46.8C63.3996 49.5 61.3996 51.5 58.5996 51.6C44.5996 51.6 30.5996 51.6 16.5996 51.6C13.7996 51.6 11.7996 49.7 11.7996 46.9C11.6996 37.9 11.6996 28.8 11.7996 19.8C11.7996 16 14.6996 13.4 18.4996 13.4C25.2996 13.5 31.4996 15.1 36.9996 19.3C37.3996 19.5 37.5996 19.6 37.5996 19.6ZM35.9996 45.3C35.9996 44.9 36.0996 44.8 36.0996 44.6C36.0996 37.6 36.0996 30.6 36.0996 23.6C36.0996 23.2 35.7996 22.7 35.3996 22.4C30.6996 18.7 25.2996 17.3 19.3996 17C16.5996 16.9 15.5996 18 15.5996 20.7C15.5996 26.6 15.5996 32.5 15.5996 38.4C15.5996 38.8 15.5996 39.2 15.5996 39.6C22.9996 39.5 29.8996 40.7 35.9996 45.3ZM59.8996 39.6C59.9996 39.4 59.9996 39.3 59.9996 39.3C59.9996 32.8 59.9996 26.3 59.9996 19.8C59.9996 18.1 58.7996 16.9 56.9996 17C50.8996 17.1 45.2996 18.6 40.2996 22.3C39.7996 22.7 39.5996 23.1 39.5996 23.8C39.5996 30.6 39.5996 37.5 39.5996 44.3C39.5996 44.6 39.6996 44.9 39.6996 45.3C45.7996 40.7 52.6996 39.5 59.8996 39.6ZM33.3996 48.1C33.3996 48 33.3996 47.9 33.4996 47.8C28.0996 44 22.0996 43 15.5996 43.2C15.5996 44.5 15.5996 45.7 15.5996 46.9C15.5996 47.7 16.0996 48.1 16.8996 48.1C22.3996 48.1 27.8996 48.1 33.3996 48.1ZM42.1996 47.9C42.2996 48 42.2996 48.1 42.3996 48.1C47.8996 48.1 53.3996 48.1 58.9996 48.1C59.3996 48.1 59.9996 47.6 60.0996 47.2C60.1996 45.9 60.1996 44.6 60.1996 43.2C53.4996 43 47.4996 44 42.1996 47.9Z" fill="#01C28D"/>
<path d="M82.8996 14C85.2996 14 87.7996 14 90.1996 14C93.3996 14 95.4996 16.1 95.4996 19.2C95.4996 20.6 95.4996 22 95.4996 23.4C95.3996 25.9 93.5996 27.8 91.1996 28.2C90.6996 28.3 90.1996 28.3 89.7996 28.3C85.1996 28.3 80.4996 28.3 75.8996 28.3C72.1996 28.3 70.1996 26.3 70.0996 22.5C70.0996 21.4 70.0996 20.3 70.0996 19.2C70.1996 16.1 72.2996 14 75.4996 14C77.8996 14 80.3996 14 82.8996 14ZM82.8996 17.5C80.4996 17.5 77.9996 17.5 75.5996 17.5C74.2996 17.5 73.6996 18.1 73.6996 19.4C73.6996 20.6 73.6996 21.8 73.6996 22.9C73.6996 24.1 74.2996 24.7 75.4996 24.7C80.3996 24.7 85.3996 24.7 90.2996 24.7C91.4996 24.7 91.9996 24.1 91.9996 22.9C91.9996 21.8 91.9996 20.6 91.9996 19.5C91.9996 18.1 91.4996 17.6 90.0996 17.5C87.6996 17.5 85.2996 17.5 82.8996 17.5Z" fill="#01C28D"/>
<path d="M82.5005 33.4C85.4005 33.4 88.3004 33.4 91.1004 33.4C91.5004 33.4 91.9005 33.4 92.3005 33.5C93.2005 33.7 93.6004 34.2 93.7004 35.1C93.7004 36 93.3005 36.6 92.4005 36.9C92.0005 37 91.6004 37 91.2004 37C85.3004 37 79.5004 37 73.6004 37C73.2004 37 72.9005 37 72.5005 36.9C71.5005 36.7 71.0004 36.1 71.1004 35.1C71.1004 34.2 71.7004 33.6 72.6004 33.5C73.0004 33.4 73.3004 33.5 73.7004 33.4C76.6004 33.4 79.6005 33.4 82.5005 33.4Z" fill="#01C28D"/>
<path d="M82.3003 44.7C79.3003 44.7 76.3003 44.7 73.3003 44.7C72.8003 44.7 72.3003 44.7 71.9003 44.5C71.1003 44.2 70.9003 43.5 71.0003 42.7C71.2003 41.8 71.7003 41.3 72.6003 41.3C73.7003 41.2 74.8003 41.3 75.9003 41.3C80.9003 41.3 85.9003 41.3 90.8003 41.3C91.1003 41.3 91.5003 41.3 91.8003 41.3C92.9003 41.4 93.6003 42 93.6003 43C93.6003 44 93.0003 44.8 91.8003 44.8C90.1003 44.9 88.4003 44.8 86.7003 44.8C85.4003 44.7 83.9003 44.7 82.3003 44.7Z" fill="#01C28D"/>
<path d="M82.3998 52.5C79.2998 52.5 76.1997 52.5 73.0997 52.5C71.6997 52.5 70.8997 51.7 71.0997 50.5C71.1997 49.5 71.8998 49 72.7998 49C79.1998 49 85.5998 49 91.8998 49C92.9998 49 93.6997 49.7 93.6997 50.7C93.6997 51.8 92.9998 52.5 91.7998 52.5C88.6998 52.5 85.4998 52.5 82.3998 52.5Z" fill="#01C28D"/>
<path d="M53.2002 71.6C51.8002 71.6 50.5002 71.6 49.1002 71.6C47.9002 71.6 47.2002 70.9 47.2002 69.9C47.2002 68.9 47.9002 68.1 49.0002 68.1C51.8002 68.1 54.5002 68.1 57.3002 68.1C58.4002 68.1 59.2002 68.9 59.2002 69.9C59.2002 70.9 58.5002 71.6 57.3002 71.6C55.9002 71.6 54.5002 71.6 53.2002 71.6Z" fill="#01C28D"/>
</svg>
