<svg width="113" height="113" viewBox="0 0 113 113" fill="none" xmlns="http://www.w3.org/2000/svg">
<g clip-path="url(#clip0_2028_764)">
<path d="M74.5 -1C76 -1 77.4 -1 78.9 -1C79.1 -0.9 79.2 -0.8 79.4 -0.8C94.7 1.4 103.1 17.5 96 31.3C95.7 31.9 95.7 32.2 96 32.8C99.2 38.4 101.2 44.3 101.8 50.8C102 53 102 55.2 102.1 57.5C102.4 57.6 102.6 57.6 102.9 57.7C107.7 58.9 110.8 61.8 112.4 66.5C112.6 67.2 112.8 67.9 113 68.6C113 69.6 113 70.7 113 71.7C112.9 72.1 112.8 72.5 112.7 73C112.2 75.1 111.2 76.9 109.9 78.7C106.7 82.9 103.6 87.1 100.3 91.5C98 88.4 95.8 85.5 93.5 82.4C93.3 82.7 93.1 82.9 92.9 83.1C90.9 85.3 89 87.5 86.9 89.6C86.4 90.2 86.2 90.6 86.4 91.3C87.5 94.5 87.6 97.8 87.4 101.2C87.3 103.4 85.9 104.9 83.6 104.9C82.3 104.9 81 104.9 79.6 104.9C79.2 104.9 78.8 105.2 78.5 105.5C77.2 106.9 76.1 108.4 74.8 109.6C73.2 111.1 71.1 111.5 69 112.1C67.9 112.1 66.8 112.1 65.7 112.1C65.6 112 65.5 112 65.4 111.9C61.3 111.2 58.2 109 56.1 105.3C55.9 105 55.4 104.8 55 104.8C48.7 104.8 42.4 104.8 36.1 104.8C35.4 104.8 35.1 105 34.8 105.6C33.1 108.5 30.7 110.5 27.4 111.5C26.7 111.7 26.1 111.9 25.4 112C24.3 112 23.2 112 22.1 112C22 112 22 111.9 21.9 111.9C17.7 111.2 14.5 109 12.4 105.2C12.2 104.9 11.7 104.7 11.3 104.7C9.1 104.7 6.8 104.6 4.6 104.7C2.3 104.8 0.8 104 0 101.8C0 100 0 98.3 0 96.5C0.5 95.3 1.2 94.2 2.5 93.9C3.5 93.7 3.6 93.2 3.6 92.3C3.6 80.9 3.6 69.5 3.6 58C3.6 54.8 4.9 53.6 8.1 53.6C9 53.6 10 53.6 10.9 53.6C11.3 45.5 13.6 38.1 17.8 31.3C17.4 30.8 17 30.3 16.7 29.7C15.3 27.7 14.6 25.4 14.5 23C14.3 17.8 17.4 13 22.2 10.9C26.9 8.8 32.4 9.8 36.2 13.5C36.8 14 37.1 14.2 37.9 13.8C43.8 11.1 50.1 9.8 56.6 9.9C57.3 9.9 57.7 9.7 58.1 9.1C60.7 5 64.2 2.1 68.7 0.4C70.7 -0.2 72.6 -0.5 74.5 -1ZM58.5 64.5C59.1 64.5 59.5 64.5 59.9 64.5C65 64.5 70.1 64.5 75.2 64.5C78.4 64.5 80.4 66 81.2 69.1C81.9 71.8 82.6 74.6 83.2 77.3C83.9 80.1 84.6 82.9 85.4 86.1C87.2 84 88.7 82.1 90.3 80.3C91.1 79.4 91 78.7 90.3 77.7C85.8 71.7 87.1 63.7 93.1 59.6C94.7 58.5 96.6 57.9 98.5 57C98.8 49.5 97.1 42.2 93.4 35.3C87.8 42.4 82.3 49.5 76.7 56.6C70.7 48.9 64.6 41.4 58.8 33.7C55.3 29.1 54.3 23.7 55.1 17.9C55.3 16.5 55.7 15.1 56 13.6C50.1 13.7 44.5 14.9 39.3 17.4C39.3 17.6 39.3 17.7 39.4 17.8C41.3 22.6 40.4 26.9 37.4 30.9C34.4 34.8 31.4 38.8 28.5 42.8C28.3 43.1 28 43.4 27.7 43.8C25.3 40.6 23 37.5 20.6 34.4C17.2 40.4 15.3 46.7 15 53.6C15.6 53.6 16 53.6 16.4 53.6C29.1 53.6 41.8 53.6 54.4 53.6C57.2 53.6 58.5 55 58.5 57.7C58.5 60 58.5 62.2 58.5 64.5ZM7.5 93.7C8.8 93.7 10 93.7 11.3 93.7C12 93.7 12.5 93.5 12.8 92.8C17.7 84.3 29.8 84.3 34.8 92.8C35.2 93.5 35.6 93.7 36.3 93.7C42.1 93.7 47.8 93.7 53.6 93.7C54 93.7 54.3 93.7 54.7 93.6C54.7 81.4 54.7 69.4 54.7 57.3C49.8 57.3 45.1 57.3 40.2 57.3C40.2 61.9 40.2 66.4 40.2 71.1C37.3 69.7 34.6 68.4 32 67C31.4 66.7 30.9 66.7 30.3 67C28.7 67.8 27.1 68.6 25.5 69.4C24.4 69.9 23.3 70.5 22 71.1C22 66.4 22 61.8 22 57.3C17.1 57.3 12.4 57.3 7.5 57.3C7.5 69.4 7.5 81.5 7.5 93.7ZM76.7 50.8C76.9 50.5 76.9 50.4 77 50.3C81.7 44.3 86.5 38.3 91.1 32.3C94.5 27.8 95.5 22.7 94.4 17.2C93 9.9 87.1 4.2 80.1 3C72.6 1.7 65.4 4.8 61.3 11.1C57.4 17.2 57.3 25.7 61.6 31.5C66.5 37.9 71.6 44.2 76.7 50.8ZM58.5 68.2C58.5 75.5 58.5 82.8 58.5 90C59.6 89.3 60.6 88.5 61.7 87.9C67.8 84.7 75.1 86.9 78.6 92.8C78.8 93.1 79.1 93.6 79.4 93.6C80.7 93.7 82 93.6 83.4 93.6C83.4 93.2 83.3 93 83.3 92.8C82.5 89.7 81.7 86.7 81 83.6C80.8 82.9 80.5 82.7 79.8 82.7C76.4 82.7 73 82.7 69.5 82.7C67.3 82.7 65.8 81.2 65.7 79.1C65.6 77.9 65.6 76.7 65.7 75.5C65.8 73.4 67.2 71.9 69.3 71.8C70 71.8 70.8 71.8 71.5 71.8C73.6 71.8 75.7 71.8 77.8 71.8C77.7 71.1 77.6 70.6 77.4 70.1C77 68.6 76.5 68.2 75 68.2C73.5 68.2 72.1 68.2 70.6 68.2C66.7 68.2 62.7 68.2 58.5 68.2ZM27.6 38C30.4 34.1 33.3 30.5 35.7 26.6C37.9 22.9 36.5 18 33 15.4C29.5 12.8 24.8 13.1 21.5 15.9C18.3 18.8 17.4 23.6 19.7 27.2C22.1 30.8 24.8 34.2 27.6 38ZM100.3 85.3C103.1 81.5 105.9 78.1 108.2 74.4C110.2 71.2 109.9 67.7 107.6 64.6C105.3 61.5 102.1 60.4 98.4 61.2C92.1 62.5 89.2 70 93 75.3C95.3 78.5 97.7 81.6 100 84.8C100.1 84.8 100.1 85 100.3 85.3ZM67.6 108.2C72.6 108.2 76.7 104.1 76.7 99.1C76.7 94.1 72.6 90 67.5 90.1C62.5 90.1 58.5 94.2 58.5 99.2C58.5 104.1 62.6 108.3 67.6 108.2ZM23.7 108.2C28.7 108.3 32.8 104.3 32.9 99.2C33 94.3 29 90.1 24.1 90C19 89.9 14.8 93.9 14.7 98.9C14.7 104 18.7 108.1 23.7 108.2ZM25.8 65.2C27.2 64.5 28.5 64 29.7 63.3C30.8 62.6 31.7 62.7 32.8 63.3C34 64 35.3 64.6 36.6 65.2C36.6 62.5 36.6 59.9 36.6 57.3C33 57.3 29.4 57.3 25.8 57.3C25.8 59.9 25.8 62.5 25.8 65.2ZM36.6 100.9C42.8 100.9 48.8 100.9 54.9 100.9C54.9 99.7 54.9 98.6 54.9 97.4C48.8 97.4 42.7 97.4 36.6 97.4C36.6 98.6 36.6 99.7 36.6 100.9ZM69.5 75.5C69.5 76.7 69.5 77.9 69.5 79C73 79 76.3 79 79.8 79C79.5 77.8 79.2 76.6 78.9 75.5C75.7 75.5 72.6 75.5 69.5 75.5ZM11.2 100.9C11.2 99.7 11.2 98.5 11.2 97.4C8.7 97.4 6.3 97.4 4 97.4C4 98.6 4 99.7 4 100.9C6.4 100.9 8.7 100.9 11.2 100.9ZM80.3 100.9C81.6 100.9 82.7 100.9 83.9 100.9C83.9 99.7 83.9 98.6 83.9 97.4C82.6 97.4 81.5 97.4 80.3 97.4C80.3 98.6 80.3 99.7 80.3 100.9Z" fill="#01C28D"/>
<path d="M47.5004 46.5C47.5004 47.7 47.5004 48.7 47.5004 49.9C46.3004 49.9 45.2004 49.9 43.9004 49.9C43.9004 48.8 43.9004 47.7 43.9004 46.5C45.1004 46.5 46.3004 46.5 47.5004 46.5Z" fill="#01C28D"/>
<path d="M62.1 46.5C62.1 47.7 62.1 48.8 62.1 49.9C60.9 49.9 59.8 49.9 58.5 49.9C58.5 48.8 58.5 47.7 58.5 46.5C59.7 46.5 60.8 46.5 62.1 46.5Z" fill="#01C28D"/>
<path d="M51.2002 49.9C51.2002 48.7 51.2002 47.7 51.2002 46.5C52.4002 46.5 53.5002 46.5 54.8002 46.5C54.8002 47.6 54.8002 48.7 54.8002 49.9C53.6002 49.9 52.5002 49.9 51.2002 49.9Z" fill="#01C28D"/>
<path d="M76.5996 35.4C68.4996 35.4 62.0996 28.9 62.0996 20.8C62.0996 12.8 68.6996 6.3 76.7996 6.3C84.7996 6.3 91.2996 12.9 91.2996 20.9C91.1996 28.9 84.6996 35.4 76.5996 35.4ZM76.6996 9.9C70.6996 9.9 65.6996 14.8 65.6996 20.8C65.6996 26.8 70.5996 31.8 76.5996 31.8C82.5996 31.8 87.3996 26.9 87.4996 20.9C87.5996 14.9 82.7996 10 76.6996 9.9Z" fill="#01C28D"/>
<path d="M27.5 17.2C30.5 17.2 33 19.7 32.9 22.7C32.9 25.7 30.4 28.1 27.4 28.1C24.4 28.1 21.9 25.6 22 22.6C22.1 19.6 24.5 17.2 27.5 17.2ZM29.3 22.7C29.3 21.7 28.5 20.9 27.5 20.8C26.5 20.8 25.7 21.6 25.7 22.6C25.7 23.6 26.5 24.4 27.4 24.4C28.4 24.5 29.3 23.7 29.3 22.7Z" fill="#01C28D"/>
<path d="M105.8 70C105.8 73 103.3 75.5 100.3 75.5C97.2998 75.5 94.7998 73 94.7998 70C94.7998 67 97.2998 64.5 100.3 64.5C103.3 64.5 105.8 67 105.8 70ZM102.1 70C102.1 69 101.3 68.2 100.3 68.2C99.2998 68.2 98.4998 69 98.4998 70.1C98.4998 71.1 99.2998 71.8 100.3 71.8C101.4 71.8 102.1 71 102.1 70Z" fill="#01C28D"/>
<path d="M73.0002 99.1C73.0002 102.1 70.6002 104.6 67.6002 104.6C64.6002 104.6 62.2002 102.2 62.2002 99.1C62.2002 96.1 64.6002 93.6 67.6002 93.6C70.6002 93.7 73.0002 96.1 73.0002 99.1ZM67.5002 100.9C68.5002 100.9 69.3002 100.2 69.4002 99.2C69.4002 98.2 68.6002 97.4 67.6002 97.3C66.6002 97.3 65.8002 98.1 65.7002 99C65.7002 100.1 66.5002 100.9 67.5002 100.9Z" fill="#01C28D"/>
<path d="M29.3004 99.2C29.3004 102.2 26.8004 104.6 23.8004 104.6C20.8004 104.6 18.4004 102.1 18.4004 99.1C18.4004 96.1 20.9004 93.6 23.9004 93.7C26.9004 93.7 29.3004 96.2 29.3004 99.2ZM23.9004 97.3C22.9004 97.3 22.1004 98.1 22.0004 99.1C22.0004 100.1 22.8004 100.9 23.8004 100.9C24.8004 100.9 25.6004 100.1 25.6004 99.2C25.7004 98.2 24.9004 97.4 23.9004 97.3Z" fill="#01C28D"/>
</g>
<defs>
<clipPath id="clip0_2028_764">
<rect width="112.9" height="112.9" fill="white"/>
</clipPath>
</defs>
</svg>
