<?xml version="1.0" encoding="UTF-8"?>
<!DOCTYPE svg PUBLIC "-//W3C//DTD SVG 1.1//EN" "http://www.w3.org/Graphics/SVG/1.1/DTD/svg11.dtd">
<!-- Creator: CorelDRAW X8 -->
<svg xmlns="http://www.w3.org/2000/svg" xml:space="preserve" width="202.142mm" height="36.6888mm" version="1.1" style="shape-rendering:geometricPrecision; text-rendering:geometricPrecision; image-rendering:optimizeQuality; fill-rule:evenodd; clip-rule:evenodd"
viewBox="0 0 20214 3669"
 xmlns:xlink="http://www.w3.org/1999/xlink">
 <defs>
  <style type="text/css">
  
    .fil8 {fill:#D3EAE5}
    .fil7 {fill:#CECDCD}
    .fil3 {fill:#9D9C9C}
    .fil11 {fill:#7EC5AB}
    .fil9 {fill:#7C7D7D}
    .fil10 {fill:#65BDA2}
    .fil0 {fill:#5C5C5C}
    .fil4 {fill:#5A5D5D}
    .fil5 {fill:#40403F}
    .fil6 {fill:#2AAF82}
    .fil1 {fill:#5C5C5C;fill-rule:nonzero}
    .fil2 {fill:#2AAF82;fill-rule:nonzero}
  </style>
   <clipPath id="id0">
    <path d="M3973 1719l0 363 404 0c-100,-167 -208,-307 -404,-363z"/>
   </clipPath>
   <clipPath id="id1">
    <rect x="1316" y="-6356" width="20248" height="3706"/>
   </clipPath>
 </defs>
 <g id="Layer_x0020_1">
  <metadata id="CorelCorpID_0Corel-Layer"/>
  <path class="fil0" d="M19057 1242l1094 0 0 -317 -1094 0 0 317zm1182 -854l0 -362 -1833 0 0 2075 0 0 375 0 0 -1713 1458 0zm-2520 1713l-324 -522 -1022 0 178 -294 663 0 -481 -777 -982 1593 -431 0 1243 -1987c22,-36 48,-65 77,-85 30,-21 66,-32 107,-32 42,0 77,11 106,32 29,20 54,49 76,85l1245 1987 -455 0 0 0zm-3859 -902l1199 0 0 -305 -1199 0 0 305zm-651 902l0 -2075 1930 0 0 362 -1555 0 0 1351 1558 0 0 362 -1933 0 0 0zm-2102 0l0 -2075 378 0 0 1713 1454 0 0 362 -1832 0 0 0zm-686 0l-324 -522 -1023 0 178 -294 663 0 -481 -777 -982 1593 -431 0 1243 -1987c22,-36 48,-65 77,-85 30,-21 66,-32 108,-32 41,0 76,11 105,32 29,20 54,49 76,85l1245 1987 -454 0 0 0zm-2780 -2075l368 0 0 1159c0,160 -21,299 -65,418 -44,119 -112,218 -205,296 -93,78 -214,136 -361,174 -148,38 -327,57 -537,57 -208,0 -386,-19 -534,-57 -147,-38 -268,-96 -361,-174 -93,-78 -161,-177 -205,-296 -44,-119 -65,-258 -65,-418l0 -1159 389 0 0 1159c0,105 13,194 40,268 27,74 71,135 131,183 61,47 141,82 242,104 101,22 226,33 375,33 149,0 273,-11 375,-33 101,-22 181,-57 242,-104 60,-48 104,-109 131,-183 26,-74 40,-163 40,-268l0 -1159zm-5242 2075l-324 -522 -1022 0 178 -294 663 0 -482 -777 -981 1593 -431 0 1243 -1987c22,-36 47,-65 77,-85 30,-21 66,-32 107,-32 42,0 77,11 106,32 28,20 54,49 75,85l1246 1987 -455 0 0 0z"/>
  <polygon class="fil1" points="6221,2838 6285,2838 6285,2387 6221,2387 "/>
  <polygon class="fil1" points="6581,2446 6788,2446 6788,2838 6852,2838 6852,2446 7060,2446 7060,2387 6581,2387 "/>
  <path class="fil1" d="M8147 2584c-28,-3 -47,-5 -60,-5 -14,0 -29,-1 -45,-1l-142 0c-24,0 -43,-4 -55,-13 -12,-8 -18,-24 -18,-49 0,-14 2,-26 5,-36 3,-8 10,-15 22,-21 12,-5 32,-10 60,-12 29,-3 57,-4 83,-4l18 0c34,0 63,1 86,4 21,3 36,7 44,11 7,4 12,10 15,18 4,10 6,25 6,44l0 8 65 0 0 -8c0,-41 -9,-73 -26,-93 -17,-21 -42,-34 -74,-38 -31,-3 -52,-5 -65,-6 -13,0 -34,-1 -65,-1 -36,0 -69,1 -99,4 -29,2 -56,8 -77,17 -24,9 -40,24 -50,46 -10,21 -14,47 -14,77 0,40 11,69 34,86 22,17 53,25 93,25l110 3 94 0c31,0 53,4 66,12 11,7 17,25 17,54 0,23 -5,40 -14,49 -10,10 -28,17 -56,20 -28,4 -64,6 -106,6 -26,0 -53,-1 -80,-2 -26,-2 -47,-5 -63,-10 -13,-5 -22,-12 -25,-20 -4,-11 -6,-28 -6,-50l0 -17 -64 0 0 7c0,50 7,85 21,105 15,21 40,34 73,39 32,5 56,7 72,8 15,1 39,1 69,1l33 0c31,0 60,-1 87,-4 27,-3 51,-9 70,-18 20,-10 35,-24 43,-44 8,-18 12,-42 12,-69 0,-42 -8,-73 -26,-91 -17,-18 -40,-28 -68,-32z"/>
  <path class="fil1" d="M9045 2584l0 90c0,34 -5,59 -14,76 -8,15 -26,24 -53,27 -29,3 -59,5 -87,5l-157 -3c-45,0 -72,-8 -82,-25 -10,-18 -16,-55 -16,-109l2 -97c0,-57 11,-78 20,-86 9,-8 31,-18 87,-18l95 -1 97 1c12,0 24,1 36,2 11,1 22,3 33,6 10,3 17,9 23,18 6,10 11,24 13,43 2,20 3,44 3,71zm-141 -202l-181 0c-39,0 -71,7 -95,21 -25,14 -40,37 -47,68 -6,29 -9,52 -10,68 -1,15 -1,40 -1,76 0,39 1,72 4,99 3,28 10,52 20,70 11,19 25,32 43,40 16,7 36,12 60,15 24,2 48,4 73,4l103 0c17,0 35,-1 54,-1 19,-1 35,-1 47,-3 42,0 73,-10 95,-30 21,-20 33,-48 37,-85 3,-34 5,-68 5,-100l0 -29c0,-91 -12,-148 -38,-174 -26,-26 -81,-39 -169,-39z"/>
  <polygon class="fil1" points="9521,2387 9456,2387 9456,2838 9845,2838 9845,2779 9521,2779 "/>
  <path class="fil1" d="M10585 2700c0,34 -6,56 -19,64 -13,9 -38,14 -76,14l-94 3 -88 -3c-34,0 -58,-5 -72,-14 -12,-8 -19,-28 -19,-60l0 -317 -64 0 0 324c0,45 10,79 30,99 20,20 51,31 94,31l117 2 0 0 83 -2c66,0 110,-8 135,-24 25,-17 38,-57 38,-122l0 -308 -65 0 0 313z"/>
  <polygon class="fil1" points="10942,2446 11149,2446 11149,2838 11213,2838 11213,2446 11421,2446 11421,2387 10942,2387 "/>
  <polygon class="fil1" points="11717,2838 11782,2838 11782,2387 11717,2387 "/>
  <path class="fil1" d="M12602 2584l0 90c0,34 -5,59 -14,76 -8,15 -26,24 -53,27 -29,3 -58,5 -87,5l-157 -3c-45,0 -72,-8 -82,-25 -10,-18 -15,-55 -15,-109l1 -97c0,-57 11,-78 20,-86 9,-8 32,-18 87,-18l95 -1 97 1c12,0 25,1 36,2 11,1 23,3 33,6 10,3 17,9 23,18 7,10 11,24 13,43 2,20 3,43 3,71zm-141 -202l-181 0c-39,0 -71,7 -95,21 -24,14 -40,37 -46,68 -7,29 -10,52 -11,68 -1,15 -1,40 -1,76 0,38 1,71 4,99 3,28 10,52 21,70 10,19 25,32 42,40 16,7 37,12 60,15 24,2 48,4 73,4l103 0c17,0 35,-1 54,-1 20,-1 36,-1 47,-3 42,0 74,-10 95,-30 21,-20 34,-48 37,-85 4,-35 5,-68 5,-100l0 -29c0,-91 -12,-148 -38,-174 -25,-26 -81,-39 -169,-39z"/>
  <polygon class="fil1" points="13474,2770 13109,2389 13107,2387 13013,2387 13013,2838 13078,2838 13078,2453 13444,2836 13447,2838 13539,2838 13539,2387 13474,2387 "/>
  <path class="fil1" d="M14275 2584c-28,-3 -47,-5 -60,-5 -13,0 -29,-1 -45,-1l-142 0c-24,0 -43,-4 -55,-13 -12,-8 -18,-24 -18,-49 0,-14 2,-26 6,-36 2,-8 9,-15 21,-21 12,-5 32,-10 60,-12 29,-3 57,-4 83,-4l18 0c34,0 63,1 86,4 21,3 36,7 44,11 7,4 12,10 15,18 4,10 6,25 6,44l0 8 65 0 0 -8c0,-41 -9,-73 -26,-93 -17,-21 -42,-34 -74,-38 -31,-3 -52,-5 -65,-6 -13,0 -34,-1 -65,-1 -36,0 -69,1 -98,4 -30,2 -56,8 -78,17 -24,9 -40,24 -50,46 -10,21 -14,47 -14,77 0,40 11,69 34,86 22,17 53,25 93,25l110 3 94 0c31,0 53,4 66,12 11,7 17,25 17,54 0,23 -5,40 -14,49 -9,10 -28,17 -56,20 -28,4 -64,6 -106,6 -26,0 -53,-1 -80,-2 -26,-2 -47,-5 -63,-10 -13,-5 -22,-12 -25,-20 -4,-11 -5,-28 -5,-50l0 -17 -65 0 0 7c0,50 7,85 21,105 15,21 40,34 73,39 33,5 56,7 72,8 15,1 39,1 69,1l33 0c31,0 60,-1 87,-4 27,-3 51,-9 70,-18 20,-10 35,-24 43,-44 8,-18 12,-42 12,-69 0,-42 -8,-73 -26,-91 -17,-18 -40,-28 -68,-32z"/>
  <path class="fil1" d="M15531 2521c0,48 -9,66 -18,73 -12,9 -38,14 -77,14l-250 0 0 -162 278 0c26,0 44,5 53,16 10,11 14,31 14,59zm-62 -134l-347 0 0 451 64 0 0 -171 280 0c30,0 52,-2 67,-8 15,-5 28,-13 39,-25 10,-11 17,-28 21,-48 3,-20 5,-42 5,-67 0,-51 -10,-84 -30,-104 -19,-19 -53,-28 -99,-28z"/>
  <polygon class="fil1" points="16124,2767 15927,2387 15853,2387 16083,2834 16085,2838 16162,2838 16397,2387 16323,2387 "/>
  <polygon class="fil1" points="16619,2446 16825,2446 16825,2838 16890,2838 16890,2446 17097,2446 17097,2387 16619,2387 "/>
  <polygon class="fil1" points="17422,2838 17499,2838 17499,2752 17422,2752 "/>
  <polygon class="fil1" points="18360,2387 18295,2387 18295,2838 18683,2838 18683,2779 18360,2779 "/>
  <polygon class="fil1" points="18934,2446 19141,2446 19141,2838 19206,2838 19206,2446 19413,2446 19413,2387 18934,2387 "/>
  <path class="fil1" d="M19775 2446l274 0c50,0 82,12 94,35 14,24 21,66 21,126 0,65 -7,111 -20,136 -12,24 -46,36 -100,36l-269 0 0 -333zm423 -6c-23,-35 -69,-53 -138,-53l-350 0 0 451 333 0c32,0 59,-2 82,-7 24,-5 45,-17 62,-35 17,-19 29,-46 35,-80 5,-35 8,-72 8,-110 0,-76 -11,-132 -32,-166z"/>
  <polygon class="fil2" points="275,3400 106,3240 21,3240 246,3455 246,3611 306,3611 306,3455 531,3240 446,3240 "/>
  <path class="fil2" d="M1277 3402l0 74c0,27 -5,48 -13,61 -7,12 -23,20 -47,22 -27,2 -53,3 -79,3l-143 -2c-39,0 -65,-7 -73,-20 -6,-10 -14,-33 -14,-87l2 -80c0,-46 9,-63 17,-69 8,-7 29,-15 79,-15l86 -1 87 1c12,0 23,1 33,2 11,1 21,2 30,5 9,2 16,7 21,14 5,8 9,19 11,35 2,16 3,35 3,57zm-127 -166l-164 0c-35,0 -64,6 -86,17 -23,11 -37,30 -43,56 -6,24 -9,43 -10,56 0,13 -1,33 -1,63 0,31 2,58 4,81 3,23 9,43 19,58 10,15 23,26 39,32 15,6 33,10 54,12 21,3 44,4 67,4l93 0c15,0 32,0 49,-1 17,0 32,-1 42,-2 39,0 67,-8 86,-25 20,-16 31,-40 34,-70 4,-29 5,-56 5,-82l0 -24c0,-75 -11,-122 -35,-143 -23,-22 -73,-32 -153,-32z"/>
  <path class="fil2" d="M2115 3497c0,27 -5,44 -16,51 -12,8 -35,11 -69,11l-86 3 -79 -3c-31,0 -53,-3 -65,-11 -11,-6 -16,-22 -16,-48l0 -260 -61 0 0 266c0,38 10,65 28,82 19,17 47,25 86,25l106 2 0 0 75 -2c60,0 100,-6 122,-19 24,-14 35,-47 35,-101l0 -253 -60 0 0 257z"/>
  <polygon class="fil2" points="2968,3291 3155,3291 3155,3611 3215,3611 3215,3291 3403,3291 3403,3240 2968,3240 "/>
  <polygon class="fil2" points="4139,3394 3808,3394 3808,3240 3748,3240 3748,3611 3808,3611 3808,3445 4139,3445 4139,3611 4199,3611 4199,3240 4139,3240 "/>
  <polygon class="fil2" points="4599,3611 4660,3611 4660,3240 4599,3240 "/>
  <polygon class="fil2" points="5477,3552 5148,3242 5145,3240 5060,3240 5060,3611 5120,3611 5120,3297 5453,3611 5537,3611 5537,3240 5477,3240 "/>
  <polygon class="fil2" points="6402,3240 6297,3240 6054,3394 5998,3394 5998,3240 5938,3240 5938,3611 5998,3611 5998,3445 6054,3445 6309,3610 6311,3611 6421,3611 6118,3420 "/>
  <path class="fil2" d="M6769 3612l20 0c-1,5 -3,7 -4,7 -4,3 -9,5 -17,7l-6 1 0 42 7 0c46,0 71,-24 71,-69l0 -63 -71 0 0 75z"/>
  <polygon class="fil2" points="8224,3547 8082,3240 8010,3240 7868,3547 7718,3244 7716,3240 7649,3240 7831,3607 7833,3611 7904,3611 8046,3307 8187,3611 8259,3611 8443,3240 8376,3240 "/>
  <polygon class="fil2" points="8840,3445 9151,3445 9151,3394 8840,3394 8840,3291 9163,3291 9163,3240 8780,3240 8780,3611 9166,3611 9166,3560 8840,3560 "/>
  <polygon class="fil2" points="10306,3540 10091,3243 10088,3240 10004,3240 10004,3611 10064,3611 10064,3307 10282,3608 10284,3611 10328,3611 10549,3303 10549,3611 10609,3611 10609,3240 10525,3240 "/>
  <path class="fil2" d="M11319 3480l-231 0 115 -187 116 187zm-82 -240l-68 0 -229 371 71 0 47 -80 291 0 49 80 69 0 -228 -368 -2 -3z"/>
  <polygon class="fil2" points="12264,3240 12159,3240 11915,3394 11859,3394 11859,3240 11799,3240 11799,3611 11859,3611 11859,3445 11915,3445 12171,3610 12173,3611 12282,3611 11979,3420 "/>
  <polygon class="fil2" points="12662,3445 12973,3445 12973,3394 12662,3394 12662,3291 12984,3291 12984,3240 12601,3240 12601,3611 12988,3611 12988,3560 12662,3560 "/>
  <polygon class="fil2" points="13825,3611 13885,3611 13885,3240 13825,3240 "/>
  <polygon class="fil2" points="14230,3291 14417,3291 14417,3611 14477,3611 14477,3291 14665,3291 14665,3240 14230,3240 "/>
  <path class="fil2" d="M15521 3291l240 0c30,0 52,4 64,11 11,7 17,23 17,48 0,27 -5,44 -16,53 -12,9 -33,13 -64,13l-241 0 0 -125zm383 62c0,-44 -11,-74 -33,-90 -21,-16 -54,-23 -101,-23l-309 0 0 371 60 0 0 -144 246 0c27,0 46,4 56,11 10,7 15,23 15,47l0 86 59 0 0 -104c0,-25 -7,-42 -21,-52 -6,-4 -14,-8 -23,-11 16,-5 27,-12 34,-20 11,-14 17,-37 17,-71z"/>
  <polygon class="fil2" points="16350,3445 16661,3445 16661,3394 16350,3394 16350,3291 16672,3291 16672,3240 16289,3240 16289,3611 16676,3611 16676,3560 16350,3560 "/>
  <path class="fil2" d="M17372 3480l-231 0 115 -187 116 187zm-82 -240l-68 0 -229 371 71 0 47 -80 292 0 48 80 69 0 -228 -368 -2 -3z"/>
  <polygon class="fil2" points="17912,3240 17852,3240 17852,3611 18205,3611 18205,3560 17912,3560 "/>
  <polygon class="fil2" points="18565,3611 18625,3611 18625,3240 18565,3240 "/>
  <polygon class="fil2" points="18970,3291 19157,3291 19157,3611 19217,3611 19217,3291 19405,3291 19405,3240 18970,3240 "/>
  <polygon class="fil2" points="20101,3240 19931,3400 19762,3240 19676,3240 19901,3455 19901,3611 19961,3611 19961,3455 20186,3240 "/>
  <path class="fil3" d="M4906 1869l-46 27 0 -90c16,21 32,42 46,63z"/>
  <path class="fil3" d="M4877 1433l78 45 95 55 -79 46c-29,-46 -60,-91 -94,-135l0 -11z"/>
  <polygon class="fil3" points="5272,893 5080,1003 5080,894 5080,784 "/>
  <polygon class="fil4" points="3280,1786 3183,1842 3087,1897 3087,1676 "/>
  <polygon class="fil3" points="3068,1643 2874,1533 2971,1477 3068,1422 "/>
  <polygon class="fil5" points="3289,2026 3095,1916 3193,1860 3289,1805 "/>
  <polygon class="fil6" points="3308,1805 3404,1860 3501,1915 3308,2025 "/>
  <polygon class="fil5" points="3068,1131 2972,1076 2874,1020 3068,909 "/>
  <polygon class="fil7" points="3058,893 2866,1003 2866,894 2866,784 "/>
  <polygon class="fil3" points="3068,877 2874,767 2971,711 3068,656 "/>
  <polygon class="fil3" points="3068,1166 3068,1276 3068,1387 2874,1276 "/>
  <polygon class="fil5" points="3280,254 3183,310 3087,365 3087,144 "/>
  <polygon class="fil3" points="3289,17 3289,127 3289,238 3095,127 "/>
  <polygon class="fil3" points="3732,17 3732,127 3732,238 3538,127 "/>
  <polygon class="fil7" points="3501,127 3308,237 3308,127 3308,18 "/>
  <polygon class="fil8" points="4175,17 4175,127 4175,238 3981,127 "/>
  <polygon class="fil9" points="3943,127 3751,237 3751,127 3751,18 "/>
  <polygon class="fil4" points="4618,17 4618,127 4618,238 4424,127 "/>
  <polygon class="fil6" points="4386,127 4194,237 4194,127 4194,18 "/>
  <polygon class="fil5" points="3068,400 3068,510 3068,621 2874,510 "/>
  <polygon class="fil5" points="5273,637 5176,693 5080,748 5080,527 "/>
  <polygon class="fil4" points="5061,494 4867,384 4964,328 5060,273 "/>
  <polygon class="fil5" points="4839,365 4743,310 4645,254 4839,143 "/>
  <polygon class="fil9" points="5052,254 4955,310 4859,365 4858,144 "/>
  <polygon class="fil4" points="4829,127 4637,237 4637,127 4637,18 "/>
  <polygon class="fil9" points="5080,1039 5176,1094 5272,1150 5080,1260 "/>
  <path class="fil4" d="M3068 1955c-6,-5 -11,-10 -16,-14l16 -9 0 23z"/>
  <path class="fil4" d="M3253 2057c-60,-19 -117,-48 -166,-87l0 -37 192 109 -26 15z"/>
  <path class="fil4" d="M3289 2067c-3,-1 -7,-2 -11,-3l11 -6 0 9z"/>
  <path class="fil4" d="M3339 2076c-10,-1 -21,-3 -31,-5l0 -12 31 17z"/>
  <path class="fil3" d="M3510 2082l-89 0c-12,0 -24,0 -36,-1l-68 -39 193 -110 0 110 0 40z"/>
  <polygon class="fil4" points="3477,1694 3511,1694 3511,1897 3414,1842 3317,1786 "/>
  <path class="fil7" d="M3308 1647c2,1 3,2 4,3l3 3 -2 1c28,25 67,40 108,40l18 0 -131 75 0 -110 0 -12z"/>
  <path class="fil8" d="M3267 1561c3,22 10,42 22,61l0 37 0 110 -194 -110 172 -98z"/>
  <polygon class="fil5" points="3267,1525 3267,1540 3087,1642 3087,1422 3183,1477 "/>
  <polygon class="fil3" points="3267,1305 3267,1501 3193,1459 3095,1403 "/>
  <polygon class="fil4" points="3267,1269 3267,1283 3087,1386 3087,1277 3087,1167 "/>
  <polygon class="fil4" points="3267,1052 3267,1248 3095,1150 3193,1094 "/>
  <polygon class="fil3" points="3267,1012 3267,1028 3183,1076 3087,1131 3087,910 "/>
  <polygon class="fil4" points="3267,795 3267,991 3095,893 "/>
  <polygon class="fil6" points="3267,759 3267,774 3087,877 3087,656 3183,711 "/>
  <polygon class="fil8" points="3267,539 3267,735 3193,693 3095,637 "/>
  <polygon class="fil9" points="3267,503 3267,517 3087,620 3087,511 3087,401 "/>
  <path class="fil3" d="M3289 425c-11,17 -18,37 -21,57l-173 -98 98 -56 96 -55 0 152z"/>
  <path class="fil4" d="M3448 353l-27 0c-41,0 -80,16 -109,44l-1 0c-1,1 -2,2 -3,3l0 -127 96 55 44 25z"/>
  <polygon class="fil9" points="3511,353 3490,353 3414,310 3317,254 3511,143 "/>
  <polygon class="fil6" points="3550,353 3530,353 3530,144 3723,254 3626,310 "/>
  <polygon class="fil4" points="3732,353 3592,353 3636,328 3732,273 "/>
  <polygon class="fil7" points="3891,353 3751,353 3751,273 3847,328 "/>
  <polygon class="fil4" points="3954,353 3933,353 3857,310 3760,254 3953,143 "/>
  <polygon class="fil3" points="3993,353 3973,353 3973,144 4166,254 4069,310 "/>
  <polygon class="fil4" points="4175,353 4035,353 4078,328 4175,273 "/>
  <polygon class="fil3" points="4334,353 4194,353 4194,273 4290,328 "/>
  <polygon class="fil4" points="4396,353 4376,353 4300,310 4202,254 4396,143 "/>
  <polygon class="fil9" points="4436,353 4416,353 4416,144 4609,254 4512,310 "/>
  <polygon class="fil4" points="4618,353 4478,353 4521,328 4618,273 "/>
  <path class="fil4" d="M4822 388c-27,-22 -62,-35 -98,-35l-87 0 0 -80 96 55 97 55 -8 5z"/>
  <polygon class="fil4" points="4839,401 4838,400 4839,400 "/>
  <path class="fil8" d="M4878 609l0 -106c0,-27 -7,-53 -20,-76l0 -26 192 109 -172 99z"/>
  <polygon class="fil9" points="4878,644 4878,630 5061,526 5061,748 4964,693 "/>
  <polygon class="fil6" points="4878,865 4878,667 4955,711 5051,766 "/>
  <polygon class="fil5" points="4878,900 4878,887 5061,783 5061,893 5061,1004 "/>
  <polygon class="fil4" points="4878,1120 4878,921 5052,1020 4955,1076 "/>
  <polygon class="fil3" points="4878,1157 4878,1144 4964,1094 5060,1039 5061,1261 "/>
  <path class="fil4" d="M4986 1313c-34,-44 -69,-87 -108,-127l0 -8 172 98 -64 37z"/>
  <path class="fil9" d="M5061 1420c-21,-31 -42,-62 -64,-92l64 -36 0 128z"/>
  <path class="fil6" d="M5110 1497c-10,-16 -20,-32 -30,-48l0 -156 193 110 -97 56 -66 38z"/>
  <path class="fil7" d="M5279 1423l0 122c0,31 -3,62 -8,92l-116 -66c-11,-19 -22,-38 -34,-57l65 -37 93 -54z"/>
  <polygon class="fil5" points="5279,1167 5279,1385 5088,1276 "/>
  <polygon class="fil8" points="5279,911 5279,1129 5186,1076 5088,1020 "/>
  <polygon class="fil4" points="5279,657 5279,876 5088,767 5186,711 "/>
  <path class="fil4" d="M5270 406c6,32 9,64 9,97l0 116 -191 -109 182 -104z"/>
  <path class="fil6" d="M5264 379c1,2 2,5 2,8l-186 107 0 -221 96 55 88 51z"/>
  <path class="fil4" d="M5181 201c33,45 58,95 75,149l-70 -40 -98 -56 93 -53z"/>
  <path class="fil4" d="M5080 90c12,11 25,21 36,33l7 6 -7 0c19,18 37,37 53,57l-89 51 0 -110 0 -37z"/>
  <path class="fil5" d="M5013 44c16,9 32,20 48,31l0 52 0 111 -194 -111 146 -83z"/>
  <path class="fil4" d="M4858 -19c48,11 93,29 136,52l-136 77 0 -129z"/>
  <path class="fil3" d="M4730 -35c37,0 73,4 109,12l0 134 -193 -110 62 -36 22 0z"/>
  <polygon class="fil4" points="4667,-35 4637,-18 4637,-35 "/>
  <polygon class="fil4" points="4618,-35 4618,-18 4588,-35 "/>
  <polygon class="fil3" points="4547,-35 4608,0 4416,110 4415,-35 "/>
  <polygon class="fil7" points="4396,-35 4396,111 4203,1 4265,-35 "/>
  <polygon class="fil4" points="4224,-35 4194,-18 4194,-35 "/>
  <polygon class="fil4" points="4175,-35 4175,-18 4145,-35 "/>
  <polygon class="fil3" points="4104,-35 4165,0 3973,110 3973,-35 "/>
  <polygon class="fil5" points="3953,-35 3953,111 3760,1 3822,-35 "/>
  <polygon class="fil4" points="3781,-35 3751,-18 3751,-35 "/>
  <polygon class="fil4" points="3732,-35 3732,-18 3702,-35 "/>
  <polygon class="fil4" points="3661,-35 3723,0 3530,110 3530,-35 "/>
  <path class="fil4" d="M3377 -33c12,-1 25,-2 37,-2l1 0 96 0 0 146 -194 -110 60 -34z"/>
  <path class="fil4" d="M3308 -24c6,-1 11,-2 16,-3l-16 9 0 -6z"/>
  <polygon class="fil4" points="3287,-19 3289,-20 3289,-18 "/>
  <path class="fil4" d="M3087 74c52,-38 110,-67 172,-85l21 11 -193 110 0 -36z"/>
  <path class="fil4" d="M3052 102c5,-4 10,-9 16,-13l0 22 -16 -9z"/>
  <path class="fil7" d="M2988 167c13,-15 26,-30 40,-44l1 0c3,-3 5,-5 8,-8l21 12 -70 40z"/>
  <path class="fil8" d="M2917 278c12,-25 26,-50 42,-73l109 -62 0 222 -96 -55 -55 -32z"/>
  <path class="fil3" d="M2866 493c1,-68 15,-134 42,-196l54 31 96 55 -192 110z"/>
  <polygon class="fil6" points="2866,748 2866,527 3059,637 2962,693 "/>
  <polygon class="fil4" points="2866,1260 2866,1039 2962,1094 3058,1150 "/>
  <polygon class="fil8" points="2866,1514 2866,1293 3059,1403 2962,1459 "/>
  <path class="fil5" d="M2906 1746c-26,-62 -40,-128 -40,-196l192 109 -152 87z"/>
  <path class="fil4" d="M2950 1829c-14,-21 -26,-43 -37,-66l155 -88 0 222 -96 -55 -22 -13z"/>
  <path class="fil4" d="M3034 1929l-6 -4c-17,-18 -34,-36 -49,-55l79 45 -24 14z"/>
  <polygon class="fil9" points="5060,1512 4965,1457 4877,1406 4877,1397 5060,1291 "/>
  <polygon class="fil6" points="5269,1402 5174,1457 5079,1512 5079,1292 "/>
  <polygon class="fil4" points="5050,1275 4877,1375 4877,1176 "/>
  <path class="fil4" d="M5258 1687c-16,55 -41,108 -74,155l-1 -1 -75 -44c-4,-6 -8,-11 -11,-17l161 -93z"/>
  <path class="fil3" d="M5266 1658c0,1 -1,2 -1,3l-178 103 -8 -13 0 -201 187 108z"/>
  <path class="fil7" d="M5278 1571c-1,23 -4,46 -8,68l-182 -105 95 -56 95 -55 0 148z"/>
  <path class="fil7" d="M5172 1858c-5,6 -9,12 -14,18 -9,-13 -18,-27 -27,-42l41 24z"/>
  <path class="fil8" d="M5060 1549l0 170c-26,-41 -52,-83 -78,-125l78 -45z"/>
  <polygon class="fil7" points="3732,2026 3538,1916 3636,1860 3732,1805 "/>
  <polygon class="fil3" points="3751,1805 3847,1860 3944,1915 3751,2025 "/>
  <path class="fil6" d="M4175 2026l-194 -110 97 -56 81 -46c6,4 11,8 16,12l0 200z"/>
  <polygon class="fil4" points="3652,2082 3530,2082 3530,2043 3530,1933 3722,2042 "/>
  <polygon class="fil6" points="3732,2082 3689,2082 3732,2058 "/>
  <polygon class="fil5" points="3792,2082 3751,2082 3751,2059 "/>
  <polygon class="fil8" points="3953,2082 3830,2082 3760,2042 3953,1932 3953,2042 "/>
  <polygon class="fil4" points="4095,2082 3973,2082 3973,2043 3973,1933 4165,2042 "/>
  <polygon class="fil7" points="4175,2082 4132,2082 4175,2058 "/>
  <polygon class="fil4" points="4235,2082 4194,2082 4194,2059 "/>
  <path class="fil7" d="M4377 2082l-104 0 -70 -40 109 -62c23,33 44,67 65,102z"/>
  <path class="fil3" d="M4141 1800l-72 42 -96 55 0 -178c65,19 120,47 168,81z"/>
  <path class="fil4" d="M3954 1713l0 184 -97 -55 -97 -56 145 -83c17,3 33,6 49,10z"/>
  <path class="fil3" d="M3751 1694l90 0c12,1 23,2 34,4l-124 71 0 -75z"/>
  <polygon class="fil5" points="3600,1694 3661,1694 3732,1694 3732,1769 "/>
  <polygon class="fil8" points="3530,1694 3562,1694 3723,1786 3626,1842 3530,1897 "/>
  <path class="fil3" d="M4301 1965l-107 60 0 -182c40,36 75,77 107,122z"/>
  <g style="clip-path:url(#id0)">
   <image x="3972" y="1718" width="406" height="368" xlink:href="9028-logo-new-01-b03a7a0a-41b1-41a6-94cf-75130f0f661e_Images\9028-logo-new-01-b03a7a0a-41b1-41a6-94cf-75130f0f661e_ImgID1.png"/>
  </g>
  <polygon class="fil4" points="4619,2081 4576,2081 4619,2057 "/>
  <path class="fil4" d="M4860 2053c2,4 4,7 6,11 -2,0 -4,1 -6,1l0 -12z"/>
  <path class="fil4" d="M4745 1865l7 13c13,20 25,40 37,60l-151 87 0 -221 96 55 11 6z"/>
  <polygon class="fil6" points="4619,1548 4619,1658 4619,1768 4425,1658 "/>
  <polygon class="fil6" points="4398,1642 4204,1532 4301,1476 4398,1421 "/>
  <polygon class="fil6" points="4417,1421 4513,1476 4610,1531 4417,1641 "/>
  <polygon class="fil10" points="4840,1931 4840,2041 4840,2152 4647,2041 "/>
  <polygon class="fil3" points="4638,1804 4734,1859 4831,1914 4638,2025 "/>
  <polygon class="fil10" points="4176,1513 4080,1458 3982,1402 4176,1291 "/>
  <polygon class="fil3" points="4389,1402 4292,1458 4195,1513 4195,1292 "/>
  <polygon class="fil4" points="4166,1275 3974,1385 3974,1276 3974,1166 "/>
  <polygon class="fil6" points="5062,2279 4966,2224 4868,2168 5062,2057 "/>
  <polygon class="fil8" points="5052,2041 4860,2151 4860,2042 4860,1932 "/>
  <polygon class="fil10" points="4841,1896 4744,1841 4647,1785 4841,1674 "/>
  <polygon class="fil6" points="4830,1658 4638,1768 4638,1658 4638,1549 "/>
  <polygon class="fil10" points="5505,2792 5311,2682 5408,2626 5505,2571 "/>
  <polygon class="fil3" points="5524,2571 5620,2626 5717,2681 5524,2791 "/>
  <polygon class="fil10" points="5062,2314 5062,2425 5062,2535 4868,2425 "/>
  <polygon class="fil6" points="4860,2187 4956,2243 5052,2298 4860,2408 "/>
  <polygon class="fil6" points="5284,2663 5187,2607 5089,2551 5283,2441 "/>
  <polygon class="fil8" points="5496,2552 5399,2607 5303,2663 5303,2441 "/>
  <polygon class="fil6" points="5273,2425 5081,2534 5081,2425 5081,2315 "/>
  <polygon class="fil6" points="5726,2663 5630,2607 5532,2551 5726,2441 "/>
  <path class="fil4" d="M5678 2381c16,1 32,1 48,1l0 27 -48 -28z"/>
  <path class="fil3" d="M5524 2360c35,9 71,15 111,19l81 46 -192 109 0 -109 0 -65z"/>
  <path class="fil10" d="M5459 2340c15,5 30,10 46,15l0 70 0 110 -194 -110 148 -85z"/>
  <path class="fil6" d="M5302 2254c41,30 85,57 135,77l-134 77 -1 -154z"/>
  <path class="fil6" d="M5248 2208c11,10 23,21 35,31l0 170 -193 -110 97 -56 61 -35z"/>
  <path class="fil8" d="M5150 2097c26,34 53,66 82,95l-55 32 -96 55 0 -221 69 39z"/>
  <path class="fil6" d="M5104 2033c7,9 13,18 19,27l-33 -19 14 -8z"/>
  <path class="fil6" d="M5081 1997c4,7 9,14 13,20l-13 8 0 -28z"/>
  <path class="fil6" d="M4989 1846l15 25c19,32 38,64 58,96l0 58 -194 -110 97 -56 24 -13z"/>
  <path class="fil6" d="M4897 1696c28,43 55,88 81,132l-22 13 -96 55 0 -221 37 21z"/>
  <path class="fil6" d="M4739 1479c36,42 70,87 101,132l0 31 -193 -110 92 -53z"/>
  <path class="fil6" d="M4638 1374c31,29 60,58 87,89l-87 50 0 -139z"/>
  <path class="fil6" d="M4572 1318c16,13 32,26 47,39l0 156 -96 -55 -98 -56 147 -84z"/>
  <path class="fil8" d="M4417 1218c50,26 96,56 139,88l-139 79 0 -109 0 -58z"/>
  <path class="fil6" d="M4355 1189c15,6 29,13 42,19l0 68 1 110 -194 -111 151 -86z"/>
  <path class="fil6" d="M4195 1133c49,14 95,29 139,47l-139 79 0 -126z"/>
  <path class="fil6" d="M4059 1105c41,7 80,14 117,24l0 131 -194 -111 77 -44z"/>
  <path class="fil6" d="M3974 1095c18,1 35,3 52,5l-52 30 0 -35z"/>
  <path class="fil6" d="M3882 1088c25,1 49,3 73,5l0 37 -73 -42z"/>
  <path class="fil6" d="M3739 1265l0 -2 0 -184c22,1 60,3 91,5l115 65 -206 116z"/>
  <polygon class="fil6" points="3760,1274 3955,1165 3955,1276 3955,1386 "/>
  <polygon class="fil11" points="3827,1471 3739,1520 3739,1300 3739,1285 3946,1402 3849,1458 "/>
  <path class="fil6" d="M3955 1590c-71,-12 -148,-15 -216,-16l0 -26 119 -72 97 -55 0 169z"/>
  <path class="fil6" d="M4033 1608c-19,-6 -39,-10 -59,-14l0 -173 96 55 97 55 -134 77z"/>
  <path class="fil6" d="M4176 1667c-36,-20 -75,-38 -118,-52l118 -67 0 110 0 9z"/>
  <path class="fil6" d="M4265 1728c-22,-18 -45,-34 -70,-49l0 -21 0 -109 193 109 -123 70z"/>
  <path class="fil8" d="M4398 1865c-36,-45 -74,-87 -118,-124l118 -67 0 191z"/>
  <path class="fil4" d="M4420 1894c-1,-1 -2,-2 -3,-4l0 -215 193 110 -97 56 -93 53z"/>
  <path class="fil6" d="M4441 1924c-3,-4 -6,-9 -9,-13l91 -52 96 -55 0 221 -178 -101z"/>
  <path class="fil4" d="M4541 2080c-25,-41 -50,-81 -76,-121l144 82 -68 39z"/>
  <path class="fil6" d="M4619 2211c-19,-31 -37,-62 -55,-93l-14 -22 69 -39 0 154z"/>
  <path class="fil8" d="M4655 2269c-5,-9 -11,-18 -17,-27l0 -184 193 110 -96 56 -80 45z"/>
  <path class="fil6" d="M4690 2323c-8,-12 -16,-24 -23,-36l77 -44 96 -56 0 222 -150 -86z"/>
  <path class="fil6" d="M4781 2453c-23,-31 -46,-63 -68,-95l117 67 -49 28z"/>
  <path class="fil6" d="M4841 2524c-17,-18 -33,-37 -48,-56l48 -27 0 83z"/>
  <path class="fil3" d="M4935 2620c-27,-24 -52,-49 -75,-74l0 -105 193 111 -97 55 -21 13z"/>
  <path class="fil6" d="M5062 2717c-40,-25 -77,-53 -111,-83l14 -8 97 -55 0 146z"/>
  <path class="fil8" d="M5136 2760c-19,-10 -37,-21 -55,-31l0 -158 96 55 97 55 -138 79z"/>
  <path class="fil6" d="M5283 2820c-45,-14 -87,-31 -127,-50l127 -73 0 111 0 12z"/>
  <path class="fil4" d="M5415 2853c-39,-7 -77,-16 -112,-27l0 -18 -1 -110 193 110 -80 45z"/>
  <path class="fil6" d="M5505 2867c-21,-2 -42,-5 -61,-8l61 -35 0 43z"/>
  <path class="fil6" d="M5614 2876c-31,-2 -61,-4 -90,-7l0 -44 90 51z"/>
  <path class="fil10" d="M5726 2877c-25,0 -49,0 -72,0l-122 -69 194 -111 0 111 0 69z"/>
  <g style="clip-path:url(#id1)">
   <image x="1316" y="-6356" width="20248" height="3706" xlink:href="9028-logo-new-01-b03a7a0a-41b1-41a6-94cf-75130f0f661e_Images\9028-logo-new-01-b03a7a0a-41b1-41a6-94cf-75130f0f661e_ImgID2.png"/>
  </g>
 </g>
</svg>
