<?xml version="1.0" encoding="utf-8"?>
<!-- Generator: Adobe Illustrator 16.0.0, SVG Export Plug-In . SVG Version: 6.00 Build 0)  -->
<!DOCTYPE svg PUBLIC "-//W3C//DTD SVG 1.0//EN" "http://www.w3.org/TR/2001/REC-SVG-20010904/DTD/svg10.dtd">
<svg version="1.0" id="Layer_1" xmlns="http://www.w3.org/2000/svg" xmlns:xlink="http://www.w3.org/1999/xlink" x="0px" y="0px"
	 width="62.094px" height="90.76px" viewBox="0 2.716 62.094 90.76" enable-background="new 0 2.716 62.094 90.76"
	 xml:space="preserve">
<g>
	<path fill="#2F2F2F" d="M29.279,6.233l4.665-3.293l1.349,0.758l-0.385,5.701l-1.425-0.801l0.505-4.813l0.539,0.303l-3.852,2.931
		L29.279,6.233z M30.939,6.017l0.88-0.739l2.364,1.33L34.01,7.744L30.939,6.017z"/>
	<path fill="#2F2F2F" d="M37.438,11.187l3.274-3.984l0.999,0.821l0.187,4.597l-0.472-0.388l2.18-2.652l1.189,0.977l-3.274,3.984
		l-0.999-0.821l-0.187-4.597l0.472,0.388l-2.18,2.652L37.438,11.187z"/>
	<path fill="#2F2F2F" d="M44.193,17.176l3.946-3.32l0.833,0.989l-0.655,4.554l-0.394-0.468l2.627-2.21l0.991,1.178l-3.946,3.321
		l-0.833-0.99l0.655-4.554l0.394,0.467l-2.627,2.21L44.193,17.176z"/>
	<path fill="#2F2F2F" d="M50.992,26.785c-0.215-0.389-0.354-0.78-0.42-1.172c-0.065-0.393-0.06-0.77,0.02-1.13
		c0.078-0.36,0.223-0.687,0.432-0.978c0.21-0.291,0.484-0.53,0.824-0.718s0.688-0.293,1.046-0.315
		c0.358-0.023,0.711,0.029,1.058,0.154c0.348,0.125,0.67,0.32,0.968,0.585c0.297,0.265,0.554,0.591,0.769,0.98
		c0.217,0.394,0.358,0.786,0.422,1.176c0.064,0.39,0.057,0.765-0.023,1.123c-0.079,0.358-0.224,0.684-0.432,0.978
		s-0.482,0.534-0.822,0.721c-0.34,0.188-0.689,0.292-1.051,0.313c-0.362,0.021-0.715-0.03-1.058-0.154
		c-0.344-0.125-0.664-0.318-0.96-0.58C51.467,27.507,51.21,27.179,50.992,26.785z M52.05,26.201
		c0.103,0.185,0.228,0.341,0.376,0.467s0.313,0.217,0.492,0.272c0.179,0.055,0.366,0.072,0.563,0.052
		c0.196-0.021,0.391-0.084,0.585-0.191c0.197-0.109,0.356-0.241,0.476-0.395c0.12-0.154,0.204-0.321,0.253-0.502
		c0.049-0.181,0.06-0.368,0.031-0.561c-0.028-0.193-0.093-0.382-0.195-0.567c-0.103-0.186-0.228-0.341-0.376-0.468
		s-0.313-0.217-0.491-0.272c-0.18-0.055-0.366-0.073-0.561-0.053c-0.193,0.02-0.39,0.084-0.587,0.193
		c-0.194,0.106-0.352,0.238-0.474,0.393s-0.207,0.323-0.256,0.504c-0.049,0.181-0.06,0.368-0.031,0.561S51.948,26.016,52.05,26.201z
		"/>
	<path fill="#2F2F2F" d="M54.556,35.102c-0.245-0.782-0.237-1.456,0.024-2.019c0.261-0.564,0.757-0.96,1.488-1.189l2.728-0.854
		l0.47,1.499l-2.687,0.841c-0.422,0.132-0.696,0.316-0.822,0.553c-0.127,0.236-0.142,0.511-0.044,0.824
		c0.099,0.313,0.267,0.529,0.505,0.649c0.237,0.119,0.567,0.113,0.989-0.019l2.687-0.84l0.462,1.477l-2.729,0.854
		c-0.73,0.229-1.364,0.186-1.9-0.128S54.801,35.885,54.556,35.102z"/>
	<path fill="#2F2F2F" d="M56.18,41.19l5.131-0.52l0.131,1.287l-3.107,3.393l-0.062-0.608l3.416-0.346l0.154,1.531l-5.131,0.519
		l-0.13-1.287l3.107-3.393l0.062,0.608l-3.416,0.346L56.18,41.19z"/>
	<path fill="#2F2F2F" d="M56.328,52.923c0.042-0.438,0.146-0.836,0.311-1.195c0.164-0.357,0.38-0.662,0.646-0.91
		s0.568-0.434,0.908-0.555c0.339-0.121,0.705-0.164,1.096-0.126c0.392,0.037,0.742,0.147,1.053,0.331
		c0.311,0.185,0.572,0.424,0.786,0.717c0.214,0.295,0.367,0.633,0.462,1.018c0.094,0.383,0.12,0.793,0.078,1.23
		c-0.049,0.51-0.176,0.959-0.38,1.346c-0.205,0.387-0.477,0.701-0.815,0.939l-0.741-1.076c0.213-0.16,0.381-0.342,0.504-0.545
		s0.197-0.438,0.223-0.699c0.021-0.227,0.007-0.439-0.043-0.635c-0.051-0.195-0.134-0.367-0.251-0.514
		c-0.116-0.146-0.262-0.268-0.436-0.361s-0.37-0.15-0.59-0.172c-0.221-0.021-0.425-0.002-0.613,0.057
		c-0.188,0.061-0.354,0.15-0.495,0.271c-0.143,0.123-0.257,0.275-0.344,0.457c-0.087,0.184-0.141,0.389-0.162,0.615
		c-0.025,0.264,0.003,0.506,0.085,0.729c0.083,0.225,0.213,0.434,0.392,0.633l-0.932,0.914c-0.282-0.297-0.488-0.656-0.618-1.074
		C56.319,53.897,56.279,53.432,56.328,52.923z"/>
	<path fill="#2F2F2F" d="M56.165,60.389l-0.808,2.789l-1.083-0.313l1.241-4.283l4.953,1.436l-1.212,4.184l-1.082-0.313l0.779-2.69
		L56.165,60.389z M58.149,60.848l-0.718,2.477l-1.047-0.303l0.718-2.478L58.149,60.848z"/>
	<path fill="#2F2F2F" d="M53.036,66.163l4.564,2.401l-0.602,1.145l-4.175,0.403l0.317-0.604l2.063,3.612l-0.603,1.145l-4.571-2.387
		l0.672-1.277l2.766,1.437l-0.114,0.218l-1.529-2.696l0.325-0.617l3.109-0.31l-0.141,0.267l-2.758-1.451L53.036,66.163z"/>
	<path fill="#2F2F2F" d="M47.782,76.859l-1.821,2.262l-0.878-0.707l2.797-3.473l4.017,3.234l-2.731,3.393l-0.878-0.707l1.757-2.181
		L47.782,76.859z M49.437,78.049l-1.618,2.008l-0.849-0.684l1.617-2.009L49.437,78.049z"/>
	<path fill="#2F2F2F" d="M42.652,80.975l3.396,3.882l-0.974,0.852l-4.565-0.567l0.46-0.402l2.261,2.584l-1.158,1.014l-3.396-3.882
		l0.973-0.852l4.565,0.567l-0.459,0.402l-2.261-2.584L42.652,80.975z"/>
	<path fill="#2F2F2F" d="M34.604,87.27l2.104,3.402l1.451-0.897l0.607,0.984l-4.23,2.616l-0.608-0.984l1.444-0.893l-2.104-3.402
		L34.604,87.27z"/>
</g>
<path fill="#22B78A" d="M50.208,36.692c-0.508-0.591-1.111-1.09-1.789-1.477c-1.177-0.671-2.527-0.974-3.879-0.873l-3.403-9.251
	c-0.368-1.003-1.262-1.654-2.33-1.696c-1.046-0.043-1.971,0.509-2.43,1.445c-4.574,6.9-12.252,11.388-19.727,15.392
	c-0.429,0.23-0.746,0.596-0.927,1.02c-0.464-0.105-0.95-0.046-1.375,0.162c-2.284,1.122-4.625,2.125-7.012,3.004
	c-1.973,0.727-2.989,2.922-2.263,4.897l3.95,10.738l-1.05,0.388c-1.184,0.432-2.5-0.177-2.938-1.359l-2.107-5.728
	c-0.324-0.879-0.085-1.854,0.612-2.487c0.311-0.281,0.335-0.766,0.053-1.076c-0.208-0.231-0.537-0.311-0.828-0.203
	c-0.092,0.033-0.177,0.084-0.25,0.15c-0.555,0.505-0.953,1.16-1.137,1.888c-0.19,0.748-0.149,1.528,0.119,2.257l2.107,5.727
	c0.352,0.956,1.053,1.719,1.979,2.146c0.925,0.427,1.962,0.469,2.918,0.116l1.12-0.412c0.934,1.512,2.833,2.209,4.563,1.575
	c0.707-0.261,1.428-0.513,2.159-0.756l2.886,7.84c0.726,1.974,2.922,2.989,4.896,2.262l1.908-0.702
	c1.974-0.725,2.99-2.922,2.262-4.896c-0.49-1.339-1.688-2.275-3.073-2.464l-1.499-4.072c8.375-1.848,16.922-2.21,25.428-1.082
	c0.478,0.063,0.95,0.009,1.381-0.15c0.486-0.179,0.921-0.487,1.257-0.909c0.642-0.799,0.811-1.849,0.46-2.809l-7.153-19.445
	c2.179,0.018,4.146,1.401,4.897,3.446c0.544,1.48,0.399,3.112-0.399,4.477c-0.103,0.173-0.131,0.382-0.079,0.577
	c0.052,0.199,0.178,0.363,0.354,0.467c0.195,0.115,0.434,0.135,0.648,0.056c0.165-0.06,0.305-0.177,0.393-0.329
	c0,0,0.002-0.002,0-0.002c0.496-0.843,0.807-1.802,0.9-2.775c0.101-1.019-0.028-2.029-0.387-2.995
	C51.141,38.003,50.731,37.305,50.208,36.692L50.208,36.692z M26.863,67.307c0.437,1.185-0.173,2.504-1.357,2.938l-1.909,0.702
	c-1.185,0.437-2.503-0.173-2.938-1.358l-2.861-7.777c0.145-0.044,0.288-0.089,0.432-0.133c0.135-0.041,0.266-0.08,0.399-0.119
	c0.242-0.074,0.487-0.144,0.731-0.214c0.122-0.034,0.244-0.068,0.367-0.103c0.236-0.067,0.475-0.133,0.711-0.197
	c0.139-0.037,0.277-0.075,0.416-0.11c0.212-0.056,0.424-0.11,0.638-0.164c0.166-0.043,0.333-0.084,0.503-0.127
	c0.078-0.019,0.154-0.037,0.233-0.055l1.734,4.719c0.11,0.304,0.401,0.503,0.726,0.499C25.654,65.797,26.529,66.4,26.863,67.307
	L26.863,67.307z M50.599,57.147c-0.301,0.378-0.768,0.567-1.247,0.502c-8.751-1.162-17.549-0.773-26.16,1.148l-4.917-13.367
	c-0.144-0.395-0.584-0.599-0.979-0.453c-0.396,0.144-0.598,0.586-0.453,0.98l4.852,13.191c-0.057,0.014-0.115,0.028-0.173,0.043
	l-0.199,0.049c-0.71,0.179-1.417,0.366-2.121,0.564l-0.055,0.016c-0.709,0.2-1.418,0.411-2.121,0.634
	c-0.064,0.021-0.127,0.039-0.19,0.061c-0.088,0.027-0.175,0.054-0.263,0.083c-0.012,0.002-0.024,0.009-0.038,0.013
	c-0.975,0.314-1.941,0.644-2.879,0.989c-1.183,0.435-2.501-0.174-2.937-1.357L6.506,48.789c-0.436-1.185,0.172-2.502,1.357-2.938
	c2.424-0.891,4.832-1.923,7.158-3.066c0.192-0.095,0.366-0.052,0.452-0.016c0.146,0.058,0.262,0.175,0.317,0.325
	c0.145,0.396,0.583,0.6,0.979,0.454c0.395-0.146,0.6-0.584,0.452-0.98l0,0c-0.023-0.063-0.049-0.126-0.079-0.188
	c-0.008-0.039-0.018-0.077-0.034-0.116c-0.093-0.259,0.018-0.553,0.264-0.686c7.662-4.105,15.541-8.718,20.306-15.938
	c0.021-0.031,0.04-0.065,0.056-0.1c0.279-0.603,0.846-0.626,1.014-0.619c0.166,0.007,0.729,0.077,0.958,0.698L50.81,55.811
	c0.007,0.012,0.002-0.002,0.005,0.01C50.981,56.275,50.902,56.769,50.599,57.147L50.599,57.147z"/>
<path fill="#22B78A" d="M36.698,48.011c0,20.266-16.431,36.697-36.698,36.697V11.3C20.267,11.3,36.698,27.732,36.698,48.011z"/>
<path fill="none" d="M182.666,56.015c0,27.06-21.939,48.998-48.999,48.998V7C160.727,7,182.666,28.939,182.666,56.015z"/>
<path fill="#FFFFFF" d="M35.56,57.11c-4.149,0.22-8.279,0.774-12.368,1.688l-4.917-13.367c-0.144-0.395-0.584-0.599-0.979-0.453
	c-0.396,0.144-0.598,0.586-0.453,0.98l4.852,13.191c-0.057,0.014-0.115,0.028-0.173,0.043l-0.199,0.049
	c-0.71,0.179-1.417,0.366-2.121,0.564l-0.055,0.016c-0.709,0.2-1.418,0.411-2.121,0.634c-0.064,0.021-0.127,0.039-0.19,0.061
	c-0.088,0.027-0.175,0.054-0.263,0.083c-0.012,0.002-0.024,0.009-0.038,0.013c-0.975,0.314-1.941,0.644-2.879,0.989
	c-1.183,0.435-2.501-0.174-2.937-1.357L6.506,48.789c-0.436-1.185,0.172-2.502,1.357-2.938c2.424-0.891,4.832-1.923,7.158-3.066
	c0.192-0.095,0.366-0.052,0.452-0.016c0.146,0.058,0.262,0.175,0.317,0.325c0.145,0.396,0.583,0.6,0.979,0.454
	c0.395-0.146,0.6-0.584,0.452-0.98c-0.023-0.063-0.049-0.126-0.079-0.188c-0.008-0.039-0.018-0.077-0.034-0.116
	c-0.093-0.259,0.018-0.553,0.264-0.686c5.4-2.893,10.904-6.043,15.354-10.177c-0.239-0.471-0.487-0.937-0.746-1.394
	c-4.376,4.153-9.903,7.32-15.328,10.226c-0.429,0.23-0.747,0.596-0.928,1.02c-0.463-0.104-0.95-0.046-1.375,0.162
	c-2.285,1.122-4.625,2.125-7.012,3.004c-1.973,0.727-2.989,2.921-2.263,4.897l3.95,10.738l-1.05,0.387
	c-1.184,0.433-2.5-0.176-2.938-1.358l-2.108-5.729c-0.324-0.879-0.085-1.854,0.612-2.487c0.311-0.281,0.335-0.766,0.053-1.076
	c-0.208-0.231-0.537-0.311-0.828-0.203c-0.092,0.033-0.177,0.084-0.25,0.15c-0.555,0.505-0.953,1.16-1.137,1.888
	c-0.19,0.748-0.149,1.528,0.119,2.257l2.107,5.727c0.352,0.956,1.053,1.719,1.979,2.146c0.925,0.427,1.962,0.469,2.918,0.116
	l1.12-0.412c0.934,1.512,2.833,2.209,4.563,1.575c0.707-0.261,1.428-0.513,2.159-0.756l2.886,7.84
	c0.726,1.974,2.922,2.989,4.896,2.262l1.908-0.702c1.974-0.725,2.99-2.922,2.262-4.896c-0.49-1.339-1.688-2.275-3.073-2.464
	l-1.499-4.072c3.77-0.832,7.577-1.347,11.399-1.576C35.277,58.154,35.425,57.635,35.56,57.11z M23.961,65.309
	c0.11,0.304,0.401,0.503,0.726,0.499c0.968-0.012,1.843,0.592,2.177,1.499c0.437,1.185-0.173,2.504-1.357,2.938l-1.909,0.702
	c-1.185,0.437-2.503-0.173-2.938-1.358l-2.861-7.777c0.145-0.044,0.288-0.089,0.432-0.133c0.135-0.041,0.266-0.08,0.399-0.119
	c0.242-0.074,0.487-0.144,0.731-0.214c0.122-0.034,0.244-0.068,0.367-0.103c0.236-0.067,0.475-0.133,0.711-0.197
	c0.139-0.037,0.277-0.075,0.416-0.11c0.212-0.056,0.424-0.11,0.638-0.164c0.166-0.043,0.333-0.084,0.503-0.127
	c0.078-0.019,0.154-0.037,0.233-0.055L23.961,65.309z"/>
<path fill="none" d="M162.002,50.009c0,26.107-22.794,47.275-50.912,47.275V2.716C139.208,2.716,162.002,23.884,162.002,50.009z"/>
<text transform="matrix(0.9386 0.5279 -0.4902 0.8716 134.708 7.9963)" fill="#2F2F2F" font-family="'Montserrat-ExtraBold'" font-size="7.3675">A</text>
<text transform="matrix(0.832 0.6837 -0.6349 0.7726 142.3408 12.5437)" fill="#2F2F2F" font-family="'Montserrat-ExtraBold'" font-size="7.3675">N</text>
<text transform="matrix(0.6934 0.824 -0.7651 0.6439 149.168 18.4597)" fill="#2F2F2F" font-family="'Montserrat-ExtraBold'" font-size="7.3675">N</text>
<text transform="matrix(0.5207 0.9426 -0.8753 0.4835 154.792 25.5071)" fill="#2F2F2F" font-family="'Montserrat-ExtraBold'" font-size="7.3675">O</text>
<text transform="matrix(0.3216 1.0278 -0.9544 0.2987 159.0547 33.8044)" fill="#2F2F2F" font-family="'Montserrat-ExtraBold'" font-size="7.3675">U</text>
<text transform="matrix(0.1084 1.0714 -0.9949 0.1007 161.4561 42.3459)" fill="#2F2F2F" font-family="'Montserrat-ExtraBold'" font-size="7.3675">N</text>
<text transform="matrix(-0.1025 1.072 -0.9955 -0.0952 162.0791 51.3308)" fill="#2F2F2F" font-family="'Montserrat-ExtraBold'" font-size="7.3675">C</text>
<text transform="matrix(-0.2996 1.0344 -0.9605 -0.2782 161.002 59.7576)" fill="#2F2F2F" font-family="'Montserrat-ExtraBold'" font-size="7.3675">E</text>
<text transform="matrix(-0.5013 0.9531 -0.885 -0.4655 158.627 67.3806)" fill="#2F2F2F" font-family="'Montserrat-ExtraBold'" font-size="7.3675">M</text>
<text transform="matrix(-0.6755 0.8387 -0.7788 -0.6272 153.5605 76.2175)" fill="#2F2F2F" font-family="'Montserrat-ExtraBold'" font-size="7.3675">E</text>
<text transform="matrix(-0.8105 0.7091 -0.6584 -0.7526 148.4023 82.3191)" fill="#2F2F2F" font-family="'Montserrat-ExtraBold'" font-size="7.3675">N</text>
<text transform="matrix(-0.916 0.5663 -0.5259 -0.8506 141.4131 88.0652)" fill="#2F2F2F" font-family="'Montserrat-ExtraBold'" font-size="7.3675">T</text>
<path fill="#22B78A" d="M155.54,38.401c-0.508-0.591-1.111-1.09-1.789-1.477c-1.177-0.671-2.527-0.974-3.879-0.873l-3.403-9.251
	c-0.368-1.003-1.262-1.654-2.33-1.696c-1.046-0.043-1.971,0.509-2.43,1.445c-4.574,6.9-12.252,11.388-19.727,15.392
	c-0.429,0.23-0.746,0.596-0.928,1.02c-0.463-0.105-0.949-0.046-1.375,0.162c-2.284,1.122-4.625,2.125-7.012,3.004
	c-1.973,0.727-2.988,2.922-2.263,4.897l3.95,10.738l-1.051,0.388c-1.184,0.432-2.499-0.177-2.938-1.359l-2.107-5.728
	c-0.324-0.879-0.085-1.854,0.612-2.487c0.312-0.281,0.335-0.766,0.053-1.076c-0.208-0.231-0.537-0.311-0.827-0.203
	c-0.093,0.033-0.178,0.084-0.25,0.15c-0.556,0.505-0.953,1.16-1.137,1.888c-0.19,0.748-0.15,1.528,0.118,2.257l2.106,5.727
	c0.352,0.956,1.054,1.719,1.979,2.146c0.926,0.427,1.963,0.469,2.919,0.116l1.12-0.412c0.934,1.512,2.833,2.209,4.563,1.575
	c0.707-0.261,1.429-0.513,2.16-0.756l2.885,7.84c0.727,1.974,2.923,2.989,4.896,2.262l1.908-0.702
	c1.974-0.725,2.99-2.922,2.262-4.896c-0.49-1.339-1.688-2.275-3.073-2.464l-1.499-4.072c8.375-1.848,16.923-2.21,25.429-1.082
	c0.478,0.063,0.95,0.009,1.381-0.15c0.486-0.179,0.921-0.487,1.257-0.909c0.642-0.799,0.811-1.849,0.46-2.809l-7.153-19.445
	c2.179,0.018,4.146,1.401,4.897,3.446c0.544,1.48,0.399,3.112-0.399,4.477c-0.103,0.173-0.131,0.382-0.079,0.577
	c0.052,0.199,0.178,0.363,0.354,0.467c0.195,0.115,0.434,0.135,0.648,0.056c0.165-0.06,0.305-0.177,0.393-0.329
	c0,0,0.002-0.002,0-0.002c0.496-0.843,0.807-1.802,0.9-2.775c0.101-1.019-0.028-2.029-0.387-2.995
	C156.473,39.712,156.063,39.014,155.54,38.401L155.54,38.401z M132.195,69.016c0.437,1.185-0.173,2.504-1.357,2.938l-1.908,0.702
	c-1.186,0.437-2.504-0.173-2.938-1.358l-2.861-7.777c0.145-0.044,0.287-0.089,0.432-0.133c0.135-0.041,0.266-0.08,0.398-0.119
	c0.242-0.074,0.488-0.144,0.731-0.214c0.122-0.034,0.244-0.068,0.367-0.103c0.235-0.067,0.476-0.133,0.711-0.197
	c0.14-0.037,0.276-0.075,0.415-0.11c0.213-0.056,0.425-0.11,0.639-0.164c0.166-0.043,0.334-0.084,0.503-0.127
	c0.077-0.019,0.153-0.037,0.233-0.055l1.733,4.719c0.11,0.304,0.401,0.503,0.726,0.499
	C130.986,67.506,131.861,68.109,132.195,69.016L132.195,69.016z M155.931,58.856c-0.301,0.378-0.768,0.567-1.247,0.502
	c-8.751-1.162-17.549-0.773-26.16,1.148l-4.917-13.367c-0.144-0.395-0.584-0.599-0.979-0.453c-0.396,0.144-0.598,0.586-0.453,0.98
	l4.853,13.191c-0.058,0.014-0.115,0.028-0.173,0.043l-0.199,0.049c-0.71,0.179-1.417,0.366-2.121,0.564l-0.055,0.016
	c-0.71,0.2-1.419,0.411-2.121,0.634c-0.064,0.021-0.127,0.039-0.19,0.061c-0.089,0.027-0.175,0.054-0.263,0.083
	c-0.012,0.002-0.023,0.009-0.037,0.013c-0.976,0.314-1.941,0.644-2.88,0.989c-1.183,0.435-2.501-0.174-2.937-1.357l-4.213-11.454
	c-0.436-1.185,0.172-2.502,1.357-2.938c2.424-0.891,4.832-1.923,7.158-3.066c0.191-0.095,0.365-0.052,0.451-0.016
	c0.146,0.058,0.263,0.175,0.317,0.325c0.145,0.396,0.583,0.6,0.979,0.454c0.395-0.146,0.6-0.584,0.452-0.98l0,0
	c-0.022-0.063-0.049-0.126-0.079-0.188c-0.008-0.039-0.018-0.077-0.033-0.116c-0.094-0.259,0.018-0.553,0.264-0.686
	c7.661-4.105,15.54-8.718,20.306-15.938c0.021-0.031,0.04-0.065,0.056-0.1c0.279-0.603,0.846-0.626,1.014-0.619
	c0.166,0.007,0.729,0.077,0.958,0.698l11.104,30.193c0.007,0.012,0.002-0.002,0.005,0.01
	C156.313,57.984,156.234,58.478,155.931,58.856L155.931,58.856z"/>
<path fill="#22B78A" d="M142.03,49.719c0,20.267-16.431,36.697-36.698,36.697V13.009C125.6,13.009,142.03,29.441,142.03,49.719z"/>
<path fill="#FFFFFF" d="M140.892,58.819c-4.149,0.22-8.279,0.774-12.368,1.688l-4.917-13.367c-0.144-0.395-0.584-0.599-0.979-0.453
	c-0.396,0.144-0.598,0.586-0.453,0.98l4.853,13.191c-0.058,0.014-0.115,0.028-0.173,0.043l-0.199,0.049
	c-0.71,0.179-1.417,0.366-2.121,0.564l-0.055,0.016c-0.71,0.2-1.419,0.411-2.121,0.634c-0.064,0.021-0.127,0.039-0.19,0.061
	c-0.089,0.027-0.175,0.054-0.263,0.083c-0.012,0.002-0.023,0.009-0.037,0.013c-0.976,0.314-1.941,0.644-2.88,0.989
	c-1.183,0.435-2.501-0.174-2.937-1.357l-4.213-11.454c-0.436-1.185,0.172-2.502,1.357-2.938c2.424-0.891,4.832-1.923,7.158-3.066
	c0.191-0.095,0.365-0.052,0.451-0.016c0.146,0.058,0.263,0.175,0.317,0.325c0.145,0.396,0.583,0.6,0.979,0.454
	c0.395-0.146,0.6-0.584,0.452-0.98c-0.022-0.063-0.049-0.126-0.079-0.188c-0.008-0.039-0.018-0.077-0.033-0.116
	c-0.094-0.259,0.018-0.553,0.264-0.686c5.4-2.893,10.903-6.043,15.354-10.177c-0.239-0.471-0.487-0.937-0.746-1.394
	c-4.376,4.153-9.902,7.32-15.328,10.226c-0.43,0.23-0.747,0.596-0.928,1.02c-0.464-0.104-0.95-0.046-1.375,0.162
	c-2.285,1.122-4.625,2.125-7.012,3.004c-1.973,0.727-2.99,2.921-2.264,4.897l3.95,10.738l-1.05,0.387
	c-1.184,0.433-2.5-0.176-2.938-1.358l-2.109-5.729c-0.324-0.879-0.085-1.854,0.612-2.487c0.312-0.281,0.335-0.766,0.053-1.076
	c-0.208-0.231-0.537-0.311-0.827-0.203c-0.093,0.033-0.178,0.084-0.25,0.15c-0.556,0.505-0.953,1.16-1.137,1.888
	c-0.19,0.748-0.15,1.528,0.118,2.257l2.106,5.727c0.352,0.956,1.054,1.719,1.979,2.146c0.926,0.427,1.963,0.469,2.919,0.116
	l1.12-0.412c0.934,1.512,2.833,2.209,4.563,1.575c0.707-0.261,1.429-0.513,2.16-0.756l2.885,7.84
	c0.727,1.974,2.923,2.989,4.896,2.262l1.908-0.702c1.974-0.725,2.99-2.922,2.262-4.896c-0.49-1.339-1.688-2.275-3.073-2.464
	l-1.499-4.072c3.771-0.832,7.577-1.347,11.399-1.576C140.609,59.863,140.757,59.344,140.892,58.819z M129.293,67.018
	c0.11,0.304,0.401,0.503,0.726,0.499c0.968-0.012,1.843,0.592,2.177,1.499c0.437,1.185-0.173,2.504-1.357,2.938l-1.908,0.702
	c-1.186,0.437-2.504-0.173-2.938-1.358l-2.861-7.777c0.145-0.044,0.287-0.089,0.432-0.133c0.135-0.041,0.266-0.08,0.398-0.119
	c0.242-0.074,0.488-0.144,0.731-0.214c0.122-0.034,0.244-0.068,0.367-0.103c0.235-0.067,0.476-0.133,0.711-0.197
	c0.14-0.037,0.276-0.075,0.415-0.11c0.213-0.056,0.425-0.11,0.639-0.164c0.166-0.043,0.334-0.084,0.503-0.127
	c0.077-0.019,0.153-0.037,0.233-0.055L129.293,67.018z"/>
<path fill="#22B78A" d="M324.037,33.902c-0.678-0.789-1.484-1.456-2.389-1.972c-1.572-0.896-3.375-1.301-5.18-1.166l-4.544-12.353
	c-0.491-1.339-1.685-2.209-3.11-2.264c-1.397-0.058-2.633,0.68-3.244,1.93c-6.107,9.213-16.359,15.204-26.338,20.551
	c-0.573,0.308-0.998,0.796-1.239,1.361c-0.619-0.14-1.269-0.062-1.836,0.216c-3.05,1.498-6.175,2.837-9.362,4.011
	c-2.634,0.971-3.99,3.901-3.021,6.538l5.274,14.338l-1.401,0.517c-1.582,0.577-3.338-0.235-3.924-1.813l-2.813-7.647
	c-0.434-1.175-0.114-2.476,0.816-3.32c0.416-0.377,0.447-1.022,0.07-1.438c-0.277-0.31-0.717-0.416-1.105-0.272
	c-0.123,0.045-0.235,0.113-0.334,0.202c-0.74,0.673-1.271,1.549-1.517,2.52c-0.254,0.998-0.2,2.041,0.158,3.014l2.813,7.646
	c0.469,1.277,1.406,2.295,2.642,2.865s2.619,0.625,3.896,0.155l1.496-0.551c1.247,2.018,3.783,2.949,6.094,2.103
	c0.942-0.348,1.906-0.684,2.883-1.008l3.853,10.467c0.968,2.636,3.901,3.991,6.536,3.021l2.548-0.938
	c2.636-0.968,3.993-3.902,3.021-6.538c-0.655-1.787-2.254-3.039-4.104-3.289l-2.001-5.438c11.181-2.467,22.595-2.95,33.951-1.444
	c0.638,0.085,1.269,0.012,1.845-0.201c0.648-0.237,1.229-0.65,1.678-1.214c0.855-1.066,1.082-2.468,0.613-3.749l-9.551-25.963
	c2.909,0.023,5.536,1.87,6.539,4.601c0.727,1.977,0.533,4.154-0.533,5.977c-0.137,0.231-0.175,0.511-0.105,0.771
	c0.068,0.266,0.236,0.484,0.473,0.623c0.262,0.153,0.579,0.181,0.866,0.074c0.22-0.08,0.407-0.236,0.524-0.439
	c0,0,0.002-0.002,0-0.003c0.662-1.125,1.077-2.405,1.202-3.705c0.134-1.36-0.038-2.709-0.516-3.999
	C325.282,35.652,324.736,34.72,324.037,33.902L324.037,33.902z M292.868,74.78c0.582,1.58-0.231,3.342-1.813,3.922l-2.548,0.938
	c-1.582,0.582-3.342-0.231-3.922-1.813l-3.821-10.385c0.193-0.059,0.385-0.119,0.577-0.178c0.181-0.054,0.354-0.106,0.533-0.159
	c0.323-0.099,0.649-0.191,0.976-0.284c0.162-0.046,0.326-0.092,0.49-0.138c0.314-0.09,0.635-0.178,0.949-0.264
	c0.186-0.05,0.37-0.1,0.555-0.147c0.284-0.074,0.566-0.146,0.852-0.219c0.223-0.058,0.445-0.113,0.672-0.169
	c0.104-0.025,0.206-0.051,0.311-0.074l2.315,6.302c0.147,0.404,0.536,0.671,0.97,0.666C291.254,72.762,292.421,73.567,292.868,74.78
	L292.868,74.78z M324.559,61.214c-0.401,0.504-1.024,0.757-1.666,0.67c-11.684-1.552-23.43-1.033-34.928,1.534L281.4,45.57
	c-0.192-0.526-0.78-0.8-1.309-0.604c-0.527,0.192-0.798,0.781-0.604,1.309l6.478,17.612c-0.075,0.018-0.153,0.037-0.231,0.057
	l-0.266,0.065c-0.947,0.238-1.892,0.489-2.832,0.755l-0.072,0.021c-0.948,0.268-1.895,0.549-2.832,0.846
	c-0.086,0.027-0.17,0.053-0.254,0.081c-0.119,0.036-0.234,0.071-0.352,0.11c-0.016,0.004-0.031,0.012-0.05,0.018
	c-1.302,0.419-2.591,0.859-3.845,1.32c-1.58,0.581-3.34-0.232-3.922-1.813l-5.623-15.293c-0.582-1.582,0.229-3.342,1.812-3.924
	c3.237-1.189,6.452-2.566,9.558-4.093c0.256-0.127,0.487-0.07,0.604-0.021c0.193,0.077,0.35,0.234,0.423,0.435
	c0.192,0.528,0.778,0.8,1.308,0.604c0.527-0.194,0.801-0.779,0.604-1.309l0,0c-0.03-0.085-0.064-0.168-0.105-0.251
	c-0.011-0.052-0.023-0.103-0.045-0.154c-0.125-0.347,0.023-0.739,0.352-0.916c10.229-5.48,20.75-11.64,27.113-21.28
	c0.028-0.041,0.053-0.086,0.074-0.133c0.372-0.804,1.129-0.836,1.354-0.826c0.222,0.01,0.974,0.103,1.279,0.932l14.825,40.313
	c0.009,0.016,0.002-0.003,0.007,0.014C325.07,60.049,324.963,60.71,324.559,61.214L324.559,61.214z"/>
<path fill="#22B78A" d="M305.999,49.014c0,27.06-21.938,48.998-48.999,48.998V-0.001C284.061-0.001,305.999,21.938,305.999,49.014z"
	/>
<path fill="#FFFFFF" d="M304.479,61.164c-5.539,0.293-11.055,1.034-16.514,2.254L281.4,45.57c-0.192-0.526-0.78-0.8-1.309-0.604
	c-0.527,0.192-0.798,0.781-0.604,1.309l6.478,17.612c-0.075,0.018-0.153,0.037-0.231,0.057l-0.266,0.065
	c-0.947,0.238-1.892,0.489-2.832,0.755l-0.072,0.021c-0.948,0.268-1.895,0.549-2.832,0.846c-0.086,0.027-0.17,0.053-0.254,0.081
	c-0.119,0.036-0.234,0.071-0.352,0.11c-0.016,0.004-0.031,0.012-0.05,0.018c-1.302,0.419-2.591,0.859-3.845,1.32
	c-1.58,0.581-3.34-0.232-3.922-1.813l-5.623-15.293c-0.582-1.582,0.229-3.342,1.812-3.924c3.237-1.189,6.452-2.566,9.558-4.093
	c0.256-0.127,0.487-0.07,0.604-0.021c0.193,0.077,0.35,0.234,0.423,0.435c0.192,0.528,0.778,0.8,1.308,0.604
	c0.527-0.194,0.801-0.779,0.604-1.309c-0.03-0.085-0.064-0.168-0.105-0.251c-0.011-0.052-0.023-0.103-0.045-0.154
	c-0.125-0.347,0.023-0.739,0.352-0.916c7.211-3.862,14.559-8.068,20.5-13.588c-0.319-0.629-0.65-1.25-0.996-1.861
	c-5.842,5.546-13.221,9.773-20.465,13.654c-0.573,0.308-0.998,0.796-1.239,1.361c-0.619-0.14-1.269-0.062-1.836,0.216
	c-3.05,1.498-6.175,2.837-9.362,4.011c-2.634,0.971-3.99,3.901-3.021,6.538l5.274,14.338l-1.401,0.517
	c-1.582,0.577-3.338-0.235-3.924-1.813l-2.814-7.648c-0.434-1.175-0.114-2.476,0.816-3.32c0.416-0.377,0.447-1.022,0.07-1.438
	c-0.277-0.31-0.717-0.416-1.105-0.272c-0.123,0.045-0.235,0.113-0.334,0.202c-0.74,0.673-1.271,1.549-1.517,2.52
	c-0.254,0.998-0.2,2.041,0.158,3.014l2.813,7.646c0.469,1.277,1.406,2.295,2.642,2.865s2.619,0.625,3.896,0.155l1.496-0.551
	c1.247,2.018,3.783,2.949,6.094,2.103c0.942-0.348,1.906-0.684,2.883-1.008l3.853,10.467c0.968,2.636,3.901,3.991,6.536,3.021
	l2.548-0.938c2.636-0.968,3.993-3.902,3.021-6.538c-0.655-1.787-2.254-3.039-4.104-3.289l-2.001-5.438
	c5.034-1.11,10.116-1.798,15.22-2.104C304.102,62.557,304.299,61.864,304.479,61.164z M288.992,72.112
	c0.148,0.404,0.537,0.671,0.97,0.666c1.292-0.017,2.459,0.789,2.906,2.002c0.582,1.58-0.231,3.342-1.813,3.922l-2.548,0.938
	c-1.582,0.582-3.342-0.231-3.922-1.813l-3.821-10.385c0.193-0.059,0.385-0.119,0.577-0.178c0.181-0.054,0.354-0.106,0.533-0.159
	c0.323-0.099,0.649-0.191,0.976-0.284c0.162-0.046,0.326-0.092,0.49-0.138c0.314-0.09,0.635-0.178,0.949-0.264
	c0.186-0.05,0.37-0.1,0.555-0.147c0.284-0.074,0.566-0.146,0.852-0.219c0.223-0.058,0.445-0.113,0.672-0.169
	c0.104-0.025,0.206-0.051,0.311-0.074L288.992,72.112z"/>
<text transform="matrix(1 0 0 1 -12.833 177.5066)" font-family="'Montserrat-Medium'" font-size="12">ANNOUNCEMENT</text>
</svg>
