<?xml version="1.0" encoding="utf-8"?>
<!-- Generator: Adobe Illustrator 16.0.0, SVG Export Plug-In . SVG Version: 6.00 Build 0)  -->
<!DOCTYPE svg PUBLIC "-//W3C//DTD SVG 1.0//EN" "http://www.w3.org/TR/2001/REC-SVG-20010904/DTD/svg10.dtd">
<svg version="1.0" id="Layer_1" xmlns="http://www.w3.org/2000/svg" xmlns:xlink="http://www.w3.org/1999/xlink" x="0px" y="0px"
	 width="133.558px" height="134.81px" viewBox="0 0 133.558 134.81" enable-background="new 0 0 133.558 134.81"
	 xml:space="preserve">
<path fill="#22B78A" d="M-152.454,57.607c-0.678-0.789-1.484-1.456-2.388-1.972c-1.573-0.896-3.376-1.3-5.18-1.166l-4.544-12.352
	c-0.491-1.339-1.685-2.209-3.11-2.264c-1.398-0.057-2.634,0.68-3.245,1.93c-6.107,9.213-16.359,15.204-26.338,20.551
	c-0.573,0.307-0.997,0.796-1.239,1.361c-0.619-0.14-1.268-0.062-1.836,0.216c-3.05,1.498-6.175,2.837-9.362,4.011
	c-2.634,0.97-3.991,3.901-3.021,6.538l5.274,14.338l-1.402,0.516c-1.581,0.577-3.338-0.235-3.923-1.813l-2.813-7.647
	c-0.433-1.175-0.114-2.475,0.817-3.32c0.415-0.377,0.447-1.023,0.07-1.438c-0.278-0.309-0.717-0.416-1.105-0.272
	c-0.123,0.045-0.236,0.113-0.334,0.202c-0.741,0.673-1.271,1.549-1.517,2.52c-0.254,0.998-0.2,2.041,0.158,3.013l2.812,7.647
	c0.469,1.277,1.407,2.295,2.642,2.865s2.619,0.625,3.896,0.155l1.496-0.55c1.247,2.017,3.783,2.949,6.093,2.102
	c0.943-0.348,1.906-0.684,2.883-1.008l3.853,10.467c0.968,2.636,3.901,3.991,6.536,3.021l2.548-0.938
	c2.636-0.968,3.993-3.902,3.021-6.538c-0.656-1.787-2.254-3.039-4.104-3.289l-2.001-5.439c11.18-2.466,22.595-2.95,33.951-1.444
	c0.637,0.085,1.268,0.012,1.844-0.201c0.649-0.237,1.229-0.65,1.679-1.214c0.855-1.066,1.082-2.468,0.612-3.749l-9.55-25.963
	c2.909,0.024,5.536,1.87,6.539,4.601c0.726,1.976,0.533,4.154-0.533,5.976c-0.137,0.232-0.175,0.511-0.105,0.771
	c0.068,0.265,0.235,0.484,0.472,0.623c0.262,0.153,0.579,0.181,0.866,0.074c0.22-0.08,0.408-0.236,0.525-0.439
	c0,0,0.002-0.002,0-0.003c0.662-1.125,1.077-2.406,1.202-3.705c0.134-1.361-0.039-2.709-0.516-3.999
	C-151.209,59.357-151.755,58.425-152.454,57.607L-152.454,57.607z M-183.623,98.485c0.582,1.58-0.231,3.342-1.813,3.922
	l-2.548,0.938c-1.582,0.582-3.342-0.231-3.922-1.813l-3.821-10.385c0.193-0.058,0.385-0.119,0.577-0.178
	c0.18-0.053,0.355-0.106,0.533-0.159c0.323-0.098,0.65-0.191,0.976-0.284c0.162-0.046,0.326-0.092,0.49-0.138
	c0.315-0.089,0.634-0.177,0.949-0.263c0.186-0.05,0.37-0.1,0.555-0.148c0.284-0.074,0.566-0.146,0.852-0.219
	c0.222-0.057,0.445-0.113,0.671-0.168c0.104-0.026,0.206-0.051,0.311-0.075l2.315,6.302c0.148,0.404,0.537,0.671,0.97,0.666
	C-185.237,96.467-184.07,97.272-183.623,98.485L-183.623,98.485z M-151.933,84.919c-0.402,0.504-1.025,0.756-1.667,0.67
	c-11.683-1.552-23.429-1.034-34.927,1.534l-6.564-17.848c-0.192-0.526-0.78-0.8-1.308-0.604c-0.528,0.192-0.798,0.781-0.604,1.308
	l6.478,17.612c-0.076,0.018-0.154,0.038-0.231,0.057l-0.266,0.066c-0.948,0.238-1.892,0.489-2.832,0.754l-0.073,0.021
	c-0.948,0.268-1.894,0.549-2.832,0.846c-0.086,0.027-0.17,0.052-0.254,0.081c-0.118,0.036-0.234,0.071-0.351,0.11
	c-0.016,0.004-0.032,0.012-0.05,0.018c-1.302,0.419-2.591,0.859-3.844,1.32c-1.58,0.581-3.34-0.232-3.922-1.813l-5.625-15.294
	c-0.582-1.582,0.229-3.341,1.812-3.923c3.237-1.19,6.452-2.567,9.557-4.093c0.257-0.127,0.488-0.07,0.604-0.022
	c0.194,0.078,0.35,0.235,0.423,0.435c0.193,0.528,0.779,0.8,1.307,0.604c0.528-0.194,0.801-0.779,0.604-1.308l0,0
	c-0.03-0.085-0.065-0.168-0.105-0.251c-0.011-0.052-0.024-0.103-0.045-0.154c-0.125-0.347,0.023-0.74,0.352-0.916
	c10.229-5.481,20.749-11.64,27.112-21.281c0.029-0.041,0.054-0.086,0.075-0.133c0.372-0.803,1.129-0.835,1.353-0.826
	c0.222,0.01,0.974,0.103,1.28,0.932l14.826,40.313c0.008,0.016,0.002-0.002,0.006,0.014
	C-151.421,83.754-151.528,84.415-151.933,84.919L-151.933,84.919z M-151.933,84.919"/>
<g>
	<path fill="#22B78A" d="M-52.144,76.514c0,27.06-21.939,48.998-48.999,48.998V27.499C-74.083,27.499-52.144,49.438-52.144,76.514z"
		/>
	<path fill="#313535" d="M-34.105,61.402c-0.678-0.789-1.484-1.456-2.388-1.972c-1.573-0.896-3.376-1.3-5.18-1.166l-4.544-12.352
		c-0.491-1.339-1.685-2.209-3.11-2.264c-1.398-0.057-2.634,0.68-3.245,1.93C-58.68,54.792-68.932,60.783-78.91,66.13
		c-0.573,0.307-0.997,0.796-1.239,1.361c-0.619-0.14-1.268-0.062-1.836,0.216c-3.05,1.498-6.175,2.837-9.362,4.011
		c-2.634,0.97-3.991,3.901-3.021,6.538l5.274,14.338l-1.402,0.516c-1.581,0.577-3.338-0.235-3.923-1.813l-2.813-7.647
		c-0.433-1.175-0.114-2.475,0.817-3.32c0.415-0.377,0.447-1.023,0.07-1.438c-0.278-0.309-0.717-0.416-1.105-0.272
		c-0.123,0.045-0.236,0.113-0.334,0.202c-0.741,0.673-1.271,1.549-1.517,2.52c-0.254,0.998-0.2,2.041,0.158,3.013l2.812,7.647
		c0.469,1.277,1.407,2.295,2.642,2.865s2.619,0.625,3.896,0.155l1.496-0.55c1.247,2.017,3.783,2.949,6.093,2.102
		c0.943-0.348,1.906-0.684,2.883-1.008l3.853,10.467c0.968,2.636,3.901,3.991,6.536,3.021l2.548-0.938
		c2.636-0.968,3.993-3.902,3.021-6.538c-0.656-1.787-2.254-3.039-4.104-3.289l-2.001-5.439c11.18-2.466,22.595-2.95,33.951-1.444
		c0.637,0.085,1.268,0.012,1.844-0.201c0.649-0.237,1.229-0.65,1.679-1.214c0.855-1.066,1.082-2.468,0.612-3.749l-9.55-25.963
		c2.909,0.024,5.536,1.87,6.539,4.601c0.726,1.976,0.533,4.154-0.533,5.976c-0.137,0.232-0.175,0.511-0.105,0.771
		c0.068,0.265,0.235,0.484,0.472,0.623c0.262,0.153,0.579,0.181,0.866,0.074c0.22-0.08,0.408-0.236,0.525-0.439
		c0,0,0.002-0.002,0-0.003c0.662-1.125,1.077-2.406,1.202-3.705c0.134-1.361-0.039-2.709-0.516-3.999
		C-32.86,63.152-33.406,62.22-34.105,61.402L-34.105,61.402z M-65.274,102.28c0.582,1.58-0.231,3.342-1.813,3.922l-2.548,0.938
		c-1.582,0.582-3.342-0.231-3.922-1.813l-3.821-10.385c0.193-0.058,0.385-0.119,0.577-0.178c0.18-0.053,0.355-0.106,0.533-0.159
		c0.323-0.098,0.65-0.191,0.976-0.284c0.162-0.046,0.326-0.092,0.49-0.138c0.315-0.089,0.634-0.177,0.949-0.263
		c0.186-0.05,0.37-0.1,0.555-0.148c0.284-0.074,0.566-0.146,0.852-0.219c0.222-0.057,0.445-0.113,0.671-0.168
		c0.104-0.026,0.206-0.051,0.311-0.075l2.315,6.302c0.148,0.404,0.537,0.671,0.97,0.666
		C-66.889,100.262-65.722,101.067-65.274,102.28L-65.274,102.28z M-33.584,88.714c-0.402,0.504-1.025,0.756-1.667,0.67
		c-11.683-1.552-23.429-1.034-34.927,1.534l-6.564-17.848c-0.192-0.526-0.78-0.8-1.308-0.604c-0.528,0.192-0.798,0.781-0.604,1.308
		l6.478,17.612c-0.076,0.018-0.154,0.038-0.231,0.057l-0.266,0.066c-0.948,0.238-1.892,0.489-2.832,0.754l-0.073,0.021
		c-0.948,0.268-1.894,0.549-2.832,0.846c-0.086,0.027-0.17,0.052-0.254,0.081c-0.118,0.036-0.234,0.071-0.351,0.11
		c-0.016,0.004-0.032,0.012-0.05,0.018c-1.302,0.419-2.591,0.859-3.844,1.32c-1.58,0.581-3.34-0.232-3.922-1.813l-5.625-15.294
		c-0.582-1.582,0.229-3.341,1.812-3.923c3.237-1.19,6.452-2.567,9.557-4.093c0.257-0.127,0.488-0.07,0.604-0.022
		c0.194,0.078,0.35,0.235,0.423,0.435c0.193,0.528,0.779,0.8,1.307,0.604c0.528-0.194,0.801-0.779,0.604-1.308l0,0
		c-0.03-0.085-0.065-0.168-0.105-0.251c-0.011-0.052-0.024-0.103-0.045-0.154c-0.125-0.347,0.023-0.74,0.352-0.916
		c10.229-5.481,20.749-11.64,27.112-21.281c0.029-0.041,0.054-0.086,0.075-0.133c0.372-0.803,1.129-0.835,1.353-0.826
		c0.222,0.01,0.974,0.103,1.28,0.932l14.826,40.313c0.008,0.016,0.002-0.002,0.006,0.014C-33.072,87.549-33.18,88.21-33.584,88.714
		L-33.584,88.714z M-33.584,88.714"/>
</g>
<path fill="#22B78A" d="M-170.492,72.719c0,27.06-21.939,48.998-48.999,48.998V23.704
	C-192.432,23.704-170.492,45.644-170.492,72.719z"/>
<path fill="#FFFFFF" d="M-172.013,84.869c-5.538,0.293-11.054,1.034-16.513,2.254l-6.564-17.848c-0.192-0.526-0.78-0.8-1.308-0.604
	c-0.528,0.192-0.798,0.781-0.604,1.308l6.478,17.612c-0.076,0.018-0.154,0.038-0.231,0.057l-0.266,0.066
	c-0.948,0.238-1.892,0.489-2.832,0.754l-0.073,0.021c-0.948,0.268-1.894,0.549-2.832,0.846c-0.086,0.027-0.17,0.052-0.254,0.081
	c-0.118,0.036-0.234,0.071-0.351,0.11c-0.016,0.004-0.032,0.012-0.05,0.018c-1.302,0.419-2.591,0.859-3.844,1.32
	c-1.58,0.581-3.34-0.232-3.922-1.813l-5.625-15.294c-0.582-1.582,0.229-3.341,1.812-3.923c3.237-1.19,6.452-2.567,9.557-4.093
	c0.257-0.127,0.488-0.07,0.604-0.022c0.194,0.078,0.35,0.235,0.423,0.435c0.193,0.528,0.779,0.8,1.307,0.604
	c0.528-0.194,0.801-0.779,0.604-1.308c-0.03-0.085-0.065-0.168-0.105-0.251c-0.011-0.052-0.024-0.103-0.045-0.154
	c-0.125-0.347,0.023-0.74,0.352-0.916c7.21-3.863,14.558-8.069,20.499-13.588c-0.319-0.629-0.65-1.25-0.996-1.862
	c-5.842,5.546-13.221,9.774-20.465,13.655c-0.573,0.307-0.997,0.796-1.239,1.361c-0.619-0.14-1.268-0.062-1.836,0.216
	c-3.05,1.498-6.175,2.837-9.362,4.011c-2.634,0.97-3.991,3.901-3.021,6.538l5.274,14.338l-1.402,0.516
	c-1.581,0.577-3.338-0.235-3.923-1.813l-2.813-7.647c-0.433-1.175-0.114-2.475,0.817-3.32c0.415-0.377,0.447-1.023,0.07-1.438
	c-0.278-0.309-0.717-0.416-1.105-0.272c-0.123,0.045-0.236,0.113-0.334,0.202c-0.741,0.673-1.271,1.549-1.517,2.52
	c-0.254,0.998-0.2,2.041,0.158,3.013l2.812,7.647c0.469,1.277,1.407,2.295,2.642,2.865s2.619,0.625,3.896,0.155l1.496-0.55
	c1.247,2.017,3.783,2.949,6.093,2.102c0.943-0.348,1.906-0.684,2.883-1.008l3.853,10.467c0.968,2.636,3.901,3.991,6.536,3.021
	l2.548-0.938c2.636-0.968,3.993-3.902,3.021-6.538c-0.656-1.787-2.254-3.039-4.104-3.289l-2.001-5.439
	c5.034-1.11,10.116-1.797,15.219-2.103C-172.39,86.262-172.192,85.569-172.013,84.869z M-187.499,95.817
	c0.148,0.404,0.537,0.671,0.97,0.666c1.292-0.017,2.459,0.789,2.906,2.002c0.582,1.58-0.231,3.342-1.813,3.922l-2.548,0.938
	c-1.582,0.582-3.342-0.231-3.922-1.813l-3.821-10.385c0.193-0.058,0.385-0.119,0.577-0.178c0.18-0.053,0.355-0.106,0.533-0.159
	c0.323-0.098,0.65-0.191,0.976-0.284c0.162-0.046,0.326-0.092,0.49-0.138c0.315-0.089,0.634-0.177,0.949-0.263
	c0.186-0.05,0.37-0.1,0.555-0.148c0.284-0.074,0.566-0.146,0.852-0.219c0.222-0.057,0.445-0.113,0.671-0.168
	c0.104-0.026,0.206-0.051,0.311-0.075L-187.499,95.817z"/>
<circle fill="none" stroke="#22B78A" stroke-miterlimit="10" cx="-192.485" cy="72.711" r="49.006"/>
<g>
	<polygon fill="#C2C1C1" points="80.313,73.146 59.105,88.244 101.048,84.982 	"/>
	<polygon fill="#A09F9F" points="94.231,85.514 101.048,84.982 80.313,73.146 72.217,78.91 	"/>
</g>
<g>
	<g>
		<g>
			<polygon fill="#313535" points="17.843,64.639 101.048,84.982 117.25,63.341 			"/>
		</g>
		<g>
			<polygon fill="#181919" points="117.25,63.341 17.843,64.639 112.211,70.073 			"/>
		</g>
	</g>
</g>
<polygon fill="#E2E2E2" points="20.728,14.717 17.843,64.639 133.558,67.236 129.807,0 "/>
<path fill-rule="evenodd" clip-rule="evenodd" fill="#22B78A" d="M25.308,129.934c-1.734-3.835-3.723-7.194-6.069-9.879l-3.41,1.792
	l-2.915,1.532l0.001,0.001l-0.264,0.139c1.959,4.105,4.351,7.254,6.926,9.996c0.15,0.559,0.421,1.315,0.789,1.295
	c0.744-0.038,4.799-1.717,5.327-2.047c0.365-0.229,1.026-0.793,1.075-1.22C26.817,131.085,25.763,130.309,25.308,129.934z"/>
<path fill-rule="evenodd" clip-rule="evenodd" fill="#1D895E" d="M25.692,132.763c0.365-0.229,1.026-0.793,1.075-1.22
	c0.05-0.458-1.005-1.234-1.46-1.609c-1.734-3.835-3.723-7.194-6.069-9.879l-1.305,0.687c2.863,3.542,4.81,6.904,6.262,10.173
	C24.963,131.567,25.438,132.18,25.692,132.763L25.692,132.763z"/>
<g>
	<path fill-rule="evenodd" clip-rule="evenodd" fill="#454949" d="M18.071,120.504c0.553,0.779,0.938,1.193,1.833,2.51
		c0.461-0.095,1.769-0.634,1.334-1.229c-0.794-1.093-0.997-2.119-1.313-2.475C19.664,119.016,17.753,120.058,18.071,120.504
		L18.071,120.504z"/>
	<path fill-rule="evenodd" clip-rule="evenodd" fill="#313535" d="M18.071,120.504c0.54,0.763,0.922,1.176,1.774,2.426
		c0.415-0.121,1.083-0.387,0.981-0.541c-0.47-0.725-1.203-2.364-1.558-3.004C18.646,119.636,17.858,120.203,18.071,120.504
		L18.071,120.504z"/>
</g>
<g>
	<path fill-rule="evenodd" clip-rule="evenodd" fill="#EAEAEA" d="M26.2,89.752c-2.327,6.477-10.883,13.1-15.029,15.282
		c-2.32,3.417,2.646,12.856,6.779,12.88c4.349-2.289,15.665-5.472,22.068-2.963c-0.021-0.013-0.044-0.028-0.065-0.04
		c-3.727-1.537-7.752-5.535-10.605-11.008C26.704,98.836,25.66,93.645,26.2,89.752L26.2,89.752z"/>
	<path fill-rule="evenodd" clip-rule="evenodd" fill="#DEDDDD" d="M39.953,114.911c-0.133-0.055-0.267-0.114-0.401-0.176
		c-0.031-0.015-0.062-0.029-0.093-0.043c-0.106-0.049-0.212-0.101-0.317-0.153c-0.034-0.018-0.064-0.034-0.1-0.051
		c-0.109-0.057-0.22-0.115-0.329-0.176c-0.026-0.013-0.051-0.026-0.076-0.04c-0.417-0.233-0.838-0.493-1.257-0.783
		c-0.015-0.009-0.028-0.02-0.042-0.028c-0.127-0.088-0.253-0.178-0.379-0.27c-0.018-0.013-0.034-0.026-0.052-0.038
		c-0.134-0.1-0.267-0.2-0.399-0.303c-0.003-0.005-0.008-0.008-0.013-0.011c-0.285-0.224-0.57-0.459-0.854-0.707
		c-0.003-0.003-0.006-0.006-0.009-0.009c-0.132-0.115-0.264-0.233-0.396-0.354c-0.019-0.018-0.037-0.034-0.057-0.053
		c-0.121-0.111-0.241-0.226-0.361-0.342c-0.018-0.017-0.033-0.032-0.05-0.048c-0.412-0.399-0.818-0.826-1.219-1.275
		c-0.013-0.015-0.027-0.03-0.04-0.044c-0.119-0.136-0.238-0.273-0.357-0.412c-1.39-1.633-2.687-3.549-3.805-5.692
		c-0.155-0.3-0.306-0.599-0.451-0.9c-0.921-1.905-1.619-3.817-2.089-5.659c-4.79,4.64-9.999,8.571-15.592,11.877
		c0.372,1.276,0.821,2.437,1.331,3.467c-0.002,0.002-0.003,0.002-0.005,0.002c0.351,0.837,0.936,1.782,1.646,2.639l0,0
		c0.004,0.007,0.01,0.012,0.016,0.019c0.061,0.071,0.121,0.145,0.184,0.216c0.003,0.002,0.006,0.005,0.008,0.009
		c0.067,0.076,0.137,0.152,0.206,0.228c0.01,0.012,0.021,0.021,0.031,0.034c0.057,0.059,0.112,0.119,0.17,0.178
		c0.021,0.02,0.042,0.041,0.062,0.062c0.05,0.05,0.099,0.098,0.147,0.146c0.022,0.022,0.047,0.045,0.069,0.067
		c0.05,0.046,0.098,0.091,0.147,0.136c0.022,0.021,0.046,0.042,0.068,0.063c0.06,0.053,0.119,0.105,0.18,0.155
		c0.012,0.011,0.025,0.023,0.037,0.032c0.072,0.06,0.144,0.117,0.216,0.174c0.024,0.02,0.049,0.039,0.073,0.055
		c0.049,0.038,0.098,0.077,0.147,0.111c0.03,0.021,0.06,0.043,0.089,0.063c0.046,0.033,0.09,0.064,0.136,0.093
		c0.03,0.022,0.063,0.042,0.094,0.063c0.045,0.03,0.092,0.058,0.138,0.086c0.029,0.018,0.059,0.035,0.089,0.053
		c0.058,0.034,0.115,0.066,0.175,0.097c0.018,0.012,0.036,0.021,0.056,0.031c0.071,0.038,0.145,0.073,0.218,0.107
		c0.027,0.012,0.055,0.023,0.083,0.035c0.049,0.022,0.098,0.042,0.146,0.062c0.029,0.012,0.061,0.023,0.092,0.034
		c0.047,0.018,0.094,0.035,0.14,0.05c0.03,0.009,0.061,0.019,0.091,0.027c0.05,0.016,0.1,0.027,0.15,0.041
		c0.026,0.006,0.052,0.014,0.078,0.02c0.076,0.017,0.15,0.032,0.227,0.043c4.349-2.289,15.665-5.472,22.068-2.963
		C39.997,114.938,39.975,114.923,39.953,114.911z"/>
</g>
<g>
	<path fill-rule="evenodd" clip-rule="evenodd" fill="#FFFFFF" d="M5.337,122.109c-4.085-0.339-6.548-5.615-4.729-9.397
		c0.049,1.54,0.496,3.415,1.453,5.231C2.996,119.72,4.169,121.168,5.337,122.109L5.337,122.109z"/>
	<path fill-rule="evenodd" clip-rule="evenodd" fill="#EAEAEA" d="M2.282,120.743c0.097,0.088,0.198,0.171,0.301,0.254
		c0.037,0.028,0.073,0.059,0.109,0.087c0.141,0.105,0.284,0.203,0.433,0.293c0.041,0.025,0.082,0.045,0.123,0.068
		c0.112,0.065,0.226,0.127,0.343,0.183c0.058,0.028,0.115,0.053,0.175,0.078c0.105,0.046,0.212,0.089,0.319,0.127
		c0.063,0.022,0.127,0.044,0.189,0.063c0.115,0.036,0.231,0.066,0.35,0.093c0.058,0.015,0.114,0.03,0.174,0.042
		c0.176,0.034,0.355,0.063,0.539,0.078c-1.168-0.941-2.341-2.39-3.276-4.166c-0.102-0.192-0.196-0.386-0.287-0.58
		c-0.027-0.06-0.052-0.118-0.078-0.179c-0.058-0.127-0.115-0.256-0.167-0.384c-0.451-1.1-0.728-2.192-0.85-3.188H0.677
		c-0.427,1.969-0.124,4.048,0.771,6.219c0.169,0.226,0.354,0.433,0.547,0.632c0.003,0.005,0.004,0.012,0.006,0.017
		c0.046,0.046,0.096,0.089,0.143,0.134C2.189,120.657,2.235,120.701,2.282,120.743z"/>
	<path fill-rule="evenodd" clip-rule="evenodd" fill="#DEDDDD" d="M5.337,122.109c-1.086-0.091-2.055-0.53-2.861-1.195
		c0.461-0.037,0.938-0.11,1.424-0.224C4.366,121.24,4.852,121.719,5.337,122.109L5.337,122.109z"/>
</g>
<g>
	<g>
		<path fill-rule="evenodd" clip-rule="evenodd" fill="#1D895E" d="M1.717,109.38c1.436-0.754,8.235-4.226,9.307-4.79
			c0.374-0.197,0.805-0.253,1.267-0.185c-0.369,0.221-0.743,0.43-1.119,0.629c-2.32,3.417,2.646,12.856,6.779,12.88
			c0.375-0.196,0.76-0.386,1.151-0.567c-0.208,0.422-0.496,0.743-0.87,0.939c-1.07,0.563-8.235,4.228-9.307,4.792
			c-1.801,0.947-4.874-1.352-6.864-5.135C0.071,114.162,0.282,110.136,1.717,109.38L1.717,109.38z"/>
		<path fill-rule="evenodd" clip-rule="evenodd" fill="#22B78A" d="M5.114,107.629c2.415-1.24,5.25-2.692,5.909-3.039
			c0.374-0.197,0.805-0.253,1.267-0.185c-0.369,0.221-0.743,0.43-1.119,0.629c-2.32,3.417,2.646,12.856,6.779,12.88
			c0.375-0.196,0.76-0.386,1.151-0.567c-0.208,0.422-0.496,0.743-0.87,0.939c-1.07,0.563-8.235,4.228-9.307,4.792
			c-1.124,0.591-2.743-0.083-4.286-1.592l0,0c-2.841-4.257-3.679-8.459-2.909-11.42L5.114,107.629z"/>
		<path fill-rule="evenodd" clip-rule="evenodd" fill="#1D895E" d="M17.95,117.914c-0.08,0-0.159-0.006-0.239-0.013
			c-0.026-0.002-0.054-0.007-0.08-0.01c-0.053-0.007-0.106-0.013-0.16-0.023c-0.032-0.005-0.065-0.012-0.096-0.019
			c-0.05-0.01-0.098-0.021-0.147-0.032c-0.034-0.009-0.066-0.019-0.101-0.027c-0.048-0.014-0.096-0.028-0.143-0.044
			c-0.034-0.011-0.069-0.022-0.104-0.035c-0.047-0.018-0.095-0.035-0.143-0.055c-0.034-0.014-0.067-0.027-0.102-0.042
			c-0.05-0.021-0.097-0.044-0.146-0.067c-0.032-0.015-0.064-0.029-0.097-0.046c-0.054-0.027-0.107-0.057-0.161-0.085
			c-0.027-0.015-0.055-0.03-0.082-0.046c-0.081-0.045-0.161-0.093-0.241-0.145c-0.003-0.002-0.008-0.006-0.014-0.009
			c-0.075-0.049-0.151-0.1-0.228-0.152c-0.025-0.019-0.052-0.038-0.077-0.058c-0.055-0.04-0.109-0.079-0.163-0.121
			c-0.03-0.022-0.059-0.046-0.088-0.068c-0.051-0.041-0.102-0.081-0.151-0.124c-0.03-0.025-0.062-0.05-0.091-0.076
			c-0.05-0.042-0.101-0.088-0.15-0.132c-0.028-0.025-0.056-0.052-0.085-0.077c-0.052-0.048-0.104-0.098-0.156-0.148
			c-0.025-0.023-0.051-0.048-0.076-0.073c-0.058-0.056-0.114-0.114-0.172-0.175c-0.019-0.019-0.037-0.037-0.056-0.056
			c-0.074-0.077-0.146-0.156-0.219-0.236c-0.003-0.002-0.005-0.004-0.007-0.007c-0.078-0.088-0.155-0.177-0.233-0.268h-0.001
			c-0.962-1.136-1.809-2.55-2.411-3.998l-1.062-0.327l-8.316,4.422c0.516,1.684,1.137,3.078,1.858,4.193l0,0
			c0.003,0.006,0.007,0.011,0.009,0.015c0.076,0.117,0.153,0.23,0.231,0.341c0.005,0.007,0.01,0.014,0.015,0.021
			c0.166,0.234,0.337,0.455,0.514,0.661c0.002,0.003,0.005,0.006,0.007,0.009c0.083,0.097,0.168,0.191,0.254,0.283
			c0.009,0.009,0.018,0.02,0.028,0.028c0.268,0.283,0.546,0.536,0.835,0.76c0.012,0.009,0.023,0.017,0.034,0.025
			c0.088,0.066,0.176,0.13,0.265,0.191c0.011,0.006,0.021,0.013,0.03,0.021c0.197,0.133,0.4,0.253,0.607,0.361
			c0.013,0.005,0.025,0.012,0.038,0.018c0.088,0.045,0.178,0.088,0.269,0.129c0.02,0.009,0.039,0.017,0.059,0.026
			c0.096,0.041,0.189,0.079,0.285,0.114c0.01,0.004,0.02,0.007,0.028,0.011c0.108,0.04,0.217,0.077,0.327,0.108
			c0.012,0.004,0.024,0.007,0.037,0.012c0.094,0.027,0.188,0.052,0.281,0.074c0.03,0.007,0.06,0.015,0.091,0.02
			c0.08,0.019,0.163,0.035,0.246,0.05c0.029,0.006,0.06,0.011,0.09,0.017c0.109,0.019,0.221,0.035,0.333,0.048
			c1.071-0.564,8.236-4.229,9.307-4.792c0.374-0.196,0.662-0.518,0.87-0.939C18.71,117.528,18.325,117.718,17.95,117.914z"/>
		<path fill-rule="evenodd" clip-rule="evenodd" fill="#1D895E" d="M11.023,104.59c0.374-0.197,0.805-0.253,1.267-0.185
			c-0.369,0.221-0.743,0.43-1.119,0.629c-2.32,3.417,2.646,12.856,6.779,12.88c0.375-0.196,0.76-0.386,1.151-0.567
			c-0.208,0.422-0.496,0.743-0.87,0.939c-1.801,0.949-4.873-1.351-6.865-5.133C9.377,109.372,9.223,105.537,11.023,104.59
			L11.023,104.59z"/>
	</g>
</g>
<g>
	<path fill-rule="evenodd" clip-rule="evenodd" fill="#1D895E" d="M1.729,110.066l8.279-4.189l0.607,0.782
		c0.943-0.499,2.07-1.263,2.438-1.586c-0.09-1.17,0.57-1.486,0.817-1.688c-0.839-0.965-2.216-1.452-2.931-1.084l-8.101,4.172
		C1.894,106.958,1.258,108.439,1.729,110.066L1.729,110.066z"/>
	<path fill-rule="evenodd" clip-rule="evenodd" fill="#22B78A" d="M13.054,105.073c-0.09-1.17,0.57-1.486,0.817-1.688
		c-0.839-0.965-2.216-1.451-2.931-1.084l-0.745,0.383C11.049,102.863,12.168,103.628,13.054,105.073L13.054,105.073z"/>
</g>
<path fill-rule="evenodd" clip-rule="evenodd" fill="#22B78A" d="M8.734,122.93l8.136-4.474l-0.255-0.85
	c0.9-0.525,2.002-1.035,2.483-1.124c0.865,0.795,1.057,0.383,1.369,0.313c0.498,1.426,0.387,2.41-0.305,2.773l-8.348,4.388
	C10.875,124.451,9.784,123.889,8.734,122.93L8.734,122.93z"/>
<g>
	<g>
		<path fill-rule="evenodd" clip-rule="evenodd" fill="#313535" d="M29.553,84.025c4.572-2.429,11.68,2.722,16.139,11.269
			c4.458,8.548,4.579,17.259,0.006,19.688c-4.57,2.431-11.891-2.529-16.35-11.078C24.89,95.354,24.981,86.457,29.553,84.025
			L29.553,84.025z"/>
		<path fill-rule="evenodd" clip-rule="evenodd" fill="#DEDDDD" d="M29.553,84.025c4.572-2.429,11.892,2.532,16.351,11.079
			c3.577,6.858,4.227,13.94,1.98,17.728c-0.496,0.673-1.103,1.212-1.816,1.592c-4.573,2.43-11.893-2.53-16.351-11.079
			c-3.578-6.857-4.226-13.939-1.981-17.728C28.231,84.946,28.836,84.407,29.553,84.025L29.553,84.025z"/>
	</g>
	<g>
		<path fill-rule="evenodd" clip-rule="evenodd" fill="#22B78A" d="M30.474,84.823c4.087-2.174,10.781,2.546,14.949,10.536
			c4.168,7.993,4.234,16.233,0.147,18.405c-4.089,2.172-10.781-2.546-14.951-10.537C26.451,95.234,26.386,86.995,30.474,84.823
			L30.474,84.823z"/>
		<path fill-rule="evenodd" clip-rule="evenodd" fill="#1D895E" d="M38.76,98.672c-3.116-5.975-8.05-9.591-11.243-8.341
			c-0.163,1.674-0.02,3.599,0.426,5.649c0,0,0,0-0.001,0c0.027,0.121,0.055,0.241,0.083,0.363c0.003,0.014,0.007,0.027,0.01,0.041
			c0.02,0.08,0.039,0.161,0.059,0.241c0.016,0.065,0.031,0.131,0.05,0.196c0.016,0.062,0.031,0.124,0.048,0.186
			c0.021,0.085,0.044,0.168,0.067,0.253c0.015,0.055,0.03,0.108,0.045,0.162c0.025,0.092,0.052,0.185,0.079,0.276
			c0.015,0.053,0.03,0.105,0.046,0.157c0.028,0.094,0.057,0.188,0.086,0.283c0.016,0.052,0.033,0.105,0.049,0.157
			c0.03,0.095,0.06,0.188,0.091,0.284c0.019,0.054,0.036,0.107,0.055,0.163c0.03,0.092,0.062,0.184,0.094,0.275
			c0.02,0.058,0.04,0.115,0.06,0.173c0.032,0.09,0.063,0.178,0.097,0.267c0.021,0.062,0.044,0.122,0.066,0.185
			c0.032,0.084,0.064,0.17,0.096,0.255c0.026,0.065,0.051,0.131,0.076,0.196c0.031,0.081,0.063,0.162,0.096,0.243
			c0.028,0.069,0.056,0.138,0.084,0.207c0.031,0.078,0.064,0.155,0.096,0.232c0.03,0.073,0.062,0.146,0.092,0.219
			c0.031,0.073,0.063,0.146,0.097,0.221c0.031,0.076,0.065,0.152,0.099,0.229c0.032,0.071,0.064,0.142,0.097,0.214
			c0.036,0.078,0.071,0.155,0.107,0.234c0.033,0.069,0.065,0.14,0.099,0.209c0.038,0.079,0.074,0.158,0.113,0.238
			c0.034,0.074,0.072,0.147,0.108,0.221c0.037,0.074,0.072,0.148,0.11,0.224c0.074,0.148,0.149,0.295,0.226,0.442
			c0.146,0.277,0.294,0.552,0.444,0.821c0.01,0.019,0.02,0.034,0.029,0.051c0.143,0.254,0.286,0.504,0.434,0.75
			c0.017,0.026,0.032,0.053,0.048,0.079c0.143,0.236,0.287,0.47,0.434,0.698c0.019,0.029,0.039,0.06,0.058,0.089
			c0.145,0.226,0.292,0.448,0.441,0.667c0.019,0.027,0.038,0.056,0.057,0.084c0.152,0.219,0.304,0.435,0.457,0.646
			c0.018,0.023,0.035,0.046,0.052,0.07c0.157,0.215,0.317,0.427,0.479,0.634c0.014,0.018,0.026,0.033,0.038,0.051
			c0.166,0.212,0.334,0.42,0.502,0.624c0.01,0.011,0.019,0.021,0.026,0.03c0.174,0.21,0.349,0.414,0.525,0.613
			c0.002,0.002,0.004,0.004,0.006,0.006l0,0c1.407,1.588,2.894,2.86,4.355,3.741C42.044,111.091,41.95,104.789,38.76,98.672z"/>
	</g>
	<g>
		<g>
			<path fill-rule="evenodd" clip-rule="evenodd" fill="#22B78A" d="M28.807,99.034c3.303-0.526,8.903-2.22,10.258-2.933
				c1.59,0.147,2.934,2.701,2.153,4.094c-1.361,0.717-5.969,4.408-8.26,6.833c-0.838-1.159-1.625-2.433-2.339-3.801
				C29.889,101.825,29.285,100.416,28.807,99.034L28.807,99.034z"/>
			<path fill-rule="evenodd" clip-rule="evenodd" fill="#313535" d="M31.563,104.903c0.446,0.742,0.911,1.455,1.396,2.125
				c2.291-2.425,6.898-6.116,8.26-6.833c0.047-0.082,0.085-0.171,0.117-0.262L31.563,104.903z"/>
		</g>
		<g>
			<path fill-rule="evenodd" clip-rule="evenodd" fill="#1D895E" d="M39.064,96.102c0.75-0.394,1.842,0.202,2.436,1.333
				s0.468,2.365-0.282,2.761s-1.84-0.202-2.435-1.332S38.315,96.497,39.064,96.102L39.064,96.102z"/>
			<path fill-rule="evenodd" clip-rule="evenodd" fill="#313535" d="M39.55,96.463c0.553-0.289,1.357,0.149,1.797,0.984
				c0.439,0.834,0.345,1.747-0.207,2.038c-0.553,0.292-1.359-0.147-1.799-0.983C38.903,97.668,38.995,96.754,39.55,96.463
				L39.55,96.463z"/>
			<path fill-rule="evenodd" clip-rule="evenodd" fill="#313535" d="M39.816,96.723c0.44-0.231,1.08,0.117,1.431,0.781
				c0.349,0.664,0.274,1.391-0.166,1.621c-0.44,0.232-1.08-0.117-1.429-0.782C39.302,97.68,39.376,96.955,39.816,96.723
				L39.816,96.723z"/>
		</g>
	</g>
</g>
<path fill-rule="evenodd" clip-rule="evenodd" fill="#175E44" d="M20.552,117.069c-0.037-0.09-0.083-0.177-0.133-0.26
	c-0.285,0.097-0.501,0.426-1.32-0.327c-0.481,0.089-1.583,0.599-2.483,1.124l0.255,0.85l-8.136,4.474
	c0.459,0.419,0.926,0.763,1.384,0.976l7.918-4.04l-0.537-1.069l3.063-1.694C20.559,117.092,20.555,117.08,20.552,117.069z"/>
<path fill-rule="evenodd" clip-rule="evenodd" fill="#175E44" d="M19.099,116.482c0.612,0.561,1.115,0.401,1.369,0.313
	c0.531,1.412,0.407,2.401-0.305,2.773l-0.291,0.154C20.098,119.329,20.279,118.612,19.099,116.482L19.099,116.482z"/>
<g>
	<g>
		<g>
			<g>
				<g>
					<g>
						<path fill="#22B78A" d="M41.453,78.44c-0.07,0.034-0.133,0.065-0.206,0.092c-0.162,0.056-0.251,0.152-0.353,0.282
							c-0.155,0.196-0.313,0.39-0.47,0.585c-0.155,0.192-0.313,0.386-0.459,0.588c-0.125,0.175-0.275,0.348-0.271,0.571
							c0.002,0.098,0.079,0.174,0.176,0.176c0.199,0.003,0.342-0.11,0.498-0.217c0.205-0.142,0.396-0.299,0.59-0.453
							c0.195-0.157,0.39-0.315,0.586-0.47c0.107-0.086,0.23-0.162,0.302-0.284c0.06-0.101,0.093-0.226,0.146-0.333
							C42.167,78.617,41.814,78.265,41.453,78.44z"/>
					</g>
					<g>
						<path fill="#22B78A" d="M51.335,90.438c0.429-0.235,0.868-0.461,1.319-0.65c0.228-0.096,0.459-0.182,0.692-0.261
							c0.232-0.081,0.48-0.129,0.709-0.22c0.273-0.108,0.462-0.356,0.377-0.664c-0.074-0.273-0.384-0.47-0.664-0.376
							c-0.502,0.165-0.989,0.474-1.438,0.749c-0.472,0.291-0.918,0.618-1.335,0.981C50.748,90.214,51.064,90.586,51.335,90.438z"/>
					</g>
					<g>
						<path fill="#22B78A" d="M57.686,102.999c-0.268,0.047-0.534,0.115-0.8,0.175c-0.265,0.061-0.529,0.127-0.795,0.191
							c-0.287,0.07-0.603,0.126-0.861,0.277c-0.242,0.144-0.213,0.559,0.081,0.623c0.512,0.108,1.107-0.012,1.625-0.059
							c0.494-0.045,1.556,0.031,1.556-0.688C58.491,103.085,58.04,102.938,57.686,102.999z"/>
					</g>
				</g>
			</g>
			<g>
				<path fill="#C2C1C1" d="M51.868,100.335c-0.146-0.157-0.41-0.146-0.557,0c-0.147,0.147-0.158,0.412,0,0.558l0.07,0.066
					c0.077,0.07,0.17,0.115,0.276,0.115c0.104,0,0.203-0.043,0.275-0.115c0.073-0.072,0.116-0.173,0.116-0.276
					c0-0.105-0.043-0.198-0.116-0.276C51.912,100.383,51.892,100.359,51.868,100.335z"/>
			</g>
			<g>
				<g>
					<path fill="#22B78A" d="M36.357,79.947c-0.096-0.145-0.178-0.243-0.328-0.33c-0.084-0.05-0.164-0.085-0.255-0.101
						c-0.157-0.042-0.313-0.042-0.471,0c-0.222,0.062-0.414,0.209-0.529,0.407c-0.201,0.344-0.144,0.794,0.139,1.073
						c0.179,0.179,0.417,0.3,0.676,0.289l0.037-0.001c0.192-0.008,0.283-0.035,0.454-0.122c0.128-0.075,0.229-0.177,0.306-0.306
						c0.028-0.066,0.057-0.136,0.085-0.203c0.041-0.15,0.041-0.302,0-0.452C36.457,80.107,36.407,80.025,36.357,79.947z"/>
					<g>
						<path fill="#22B78A" d="M50.205,86.448c-0.137-0.036-0.272-0.036-0.41,0c-0.198,0.055-0.354,0.184-0.462,0.356
							c0,0-0.002,0.001-0.002,0.004c-0.141,0.225-0.141,0.547,0,0.771c0,0.001,0.002,0.003,0.002,0.003
							c0.069,0.117,0.161,0.209,0.277,0.278c0.179,0.104,0.396,0.133,0.595,0.078c0.331-0.092,0.568-0.401,0.568-0.746
							C50.773,86.85,50.536,86.54,50.205,86.448z"/>
					</g>
					<path fill="#22B78A" d="M47.536,85.396c-0.265,0-0.486,0.222-0.486,0.486c0,0.267,0.222,0.488,0.486,0.488
						c0.266,0,0.487-0.222,0.487-0.488C48.023,85.617,47.802,85.396,47.536,85.396z"/>
					<g>
						<path fill="#22B78A" d="M52.961,97.966c0-0.195-0.078-0.385-0.216-0.523c-0.14-0.137-0.328-0.217-0.525-0.217
							c-0.195,0-0.385,0.08-0.523,0.217c-0.137,0.139-0.217,0.328-0.217,0.523s0.08,0.386,0.217,0.524
							c0.139,0.138,0.328,0.217,0.523,0.217c0.197,0,0.386-0.079,0.525-0.217C52.883,98.352,52.961,98.161,52.961,97.966z"/>
					</g>
					<g>
						<path fill="#22B78A" d="M53.259,112.239c-0.162,0-0.321,0.066-0.438,0.182c-0.115,0.115-0.181,0.276-0.181,0.438
							c0,0.165,0.065,0.323,0.181,0.439c0.116,0.116,0.275,0.182,0.438,0.182c0.166,0,0.324-0.065,0.439-0.182
							c0.116-0.116,0.182-0.274,0.182-0.439c0-0.162-0.065-0.323-0.182-0.438C53.583,112.306,53.425,112.239,53.259,112.239z"/>
					</g>
					<g>
						<path fill="#C2C1C1" d="M37.693,82.111c-0.034-0.017-0.073-0.038-0.107-0.048c-0.048-0.014-0.097-0.014-0.144,0
							c-0.023,0.007-0.05,0.02-0.073,0.031c-0.009,0.003-0.017,0.007-0.025,0.013c-0.084,0.04-0.146,0.128-0.171,0.216
							c-0.052,0.186,0.061,0.384,0.247,0.435c0.153,0.043,0.32-0.025,0.4-0.162c0.048-0.081,0.061-0.182,0.034-0.272
							C37.833,82.24,37.772,82.149,37.693,82.111z"/>
					</g>
					<g>
						<path fill="#C2C1C1" d="M51.645,114.56c-0.031-0.03-0.066-0.051-0.108-0.063c-0.036-0.015-0.072-0.026-0.108-0.039
							c-0.062-0.023-0.139,0.003-0.185,0.048c-0.044,0.045-0.07,0.122-0.048,0.185c0.013,0.037,0.026,0.071,0.039,0.108
							c0.012,0.042,0.033,0.078,0.063,0.107c0.031,0.031,0.067,0.053,0.109,0.063c0.084,0.024,0.176-0.001,0.238-0.063
							c0.062-0.062,0.086-0.154,0.063-0.238C51.695,114.627,51.675,114.59,51.645,114.56z"/>
					</g>
				</g>
			</g>
		</g>
	</g>
	<g>
		<g>
			<g>
				<path fill="#22B78A" d="M32.624,78.548c-0.481-0.533-0.969-1.063-1.469-1.579l-0.792-0.816l-0.313,1.014
					c-0.261,0.847-1.183,4.748-1.243,5.197c0.248-0.379,1.784-3.261,2.003-3.728c0.424,0.533,0.853,1.06,1.296,1.575l0.606,0.703
					c0,0,4.969-7.688,5.273-8.39C37.403,73.021,33.336,77.602,32.624,78.548z"/>
			</g>
			<path fill="#22B78A" d="M32.591,79.92l-1.878-2.229l-1.877,4.505c-0.014,0.072-0.025,0.133-0.029,0.167
				c0.248-0.379,1.784-3.261,2.003-3.728c0.424,0.533,0.853,1.06,1.296,1.575l0.606,0.703c0,0,4.969-7.688,5.273-8.39L32.591,79.92z
				"/>
		</g>
	</g>
	<g>
		<path fill="#C2C1C1" d="M50.285,81.846c-0.279-1.031-0.571-2.059-0.889-3.078l-0.501-1.614L47.8,78.288
			c-0.913,0.947-4.753,5.5-5.135,6.056c0.584-0.337,4.554-3.127,5.156-3.599c0.205,0.989,0.42,1.977,0.661,2.957l0.332,1.339
			c0,0,11.743-6.856,12.618-7.585C60.328,77.726,51.864,81.069,50.285,81.846z"/>
		<path fill="#C2C1C1" d="M49.321,83.642l-0.995-4.213l-5.509,4.712c-0.067,0.088-0.123,0.16-0.152,0.203
			c0.584-0.337,4.554-3.127,5.156-3.599c0.205,0.989,0.42,1.977,0.661,2.957l0.332,1.339c0,0,11.743-6.856,12.618-7.585
			L49.321,83.642z"/>
	</g>
	<g>
		<path fill="#C2C1C1" d="M59.506,109.888c0.514-0.937,1.016-1.879,1.495-2.834l0.758-1.511l-1.576,0.059
			c-1.315,0.049-7.239,0.668-7.899,0.804c0.654,0.162,5.449,0.904,6.211,0.981c-0.539,0.855-1.068,1.715-1.574,2.59l-0.688,1.195
			c0,0,13.217,3.2,14.351,3.282C69.6,113.883,61.183,110.424,59.506,109.888z"/>
		<path fill="#C2C1C1" d="M57.565,110.514l2.205-3.726l-7.237-0.424c-0.108,0.016-0.199,0.03-0.25,0.041
			c0.654,0.162,5.449,0.904,6.211,0.981c-0.539,0.855-1.068,1.715-1.574,2.59l-0.688,1.195c0,0,13.217,3.2,14.351,3.282
			L57.565,110.514z"/>
	</g>
	<g>
		<g>
			<g>
				<path fill="#22B78A" d="M58.41,95.97c-0.059-1.124-0.131-2.248-0.23-3.371l-0.157-1.774l-1.382,0.925
					c-1.152,0.773-6.124,4.611-6.642,5.098c0.677-0.216,5.391-2.207,6.117-2.561c-0.01,1.066-0.008,2.132,0.022,3.196l0.044,1.454
					c0,0,13.631-4.452,14.695-5.008C69.678,93.961,60.21,95.522,58.41,95.97z"/>
			</g>
			<g>
				<path fill="#22B78A" d="M57.016,97.607l-0.086-4.564l-6.729,3.63c-0.088,0.074-0.162,0.137-0.201,0.174
					c0.677-0.216,5.391-2.207,6.117-2.561c-0.01,1.066-0.008,2.132,0.022,3.196l0.044,1.454c0,0,13.631-4.452,14.695-5.008
					L57.016,97.607z"/>
			</g>
		</g>
	</g>
</g>
<g>
	<g>
		<path fill="#313535" d="M179.418,34.208l-0.429,2.945l-1.968-0.168l2-12.729l2.599-0.262l2.229,13.567l-1.985-0.166l-0.473-3.106
			L179.418,34.208z M180.341,27.135l-0.648,5.172l1.399,0.021L180.341,27.135z"/>
		<path fill="#313535" d="M187.141,23.418l2.594,9.744l-0.087-10.004l1.89-0.197l0.13,15.245l-2.029-0.166l-2.683-9.43l0.083,9.217
			l-1.89-0.156l-0.13-14.034L187.141,23.418z"/>
		<path fill="#313535" d="M194.958,22.602l2.594,10.713l-0.087-10.979l1.89-0.202l0.13,16.697l-2.029-0.159l-2.683-10.355
			l0.083,10.147l-1.89-0.152l-0.13-15.486L194.958,22.602z"/>
		<path fill="#313535" d="M203.641,21.462c0.833-0.093,1.544,0.243,2.134,1.016c0.589,0.785,0.888,1.774,0.896,2.963l0.071,9.848
			c0.009,1.201-0.277,2.205-0.858,3.004c-0.58,0.789-1.284,1.148-2.11,1.083c-0.833-0.066-1.542-0.527-2.127-1.371
			c-0.586-0.836-0.884-1.809-0.892-2.927l-0.071-9.24c-0.008-1.125,0.278-2.106,0.858-2.952
			C202.121,22.028,202.821,21.551,203.641,21.462z M204.701,25.516c-0.003-0.422-0.111-0.773-0.323-1.053
			c-0.212-0.278-0.469-0.403-0.769-0.379s-0.555,0.19-0.766,0.498c-0.212,0.308-0.315,0.666-0.313,1.079l0.07,9.455
			c0.004,0.414,0.112,0.771,0.329,1.069c0.215,0.302,0.473,0.461,0.772,0.477s0.554-0.12,0.762-0.405
			c0.207-0.286,0.311-0.642,0.307-1.064L204.701,25.516z"/>
		<path fill="#313535" d="M211.061,39.932c-0.833-0.065-1.542-0.55-2.128-1.446c-0.586-0.888-0.883-1.932-0.892-3.138l-0.101-14.132
			l1.85-0.202l0.101,14.366c0.003,0.446,0.111,0.83,0.328,1.151c0.215,0.323,0.473,0.493,0.772,0.509
			c0.3,0.015,0.554-0.133,0.762-0.441c0.207-0.309,0.311-0.692,0.308-1.147l-0.101-14.678l1.969-0.219l0.101,14.991
			c0.009,1.301-0.277,2.379-0.858,3.227C212.591,39.611,211.887,39.995,211.061,39.932z"/>
		<path fill="#313535" d="M217.35,20.156l2.594,13.491l-0.087-13.775l1.889-0.215l0.13,20.858l-2.028-0.146l-2.683-13.003
			l0.083,12.813l-1.89-0.139l-0.13-19.647L217.35,20.156z"/>
		<path fill="#313535" d="M226.175,41.099c-0.833-0.062-1.545-0.611-2.134-1.642c-0.589-1.021-0.888-2.224-0.896-3.615l-0.07-11.51
			c-0.009-1.401,0.277-2.619,0.857-3.664c0.581-1.054,1.284-1.631,2.11-1.727c0.834-0.099,1.543,0.328,2.129,1.294
			c0.585,0.975,0.883,2.198,0.892,3.661l0.015,2.532l-1.959,0.103l-0.016-2.56c-0.003-0.522-0.112-0.962-0.328-1.314
			c-0.215-0.353-0.473-0.514-0.772-0.487s-0.554,0.232-0.762,0.617c-0.208,0.384-0.311,0.831-0.308,1.344l0.071,11.731
			c0.003,0.515,0.111,0.955,0.323,1.322c0.212,0.369,0.468,0.56,0.768,0.573s0.556-0.156,0.767-0.513
			c0.212-0.356,0.315-0.797,0.313-1.321l-0.019-3.017l1.959,0.004l0.019,3.103c0.009,1.477-0.277,2.714-0.858,3.705
			C227.694,40.701,226.995,41.158,226.175,41.099z"/>
		<path fill="#313535" d="M230.462,41.12l-0.13-22.453l5.379-0.632l0.02,3.549l-3.489,0.313l0.035,6.218l2.55-0.1l0.021,3.527
			l-2.55,0.027l0.035,6.223l3.489,0.14l0.02,3.557L230.462,41.12z"/>
		<path fill="#313535" d="M239.028,41.703l-1.889-0.126l-0.13-23.694l2.711-0.323l1.854,17.399l1.598-17.814l2.604-0.314
			l0.13,25.323l-1.89-0.122l-0.082-15.7l-1.557,15.593l-1.52-0.101l-1.911-15.198L239.028,41.703z"/>
		<path fill="#313535" d="M247.206,42.236l-0.13-25.564l5.379-0.659l0.02,4.02l-3.489,0.331l0.035,7.065l2.55-0.112l0.021,3.999
			l-2.55,0.04l0.035,7.071l3.489,0.122l0.02,4.028L247.206,42.236z"/>
		<path fill="#313535" d="M255.876,15.589l2.593,18.274l-0.087-18.586l1.89-0.237l0.13,28.017l-2.029-0.123l-2.682-17.557
			l0.083,17.396l-1.89-0.116l-0.13-26.806L255.876,15.589z"/>
		<path fill="#313535" d="M263.6,18.976l-2.01,0.199l-0.02-4.277l5.898-0.75l0.02,4.443l-1.999,0.2l0.11,24.574l-1.89-0.113
			L263.6,18.976z"/>
	</g>
</g>
<g>
	<g>
		<path fill="#313535" d="M150.377-52.792l-0.429,2.945l-1.968-0.168l2-12.729l2.599-0.262l2.229,13.567l-1.985-0.166l-0.473-3.106
			L150.377-52.792z M151.3-59.865l-0.648,5.172l1.399,0.021L151.3-59.865z"/>
		<path fill="#313535" d="M158.1-63.582l2.594,9.744l-0.087-10.004l1.89-0.197l0.13,15.245l-2.029-0.166l-2.683-9.43l0.083,9.217
			l-1.89-0.156l-0.13-14.034L158.1-63.582z"/>
		<path fill="#313535" d="M165.917-64.398l2.594,10.713l-0.087-10.979l1.89-0.202l0.13,16.697l-2.029-0.159l-2.683-10.355
			l0.083,10.147l-1.89-0.152l-0.13-15.486L165.917-64.398z"/>
		<path fill="#313535" d="M174.6-65.538c0.833-0.093,1.544,0.243,2.134,1.016c0.589,0.785,0.888,1.774,0.896,2.963l0.071,9.848
			c0.009,1.201-0.277,2.205-0.858,3.004c-0.58,0.789-1.284,1.148-2.11,1.083c-0.833-0.065-1.542-0.527-2.127-1.371
			c-0.586-0.836-0.884-1.809-0.892-2.927l-0.071-9.24c-0.008-1.125,0.278-2.106,0.858-2.952
			C173.08-64.972,173.78-65.449,174.6-65.538z M175.66-61.484c-0.003-0.422-0.111-0.773-0.323-1.053
			c-0.212-0.278-0.469-0.403-0.769-0.379s-0.555,0.19-0.766,0.498c-0.212,0.308-0.315,0.666-0.313,1.079l0.07,9.456
			c0.004,0.413,0.112,0.77,0.329,1.068c0.215,0.302,0.473,0.461,0.772,0.477s0.554-0.12,0.762-0.405
			c0.207-0.286,0.311-0.642,0.307-1.064L175.66-61.484z"/>
		<path fill="#313535" d="M182.02-47.068c-0.833-0.065-1.542-0.55-2.128-1.446c-0.586-0.888-0.883-1.932-0.892-3.138l-0.101-14.132
			l1.85-0.202l0.101,14.366c0.003,0.446,0.111,0.83,0.328,1.151c0.215,0.323,0.473,0.493,0.772,0.509
			c0.3,0.015,0.554-0.133,0.762-0.441c0.207-0.309,0.311-0.692,0.308-1.147l-0.101-14.678l1.969-0.219l0.101,14.991
			c0.009,1.301-0.277,2.379-0.858,3.227C183.55-47.389,182.846-47.005,182.02-47.068z"/>
		<path fill="#313535" d="M188.309-66.844l2.594,13.491l-0.087-13.775l1.889-0.215l0.13,20.858l-2.028-0.146l-2.683-13.003
			l0.083,12.813l-1.89-0.139l-0.13-19.647L188.309-66.844z"/>
		<path fill="#313535" d="M197.134-45.901c-0.833-0.062-1.545-0.611-2.134-1.642c-0.589-1.021-0.888-2.224-0.896-3.615l-0.07-11.51
			c-0.009-1.401,0.277-2.619,0.857-3.664c0.581-1.054,1.284-1.631,2.11-1.727c0.834-0.099,1.543,0.328,2.129,1.294
			c0.585,0.975,0.883,2.198,0.892,3.661l0.015,2.532l-1.959,0.103l-0.016-2.56c-0.003-0.522-0.112-0.962-0.328-1.314
			c-0.215-0.353-0.473-0.514-0.772-0.487s-0.554,0.232-0.762,0.617c-0.208,0.384-0.311,0.831-0.308,1.344l0.071,11.731
			c0.003,0.515,0.111,0.955,0.323,1.322c0.212,0.369,0.468,0.56,0.768,0.573s0.556-0.156,0.767-0.513
			c0.212-0.356,0.315-0.797,0.313-1.321l-0.019-3.017l1.959,0.004l0.019,3.103c0.009,1.477-0.277,2.714-0.858,3.705
			C198.653-46.299,197.954-45.842,197.134-45.901z"/>
		<path fill="#313535" d="M201.421-45.88l-0.13-22.453l5.379-0.632l0.02,3.549l-3.489,0.313l0.035,6.218l2.55-0.1l0.021,3.527
			l-2.55,0.027l0.035,6.223l3.489,0.14l0.02,3.557L201.421-45.88z"/>
		<path fill="#313535" d="M209.987-45.297l-1.889-0.126l-0.13-23.694l2.711-0.323l1.854,17.399l1.598-17.814l2.604-0.314
			l0.13,25.323l-1.89-0.122l-0.082-15.7l-1.557,15.593l-1.52-0.101l-1.911-15.198L209.987-45.297z"/>
		<path fill="#313535" d="M218.165-44.764l-0.13-25.564l5.379-0.659l0.02,4.02l-3.489,0.331l0.035,7.065l2.55-0.112l0.021,3.999
			l-2.55,0.04l0.035,7.071l3.489,0.122l0.02,4.028L218.165-44.764z"/>
		<path fill="#313535" d="M226.835-71.411l2.593,18.274l-0.087-18.586l1.89-0.237l0.13,28.017l-2.029-0.123l-2.682-17.557
			l0.083,17.396l-1.89-0.116l-0.13-26.806L226.835-71.411z"/>
		<path fill="#313535" d="M234.559-68.024l-2.01,0.199l-0.02-4.277l5.898-0.75l0.02,4.443l-1.999,0.2l0.11,24.574l-1.89-0.113
			L234.559-68.024z"/>
	</g>
</g>
<g>
	<g>
		<path fill="#313535" d="M30.815,38.248l-0.449,2.484l-1.925-0.09l2.083-10.776l2.543-0.118l2.054,11.206l-1.943-0.09l-0.433-2.567
			L30.815,38.248z M31.786,32.324l-0.685,4.326l1.369,0.017L31.786,32.324z"/>
		<path fill="#313535" d="M38.468,29.486l2.453,7.852v-7.967l1.848-0.086v12.026l-1.985-0.093l-2.542-7.549v7.431l-1.849-0.087
			V29.583L38.468,29.486z"/>
		<path fill="#313535" d="M46.115,29.128l2.453,8.333v-8.447l1.848-0.087v12.742l-1.985-0.093l-2.542-8.007v7.888l-1.849-0.086
			V29.226L46.115,29.128z"/>
		<path fill="#313535" d="M54.611,28.573c0.815-0.039,1.508,0.238,2.078,0.836c0.57,0.603,0.856,1.348,0.856,2.231v7.314
			c0,0.891-0.287,1.637-0.861,2.235c-0.573,0.594-1.265,0.87-2.073,0.832c-0.814-0.039-1.506-0.376-2.073-1.008
			c-0.567-0.626-0.851-1.361-0.851-2.209V31.79c0-0.854,0.287-1.591,0.86-2.214C53.122,28.947,53.81,28.612,54.611,28.573z
			 M55.619,31.647c0-0.315-0.103-0.582-0.309-0.797c-0.205-0.215-0.454-0.316-0.748-0.306c-0.293,0.01-0.544,0.127-0.753,0.354
			c-0.209,0.225-0.313,0.493-0.313,0.804v7.128c0,0.313,0.104,0.581,0.313,0.806s0.46,0.343,0.753,0.353
			c0.294,0.01,0.543-0.092,0.748-0.307c0.206-0.214,0.309-0.48,0.309-0.798V31.647z"/>
		<path fill="#313535" d="M61.741,42.352c-0.814-0.039-1.506-0.388-2.073-1.042c-0.567-0.65-0.851-1.42-0.851-2.313V28.545
			l1.81-0.084v10.562c0,0.327,0.104,0.608,0.313,0.846c0.209,0.236,0.46,0.36,0.753,0.37c0.294,0.01,0.543-0.099,0.748-0.324
			c0.206-0.227,0.309-0.506,0.309-0.838V28.361l1.927-0.09v10.875c0,0.944-0.287,1.726-0.861,2.346
			C63.241,42.105,62.55,42.391,61.741,42.352z"/>
		<path fill="#313535" d="M68.021,28.104l2.453,9.709v-9.824l1.848-0.086v14.79L70.337,42.6l-2.542-9.318v9.199l-1.849-0.086V28.2
			L68.021,28.104z"/>
		<path fill="#313535" d="M76.527,43.083c-0.814-0.039-1.508-0.423-2.078-1.146c-0.57-0.718-0.855-1.566-0.855-2.55v-8.132
			c0-0.99,0.287-1.844,0.86-2.563c0.574-0.723,1.265-1.105,2.073-1.144c0.815-0.039,1.507,0.286,2.073,0.979
			c0.567,0.699,0.852,1.559,0.852,2.578v1.763l-1.917,0.028v-1.791c0-0.366-0.104-0.676-0.313-0.929
			c-0.208-0.252-0.459-0.373-0.753-0.363c-0.293,0.01-0.543,0.147-0.748,0.411c-0.205,0.263-0.308,0.574-0.308,0.936v8.249
			c0,0.36,0.103,0.67,0.308,0.929c0.205,0.261,0.455,0.395,0.748,0.404c0.294,0.01,0.545-0.108,0.753-0.358
			c0.209-0.248,0.313-0.555,0.313-0.921v-2.107l1.917,0.023v2.157c0,1.027-0.287,1.887-0.861,2.577
			C78.018,42.8,77.329,43.121,76.527,43.083z"/>
		<path fill="#313535" d="M80.724,43.085V27.509l5.262-0.246v2.435l-3.413,0.111v4.295l2.493-0.018v2.421l-2.493-0.018v4.296
			l3.413,0.111v2.434L80.724,43.085z"/>
		<path fill="#313535" d="M89.104,43.477l-1.849-0.087V27.203l2.652-0.124l1.723,11.842l1.653-12l2.549-0.119V43.79l-1.849-0.086
			V33.138l-1.604,10.491l-1.486-0.069l-1.79-10.338V43.477z"/>
		<path fill="#313535" d="M99.07,29.284l-1.966,0.064v-2.592l5.771-0.27v2.673l-1.956,0.064v14.804l-1.849-0.087V29.284z"/>
		<path fill="#313535" d="M106.221,26.316l2.453,12.108V26.201l1.848-0.086v18.361l-1.985-0.093l-2.542-11.605v11.486l-1.849-0.086
			V26.413L106.221,26.316z"/>
		<path fill="#313535" d="M113.759,28.807l-1.966,0.063v-2.8l5.771-0.27v2.882l-1.956,0.063v15.968l-1.849-0.086V28.807z"/>
	</g>
</g>
<g>
	<text transform="matrix(1 0 0 1 -99.458 -50.0078)" fill="#313535" font-family="'Bebas'" font-size="12">announcemtnt</text>
</g>
</svg>
