<?xml version="1.0" encoding="utf-8"?>
<!-- Generator: Adobe Illustrator 16.0.0, SVG Export Plug-In . SVG Version: 6.00 Build 0)  -->
<!DOCTYPE svg PUBLIC "-//W3C//DTD SVG 1.0//EN" "http://www.w3.org/TR/2001/REC-SVG-20010904/DTD/svg10.dtd">
<svg version="1.0" id="Layer_1" xmlns="http://www.w3.org/2000/svg" xmlns:xlink="http://www.w3.org/1999/xlink" x="0px" y="0px"
	 width="70px" height="98.013px" viewBox="0 0 70 98.013" enable-background="new 0 0 70 98.013" xml:space="preserve">
<path fill="#22B78A" d="M67.037,33.903c-0.678-0.789-1.484-1.456-2.388-1.972c-1.573-0.896-3.376-1.3-5.18-1.166l-4.544-12.352
	c-0.491-1.339-1.685-2.209-3.11-2.264c-1.398-0.057-2.634,0.68-3.245,1.93c-6.107,9.213-16.359,15.204-26.338,20.551
	c-0.573,0.307-0.997,0.796-1.239,1.361c-0.619-0.14-1.268-0.062-1.836,0.216c-3.05,1.498-6.175,2.837-9.362,4.011
	c-2.634,0.97-3.991,3.901-3.021,6.538l5.274,14.338l-1.402,0.516c-1.581,0.577-3.338-0.235-3.923-1.813L3.91,56.149
	c-0.433-1.175-0.114-2.475,0.817-3.32c0.415-0.377,0.447-1.023,0.07-1.438c-0.278-0.309-0.717-0.416-1.105-0.272
	c-0.123,0.045-0.236,0.113-0.334,0.202c-0.741,0.673-1.271,1.549-1.517,2.52c-0.254,0.998-0.2,2.041,0.158,3.013L4.812,64.5
	c0.469,1.277,1.407,2.295,2.642,2.865s2.619,0.625,3.896,0.155l1.496-0.55c1.247,2.017,3.783,2.949,6.093,2.102
	c0.943-0.348,1.906-0.684,2.883-1.008l3.853,10.467c0.968,2.636,3.901,3.991,6.536,3.021l2.548-0.938
	c2.636-0.968,3.993-3.902,3.021-6.538c-0.656-1.787-2.254-3.039-4.104-3.289l-2.001-5.439c11.18-2.466,22.595-2.95,33.951-1.444
	c0.637,0.085,1.268,0.012,1.844-0.201c0.649-0.237,1.229-0.65,1.679-1.214c0.855-1.066,1.082-2.468,0.612-3.749l-9.55-25.963
	c2.909,0.024,5.536,1.87,6.539,4.601c0.726,1.976,0.533,4.154-0.533,5.976c-0.137,0.232-0.175,0.511-0.105,0.771
	c0.068,0.265,0.235,0.484,0.472,0.623c0.262,0.153,0.579,0.181,0.866,0.074c0.22-0.08,0.408-0.236,0.525-0.439
	c0,0,0.002-0.002,0-0.003c0.662-1.125,1.077-2.406,1.202-3.705c0.134-1.361-0.039-2.709-0.516-3.999
	C68.282,35.653,67.736,34.721,67.037,33.903L67.037,33.903z M35.868,74.781c0.582,1.58-0.231,3.342-1.813,3.922l-2.548,0.938
	c-1.582,0.582-3.342-0.231-3.922-1.813l-3.821-10.385c0.193-0.058,0.385-0.119,0.577-0.178c0.18-0.053,0.355-0.106,0.533-0.159
	c0.323-0.098,0.65-0.191,0.976-0.284c0.162-0.046,0.326-0.092,0.49-0.138c0.315-0.089,0.634-0.177,0.949-0.263
	c0.186-0.05,0.37-0.1,0.555-0.148c0.284-0.074,0.566-0.146,0.852-0.219c0.222-0.057,0.445-0.113,0.671-0.168
	c0.104-0.026,0.206-0.051,0.311-0.075l2.315,6.302c0.148,0.404,0.537,0.671,0.97,0.666C34.254,72.763,35.421,73.568,35.868,74.781
	L35.868,74.781z M67.559,61.215c-0.402,0.504-1.025,0.756-1.667,0.67c-11.683-1.552-23.429-1.034-34.927,1.534L24.4,45.571
	c-0.192-0.526-0.78-0.8-1.308-0.604c-0.528,0.192-0.798,0.781-0.604,1.308l6.478,17.612c-0.076,0.018-0.154,0.038-0.231,0.057
	l-0.266,0.066c-0.948,0.238-1.892,0.489-2.832,0.754l-0.073,0.021c-0.948,0.268-1.894,0.549-2.832,0.846
	c-0.086,0.027-0.17,0.052-0.254,0.081c-0.118,0.036-0.234,0.071-0.351,0.11c-0.016,0.004-0.032,0.012-0.05,0.018
	c-1.302,0.419-2.591,0.859-3.844,1.32c-1.58,0.581-3.34-0.232-3.922-1.813L8.687,50.054c-0.582-1.582,0.229-3.341,1.812-3.923
	c3.237-1.19,6.452-2.567,9.557-4.093c0.257-0.127,0.488-0.07,0.604-0.022c0.194,0.078,0.35,0.235,0.423,0.435
	c0.193,0.528,0.779,0.8,1.307,0.604c0.528-0.194,0.801-0.779,0.604-1.308l0,0c-0.03-0.085-0.065-0.168-0.105-0.251
	c-0.011-0.052-0.024-0.103-0.045-0.154c-0.125-0.347,0.023-0.74,0.352-0.916c10.229-5.481,20.749-11.64,27.112-21.281
	c0.029-0.041,0.054-0.086,0.075-0.133c0.372-0.803,1.129-0.835,1.353-0.826c0.222,0.01,0.974,0.103,1.28,0.932L67.841,59.43
	c0.008,0.016,0.002-0.002,0.006,0.014C68.07,60.05,67.963,60.711,67.559,61.215L67.559,61.215z M67.559,61.215"/>
<path fill="#22B78A" d="M48.999,49.015c0,27.06-21.939,48.998-48.999,48.998V0C27.06,0,48.999,21.939,48.999,49.015z"/>
<path fill="#FFFFFF" d="M47.478,61.165c-5.538,0.293-11.054,1.034-16.513,2.254L24.4,45.571c-0.192-0.526-0.78-0.8-1.308-0.604
	c-0.528,0.192-0.798,0.781-0.604,1.308l6.478,17.612c-0.076,0.018-0.154,0.038-0.231,0.057l-0.266,0.066
	c-0.948,0.238-1.892,0.489-2.832,0.754l-0.073,0.021c-0.948,0.268-1.894,0.549-2.832,0.846c-0.086,0.027-0.17,0.052-0.254,0.081
	c-0.118,0.036-0.234,0.071-0.351,0.11c-0.016,0.004-0.032,0.012-0.05,0.018c-1.302,0.419-2.591,0.859-3.844,1.32
	c-1.58,0.581-3.34-0.232-3.922-1.813L8.687,50.054c-0.582-1.582,0.229-3.341,1.812-3.923c3.237-1.19,6.452-2.567,9.557-4.093
	c0.257-0.127,0.488-0.07,0.604-0.022c0.194,0.078,0.35,0.235,0.423,0.435c0.193,0.528,0.779,0.8,1.307,0.604
	c0.528-0.194,0.801-0.779,0.604-1.308c-0.03-0.085-0.065-0.168-0.105-0.251c-0.011-0.052-0.024-0.103-0.045-0.154
	c-0.125-0.347,0.023-0.74,0.352-0.916c7.21-3.863,14.558-8.069,20.499-13.588c-0.319-0.629-0.65-1.25-0.996-1.862
	c-5.842,5.546-13.221,9.774-20.465,13.655c-0.573,0.307-0.997,0.796-1.239,1.361c-0.619-0.14-1.268-0.062-1.836,0.216
	c-3.05,1.498-6.175,2.837-9.362,4.011c-2.634,0.97-3.991,3.901-3.021,6.538l5.274,14.338l-1.402,0.516
	c-1.581,0.577-3.338-0.235-3.923-1.813L3.91,56.149c-0.433-1.175-0.114-2.475,0.817-3.32c0.415-0.377,0.447-1.023,0.07-1.438
	c-0.278-0.309-0.717-0.416-1.105-0.272c-0.123,0.045-0.236,0.113-0.334,0.202c-0.741,0.673-1.271,1.549-1.517,2.52
	c-0.254,0.998-0.2,2.041,0.158,3.013L4.812,64.5c0.469,1.277,1.407,2.295,2.642,2.865s2.619,0.625,3.896,0.155l1.496-0.55
	c1.247,2.017,3.783,2.949,6.093,2.102c0.943-0.348,1.906-0.684,2.883-1.008l3.853,10.467c0.968,2.636,3.901,3.991,6.536,3.021
	l2.548-0.938c2.636-0.968,3.993-3.902,3.021-6.538c-0.656-1.787-2.254-3.039-4.104-3.289l-2.001-5.439
	c5.034-1.11,10.116-1.797,15.219-2.103C47.101,62.558,47.299,61.865,47.478,61.165z M31.992,72.113
	c0.148,0.404,0.537,0.671,0.97,0.666c1.292-0.017,2.459,0.789,2.906,2.002c0.582,1.58-0.231,3.342-1.813,3.922l-2.548,0.938
	c-1.582,0.582-3.342-0.231-3.922-1.813l-3.821-10.385c0.193-0.058,0.385-0.119,0.577-0.178c0.18-0.053,0.355-0.106,0.533-0.159
	c0.323-0.098,0.65-0.191,0.976-0.284c0.162-0.046,0.326-0.092,0.49-0.138c0.315-0.089,0.634-0.177,0.949-0.263
	c0.186-0.05,0.37-0.1,0.555-0.148c0.284-0.074,0.566-0.146,0.852-0.219c0.222-0.057,0.445-0.113,0.671-0.168
	c0.104-0.026,0.206-0.051,0.311-0.075L31.992,72.113z"/>
</svg>
