<?xml version="1.0" encoding="utf-8"?>
<!-- Generator: Adobe Illustrator 16.0.0, SVG Export Plug-In . SVG Version: 6.00 Build 0)  -->
<!DOCTYPE svg PUBLIC "-//W3C//DTD SVG 1.0//EN" "http://www.w3.org/TR/2001/REC-SVG-20010904/DTD/svg10.dtd">
<svg version="1.0" id="Layer_1" xmlns="http://www.w3.org/2000/svg" xmlns:xlink="http://www.w3.org/1999/xlink" x="0px" y="0px"
	 width="44.033px" height="166.867px" viewBox="-2379.467 -1616.861 44.033 166.867"
	 enable-background="new -2379.467 -1616.861 44.033 166.867" xml:space="preserve">
<g>
	<path fill="#2F2F2F" d="M-3615.399-2516.437l4.665-3.293l1.349,0.758l-0.385,5.701l-1.425-0.801l0.505-4.813l0.539,0.303
		l-3.852,2.931L-3615.399-2516.437z M-3613.739-2516.653l0.88-0.739l2.364,1.33l-0.174,1.136L-3613.739-2516.653z"/>
	<path fill="#2F2F2F" d="M-3607.241-2511.483l3.274-3.984l0.999,0.821l0.187,4.597l-0.472-0.388l2.18-2.652l1.189,0.977
		l-3.274,3.984l-0.999-0.821l-0.187-4.597l0.472,0.388l-2.18,2.652L-3607.241-2511.483z"/>
	<path fill="#2F2F2F" d="M-3600.485-2505.494l3.946-3.32l0.833,0.989l-0.655,4.554l-0.394-0.468l2.627-2.21l0.991,1.178
		l-3.946,3.321l-0.833-0.99l0.655-4.554l0.394,0.467l-2.627,2.21L-3600.485-2505.494z"/>
	<path fill="#2F2F2F" d="M-3593.686-2495.885c-0.215-0.389-0.354-0.78-0.42-1.172c-0.065-0.393-0.06-0.77,0.02-1.13
		c0.078-0.36,0.223-0.687,0.432-0.978c0.21-0.291,0.484-0.53,0.824-0.718s0.688-0.293,1.046-0.315
		c0.358-0.023,0.711,0.029,1.058,0.154c0.348,0.125,0.67,0.32,0.968,0.585c0.297,0.265,0.554,0.591,0.769,0.98
		c0.217,0.394,0.358,0.786,0.422,1.176c0.064,0.39,0.057,0.765-0.023,1.123c-0.079,0.358-0.224,0.684-0.432,0.978
		s-0.482,0.534-0.822,0.721c-0.34,0.188-0.689,0.292-1.051,0.313c-0.362,0.021-0.715-0.03-1.058-0.154
		c-0.344-0.125-0.664-0.318-0.96-0.58C-3593.211-2495.163-3593.468-2495.491-3593.686-2495.885z M-3592.628-2496.469
		c0.103,0.185,0.228,0.341,0.376,0.467s0.313,0.217,0.492,0.272c0.179,0.055,0.366,0.072,0.563,0.052
		c0.196-0.021,0.391-0.084,0.585-0.191c0.197-0.109,0.356-0.241,0.476-0.395c0.12-0.154,0.204-0.321,0.253-0.502
		c0.049-0.181,0.06-0.368,0.031-0.561c-0.028-0.193-0.093-0.382-0.195-0.567c-0.103-0.186-0.228-0.341-0.376-0.468
		s-0.313-0.217-0.491-0.272c-0.18-0.055-0.366-0.073-0.561-0.053c-0.193,0.02-0.39,0.084-0.587,0.193
		c-0.194,0.106-0.352,0.238-0.474,0.393s-0.207,0.323-0.256,0.504c-0.049,0.181-0.06,0.368-0.031,0.561
		S-3592.73-2496.654-3592.628-2496.469z"/>
	<path fill="#2F2F2F" d="M-3590.123-2487.568c-0.245-0.782-0.237-1.456,0.024-2.019c0.261-0.564,0.757-0.96,1.488-1.189l2.728-0.854
		l0.47,1.499l-2.687,0.841c-0.422,0.132-0.696,0.316-0.822,0.553c-0.127,0.236-0.142,0.511-0.044,0.824
		c0.099,0.313,0.267,0.529,0.505,0.649c0.237,0.119,0.567,0.113,0.989-0.019l2.687-0.84l0.462,1.477l-2.729,0.854
		c-0.73,0.229-1.364,0.186-1.9-0.128S-3589.877-2486.785-3590.123-2487.568z"/>
	<path fill="#2F2F2F" d="M-3588.499-2481.48l5.131-0.52l0.131,1.287l-3.107,3.393l-0.062-0.608l3.416-0.346l0.154,1.531
		l-5.131,0.519l-0.13-1.287l3.107-3.393l0.062,0.608l-3.416,0.346L-3588.499-2481.48z"/>
	<path fill="#2F2F2F" d="M-3588.35-2469.747c0.042-0.438,0.146-0.836,0.311-1.195c0.164-0.357,0.38-0.662,0.646-0.91
		s0.568-0.434,0.908-0.555c0.339-0.121,0.705-0.164,1.096-0.126c0.392,0.037,0.742,0.147,1.053,0.331
		c0.311,0.185,0.572,0.424,0.786,0.717c0.214,0.295,0.367,0.633,0.462,1.018c0.094,0.383,0.12,0.793,0.078,1.23
		c-0.049,0.51-0.176,0.959-0.38,1.346c-0.205,0.387-0.477,0.701-0.815,0.939l-0.741-1.076c0.213-0.16,0.381-0.342,0.504-0.545
		s0.197-0.438,0.223-0.699c0.021-0.227,0.007-0.439-0.043-0.635c-0.051-0.195-0.134-0.367-0.251-0.514
		c-0.116-0.146-0.262-0.268-0.436-0.361s-0.37-0.15-0.59-0.172c-0.221-0.021-0.425-0.002-0.613,0.057
		c-0.188,0.061-0.354,0.15-0.495,0.271c-0.143,0.123-0.257,0.275-0.344,0.457c-0.087,0.184-0.141,0.389-0.162,0.615
		c-0.025,0.264,0.003,0.506,0.085,0.729c0.083,0.225,0.213,0.434,0.392,0.633l-0.932,0.914c-0.282-0.297-0.488-0.656-0.618-1.074
		C-3588.359-2468.773-3588.399-2469.238-3588.35-2469.747z"/>
	<path fill="#2F2F2F" d="M-3588.513-2462.281l-0.808,2.789l-1.083-0.313l1.241-4.283l4.953,1.436l-1.212,4.184l-1.082-0.313
		l0.779-2.69L-3588.513-2462.281z M-3586.529-2461.822l-0.718,2.477l-1.047-0.303l0.718-2.478L-3586.529-2461.822z"/>
	<path fill="#2F2F2F" d="M-3591.642-2456.507l4.564,2.401l-0.602,1.145l-4.175,0.403l0.317-0.604l2.063,3.612l-0.603,1.145
		l-4.571-2.387l0.672-1.277l2.766,1.437l-0.114,0.218l-1.529-2.696l0.325-0.617l3.109-0.31l-0.141,0.267l-2.758-1.451
		L-3591.642-2456.507z"/>
	<path fill="#2F2F2F" d="M-3596.896-2445.811l-1.821,2.262l-0.878-0.707l2.797-3.473l4.017,3.234l-2.731,3.393l-0.878-0.707
		l1.757-2.181L-3596.896-2445.811z M-3595.242-2444.621l-1.618,2.008l-0.849-0.684l1.617-2.009L-3595.242-2444.621z"/>
	<path fill="#2F2F2F" d="M-3602.026-2441.695l3.396,3.882l-0.974,0.852l-4.565-0.567l0.46-0.402l2.261,2.584l-1.158,1.014
		l-3.396-3.882l0.973-0.852l4.565,0.567l-0.459,0.402l-2.261-2.584L-3602.026-2441.695z"/>
	<path fill="#2F2F2F" d="M-3610.075-2435.4l2.104,3.402l1.451-0.897l0.607,0.984l-4.23,2.616l-0.608-0.984l1.444-0.893l-2.104-3.402
		L-3610.075-2435.4z"/>
</g>
<path fill="#22B78A" d="M-3607.98-2474.659c0,20.266-16.431,36.697-36.698,36.697v-73.408
	C-3624.411-2511.37-3607.98-2494.938-3607.98-2474.659z"/>
<path fill="none" d="M-3462.012-2466.655c0,27.06-21.939,48.998-48.999,48.998v-98.014
	C-3483.952-2515.67-3462.012-2493.731-3462.012-2466.655z"/>
<path fill="#FFFFFF" d="M-3609.119-2465.56c-4.149,0.22-8.279,0.774-12.368,1.688l-4.917-13.367
	c-0.144-0.395-0.584-0.599-0.979-0.453c-0.396,0.144-0.598,0.586-0.453,0.98l4.852,13.191c-0.057,0.014-0.115,0.028-0.173,0.043
	l-0.199,0.049c-0.71,0.179-1.417,0.366-2.121,0.564l-0.055,0.016c-0.709,0.2-1.418,0.411-2.121,0.634
	c-0.064,0.021-0.127,0.039-0.19,0.061c-0.088,0.027-0.175,0.054-0.263,0.083c-0.012,0.002-0.024,0.009-0.038,0.013
	c-0.975,0.314-1.941,0.644-2.879,0.989c-1.183,0.435-2.501-0.174-2.937-1.357l-4.212-11.454c-0.436-1.185,0.172-2.502,1.357-2.938
	c2.424-0.891,4.832-1.923,7.158-3.066c0.192-0.095,0.366-0.052,0.452-0.016c0.146,0.058,0.262,0.175,0.317,0.325
	c0.145,0.396,0.583,0.6,0.979,0.454c0.395-0.146,0.6-0.584,0.452-0.98c-0.023-0.063-0.049-0.126-0.079-0.188
	c-0.008-0.039-0.018-0.077-0.034-0.116c-0.093-0.259,0.018-0.553,0.264-0.686c5.4-2.893,10.904-6.043,15.354-10.177
	c-0.239-0.471-0.487-0.937-0.746-1.394c-4.376,4.153-9.903,7.32-15.328,10.226c-0.429,0.23-0.747,0.596-0.928,1.02
	c-0.463-0.104-0.95-0.046-1.375,0.162c-2.285,1.122-4.625,2.125-7.012,3.004c-1.973,0.727-2.989,2.921-2.263,4.897l3.95,10.738
	l-1.05,0.387c-1.184,0.433-2.5-0.176-2.938-1.358l-2.108-5.729c-0.324-0.879-0.085-1.854,0.612-2.487
	c0.311-0.281,0.335-0.766,0.053-1.076c-0.208-0.231-0.537-0.311-0.828-0.203c-0.092,0.033-0.177,0.084-0.25,0.15
	c-0.555,0.505-0.953,1.16-1.137,1.888c-0.19,0.748-0.149,1.528,0.119,2.257l2.107,5.727c0.352,0.956,1.053,1.719,1.979,2.146
	c0.925,0.427,1.962,0.469,2.918,0.116l1.12-0.412c0.934,1.512,2.833,2.209,4.563,1.575c0.707-0.261,1.428-0.513,2.159-0.756
	l2.886,7.84c0.726,1.974,2.922,2.989,4.896,2.262l1.908-0.702c1.974-0.725,2.99-2.922,2.262-4.896
	c-0.49-1.339-1.688-2.275-3.073-2.464l-1.499-4.072c3.77-0.832,7.577-1.347,11.399-1.576
	C-3609.401-2464.516-3609.253-2465.035-3609.119-2465.56z M-3620.717-2457.361c0.11,0.304,0.401,0.503,0.726,0.499
	c0.968-0.012,1.843,0.592,2.177,1.499c0.437,1.185-0.173,2.504-1.357,2.938l-1.909,0.702c-1.185,0.437-2.503-0.173-2.938-1.358
	l-2.861-7.777c0.145-0.044,0.288-0.089,0.432-0.133c0.135-0.041,0.266-0.08,0.399-0.119c0.242-0.074,0.487-0.144,0.731-0.214
	c0.122-0.034,0.244-0.068,0.367-0.103c0.236-0.067,0.475-0.133,0.711-0.197c0.139-0.037,0.277-0.075,0.416-0.11
	c0.212-0.056,0.424-0.11,0.638-0.164c0.166-0.043,0.333-0.084,0.503-0.127c0.078-0.019,0.154-0.037,0.233-0.055L-3620.717-2457.361z
	"/>
<path fill="none" d="M-3482.676-2472.661c0,26.107-22.794,47.275-50.912,47.275v-94.568
	C-3505.47-2519.954-3482.676-2498.786-3482.676-2472.661z"/>
<text transform="matrix(0.9386 0.5279 -0.4902 0.8716 -3509.9702 -2514.6736)" fill="#2F2F2F" font-family="'Montserrat-ExtraBold'" font-size="7.3675">A</text>
<text transform="matrix(0.832 0.6837 -0.6349 0.7726 -3502.3374 -2510.1262)" fill="#2F2F2F" font-family="'Montserrat-ExtraBold'" font-size="7.3675">N</text>
<text transform="matrix(0.6934 0.824 -0.7651 0.6439 -3495.5103 -2504.2102)" fill="#2F2F2F" font-family="'Montserrat-ExtraBold'" font-size="7.3675">N</text>
<text transform="matrix(0.5207 0.9426 -0.8753 0.4835 -3489.8862 -2497.1628)" fill="#2F2F2F" font-family="'Montserrat-ExtraBold'" font-size="7.3675">O</text>
<text transform="matrix(0.3216 1.0278 -0.9544 0.2987 -3485.6235 -2488.8655)" fill="#2F2F2F" font-family="'Montserrat-ExtraBold'" font-size="7.3675">U</text>
<text transform="matrix(0.1084 1.0714 -0.9949 0.1007 -3483.2222 -2480.324)" fill="#2F2F2F" font-family="'Montserrat-ExtraBold'" font-size="7.3675">N</text>
<text transform="matrix(-0.1025 1.072 -0.9955 -0.0952 -3482.5991 -2471.3386)" fill="#2F2F2F" font-family="'Montserrat-ExtraBold'" font-size="7.3675">C</text>
<text transform="matrix(-0.2996 1.0344 -0.9605 -0.2782 -3483.6763 -2462.9124)" fill="#2F2F2F" font-family="'Montserrat-ExtraBold'" font-size="7.3675">E</text>
<text transform="matrix(-0.5013 0.9531 -0.885 -0.4655 -3486.0513 -2455.2893)" fill="#2F2F2F" font-family="'Montserrat-ExtraBold'" font-size="7.3675">M</text>
<text transform="matrix(-0.6755 0.8387 -0.7788 -0.6272 -3491.1177 -2446.4524)" fill="#2F2F2F" font-family="'Montserrat-ExtraBold'" font-size="7.3675">E</text>
<text transform="matrix(-0.8105 0.7091 -0.6584 -0.7526 -3496.2759 -2440.3508)" fill="#2F2F2F" font-family="'Montserrat-ExtraBold'" font-size="7.3675">N</text>
<text transform="matrix(-0.916 0.5663 -0.5259 -0.8506 -3503.2651 -2434.6047)" fill="#2F2F2F" font-family="'Montserrat-ExtraBold'" font-size="7.3675">T</text>
<path fill="#22B78A" d="M-3489.138-2484.269c-0.508-0.591-1.111-1.09-1.789-1.477c-1.177-0.671-2.527-0.974-3.879-0.873
	l-3.403-9.251c-0.368-1.003-1.262-1.654-2.33-1.696c-1.046-0.043-1.971,0.509-2.43,1.445c-4.574,6.9-12.252,11.388-19.727,15.392
	c-0.429,0.23-0.746,0.596-0.928,1.02c-0.463-0.105-0.949-0.046-1.375,0.162c-2.284,1.122-4.625,2.125-7.012,3.004
	c-1.973,0.727-2.988,2.922-2.263,4.897l3.95,10.738l-1.051,0.388c-1.184,0.432-2.499-0.177-2.938-1.359l-2.107-5.728
	c-0.324-0.879-0.085-1.854,0.612-2.487c0.312-0.281,0.335-0.766,0.053-1.076c-0.208-0.231-0.537-0.311-0.827-0.203
	c-0.093,0.033-0.178,0.084-0.25,0.15c-0.556,0.505-0.953,1.16-1.137,1.888c-0.19,0.748-0.15,1.528,0.118,2.257l2.106,5.727
	c0.352,0.956,1.054,1.719,1.979,2.146c0.926,0.427,1.963,0.469,2.919,0.116l1.12-0.412c0.934,1.512,2.833,2.209,4.563,1.575
	c0.707-0.261,1.429-0.513,2.16-0.756l2.885,7.84c0.727,1.974,2.923,2.989,4.896,2.262l1.908-0.702
	c1.974-0.725,2.99-2.922,2.262-4.896c-0.49-1.339-1.688-2.275-3.073-2.464l-1.499-4.072c8.375-1.848,16.923-2.21,25.429-1.082
	c0.478,0.063,0.95,0.009,1.381-0.15c0.486-0.179,0.921-0.487,1.257-0.909c0.642-0.799,0.811-1.849,0.46-2.809l-7.153-19.445
	c2.179,0.018,4.146,1.401,4.897,3.446c0.544,1.48,0.399,3.112-0.399,4.477c-0.103,0.173-0.131,0.382-0.079,0.577
	c0.052,0.199,0.178,0.363,0.354,0.467c0.195,0.115,0.434,0.135,0.648,0.056c0.165-0.06,0.305-0.177,0.393-0.329
	c0,0,0.002-0.002,0-0.002c0.496-0.843,0.807-1.802,0.9-2.775c0.101-1.019-0.028-2.029-0.387-2.995
	C-3488.206-2482.958-3488.615-2483.656-3489.138-2484.269L-3489.138-2484.269z M-3512.483-2453.654
	c0.437,1.185-0.173,2.504-1.357,2.938l-1.908,0.702c-1.186,0.437-2.504-0.173-2.938-1.358l-2.861-7.777
	c0.145-0.044,0.287-0.089,0.432-0.133c0.135-0.041,0.266-0.08,0.398-0.119c0.242-0.074,0.488-0.144,0.731-0.214
	c0.122-0.034,0.244-0.068,0.367-0.103c0.235-0.067,0.476-0.133,0.711-0.197c0.14-0.037,0.276-0.075,0.415-0.11
	c0.213-0.056,0.425-0.11,0.639-0.164c0.166-0.043,0.334-0.084,0.503-0.127c0.077-0.019,0.153-0.037,0.233-0.055l1.733,4.719
	c0.11,0.304,0.401,0.503,0.726,0.499C-3513.692-2455.164-3512.817-2454.561-3512.483-2453.654L-3512.483-2453.654z
	 M-3488.748-2463.814c-0.301,0.378-0.768,0.567-1.247,0.502c-8.751-1.162-17.549-0.773-26.16,1.148l-4.917-13.367
	c-0.144-0.395-0.584-0.599-0.979-0.453c-0.396,0.144-0.598,0.586-0.453,0.98l4.853,13.191c-0.058,0.014-0.115,0.028-0.173,0.043
	l-0.199,0.049c-0.71,0.179-1.417,0.366-2.121,0.564l-0.055,0.016c-0.71,0.2-1.419,0.411-2.121,0.634
	c-0.064,0.021-0.127,0.039-0.19,0.061c-0.089,0.027-0.175,0.054-0.263,0.083c-0.012,0.002-0.023,0.009-0.037,0.013
	c-0.976,0.314-1.941,0.644-2.88,0.989c-1.183,0.435-2.501-0.174-2.937-1.357l-4.213-11.454c-0.436-1.185,0.172-2.502,1.357-2.938
	c2.424-0.891,4.832-1.923,7.158-3.066c0.191-0.095,0.365-0.052,0.451-0.016c0.146,0.058,0.263,0.175,0.317,0.325
	c0.145,0.396,0.583,0.6,0.979,0.454c0.395-0.146,0.6-0.584,0.452-0.98l0,0c-0.022-0.063-0.049-0.126-0.079-0.188
	c-0.008-0.039-0.018-0.077-0.033-0.116c-0.094-0.259,0.018-0.553,0.264-0.686c7.661-4.105,15.54-8.718,20.306-15.938
	c0.021-0.031,0.04-0.065,0.056-0.1c0.279-0.603,0.846-0.626,1.014-0.619c0.166,0.007,0.729,0.077,0.958,0.698l11.104,30.193
	c0.007,0.012,0.002-0.002,0.005,0.01C-3488.365-2464.686-3488.444-2464.192-3488.748-2463.814L-3488.748-2463.814z"/>
<path fill="#22B78A" d="M-3502.648-2472.95c0,20.267-16.431,36.697-36.698,36.697v-73.408
	C-3519.079-2509.661-3502.648-2493.229-3502.648-2472.95z"/>
<path fill="#FFFFFF" d="M-3503.787-2463.851c-4.149,0.22-8.279,0.774-12.368,1.688l-4.917-13.367
	c-0.144-0.395-0.584-0.599-0.979-0.453c-0.396,0.144-0.598,0.586-0.453,0.98l4.853,13.191c-0.058,0.014-0.115,0.028-0.173,0.043
	l-0.199,0.049c-0.71,0.179-1.417,0.366-2.121,0.564l-0.055,0.016c-0.71,0.2-1.419,0.411-2.121,0.634
	c-0.064,0.021-0.127,0.039-0.19,0.061c-0.089,0.027-0.175,0.054-0.263,0.083c-0.012,0.002-0.023,0.009-0.037,0.013
	c-0.976,0.314-1.941,0.644-2.88,0.989c-1.183,0.435-2.501-0.174-2.937-1.357l-4.213-11.454c-0.436-1.185,0.172-2.502,1.357-2.938
	c2.424-0.891,4.832-1.923,7.158-3.066c0.191-0.095,0.365-0.052,0.451-0.016c0.146,0.058,0.263,0.175,0.317,0.325
	c0.145,0.396,0.583,0.6,0.979,0.454c0.395-0.146,0.6-0.584,0.452-0.98c-0.022-0.063-0.049-0.126-0.079-0.188
	c-0.008-0.039-0.018-0.077-0.033-0.116c-0.094-0.259,0.018-0.553,0.264-0.686c5.4-2.893,10.903-6.043,15.354-10.177
	c-0.239-0.471-0.487-0.937-0.746-1.394c-4.376,4.153-9.902,7.32-15.328,10.226c-0.43,0.23-0.747,0.596-0.928,1.02
	c-0.464-0.104-0.95-0.046-1.375,0.162c-2.285,1.122-4.625,2.125-7.012,3.004c-1.973,0.727-2.99,2.921-2.264,4.897l3.95,10.738
	l-1.05,0.387c-1.184,0.433-2.5-0.176-2.938-1.358l-2.109-5.729c-0.324-0.879-0.085-1.854,0.612-2.487
	c0.312-0.281,0.335-0.766,0.053-1.076c-0.208-0.231-0.537-0.311-0.827-0.203c-0.093,0.033-0.178,0.084-0.25,0.15
	c-0.556,0.505-0.953,1.16-1.137,1.888c-0.19,0.748-0.15,1.528,0.118,2.257l2.106,5.727c0.352,0.956,1.054,1.719,1.979,2.146
	c0.926,0.427,1.963,0.469,2.919,0.116l1.12-0.412c0.934,1.512,2.833,2.209,4.563,1.575c0.707-0.261,1.429-0.513,2.16-0.756
	l2.885,7.84c0.727,1.974,2.923,2.989,4.896,2.262l1.908-0.702c1.974-0.725,2.99-2.922,2.262-4.896
	c-0.49-1.339-1.688-2.275-3.073-2.464l-1.499-4.072c3.771-0.832,7.577-1.347,11.399-1.576
	C-3504.069-2462.807-3503.921-2463.326-3503.787-2463.851z M-3515.385-2455.652c0.11,0.304,0.401,0.503,0.726,0.499
	c0.968-0.012,1.843,0.592,2.177,1.499c0.437,1.185-0.173,2.504-1.357,2.938l-1.908,0.702c-1.186,0.437-2.504-0.173-2.938-1.358
	l-2.861-7.777c0.145-0.044,0.287-0.089,0.432-0.133c0.135-0.041,0.266-0.08,0.398-0.119c0.242-0.074,0.488-0.144,0.731-0.214
	c0.122-0.034,0.244-0.068,0.367-0.103c0.235-0.067,0.476-0.133,0.711-0.197c0.14-0.037,0.276-0.075,0.415-0.11
	c0.213-0.056,0.425-0.11,0.639-0.164c0.166-0.043,0.334-0.084,0.503-0.127c0.077-0.019,0.153-0.037,0.233-0.055L-3515.385-2455.652z
	"/>
<path fill="#22B78A" d="M-3320.641-2488.768c-0.678-0.789-1.484-1.456-2.389-1.972c-1.572-0.896-3.375-1.301-5.18-1.166
	l-4.544-12.353c-0.491-1.339-1.685-2.209-3.11-2.264c-1.397-0.058-2.633,0.68-3.244,1.93c-6.107,9.213-16.359,15.204-26.338,20.551
	c-0.573,0.308-0.998,0.796-1.239,1.361c-0.619-0.14-1.269-0.062-1.836,0.216c-3.05,1.498-6.175,2.837-9.362,4.011
	c-2.634,0.971-3.99,3.901-3.021,6.538l5.274,14.338l-1.401,0.517c-1.582,0.577-3.338-0.235-3.924-1.813l-2.813-7.647
	c-0.434-1.175-0.114-2.476,0.816-3.32c0.416-0.377,0.447-1.022,0.07-1.438c-0.277-0.31-0.717-0.416-1.105-0.272
	c-0.123,0.045-0.235,0.113-0.334,0.202c-0.74,0.673-1.271,1.549-1.517,2.52c-0.254,0.998-0.2,2.041,0.158,3.014l2.813,7.646
	c0.469,1.277,1.406,2.295,2.642,2.865s2.619,0.625,3.896,0.155l1.496-0.551c1.247,2.018,3.783,2.949,6.094,2.103
	c0.942-0.348,1.906-0.684,2.883-1.008l3.853,10.467c0.968,2.636,3.901,3.991,6.536,3.021l2.548-0.938
	c2.636-0.968,3.993-3.902,3.021-6.538c-0.655-1.787-2.254-3.039-4.104-3.289l-2.001-5.438c11.181-2.467,22.595-2.95,33.951-1.444
	c0.638,0.085,1.269,0.012,1.845-0.201c0.648-0.237,1.229-0.65,1.678-1.214c0.855-1.066,1.082-2.468,0.613-3.749l-9.551-25.963
	c2.909,0.023,5.536,1.87,6.539,4.601c0.727,1.977,0.533,4.154-0.533,5.977c-0.137,0.231-0.175,0.511-0.105,0.771
	c0.068,0.266,0.236,0.484,0.473,0.623c0.262,0.153,0.579,0.181,0.866,0.074c0.22-0.08,0.407-0.236,0.524-0.439
	c0,0,0.002-0.002,0-0.003c0.662-1.125,1.077-2.405,1.202-3.705c0.134-1.36-0.038-2.709-0.516-3.999
	C-3319.396-2487.018-3319.942-2487.949-3320.641-2488.768L-3320.641-2488.768z M-3351.81-2447.89
	c0.582,1.58-0.231,3.342-1.813,3.922l-2.548,0.938c-1.582,0.582-3.342-0.231-3.922-1.813l-3.821-10.385
	c0.193-0.059,0.385-0.119,0.577-0.178c0.181-0.054,0.354-0.106,0.533-0.159c0.323-0.099,0.649-0.191,0.976-0.284
	c0.162-0.046,0.326-0.092,0.49-0.138c0.314-0.09,0.635-0.178,0.949-0.264c0.186-0.05,0.37-0.1,0.555-0.147
	c0.284-0.074,0.566-0.146,0.852-0.219c0.223-0.058,0.445-0.113,0.672-0.169c0.104-0.025,0.206-0.051,0.311-0.074l2.315,6.302
	c0.147,0.404,0.536,0.671,0.97,0.666C-3353.424-2449.907-3352.257-2449.103-3351.81-2447.89L-3351.81-2447.89z M-3320.12-2461.456
	c-0.401,0.504-1.024,0.757-1.666,0.67c-11.684-1.552-23.43-1.033-34.928,1.534l-6.564-17.848c-0.192-0.526-0.78-0.8-1.309-0.604
	c-0.527,0.192-0.798,0.781-0.604,1.309l6.478,17.612c-0.075,0.018-0.153,0.037-0.231,0.057l-0.266,0.065
	c-0.947,0.238-1.892,0.489-2.832,0.755l-0.072,0.021c-0.948,0.268-1.895,0.549-2.832,0.846c-0.086,0.027-0.17,0.053-0.254,0.081
	c-0.119,0.036-0.234,0.071-0.352,0.11c-0.016,0.004-0.031,0.012-0.05,0.018c-1.302,0.419-2.591,0.859-3.845,1.32
	c-1.58,0.581-3.34-0.232-3.922-1.813l-5.623-15.293c-0.582-1.582,0.229-3.342,1.812-3.924c3.237-1.189,6.452-2.566,9.558-4.093
	c0.256-0.127,0.487-0.07,0.604-0.021c0.193,0.077,0.35,0.234,0.423,0.435c0.192,0.528,0.778,0.8,1.308,0.604
	c0.527-0.194,0.801-0.779,0.604-1.309l0,0c-0.03-0.085-0.064-0.168-0.105-0.251c-0.011-0.052-0.023-0.103-0.045-0.154
	c-0.125-0.347,0.023-0.739,0.352-0.916c10.229-5.48,20.75-11.64,27.113-21.28c0.028-0.041,0.053-0.086,0.074-0.133
	c0.372-0.804,1.129-0.836,1.354-0.826c0.222,0.01,0.974,0.103,1.279,0.932l14.825,40.313c0.009,0.016,0.002-0.003,0.007,0.014
	C-3319.608-2462.621-3319.715-2461.96-3320.12-2461.456L-3320.12-2461.456z"/>
<path fill="#22B78A" d="M-3338.679-2473.656c0,27.06-21.938,48.998-48.999,48.998v-98.014
	C-3360.618-2522.671-3338.679-2500.732-3338.679-2473.656z"/>
<path fill="#FFFFFF" d="M-3340.2-2461.506c-5.539,0.293-11.055,1.034-16.514,2.254l-6.564-17.848c-0.192-0.526-0.78-0.8-1.309-0.604
	c-0.527,0.192-0.798,0.781-0.604,1.309l6.478,17.612c-0.075,0.018-0.153,0.037-0.231,0.057l-0.266,0.065
	c-0.947,0.238-1.892,0.489-2.832,0.755l-0.072,0.021c-0.948,0.268-1.895,0.549-2.832,0.846c-0.086,0.027-0.17,0.053-0.254,0.081
	c-0.119,0.036-0.234,0.071-0.352,0.11c-0.016,0.004-0.031,0.012-0.05,0.018c-1.302,0.419-2.591,0.859-3.845,1.32
	c-1.58,0.581-3.34-0.232-3.922-1.813l-5.623-15.293c-0.582-1.582,0.229-3.342,1.812-3.924c3.237-1.189,6.452-2.566,9.558-4.093
	c0.256-0.127,0.487-0.07,0.604-0.021c0.193,0.077,0.35,0.234,0.423,0.435c0.192,0.528,0.778,0.8,1.308,0.604
	c0.527-0.194,0.801-0.779,0.604-1.309c-0.03-0.085-0.064-0.168-0.105-0.251c-0.011-0.052-0.023-0.103-0.045-0.154
	c-0.125-0.347,0.023-0.739,0.352-0.916c7.211-3.862,14.559-8.068,20.5-13.588c-0.319-0.629-0.65-1.25-0.996-1.861
	c-5.842,5.546-13.221,9.773-20.465,13.654c-0.573,0.308-0.998,0.796-1.239,1.361c-0.619-0.14-1.269-0.062-1.836,0.216
	c-3.05,1.498-6.175,2.837-9.362,4.011c-2.634,0.971-3.99,3.901-3.021,6.538l5.274,14.338l-1.401,0.517
	c-1.582,0.577-3.338-0.235-3.924-1.813l-2.814-7.648c-0.434-1.175-0.114-2.476,0.816-3.32c0.416-0.377,0.447-1.022,0.07-1.438
	c-0.277-0.31-0.717-0.416-1.105-0.272c-0.123,0.045-0.235,0.113-0.334,0.202c-0.74,0.673-1.271,1.549-1.517,2.52
	c-0.254,0.998-0.2,2.041,0.158,3.014l2.813,7.646c0.469,1.277,1.406,2.295,2.642,2.865s2.619,0.625,3.896,0.155l1.496-0.551
	c1.247,2.018,3.783,2.949,6.094,2.103c0.942-0.348,1.906-0.684,2.883-1.008l3.853,10.467c0.968,2.636,3.901,3.991,6.536,3.021
	l2.548-0.938c2.636-0.968,3.993-3.902,3.021-6.538c-0.655-1.787-2.254-3.039-4.104-3.289l-2.001-5.438
	c5.034-1.11,10.116-1.798,15.22-2.104C-3340.577-2460.113-3340.379-2460.806-3340.2-2461.506z M-3355.686-2450.558
	c0.148,0.404,0.537,0.671,0.97,0.666c1.292-0.017,2.459,0.789,2.906,2.002c0.582,1.58-0.231,3.342-1.813,3.922l-2.548,0.938
	c-1.582,0.582-3.342-0.231-3.922-1.813l-3.821-10.385c0.193-0.059,0.385-0.119,0.577-0.178c0.181-0.054,0.354-0.106,0.533-0.159
	c0.323-0.099,0.649-0.191,0.976-0.284c0.162-0.046,0.326-0.092,0.49-0.138c0.314-0.09,0.635-0.178,0.949-0.264
	c0.186-0.05,0.37-0.1,0.555-0.147c0.284-0.074,0.566-0.146,0.852-0.219c0.223-0.058,0.445-0.113,0.672-0.169
	c0.104-0.025,0.206-0.051,0.311-0.074L-3355.686-2450.558z"/>
<text transform="matrix(1 0 0 1 -3657.5112 -2345.1633)" font-family="'Montserrat-Medium'" font-size="12">ANNOUNCEMENT</text>
<text transform="matrix(1 0 0 1 -3678.4995 -1653.1633)" font-family="'Montserrat-Medium'" font-size="12">ANNOUNCEMENT</text>
<image overflow="visible" width="1920" height="1080" xlink:href="53A12078.jpg"  transform="matrix(0.3511 0 0 0.3511 -175.397 915.5066)">
</image>
<g opacity="0.2">
	<image overflow="visible" width="174" height="96" xlink:href="53A12074.png"  transform="matrix(1 0 0 1 -3843.1665 -1773.9514)">
	</image>
</g>
<path fill="#C4C4C4" d="M-3705.678-1718.705c0,0.853-0.554,1.542-1.238,1.542h-98.484c-0.684,0-1.238-0.689-1.238-1.542v-20.037
	c0-0.853,0.554-1.542,1.238-1.542h98.484c0.684,0,1.238,0.689,1.238,1.542V-1718.705z"/>
<path opacity="0.7" fill="#FFFFFF" d="M-3800.155-1737.508c-1.779,0-4.995,0.427-6.482,1.166v17.637
	c0,0.853,0.554,1.542,1.238,1.542h10.617c3.365-1.86,5.642-5.405,5.642-9.48C-3789.14-1732.643-3794.072-1737.508-3800.155-1737.508
	z"/>
<path fill="#2F2F2F" d="M-3793.999-1729.141c-0.116-0.134-0.254-0.246-0.41-0.333c-0.269-0.15-0.577-0.219-0.886-0.195l-0.779-2.088
	c-0.084-0.227-0.289-0.373-0.532-0.381c-0.24-0.011-0.451,0.112-0.557,0.325c-1.045,1.555-2.8,2.567-4.51,3.472
	c-0.098,0.053-0.17,0.134-0.211,0.229c-0.106-0.024-0.218-0.011-0.315,0.035c-0.522,0.254-1.058,0.479-1.603,0.678
	c-0.45,0.163-0.683,0.658-0.518,1.105l0.904,2.421l-0.241,0.087c-0.27,0.098-0.572-0.039-0.671-0.306l-0.482-1.293
	c-0.075-0.197-0.021-0.417,0.14-0.56c0.071-0.063,0.076-0.174,0.012-0.243c-0.047-0.053-0.123-0.068-0.189-0.044
	c-0.021,0.005-0.04,0.017-0.057,0.033c-0.126,0.112-0.218,0.26-0.26,0.425c-0.044,0.169-0.034,0.345,0.027,0.509l0.482,1.291
	c0.081,0.216,0.24,0.389,0.452,0.484c0.211,0.096,0.449,0.105,0.667,0.027l0.256-0.096c0.213,0.342,0.648,0.5,1.043,0.356
	c0.161-0.059,0.326-0.115,0.493-0.171l0.66,1.769c0.167,0.443,0.668,0.675,1.12,0.511l0.436-0.159
	c0.451-0.164,0.684-0.659,0.518-1.104c-0.113-0.304-0.386-0.514-0.703-0.557l-0.342-0.918c1.915-0.417,3.868-0.499,5.813-0.243
	c0.109,0.013,0.217,0.001,0.315-0.035c0.111-0.041,0.211-0.109,0.288-0.205c0.146-0.179,0.186-0.417,0.105-0.633l-1.635-4.385
	c0.499,0.004,0.948,0.315,1.12,0.776c0.124,0.334,0.092,0.702-0.092,1.01c-0.022,0.039-0.031,0.086-0.018,0.13
	c0.011,0.045,0.041,0.08,0.081,0.104c0.045,0.026,0.099,0.032,0.148,0.013c0.038-0.013,0.07-0.038,0.089-0.073l0,0
	c0.114-0.192,0.185-0.407,0.206-0.627c0.022-0.23-0.007-0.458-0.089-0.676C-3793.786-1728.845-3793.879-1729.003-3793.999-1729.141
	L-3793.999-1729.141z M-3799.336-1722.237c0.1,0.267-0.039,0.566-0.31,0.663l-0.436,0.157c-0.272,0.1-0.572-0.038-0.672-0.306
	l-0.654-1.753c0.033-0.012,0.065-0.022,0.099-0.031c0.031-0.008,0.062-0.018,0.091-0.026c0.055-0.018,0.111-0.032,0.167-0.048
	c0.028-0.009,0.057-0.016,0.084-0.024c0.053-0.014,0.108-0.029,0.163-0.044c0.033-0.008,0.063-0.016,0.095-0.024
	c0.048-0.014,0.097-0.025,0.146-0.037c0.039-0.01,0.077-0.018,0.116-0.03c0.018-0.001,0.036-0.007,0.053-0.012l0.396,1.065
	c0.025,0.068,0.092,0.112,0.166,0.111C-3799.613-1722.578-3799.413-1722.442-3799.336-1722.237L-3799.336-1722.237z
	 M-3793.91-1724.528c-0.068,0.085-0.176,0.128-0.285,0.112c-2.001-0.262-4.012-0.174-5.98,0.259l-1.125-3.015
	c-0.032-0.088-0.133-0.134-0.224-0.101c-0.089,0.032-0.137,0.132-0.102,0.222l1.109,2.975c-0.014,0.003-0.027,0.005-0.04,0.009
	l-0.045,0.012c-0.163,0.039-0.324,0.082-0.485,0.126l-0.013,0.004c-0.162,0.045-0.324,0.093-0.485,0.144
	c-0.014,0.005-0.028,0.008-0.042,0.015c-0.021,0.005-0.041,0.012-0.061,0.016c-0.003,0.002-0.005,0.004-0.008,0.005
	c-0.222,0.07-0.444,0.145-0.658,0.223c-0.271,0.098-0.572-0.039-0.671-0.308l-0.963-2.582c-0.1-0.267,0.039-0.564,0.311-0.662
	c0.554-0.201,1.104-0.432,1.637-0.691c0.043-0.021,0.083-0.012,0.103-0.004c0.034,0.014,0.061,0.038,0.072,0.075
	c0.034,0.088,0.134,0.133,0.225,0.1c0.09-0.031,0.138-0.131,0.104-0.221l0,0c-0.005-0.014-0.011-0.027-0.018-0.042
	c-0.002-0.007-0.005-0.019-0.008-0.025c-0.021-0.059,0.003-0.127,0.06-0.155c1.751-0.926,3.553-1.966,4.642-3.594
	c0.005-0.007,0.009-0.015,0.013-0.021c0.064-0.137,0.193-0.143,0.232-0.143c0.038,0.004,0.166,0.019,0.219,0.158l2.539,6.811
	c0.001,0.001,0,0,0.001,0.001C-3793.822-1724.724-3793.84-1724.614-3793.91-1724.528L-3793.91-1724.528z"/>
<g>
	
		<text transform="matrix(1 0 0 1 -3785.0688 -1723.5061)" fill="#2F2F2F" font-family="'Montserrat-Bold'" font-size="6.7622" letter-spacing="1">ANNOUNCEMENT</text>
</g>
<rect x="-3816.167" y="-1740.326" fill="#FFFFFF" width="122.667" height="5.833"/>
<image overflow="visible" width="1920" height="1080" xlink:href="53A1207A.jpg"  transform="matrix(0.3511 0 0 0.3511 -891.5229 915.5066)">
</image>
<path fill="#C4C4C4" d="M-4421.178-1574.262c0,0.853-0.554,1.542-1.238,1.542h-98.484c-0.684,0-1.238-0.689-1.238-1.542v-20.037
	c0-0.853,0.554-1.542,1.238-1.542h98.484c0.684,0,1.238,0.689,1.238,1.542V-1574.262z"/>
<path opacity="0.7" fill="#FFFFFF" d="M-4515.655-1593.065c-1.779,0-4.995,0.427-6.482,1.166v17.637
	c0,0.853,0.554,1.542,1.238,1.542h10.617c3.365-1.86,5.642-5.405,5.642-9.48C-4504.64-1588.199-4509.572-1593.065-4515.655-1593.065
	z"/>
<path fill="#515658" d="M-4509.499-1584.698c-0.116-0.134-0.254-0.246-0.41-0.333c-0.269-0.15-0.577-0.219-0.886-0.195l-0.779-2.088
	c-0.084-0.227-0.289-0.373-0.532-0.381c-0.24-0.011-0.451,0.112-0.557,0.325c-1.045,1.555-2.8,2.567-4.51,3.472
	c-0.098,0.053-0.17,0.134-0.211,0.229c-0.106-0.024-0.218-0.011-0.315,0.035c-0.522,0.254-1.058,0.479-1.603,0.678
	c-0.45,0.163-0.683,0.658-0.518,1.105l0.904,2.421l-0.241,0.087c-0.27,0.098-0.572-0.039-0.671-0.306l-0.482-1.293
	c-0.075-0.197-0.021-0.417,0.14-0.56c0.071-0.063,0.076-0.174,0.012-0.243c-0.047-0.053-0.123-0.068-0.189-0.044
	c-0.021,0.005-0.04,0.017-0.057,0.033c-0.126,0.112-0.218,0.26-0.26,0.425c-0.044,0.169-0.034,0.345,0.027,0.509l0.482,1.291
	c0.081,0.216,0.24,0.389,0.452,0.484c0.211,0.096,0.449,0.105,0.667,0.027l0.256-0.096c0.213,0.342,0.648,0.5,1.043,0.356
	c0.161-0.059,0.326-0.115,0.493-0.171l0.66,1.769c0.167,0.443,0.668,0.675,1.12,0.511l0.436-0.159
	c0.451-0.164,0.684-0.659,0.518-1.104c-0.113-0.304-0.386-0.514-0.703-0.557l-0.342-0.918c1.915-0.417,3.868-0.499,5.813-0.243
	c0.109,0.013,0.217,0.001,0.315-0.035c0.111-0.041,0.211-0.109,0.288-0.205c0.146-0.179,0.186-0.417,0.105-0.633l-1.635-4.385
	c0.499,0.004,0.948,0.315,1.12,0.776c0.124,0.334,0.092,0.702-0.092,1.01c-0.022,0.039-0.031,0.086-0.018,0.13
	c0.011,0.045,0.041,0.08,0.081,0.104c0.045,0.026,0.099,0.032,0.148,0.013c0.038-0.013,0.07-0.038,0.089-0.073l0,0
	c0.114-0.192,0.185-0.407,0.206-0.627c0.022-0.23-0.007-0.458-0.089-0.676C-4509.286-1584.402-4509.379-1584.56-4509.499-1584.698
	L-4509.499-1584.698z M-4514.836-1577.793c0.1,0.267-0.039,0.566-0.31,0.663l-0.436,0.157c-0.272,0.1-0.572-0.038-0.672-0.306
	l-0.654-1.753c0.033-0.012,0.065-0.022,0.099-0.031c0.031-0.008,0.062-0.018,0.091-0.026c0.055-0.018,0.111-0.032,0.167-0.048
	c0.028-0.009,0.057-0.016,0.084-0.024c0.053-0.014,0.108-0.029,0.163-0.044c0.033-0.008,0.063-0.016,0.095-0.024
	c0.048-0.014,0.097-0.025,0.146-0.037c0.039-0.01,0.077-0.018,0.116-0.03c0.018-0.001,0.036-0.007,0.053-0.012l0.396,1.065
	c0.025,0.068,0.092,0.112,0.166,0.111C-4515.113-1578.135-4514.913-1577.998-4514.836-1577.793L-4514.836-1577.793z
	 M-4509.41-1580.084c-0.068,0.085-0.176,0.128-0.285,0.112c-2.001-0.262-4.012-0.174-5.98,0.259l-1.125-3.015
	c-0.032-0.088-0.133-0.134-0.224-0.101c-0.089,0.032-0.137,0.132-0.102,0.222l1.109,2.975c-0.014,0.003-0.027,0.005-0.04,0.009
	l-0.045,0.012c-0.163,0.039-0.324,0.082-0.485,0.126l-0.013,0.004c-0.162,0.045-0.324,0.093-0.485,0.144
	c-0.014,0.005-0.028,0.008-0.042,0.015c-0.021,0.005-0.041,0.012-0.061,0.016c-0.003,0.002-0.005,0.004-0.008,0.005
	c-0.222,0.07-0.444,0.145-0.658,0.223c-0.271,0.098-0.572-0.039-0.671-0.308l-0.963-2.582c-0.1-0.267,0.039-0.564,0.311-0.662
	c0.554-0.201,1.104-0.432,1.637-0.691c0.043-0.021,0.083-0.012,0.103-0.004c0.034,0.014,0.061,0.038,0.072,0.075
	c0.034,0.088,0.134,0.133,0.225,0.1c0.09-0.031,0.138-0.131,0.104-0.221l0,0c-0.005-0.014-0.011-0.027-0.018-0.042
	c-0.002-0.007-0.005-0.019-0.008-0.025c-0.021-0.059,0.003-0.127,0.06-0.155c1.751-0.926,3.553-1.966,4.642-3.594
	c0.005-0.007,0.009-0.015,0.013-0.021c0.064-0.137,0.193-0.143,0.232-0.143c0.038,0.004,0.166,0.019,0.219,0.158l2.539,6.811
	c0.001,0.001,0,0,0.001,0.001C-4509.322-1580.281-4509.34-1580.17-4509.41-1580.084L-4509.41-1580.084z"/>
<g>
	
		<text transform="matrix(1 0 0 1 -4500.5688 -1579.0627)" fill="#515658" font-family="'Montserrat-Bold'" font-size="6.7622" letter-spacing="1">ANNOUNCEMENT</text>
</g>
<rect x="-4531.666" y="-1595.883" fill="#FFFFFF" width="122.667" height="5.833"/>
<path fill="#515658" d="M-4567.487-1730.738c0.68,5.674,10.89,13.72,31.286,13.72c20.462,0,31.285-7.116,31.285-13.72H-4567.487z"/>
<g>
	<image overflow="visible" width="83" height="83" xlink:href="53A1207E.png"  transform="matrix(1 0 0 1 -4577.814 -1758.7678)">
	</image>
</g>
<g>
	<text transform="matrix(1 0 0 1 -4558.2075 -1725.1497)" fill="#FFFFFF" font-family="'Montserrat-Bold'" font-size="4.1448">ANNOUNCEMENT</text>
</g>
<g>
	<path fill="#515658" d="M-3792.286-1538.609c0.68,5.674,10.89,13.72,31.286,13.72c20.462,0,31.285-7.116,31.285-13.72H-3792.286z"
		/>
	<g>
		<image overflow="visible" width="83" height="83" xlink:href="53A12079.png"  transform="matrix(1 0 0 1 -3802.6128 -1566.6389)">
		</image>
	</g>
	<circle fill="#FFFFFF" cx="-3761" cy="-1525.211" r="6"/>
	<path fill="#515658" d="M-3757.33-1526.965c-0.079-0.092-0.174-0.169-0.281-0.229c-0.185-0.104-0.396-0.15-0.608-0.134
		l-0.535-1.436c-0.058-0.155-0.198-0.257-0.365-0.262c-0.165-0.008-0.311,0.077-0.383,0.224c-0.719,1.068-1.925,1.765-3.1,2.386
		c-0.066,0.036-0.116,0.093-0.146,0.158c-0.072-0.018-0.149-0.008-0.216,0.023c-0.358,0.175-0.728,0.33-1.102,0.466
		c-0.31,0.112-0.47,0.452-0.356,0.761l0.622,1.663l-0.166,0.06c-0.186,0.067-0.394-0.026-0.461-0.21l-0.331-0.889
		c-0.052-0.136-0.015-0.286,0.096-0.385c0.049-0.043,0.053-0.119,0.008-0.167c-0.032-0.036-0.084-0.047-0.13-0.03
		c-0.014,0.003-0.027,0.012-0.039,0.023c-0.087,0.077-0.149,0.179-0.179,0.292c-0.03,0.115-0.023,0.236,0.019,0.35l0.331,0.887
		c0.056,0.148,0.165,0.268,0.311,0.333c0.146,0.066,0.309,0.072,0.459,0.019l0.176-0.065c0.147,0.234,0.446,0.344,0.717,0.245
		c0.11-0.041,0.225-0.079,0.34-0.117l0.453,1.215c0.114,0.305,0.459,0.464,0.77,0.352l0.3-0.109c0.311-0.113,0.47-0.453,0.355-0.759
		c-0.078-0.208-0.266-0.354-0.483-0.383l-0.234-0.631c1.315-0.286,2.657-0.343,3.994-0.167c0.075,0.009,0.149,0.001,0.218-0.024
		c0.076-0.028,0.145-0.074,0.197-0.141c0.101-0.123,0.128-0.287,0.072-0.435l-1.124-3.014c0.343,0.003,0.651,0.217,0.77,0.533
		c0.085,0.23,0.063,0.483-0.063,0.694c-0.016,0.026-0.021,0.059-0.013,0.089c0.008,0.031,0.028,0.055,0.056,0.072
		c0.031,0.019,0.067,0.021,0.102,0.009c0.026-0.009,0.048-0.026,0.062-0.051l0,0c0.078-0.132,0.127-0.279,0.142-0.431
		c0.016-0.158-0.004-0.314-0.061-0.464C-3757.182-1526.761-3757.247-1526.87-3757.33-1526.965L-3757.33-1526.965z
		 M-3760.998-1522.22c0.069,0.184-0.026,0.39-0.213,0.456l-0.3,0.107c-0.187,0.069-0.393-0.025-0.462-0.21l-0.449-1.205
		c0.022-0.007,0.045-0.015,0.067-0.021c0.021-0.005,0.043-0.012,0.063-0.018c0.037-0.013,0.076-0.021,0.114-0.033
		c0.02-0.006,0.039-0.01,0.058-0.016c0.037-0.01,0.075-0.021,0.112-0.03c0.022-0.006,0.043-0.012,0.064-0.018
		c0.033-0.01,0.067-0.018,0.101-0.025c0.026-0.007,0.053-0.012,0.079-0.021c0.013-0.001,0.024-0.005,0.036-0.009l0.273,0.732
		c0.017,0.048,0.063,0.078,0.113,0.077C-3761.187-1522.454-3761.049-1522.361-3760.998-1522.22L-3760.998-1522.22z
		 M-3757.268-1523.794c-0.047,0.059-0.12,0.088-0.196,0.077c-1.375-0.18-2.757-0.12-4.109,0.178l-0.773-2.072
		c-0.021-0.061-0.092-0.091-0.153-0.068s-0.094,0.09-0.07,0.152l0.762,2.044c-0.009,0.002-0.019,0.004-0.027,0.007l-0.031,0.007
		c-0.111,0.027-0.223,0.057-0.333,0.087l-0.01,0.003c-0.11,0.03-0.222,0.063-0.333,0.099c-0.009,0.004-0.019,0.005-0.028,0.011
		c-0.015,0.003-0.028,0.008-0.043,0.01c-0.002,0.002-0.003,0.003-0.005,0.004c-0.153,0.048-0.306,0.099-0.453,0.152
		c-0.186,0.067-0.393-0.026-0.461-0.211l-0.662-1.774c-0.068-0.183,0.027-0.389,0.213-0.455c0.381-0.139,0.76-0.297,1.125-0.475
		c0.03-0.015,0.058-0.009,0.071-0.003c0.022,0.009,0.041,0.025,0.049,0.051c0.023,0.061,0.093,0.092,0.155,0.069
		c0.062-0.021,0.094-0.091,0.07-0.152l0,0c-0.003-0.009-0.007-0.019-0.012-0.028c-0.001-0.005-0.004-0.013-0.006-0.018
		c-0.015-0.04,0.002-0.088,0.042-0.106c1.203-0.637,2.441-1.352,3.189-2.471c0.004-0.004,0.007-0.01,0.009-0.015
		c0.045-0.094,0.133-0.098,0.16-0.098c0.025,0.003,0.114,0.013,0.15,0.109l1.745,4.68c0.001,0.001,0,0,0.001,0.001
		C-3757.208-1523.929-3757.22-1523.854-3757.268-1523.794L-3757.268-1523.794z"/>
	<g>
		<text transform="matrix(1 0 0 1 -3783.0063 -1533.0208)" fill="#FFFFFF" font-family="'Montserrat-Bold'" font-size="4.1448">ANNOUNCEMENT</text>
	</g>
</g>
<image overflow="visible" width="1920" height="1080" xlink:href="C:\Users\I3\Downloads\image_2023_03_27T12_01_28_484Z.png"  transform="matrix(1 0 0 1 -441.2593 1831.7117)">
</image>
<image overflow="visible" width="1920" height="1080" xlink:href="C:\Users\I3\Downloads\image_2023_03_27T12_01_28_484Z.png"  transform="matrix(1 0 0 1 694.7402 251.9324)">
</image>
<rect x="-441.259" y="2129.007" fill="#FFFFFF" width="51.259" height="135.75"/>
<path fill="#269B74" d="M-402.16,2184.251c0,14.896-12.073,26.972-26.972,26.972c-14.895,0-26.971-12.076-26.971-26.972
	c0-14.895,12.077-26.972,26.971-26.972C-414.233,2157.279-402.16,2169.356-402.16,2184.251z"/>
<circle fill="none" cx="-429.128" cy="2184.252" r="30.625"/>
<text transform="matrix(0.9998 0.0174 -0.0174 0.9998 -432.4116 2153.5632)"><tspan x="0" y="0" fill="#383A3A" font-family="'Montserrat-Bold'" font-size="10">A</tspan><tspan x="8.841" y="0.139" fill="#383A3A" font-family="'Montserrat-Bold'" font-size="10" rotate="16.859">N</tspan><tspan x="17.631" y="2.991" fill="#383A3A" font-family="'Montserrat-Bold'" font-size="10" rotate="34.126">N</tspan><tspan x="25.199" y="8.303" fill="#383A3A" font-family="'Montserrat-Bold'" font-size="10" rotate="51.573">O</tspan><tspan x="30.999" y="15.965" fill="#383A3A" font-family="'Montserrat-Bold'" font-size="10" rotate="68.983">U</tspan><tspan x="34.085" y="24.44" fill="#383A3A" font-family="'Montserrat-Bold'" font-size="10" rotate="86.01">N</tspan><tspan x="34.51" y="33.7" fill="#383A3A" font-family="'Montserrat-Bold'" font-size="10" rotate="102.494">C</tspan><tspan x="32.468" y="41.973" fill="#383A3A" font-family="'Montserrat-Bold'" font-size="10" rotate="117.908">E</tspan><tspan x="28.796" y="48.975" fill="#383A3A" font-family="'Montserrat-Bold'" font-size="10" rotate="135.154">M</tspan><tspan x="20.959" y="56.23" fill="#383A3A" font-family="'Montserrat-Bold'" font-size="10" rotate="152.405">E</tspan><tspan x="13.909" y="59.832" fill="#383A3A" font-family="'Montserrat-Bold'" font-size="10" rotate="168.515">N</tspan><tspan x="4.784" y="61.389" fill="#383A3A" font-family="'Montserrat-Bold'" font-size="10" rotate="-176.103">T</tspan></text>
<path fill="#FFFFFF" d="M-409.546,2177.485c-0.302-0.349-0.664-0.644-1.072-0.871c-0.704-0.396-1.512-0.572-2.321-0.511l-2.04-5.475
	c-0.22-0.591-0.756-0.979-1.394-0.998c-0.629-0.028-1.184,0.295-1.459,0.853c-2.742,4.075-7.341,6.729-11.821,9.099
	c-0.254,0.138-0.443,0.354-0.555,0.604c-0.276-0.065-0.57-0.03-0.823,0.09c-1.367,0.667-2.775,1.259-4.201,1.776
	c-1.181,0.429-1.792,1.725-1.359,2.901l2.372,6.343l-0.633,0.229c-0.708,0.255-1.5-0.103-1.758-0.804l-1.263-3.388
	c-0.197-0.518-0.055-1.091,0.366-1.468c0.185-0.164,0.201-0.453,0.029-0.636c-0.123-0.139-0.32-0.179-0.496-0.114
	c-0.052,0.009-0.104,0.042-0.148,0.088c-0.332,0.293-0.57,0.681-0.682,1.114c-0.115,0.438-0.09,0.9,0.071,1.331l1.262,3.383
	c0.212,0.566,0.629,1.021,1.185,1.271c0.555,0.252,1.177,0.275,1.75,0.069l0.67-0.248c0.563,0.893,1.703,1.31,2.734,0.934
	c0.421-0.155,0.857-0.302,1.296-0.447l1.728,4.635c0.436,1.162,1.75,1.769,2.935,1.34l1.144-0.416
	c1.184-0.434,1.792-1.729,1.356-2.896c-0.298-0.792-1.013-1.348-1.844-1.46l-0.893-2.403c5.016-1.093,10.134-1.309,15.232-0.639
	c0.288,0.033,0.57,0.006,0.831-0.093c0.291-0.108,0.552-0.283,0.753-0.535c0.383-0.47,0.487-1.098,0.275-1.659l-4.286-11.492
	c1.307,0.011,2.484,0.826,2.935,2.033c0.323,0.879,0.241,1.844-0.239,2.647c-0.06,0.1-0.081,0.224-0.047,0.339
	c0.029,0.119,0.107,0.208,0.212,0.276c0.119,0.069,0.256,0.08,0.387,0.033c0.101-0.033,0.183-0.102,0.234-0.194l0,0
	c0.298-0.502,0.484-1.064,0.541-1.643c0.06-0.604-0.015-1.199-0.231-1.769C-408.983,2178.263-409.229,2177.845-409.546,2177.485
	L-409.546,2177.485z M-423.535,2195.582c0.265,0.701-0.101,1.487-0.811,1.739l-1.144,0.41c-0.711,0.266-1.497-0.096-1.762-0.801
	l-1.713-4.596c0.086-0.026,0.172-0.056,0.257-0.082c0.082-0.019,0.164-0.046,0.243-0.066c0.141-0.049,0.291-0.083,0.436-0.127
	c0.075-0.023,0.149-0.038,0.219-0.06c0.142-0.038,0.288-0.081,0.429-0.114c0.086-0.024,0.164-0.047,0.247-0.068
	c0.125-0.038,0.257-0.067,0.383-0.097c0.101-0.025,0.201-0.044,0.302-0.079c0.049-0.003,0.093-0.019,0.138-0.033l1.042,2.793
	c0.064,0.184,0.239,0.299,0.432,0.295C-424.257,2194.688-423.731,2195.046-423.535,2195.582L-423.535,2195.582z M-409.312,2189.579
	c-0.179,0.224-0.458,0.334-0.748,0.295c-5.244-0.687-10.514-0.46-15.672,0.677l-2.95-7.903c-0.082-0.23-0.35-0.346-0.585-0.26
	c-0.234,0.085-0.357,0.341-0.268,0.58l2.905,7.795c-0.034,0.008-0.071,0.015-0.105,0.026l-0.119,0.026
	c-0.424,0.104-0.849,0.216-1.27,0.331l-0.038,0.012c-0.421,0.115-0.846,0.242-1.27,0.375c-0.034,0.017-0.071,0.02-0.108,0.041
	c-0.055,0.012-0.107,0.031-0.164,0.039c-0.006,0.006-0.01,0.01-0.018,0.014c-0.585,0.184-1.166,0.376-1.728,0.58
	c-0.708,0.259-1.497-0.1-1.758-0.804l-2.525-6.765c-0.261-0.698,0.104-1.485,0.812-1.737c1.453-0.529,2.898-1.134,4.291-1.812
	c0.116-0.056,0.22-0.033,0.272-0.01c0.085,0.033,0.156,0.097,0.187,0.192c0.089,0.231,0.354,0.352,0.592,0.266
	c0.234-0.082,0.357-0.348,0.268-0.58l0,0c-0.011-0.033-0.026-0.072-0.044-0.108c-0.004-0.02-0.015-0.048-0.022-0.068
	c-0.056-0.151,0.007-0.333,0.16-0.405c4.589-2.428,9.311-5.154,12.164-9.423c0.015-0.015,0.026-0.037,0.033-0.056
	c0.172-0.357,0.507-0.373,0.611-0.373c0.097,0.012,0.436,0.049,0.574,0.418l6.656,17.847c0.003,0.004,0,0,0.003,0.004
	C-409.08,2189.065-409.129,2189.351-409.312,2189.579L-409.312,2189.579z"/>
<rect x="-488" y="2132.674" fill="#5D5D5D" width="46.741" height="117.5"/>
<image overflow="visible" width="1920" height="1080" xlink:href="53A1206A.jpg"  transform="matrix(1 0 0 1 793.75 -1057.533)">
</image>
<path fill="#FFFFFF" stroke="#56CFB0" stroke-width="0.8658" stroke-miterlimit="10" d="M1117.068-816.497
	c0,1.819-1.574,3.292-3.523,3.292H833.061c-1.949,0-3.526-1.472-3.526-3.292v-42.773c0-1.819,1.577-3.292,3.526-3.292h280.484
	c1.949,0,3.523,1.472,3.523,3.292V-816.497z"/>
<path fill="#56CFB0" d="M879.366-840.207c0-8.792-3.726-16.722-9.697-22.355h-36.608c-1.949,0-3.526,1.472-3.526,3.292v41.673
	c0,2.428,1.577,4.392,3.526,4.392h30.238C872.881-818.504,879.366-828.6,879.366-840.207z"/>
<path fill="#515658" d="M865.529-847.318c-0.334-0.381-0.723-0.701-1.168-0.948c-0.765-0.429-1.644-0.623-2.522-0.557l-2.217-5.946
	c-0.239-0.646-0.823-1.063-1.516-1.085c-0.682-0.03-1.285,0.32-1.586,0.927c-2.979,4.428-7.974,7.312-12.844,9.888
	c-0.278,0.149-0.483,0.381-0.604,0.653c-0.3-0.069-0.617-0.03-0.896,0.1c-1.485,0.724-3.012,1.366-4.566,1.931
	c-1.279,0.465-1.944,1.875-1.475,3.148l2.576,6.895l-0.685,0.248c-0.771,0.278-1.63-0.111-1.914-0.871l-1.371-3.683
	c-0.214-0.562-0.058-1.188,0.397-1.593c0.201-0.182,0.218-0.495,0.034-0.693c-0.134-0.149-0.351-0.194-0.54-0.125
	c-0.059,0.014-0.111,0.048-0.161,0.095c-0.361,0.32-0.62,0.74-0.739,1.21c-0.126,0.481-0.098,0.981,0.077,1.449l1.371,3.677
	c0.231,0.614,0.685,1.106,1.288,1.379c0.601,0.273,1.279,0.301,1.902,0.078l0.729-0.272c0.606,0.974,1.847,1.424,2.971,1.016
	c0.456-0.167,0.929-0.328,1.404-0.487l1.877,5.037c0.477,1.263,1.906,1.922,3.193,1.455l1.24-0.454
	c1.285-0.467,1.947-1.877,1.475-3.143c-0.323-0.865-1.102-1.463-2.003-1.585l-0.974-2.614c5.451-1.188,11.014-1.422,16.555-0.693
	c0.312,0.036,0.617,0.003,0.898-0.1c0.316-0.117,0.601-0.312,0.82-0.584c0.417-0.509,0.528-1.188,0.298-1.803l-4.659-12.487
	c1.422,0.011,2.703,0.898,3.193,2.211c0.35,0.951,0.262,2-0.262,2.876c-0.066,0.111-0.089,0.244-0.05,0.369
	c0.03,0.128,0.116,0.229,0.228,0.298c0.128,0.075,0.284,0.092,0.423,0.036c0.106-0.036,0.2-0.108,0.256-0.208l0,0
	c0.323-0.549,0.523-1.16,0.584-1.786c0.067-0.656-0.017-1.305-0.25-1.925C866.136-846.475,865.869-846.926,865.529-847.318
	L865.529-847.318z M850.327-827.654c0.283,0.759-0.111,1.613-0.885,1.889l-1.24,0.447c-0.773,0.283-1.63-0.108-1.913-0.87
	l-1.864-4.993c0.095-0.033,0.187-0.063,0.281-0.089c0.086-0.022,0.175-0.05,0.259-0.075c0.155-0.05,0.316-0.092,0.476-0.136
	c0.081-0.025,0.161-0.045,0.241-0.069c0.15-0.039,0.307-0.084,0.462-0.126c0.095-0.021,0.179-0.044,0.271-0.069
	c0.136-0.039,0.275-0.072,0.414-0.105c0.111-0.027,0.217-0.05,0.328-0.086c0.05-0.003,0.104-0.02,0.15-0.033l1.129,3.034
	c0.072,0.194,0.262,0.319,0.473,0.316C849.54-828.628,850.11-828.238,850.327-827.654L850.327-827.654z M865.779-834.179
	c-0.191,0.242-0.5,0.364-0.812,0.32c-5.696-0.746-11.426-0.495-17.032,0.736l-3.201-8.585c-0.092-0.251-0.382-0.382-0.638-0.287
	c-0.256,0.092-0.39,0.376-0.292,0.632l3.157,8.472c-0.039,0.008-0.075,0.014-0.111,0.024l-0.128,0.034
	c-0.465,0.111-0.924,0.233-1.385,0.358l-0.037,0.011c-0.461,0.128-0.92,0.265-1.382,0.409c-0.039,0.014-0.078,0.022-0.12,0.042
	c-0.058,0.014-0.113,0.033-0.175,0.044c-0.009,0.006-0.011,0.012-0.022,0.015c-0.634,0.2-1.263,0.411-1.874,0.634
	c-0.771,0.278-1.63-0.111-1.914-0.876l-2.742-7.354c-0.284-0.76,0.111-1.608,0.885-1.886c1.577-0.573,3.146-1.229,4.661-1.97
	c0.122-0.059,0.239-0.033,0.292-0.011c0.098,0.039,0.173,0.108,0.206,0.214c0.098,0.251,0.381,0.378,0.64,0.284
	c0.256-0.089,0.392-0.373,0.295-0.629l0,0c-0.015-0.039-0.03-0.078-0.05-0.119c-0.006-0.02-0.015-0.054-0.022-0.072
	c-0.062-0.167,0.008-0.362,0.169-0.442c4.99-2.637,10.119-5.599,13.223-10.235c0.014-0.02,0.027-0.042,0.036-0.062
	c0.184-0.39,0.548-0.406,0.659-0.406c0.108,0.012,0.473,0.054,0.626,0.451l7.229,19.396c0.005,0.003,0,0,0.005,0.003
	C866.03-834.738,865.98-834.424,865.779-834.179L865.779-834.179z"/>
<image overflow="visible" width="1920" height="1080" xlink:href="53A1206B.jpg"  transform="matrix(1 0 0 1 694.7402 251.9324)">
</image>
<image overflow="visible" width="1920" height="1080" xlink:href="C:\Users\I3\Downloads\image_2023_03_27T12_01_28_484Z.png"  transform="matrix(1 0 0 1 3820.1152 592.9285)">
</image>
<g>
	<image overflow="visible" width="1920" height="1080" xlink:href="1649B088.jpg"  transform="matrix(1 0 0 1 3919.125 -716.5364)">
	</image>
	<g opacity="0.2">
		<image overflow="visible" width="360" height="139" xlink:href="1649B088.png"  transform="matrix(1 0 0 1 3918.8848 -565.9622)">
		</image>
	</g>
	<g>
		<g>
			<path fill="#C4C4C4" d="M4242.443-476.601c0,2.428-1.574,4.392-3.523,4.392h-280.484c-1.949,0-3.526-1.964-3.526-4.392v-57.066
				c0-2.428,1.577-4.392,3.526-4.392h280.484c1.949,0,3.523,1.964,3.523,4.392V-476.601z"/>
			<path opacity="0.7" fill="#FFFFFF" d="M3973.371-530.152c-5.067,0-14.227,1.216-18.462,3.321v50.229
				c0,2.428,1.577,4.392,3.526,4.392h30.238c9.582-5.298,16.067-15.395,16.067-27.001
				C4004.741-516.295,3990.693-530.152,3973.371-530.152z"/>
			<path fill="#515658" d="M3990.904-506.322c-0.334-0.381-0.723-0.701-1.168-0.948c-0.765-0.429-1.644-0.623-2.522-0.557
				l-2.217-5.946c-0.239-0.646-0.823-1.063-1.516-1.085c-0.682-0.03-1.285,0.32-1.586,0.927c-2.979,4.428-7.974,7.312-12.844,9.888
				c-0.278,0.149-0.483,0.381-0.604,0.653c-0.3-0.069-0.617-0.03-0.896,0.1c-1.485,0.724-3.012,1.366-4.566,1.931
				c-1.279,0.465-1.944,1.875-1.475,3.148l2.576,6.895l-0.685,0.248c-0.771,0.278-1.63-0.111-1.914-0.871l-1.371-3.683
				c-0.214-0.562-0.058-1.188,0.397-1.593c0.201-0.182,0.218-0.495,0.034-0.693c-0.134-0.149-0.351-0.194-0.54-0.125
				c-0.059,0.014-0.111,0.048-0.161,0.095c-0.361,0.32-0.62,0.74-0.739,1.21c-0.126,0.481-0.098,0.981,0.077,1.449l1.371,3.677
				c0.231,0.614,0.685,1.106,1.288,1.379c0.601,0.273,1.279,0.301,1.902,0.078l0.729-0.272c0.606,0.974,1.847,1.424,2.971,1.016
				c0.456-0.167,0.929-0.328,1.404-0.487l1.877,5.037c0.477,1.263,1.906,1.922,3.193,1.455l1.24-0.454
				c1.285-0.467,1.947-1.877,1.475-3.143c-0.323-0.865-1.102-1.463-2.003-1.585l-0.974-2.614c5.451-1.188,11.014-1.422,16.555-0.693
				c0.312,0.036,0.617,0.003,0.898-0.1c0.316-0.117,0.601-0.312,0.82-0.584c0.417-0.509,0.528-1.188,0.298-1.803l-4.659-12.487
				c1.422,0.011,2.703,0.898,3.193,2.211c0.35,0.951,0.262,2-0.262,2.876c-0.066,0.111-0.089,0.244-0.05,0.369
				c0.03,0.128,0.116,0.229,0.228,0.298c0.128,0.075,0.284,0.092,0.423,0.036c0.106-0.036,0.2-0.108,0.256-0.208l0,0
				c0.323-0.549,0.523-1.16,0.584-1.786c0.067-0.656-0.017-1.305-0.25-1.925C3991.511-505.479,3991.244-505.929,3990.904-506.322
				L3990.904-506.322z M3975.702-486.657c0.283,0.759-0.111,1.613-0.885,1.889l-1.24,0.447c-0.773,0.283-1.63-0.108-1.913-0.87
				l-1.864-4.993c0.095-0.033,0.187-0.063,0.281-0.089c0.086-0.022,0.175-0.05,0.259-0.075c0.155-0.05,0.316-0.092,0.476-0.136
				c0.081-0.025,0.161-0.045,0.241-0.069c0.15-0.039,0.307-0.084,0.462-0.126c0.095-0.021,0.179-0.044,0.271-0.069
				c0.136-0.039,0.275-0.072,0.414-0.105c0.111-0.027,0.217-0.05,0.328-0.086c0.05-0.003,0.104-0.02,0.15-0.033l1.129,3.034
				c0.072,0.194,0.262,0.319,0.473,0.316C3974.915-487.631,3975.485-487.241,3975.702-486.657L3975.702-486.657z M3991.154-493.183
				c-0.191,0.242-0.5,0.364-0.812,0.32c-5.696-0.746-11.426-0.495-17.032,0.736l-3.201-8.585c-0.092-0.251-0.382-0.382-0.638-0.287
				c-0.256,0.092-0.39,0.376-0.292,0.632l3.157,8.472c-0.039,0.008-0.075,0.014-0.111,0.024l-0.128,0.034
				c-0.465,0.111-0.924,0.233-1.385,0.358l-0.037,0.011c-0.461,0.128-0.92,0.265-1.382,0.409c-0.039,0.014-0.078,0.022-0.12,0.042
				c-0.058,0.014-0.113,0.033-0.175,0.044c-0.009,0.006-0.011,0.012-0.022,0.015c-0.634,0.2-1.263,0.411-1.874,0.634
				c-0.771,0.278-1.63-0.111-1.914-0.876l-2.742-7.354c-0.284-0.76,0.111-1.608,0.885-1.886c1.577-0.573,3.146-1.229,4.661-1.97
				c0.122-0.059,0.239-0.033,0.292-0.011c0.098,0.039,0.173,0.108,0.206,0.214c0.098,0.251,0.381,0.378,0.64,0.284
				c0.256-0.089,0.392-0.373,0.295-0.629l0,0c-0.015-0.039-0.03-0.078-0.05-0.119c-0.006-0.02-0.015-0.054-0.022-0.072
				c-0.062-0.167,0.008-0.362,0.169-0.442c4.99-2.637,10.119-5.599,13.223-10.235c0.014-0.02,0.027-0.042,0.036-0.062
				c0.184-0.39,0.548-0.406,0.659-0.406c0.108,0.012,0.473,0.054,0.626,0.451l7.229,19.396c0.005,0.003,0,0,0.005,0.003
				C3991.405-493.741,3991.355-493.427,3991.154-493.183L3991.154-493.183z"/>
			<g>
				
					<text transform="matrix(1 0 0 1 4016.3359 -490.2727)" fill="#515658" font-family="'Montserrat-Bold'" font-size="19.2591" letter-spacing="3">ANNOUNCEMENT</text>
			</g>
		</g>
		<rect x="3927.77" y="-538.178" fill="#FFFFFF" width="349.356" height="16.612"/>
	</g>
</g>
<image overflow="visible" width="1920" height="1080" xlink:href="1649B090.jpg"  transform="matrix(1 0 0 1 3820.1152 592.9285)">
</image>
<g opacity="0.2">
	<image overflow="visible" width="361" height="139" xlink:href="1649B09C.png"  transform="matrix(1 0 0 1 3821.875 743.5027)">
	</image>
</g>
<path fill="#FFFFFF" stroke="#56CFB0" stroke-width="2" stroke-miterlimit="10" d="M4145.92,832.864
	c0,2.428-1.574,4.393-3.523,4.393h-280.484c-1.949,0-3.526-1.965-3.526-4.393v-57.066c0-2.428,1.577-4.391,3.526-4.391h280.484
	c1.949,0,3.523,1.963,3.523,4.391V832.864z"/>
<path fill="#0D9168" d="M3876.848,779.313c-5.067,0-14.227,1.217-18.462,3.322v50.229c0,2.428,1.577,4.393,3.526,4.393h30.238
	c9.582-5.299,16.067-15.395,16.067-27.002C3908.218,793.171,3894.17,779.313,3876.848,779.313z"/>
<path fill="#FFFFFF" d="M3894.381,803.143c-0.334-0.381-0.723-0.701-1.168-0.947c-0.765-0.43-1.644-0.623-2.522-0.557l-2.217-5.947
	c-0.239-0.645-0.823-1.063-1.516-1.084c-0.682-0.031-1.285,0.32-1.585,0.926c-2.979,4.428-7.975,7.313-12.845,9.889
	c-0.278,0.148-0.483,0.381-0.604,0.652c-0.3-0.068-0.617-0.029-0.896,0.1c-1.485,0.725-3.012,1.367-4.566,1.932
	c-1.279,0.465-1.944,1.875-1.475,3.148l2.576,6.895l-0.685,0.248c-0.771,0.277-1.63-0.111-1.913-0.871l-1.371-3.684
	c-0.215-0.561-0.059-1.188,0.397-1.592c0.2-0.182,0.217-0.496,0.033-0.693c-0.134-0.15-0.351-0.195-0.54-0.125
	c-0.059,0.014-0.111,0.047-0.161,0.094c-0.361,0.32-0.62,0.74-0.739,1.211c-0.125,0.48-0.098,0.98,0.077,1.449l1.372,3.676
	c0.23,0.615,0.684,1.107,1.287,1.379c0.601,0.273,1.279,0.301,1.902,0.078l0.729-0.271c0.606,0.973,1.847,1.424,2.971,1.016
	c0.456-0.168,0.929-0.328,1.404-0.488l1.878,5.037c0.476,1.264,1.905,1.922,3.192,1.455l1.24-0.453
	c1.285-0.467,1.947-1.877,1.475-3.143c-0.322-0.865-1.102-1.463-2.003-1.586l-0.974-2.613c5.452-1.189,11.015-1.422,16.555-0.693
	c0.312,0.035,0.617,0.002,0.898-0.1c0.316-0.117,0.601-0.313,0.82-0.584c0.417-0.51,0.528-1.188,0.298-1.803l-4.659-12.488
	c1.422,0.012,2.704,0.898,3.193,2.211c0.351,0.951,0.262,2-0.262,2.877c-0.066,0.111-0.089,0.244-0.05,0.369
	c0.03,0.127,0.116,0.229,0.228,0.297c0.129,0.076,0.284,0.092,0.423,0.037c0.106-0.037,0.2-0.109,0.256-0.209l0,0
	c0.323-0.549,0.523-1.16,0.585-1.785c0.066-0.656-0.018-1.305-0.251-1.926C3894.987,803.987,3894.721,803.536,3894.381,803.143
	L3894.381,803.143z M3879.179,822.807c0.284,0.76-0.111,1.613-0.885,1.889l-1.24,0.447c-0.773,0.283-1.63-0.107-1.913-0.869
	l-1.863-4.994c0.094-0.033,0.186-0.063,0.28-0.088c0.086-0.023,0.175-0.051,0.259-0.076c0.156-0.049,0.316-0.092,0.476-0.135
	c0.081-0.025,0.161-0.045,0.242-0.07c0.149-0.039,0.306-0.084,0.462-0.125c0.094-0.021,0.178-0.045,0.27-0.07
	c0.136-0.039,0.275-0.072,0.414-0.105c0.111-0.027,0.217-0.049,0.328-0.086c0.051-0.002,0.104-0.02,0.15-0.033l1.129,3.035
	c0.072,0.193,0.262,0.318,0.473,0.316C3878.392,821.835,3878.962,822.223,3879.179,822.807L3879.179,822.807z M3894.631,816.282
	c-0.191,0.242-0.5,0.365-0.812,0.32c-5.696-0.746-11.426-0.494-17.032,0.736l-3.201-8.584c-0.092-0.252-0.382-0.383-0.638-0.287
	c-0.256,0.092-0.39,0.375-0.292,0.631l3.157,8.473c-0.039,0.008-0.075,0.014-0.111,0.023l-0.128,0.035
	c-0.465,0.111-0.924,0.232-1.385,0.357l-0.037,0.012c-0.461,0.127-0.92,0.264-1.382,0.408c-0.039,0.014-0.078,0.023-0.12,0.043
	c-0.058,0.014-0.113,0.033-0.175,0.043c-0.008,0.006-0.011,0.012-0.022,0.016c-0.634,0.199-1.262,0.41-1.874,0.633
	c-0.771,0.279-1.63-0.111-1.914-0.875l-2.742-7.354c-0.283-0.76,0.111-1.609,0.885-1.887c1.577-0.572,3.146-1.229,4.661-1.969
	c0.123-0.059,0.239-0.033,0.292-0.012c0.098,0.039,0.173,0.109,0.206,0.215c0.098,0.25,0.381,0.377,0.64,0.283
	c0.256-0.088,0.392-0.373,0.295-0.629l0,0c-0.014-0.039-0.03-0.078-0.05-0.119c-0.006-0.02-0.014-0.053-0.022-0.072
	c-0.062-0.166,0.009-0.361,0.169-0.441c4.99-2.637,10.119-5.6,13.223-10.236c0.014-0.02,0.028-0.041,0.036-0.061
	c0.184-0.391,0.548-0.406,0.659-0.406c0.108,0.012,0.473,0.053,0.626,0.451l7.229,19.396c0.006,0.002,0,0,0.006,0.002
	C3894.882,815.723,3894.832,816.038,3894.631,816.282L3894.631,816.282z"/>
<g>
	
		<text transform="matrix(1 0 0 1 3919.8125 819.1921)" fill="#2F2F2F" font-family="'Montserrat-Bold'" font-size="19.2591" letter-spacing="3">ANNOUNCEMENT</text>
</g>
<rect x="3831.246" y="771.288" fill="#FFFFFF" width="349.357" height="16.611"/>
<image overflow="visible" width="1920" height="1080" xlink:href="1649B092.jpg"  transform="matrix(1 0 0 1 1612.5566 1831.7117)">
</image>
<rect x="1623.688" y="2010.07" fill="#FFFFFF" width="349.357" height="16.612"/>
<g>
	<path fill="#269B74" d="M1651.583,2184.251c0,14.896-12.072,26.972-26.972,26.972c-14.895,0-26.972-12.076-26.972-26.972
		c0-14.895,12.077-26.972,26.972-26.972C1639.511,2157.279,1651.583,2169.356,1651.583,2184.251z"/>
	<circle fill="none" cx="1624.615" cy="2184.252" r="30.625"/>
	<text transform="matrix(0.9998 0.0174 -0.0174 0.9998 1621.332 2153.5632)"><tspan x="0" y="0" fill="#383A3A" font-family="'Montserrat-Bold'" font-size="10">A</tspan><tspan x="8.842" y="0.139" fill="#383A3A" font-family="'Montserrat-Bold'" font-size="10" rotate="16.859">N</tspan><tspan x="17.631" y="2.991" fill="#383A3A" font-family="'Montserrat-Bold'" font-size="10" rotate="34.126">N</tspan><tspan x="25.199" y="8.303" fill="#383A3A" font-family="'Montserrat-Bold'" font-size="10" rotate="51.573">O</tspan><tspan x="30.999" y="15.965" fill="#383A3A" font-family="'Montserrat-Bold'" font-size="10" rotate="68.983">U</tspan><tspan x="34.084" y="24.44" fill="#383A3A" font-family="'Montserrat-Bold'" font-size="10" rotate="86.01">N</tspan><tspan x="34.51" y="33.7" fill="#383A3A" font-family="'Montserrat-Bold'" font-size="10" rotate="102.494">C</tspan><tspan x="32.468" y="41.973" fill="#383A3A" font-family="'Montserrat-Bold'" font-size="10" rotate="117.908">E</tspan><tspan x="28.796" y="48.975" fill="#383A3A" font-family="'Montserrat-Bold'" font-size="10" rotate="135.154">M</tspan><tspan x="20.959" y="56.23" fill="#383A3A" font-family="'Montserrat-Bold'" font-size="10" rotate="152.405">E</tspan><tspan x="13.91" y="59.832" fill="#383A3A" font-family="'Montserrat-Bold'" font-size="10" rotate="168.515">N</tspan><tspan x="4.784" y="61.389" fill="#383A3A" font-family="'Montserrat-Bold'" font-size="10" rotate="-176.103">T</tspan></text>
	<path fill="#FFFFFF" d="M1644.198,2177.485c-0.303-0.349-0.664-0.644-1.072-0.871c-0.705-0.396-1.513-0.572-2.321-0.511
		l-2.04-5.475c-0.221-0.591-0.756-0.979-1.394-0.998c-0.63-0.028-1.185,0.295-1.46,0.853c-2.741,4.075-7.341,6.729-11.82,9.099
		c-0.254,0.138-0.443,0.354-0.556,0.604c-0.276-0.065-0.57-0.03-0.823,0.09c-1.367,0.667-2.775,1.259-4.201,1.776
		c-1.18,0.429-1.791,1.725-1.359,2.901l2.373,6.343l-0.634,0.229c-0.708,0.255-1.501-0.103-1.758-0.804l-1.263-3.388
		c-0.197-0.518-0.055-1.091,0.365-1.468c0.186-0.164,0.201-0.453,0.029-0.636c-0.123-0.139-0.32-0.179-0.495-0.114
		c-0.052,0.009-0.104,0.042-0.148,0.088c-0.332,0.293-0.57,0.681-0.682,1.114c-0.115,0.438-0.09,0.9,0.071,1.331l1.262,3.383
		c0.212,0.566,0.629,1.021,1.185,1.271c0.555,0.252,1.177,0.275,1.751,0.069l0.67-0.248c0.563,0.893,1.702,1.31,2.733,0.934
		c0.421-0.155,0.856-0.302,1.296-0.447l1.729,4.635c0.436,1.162,1.75,1.769,2.935,1.34l1.144-0.416
		c1.184-0.434,1.791-1.729,1.355-2.896c-0.297-0.792-1.012-1.348-1.844-1.46l-0.893-2.403c5.016-1.093,10.133-1.309,15.231-0.639
		c0.288,0.033,0.569,0.006,0.831-0.093c0.291-0.108,0.551-0.283,0.753-0.535c0.383-0.47,0.487-1.098,0.274-1.659l-4.285-11.492
		c1.307,0.011,2.483,0.826,2.934,2.033c0.324,0.879,0.242,1.844-0.238,2.647c-0.061,0.1-0.082,0.224-0.048,0.339
		c0.029,0.119,0.107,0.208,0.212,0.276c0.119,0.069,0.256,0.08,0.387,0.033c0.102-0.033,0.184-0.102,0.234-0.194l0,0
		c0.299-0.502,0.484-1.064,0.541-1.643c0.06-0.604-0.016-1.199-0.23-1.769C1644.761,2178.263,1644.515,2177.845,1644.198,2177.485
		L1644.198,2177.485z M1630.209,2195.582c0.265,0.701-0.101,1.487-0.812,1.739l-1.144,0.41c-0.712,0.266-1.497-0.096-1.762-0.801
		l-1.714-4.596c0.086-0.026,0.172-0.056,0.258-0.082c0.082-0.019,0.164-0.046,0.242-0.066c0.141-0.049,0.291-0.083,0.436-0.127
		c0.075-0.023,0.149-0.038,0.219-0.06c0.143-0.038,0.288-0.081,0.43-0.114c0.086-0.024,0.164-0.047,0.246-0.068
		c0.125-0.038,0.257-0.067,0.383-0.097c0.101-0.025,0.201-0.044,0.302-0.079c0.049-0.003,0.093-0.019,0.138-0.033l1.043,2.793
		c0.063,0.184,0.238,0.299,0.432,0.295C1629.487,2194.688,1630.013,2195.046,1630.209,2195.582L1630.209,2195.582z
		 M1644.433,2189.579c-0.18,0.224-0.459,0.334-0.748,0.295c-5.244-0.687-10.515-0.46-15.673,0.677l-2.95-7.903
		c-0.081-0.23-0.35-0.346-0.584-0.26c-0.234,0.085-0.357,0.341-0.269,0.58l2.905,7.795c-0.033,0.008-0.07,0.015-0.105,0.026
		l-0.118,0.026c-0.425,0.104-0.849,0.216-1.27,0.331l-0.038,0.012c-0.42,0.115-0.846,0.242-1.27,0.375
		c-0.033,0.017-0.07,0.02-0.108,0.041c-0.056,0.012-0.107,0.031-0.164,0.039c-0.007,0.006-0.011,0.01-0.019,0.014
		c-0.584,0.184-1.165,0.376-1.728,0.58c-0.708,0.259-1.497-0.1-1.759-0.804l-2.524-6.765c-0.261-0.698,0.104-1.485,0.812-1.737
		c1.453-0.529,2.898-1.134,4.291-1.812c0.115-0.056,0.221-0.033,0.271-0.01c0.086,0.033,0.156,0.097,0.188,0.192
		c0.088,0.231,0.354,0.352,0.592,0.266c0.234-0.082,0.357-0.348,0.268-0.58l0,0c-0.012-0.033-0.025-0.072-0.045-0.108
		c-0.004-0.02-0.015-0.048-0.021-0.068c-0.057-0.151,0.007-0.333,0.16-0.405c4.588-2.428,9.311-5.154,12.164-9.423
		c0.014-0.015,0.025-0.037,0.032-0.056c0.173-0.357,0.507-0.373,0.611-0.373c0.097,0.012,0.436,0.049,0.573,0.418l6.656,17.847
		c0.004,0.004,0,0,0.004,0.004C1644.663,2189.065,1644.614,2189.351,1644.433,2189.579L1644.433,2189.579z"/>
	<rect x="1565.743" y="2132.674" fill="#5D5D5D" width="46.741" height="117.5"/>
</g>
<g>
	<path fill="#FFFFFF" stroke="#56CFB0" stroke-width="0.8658" stroke-miterlimit="10" d="M349.628-482.343
		c0,1.819-1.574,3.291-3.523,3.291H65.62c-1.949,0-3.526-1.472-3.526-3.291v-42.773c0-1.819,1.577-3.291,3.526-3.291h280.484
		c1.949,0,3.523,1.472,3.523,3.291V-482.343z"/>
	<path fill="#56CFB0" d="M111.926-506.052c0-8.792-3.726-16.723-9.697-22.355H65.62c-1.949,0-3.526,1.472-3.526,3.291v41.674
		c0,2.428,1.577,4.391,3.526,4.391h30.238C105.44-484.348,111.926-494.446,111.926-506.052z"/>
	<path fill="#515658" d="M98.089-513.163c-0.334-0.381-0.723-0.701-1.168-0.949c-0.765-0.428-1.644-0.623-2.522-0.557l-2.217-5.945
		c-0.239-0.646-0.823-1.063-1.516-1.086c-0.682-0.029-1.285,0.32-1.586,0.928c-2.979,4.428-7.974,7.311-12.844,9.887
		c-0.278,0.15-0.483,0.381-0.604,0.654c-0.3-0.07-0.617-0.031-0.896,0.1c-1.485,0.723-3.012,1.365-4.566,1.93
		c-1.279,0.465-1.944,1.875-1.475,3.148l2.576,6.895l-0.685,0.248c-0.771,0.279-1.63-0.111-1.914-0.871l-1.371-3.682
		c-0.214-0.563-0.058-1.188,0.397-1.594c0.201-0.182,0.218-0.494,0.034-0.693c-0.134-0.148-0.351-0.193-0.54-0.125
		c-0.059,0.014-0.111,0.049-0.161,0.096c-0.361,0.32-0.62,0.74-0.739,1.209c-0.126,0.482-0.098,0.982,0.077,1.449l1.371,3.678
		c0.231,0.613,0.685,1.105,1.288,1.379c0.601,0.273,1.279,0.301,1.902,0.078l0.729-0.273c0.606,0.975,1.847,1.424,2.971,1.016
		c0.456-0.166,0.929-0.328,1.404-0.486l1.877,5.037c0.477,1.262,1.906,1.922,3.193,1.455l1.24-0.455
		c1.285-0.467,1.947-1.877,1.475-3.143c-0.323-0.865-1.102-1.463-2.003-1.584l-0.974-2.615c5.451-1.188,11.014-1.422,16.555-0.693
		c0.312,0.037,0.617,0.004,0.898-0.1c0.316-0.117,0.601-0.311,0.82-0.584c0.417-0.508,0.528-1.188,0.298-1.803l-4.659-12.486
		c1.422,0.01,2.703,0.898,3.193,2.211c0.35,0.951,0.262,2-0.262,2.875c-0.066,0.111-0.089,0.244-0.05,0.369
		c0.03,0.129,0.116,0.229,0.228,0.299c0.128,0.074,0.284,0.092,0.423,0.035c0.106-0.035,0.2-0.107,0.256-0.207l0,0
		c0.323-0.549,0.523-1.16,0.584-1.787c0.067-0.656-0.017-1.305-0.25-1.924C98.695-512.321,98.429-512.77,98.089-513.163
		L98.089-513.163z M82.887-493.499c0.283,0.758-0.111,1.613-0.885,1.889l-1.24,0.447c-0.773,0.283-1.63-0.109-1.913-0.871
		l-1.864-4.992c0.095-0.033,0.187-0.064,0.281-0.09c0.086-0.021,0.175-0.049,0.259-0.074c0.155-0.051,0.316-0.092,0.476-0.137
		c0.081-0.025,0.161-0.045,0.241-0.068c0.15-0.039,0.307-0.084,0.462-0.127c0.095-0.021,0.179-0.043,0.271-0.068
		c0.136-0.039,0.275-0.072,0.414-0.105c0.111-0.027,0.217-0.051,0.328-0.086c0.05-0.004,0.104-0.02,0.15-0.033l1.129,3.033
		c0.072,0.195,0.262,0.32,0.473,0.316C82.1-494.473,82.67-494.083,82.887-493.499L82.887-493.499z M98.339-500.024
		c-0.191,0.242-0.5,0.363-0.812,0.32c-5.696-0.746-11.426-0.496-17.032,0.736l-3.201-8.586c-0.092-0.25-0.382-0.381-0.638-0.287
		c-0.256,0.092-0.39,0.377-0.292,0.633l3.157,8.471c-0.039,0.008-0.075,0.014-0.111,0.025l-0.128,0.033
		c-0.465,0.111-0.924,0.234-1.385,0.359l-0.037,0.01c-0.461,0.129-0.92,0.266-1.382,0.41c-0.039,0.014-0.078,0.021-0.12,0.041
		c-0.058,0.014-0.113,0.033-0.175,0.045c-0.009,0.006-0.011,0.012-0.022,0.014c-0.634,0.201-1.263,0.412-1.874,0.635
		c-0.771,0.277-1.63-0.111-1.914-0.877l-2.742-7.354c-0.284-0.76,0.111-1.607,0.885-1.885c1.577-0.574,3.146-1.23,4.661-1.971
		c0.122-0.059,0.239-0.033,0.292-0.01c0.098,0.039,0.173,0.107,0.206,0.213c0.098,0.252,0.381,0.379,0.64,0.285
		c0.256-0.09,0.392-0.373,0.295-0.629l0,0c-0.015-0.039-0.03-0.078-0.05-0.119c-0.006-0.02-0.015-0.055-0.022-0.072
		c-0.062-0.168,0.008-0.363,0.169-0.443c4.99-2.637,10.119-5.598,13.223-10.234c0.014-0.02,0.027-0.043,0.036-0.063
		c0.184-0.389,0.548-0.406,0.659-0.406c0.108,0.012,0.473,0.055,0.626,0.451l7.229,19.396c0.005,0.004,0,0,0.005,0.004
		C98.59-500.583,98.54-500.268,98.339-500.024L98.339-500.024z"/>
	<g>
		<g>
			<path fill="#515658" d="M123.348-497.115l6.009-13.481h3.081l6.028,13.481h-3.274l-4.931-11.902h1.233l-4.95,11.902H123.348z
				 M126.352-500.003l0.828-2.369h6.934l0.847,2.369H126.352z"/>
			<path fill="#515658" d="M142.953-497.115v-13.481h2.581l7.953,9.707h-1.251v-9.707h3.081v13.481h-2.562l-7.974-9.707h1.252v9.707
				H142.953z"/>
			<path fill="#515658" d="M161.596-497.115v-13.481h2.581l7.953,9.707h-1.251v-9.707h3.081v13.481h-2.562l-7.974-9.707h1.252v9.707
				H161.596z"/>
			<path fill="#515658" d="M186.786-496.883c-1.065,0-2.051-0.174-2.956-0.521s-1.688-0.834-2.35-1.464
				c-0.661-0.629-1.175-1.367-1.541-2.215c-0.366-0.847-0.549-1.771-0.549-2.772c0-1.002,0.183-1.927,0.549-2.773
				c0.366-0.848,0.883-1.586,1.551-2.215c0.667-0.629,1.45-1.117,2.35-1.464c0.898-0.347,1.874-0.521,2.927-0.521
				c1.066,0,2.045,0.174,2.938,0.521s1.669,0.835,2.33,1.464s1.178,1.364,1.551,2.205c0.372,0.841,0.559,1.769,0.559,2.783
				c0,1.001-0.187,1.929-0.559,2.782c-0.373,0.854-0.89,1.593-1.551,2.215c-0.661,0.623-1.438,1.107-2.33,1.454
				S187.839-496.883,186.786-496.883z M186.767-499.541c0.604,0,1.159-0.103,1.666-0.308c0.507-0.206,0.953-0.501,1.339-0.887
				c0.385-0.385,0.684-0.841,0.896-1.367s0.317-1.11,0.317-1.752c0-0.643-0.105-1.227-0.317-1.753s-0.508-0.982-0.886-1.367
				c-0.379-0.386-0.825-0.681-1.339-0.886c-0.514-0.206-1.072-0.309-1.676-0.309s-1.158,0.103-1.666,0.309
				c-0.507,0.205-0.953,0.5-1.338,0.886c-0.386,0.385-0.684,0.841-0.896,1.367s-0.318,1.11-0.318,1.753
				c0,0.629,0.106,1.21,0.318,1.742c0.212,0.533,0.507,0.992,0.886,1.377c0.379,0.386,0.825,0.681,1.339,0.887
				C185.604-499.644,186.163-499.541,186.767-499.541z"/>
			<path fill="#515658" d="M205.563-496.883c-1.913,0-3.408-0.533-4.487-1.599c-1.078-1.065-1.617-2.587-1.617-4.564v-7.55h3.119
				v7.435c0,1.283,0.264,2.208,0.79,2.772c0.526,0.565,1.265,0.848,2.215,0.848s1.688-0.282,2.215-0.848
				c0.526-0.564,0.789-1.489,0.789-2.772v-7.435h3.082v7.55c0,1.978-0.539,3.499-1.618,4.564
				C208.973-497.416,207.477-496.883,205.563-496.883z"/>
			<path fill="#515658" d="M217.832-497.115v-13.481h2.581l7.953,9.707h-1.251v-9.707h3.081v13.481h-2.562l-7.974-9.707h1.252v9.707
				H217.832z"/>
			<path fill="#515658" d="M242.926-496.883c-1.039,0-2.006-0.171-2.898-0.511s-1.665-0.825-2.32-1.454
				c-0.654-0.629-1.165-1.367-1.531-2.215s-0.549-1.778-0.549-2.792c0-1.015,0.183-1.945,0.549-2.793s0.88-1.586,1.541-2.215
				s1.435-1.113,2.32-1.454c0.886-0.34,1.855-0.511,2.908-0.511c1.168,0,2.225,0.203,3.168,0.607
				c0.944,0.404,1.736,0.998,2.379,1.781l-2.003,1.849c-0.462-0.526-0.976-0.921-1.541-1.185c-0.564-0.263-1.182-0.395-1.849-0.395
				c-0.629,0-1.207,0.103-1.733,0.309c-0.526,0.205-0.982,0.5-1.367,0.886c-0.386,0.385-0.684,0.841-0.896,1.367
				s-0.318,1.11-0.318,1.753c0,0.642,0.106,1.226,0.318,1.752s0.51,0.982,0.896,1.367c0.385,0.386,0.841,0.681,1.367,0.887
				c0.526,0.205,1.104,0.308,1.733,0.308c0.667,0,1.284-0.132,1.849-0.395c0.565-0.263,1.079-0.665,1.541-1.204l2.003,1.849
				c-0.643,0.784-1.435,1.381-2.379,1.792C245.17-497.089,244.107-496.883,242.926-496.883z"/>
			<path fill="#515658" d="M256.773-499.618h7.338v2.504h-10.438v-13.481h10.188v2.504h-7.087V-499.618z M256.542-505.164h6.49
				v2.426h-6.49V-505.164z"/>
			<path fill="#515658" d="M269.677-497.115v-13.481h2.581l5.738,9.514h-1.367l5.644-9.514h2.562l0.038,13.481h-2.928l-0.019-8.994
				h0.539l-4.507,7.569h-1.406l-4.603-7.569h0.655v8.994H269.677z"/>
			<path fill="#515658" d="M294.251-499.618h7.338v2.504H291.15v-13.481h10.188v2.504h-7.087V-499.618z M294.02-505.164h6.49v2.426
				h-6.49V-505.164z"/>
			<path fill="#515658" d="M307.154-497.115v-13.481h2.581l7.953,9.707h-1.251v-9.707h3.081v13.481h-2.562l-7.974-9.707h1.252v9.707
				H307.154z"/>
			<path fill="#515658" d="M328.589-497.115v-10.939h-4.313v-2.542h11.748v2.542h-4.314v10.939H328.589z"/>
		</g>
	</g>
</g>
<image overflow="visible" width="1920" height="1080" xlink:href="1649B093.jpg"  transform="matrix(1 0 0 1 -2175.6567 -1930.1619)">
</image>
<image overflow="visible" width="1920" height="1080" xlink:href="1649B095.jpg"  transform="matrix(1 0 0 1 -2175.6567 -620.6965)">
</image>
<g opacity="0.3">
	<image overflow="visible" width="117" height="238" xlink:href="1649B095.png"  transform="matrix(1 0 0 1 -2205.5 -1653.4934)">
	</image>
</g>
<g>
	<path fill="#FFFFFF" d="M-2133.001-1461.958c0,6.608-6.47,11.965-14.449,11.965l0,0c-7.98,0-14.449-5.356-14.449-11.965v-136.446
		c0-6.607,6.469-11.965,14.449-11.965l0,0c7.979,0,14.449,5.357,14.449,11.965V-1461.958z"/>
	<circle fill="#FFFFFF" cx="-2147.45" cy="-1594.844" r="22.017"/>
</g>
<g>
	<g>
		<path fill="#27B78A" d="M-2135.358-1600.969c-0.266-0.302-0.575-0.557-0.928-0.753c-0.608-0.341-1.307-0.495-2.005-0.442
			l-1.762-4.727c-0.19-0.513-0.654-0.844-1.204-0.862c-0.542-0.024-1.022,0.254-1.261,0.736c-2.367,3.52-6.337,5.811-10.208,7.859
			c-0.221,0.119-0.384,0.302-0.479,0.519c-0.239-0.055-0.491-0.024-0.712,0.079c-1.18,0.576-2.394,1.086-3.629,1.535
			c-1.017,0.369-1.545,1.49-1.172,2.502l2.047,5.48l-0.543,0.197c-0.613,0.221-1.296-0.089-1.522-0.692l-1.09-2.927
			c-0.17-0.447-0.045-0.944,0.316-1.266c0.16-0.145,0.173-0.394,0.027-0.551c-0.106-0.119-0.279-0.154-0.429-0.1
			c-0.047,0.011-0.089,0.038-0.128,0.075c-0.287,0.254-0.493,0.589-0.587,0.962c-0.101,0.383-0.077,0.779,0.062,1.152l1.089,2.922
			c0.185,0.488,0.544,0.879,1.024,1.096c0.477,0.217,1.017,0.239,1.512,0.062l0.579-0.216c0.481,0.774,1.468,1.131,2.361,0.808
			c0.363-0.133,0.738-0.261,1.117-0.388l1.491,4.003c0.38,1.004,1.515,1.527,2.538,1.157l0.987-0.361
			c1.021-0.371,1.548-1.492,1.172-2.498c-0.258-0.688-0.876-1.163-1.592-1.26l-0.774-2.078c4.333-0.945,8.753-1.13,13.157-0.552
			c0.248,0.029,0.49,0.002,0.715-0.078c0.251-0.093,0.477-0.248,0.65-0.465c0.333-0.404,0.42-0.944,0.238-1.433l-3.703-9.925
			c1.13,0.008,2.147,0.714,2.538,1.757c0.277,0.755,0.207,1.589-0.208,2.286c-0.053,0.088-0.071,0.193-0.04,0.292
			c0.024,0.102,0.092,0.182,0.181,0.237c0.102,0.06,0.226,0.072,0.336,0.029c0.085-0.029,0.16-0.086,0.203-0.166l0,0
			c0.258-0.437,0.417-0.922,0.465-1.42c0.054-0.521-0.014-1.037-0.199-1.529
			C-2134.876-1600.299-2135.088-1600.656-2135.358-1600.969L-2135.358-1600.969z M-2147.441-1585.34
			c0.226,0.603-0.087,1.282-0.702,1.501l-0.986,0.355c-0.614,0.225-1.295-0.087-1.521-0.691l-1.481-3.969
			c0.075-0.027,0.148-0.051,0.223-0.07c0.069-0.019,0.14-0.041,0.207-0.06c0.123-0.04,0.251-0.073,0.377-0.108
			c0.065-0.021,0.128-0.036,0.192-0.055c0.12-0.032,0.244-0.067,0.367-0.1c0.076-0.018,0.143-0.035,0.215-0.055
			c0.108-0.031,0.219-0.058,0.329-0.084c0.089-0.022,0.173-0.04,0.261-0.068c0.04-0.002,0.082-0.016,0.12-0.027l0.896,2.412
			c0.058,0.154,0.208,0.254,0.376,0.251C-2148.066-1586.113-2147.613-1585.804-2147.441-1585.34L-2147.441-1585.34z
			 M-2135.159-1590.526c-0.152,0.192-0.397,0.29-0.645,0.254c-4.527-0.593-9.082-0.393-13.538,0.586l-2.544-6.823
			c-0.073-0.199-0.303-0.304-0.507-0.229c-0.202,0.073-0.309,0.299-0.231,0.502l2.509,6.733c-0.031,0.006-0.06,0.011-0.088,0.02
			l-0.101,0.027c-0.37,0.088-0.735,0.186-1.102,0.285l-0.03,0.009c-0.366,0.101-0.731,0.21-1.098,0.325
			c-0.031,0.011-0.062,0.018-0.095,0.033c-0.047,0.011-0.09,0.027-0.139,0.035c-0.007,0.005-0.008,0.01-0.018,0.012
			c-0.504,0.159-1.004,0.327-1.49,0.503c-0.612,0.221-1.295-0.088-1.521-0.696l-2.18-5.845c-0.226-0.604,0.089-1.277,0.703-1.499
			c1.254-0.456,2.501-0.977,3.705-1.566c0.097-0.046,0.19-0.026,0.232-0.008c0.078,0.031,0.138,0.086,0.164,0.17
			c0.077,0.2,0.303,0.3,0.509,0.226c0.203-0.07,0.311-0.296,0.234-0.5l0,0c-0.012-0.032-0.024-0.063-0.04-0.095
			c-0.004-0.016-0.011-0.042-0.018-0.058c-0.049-0.133,0.006-0.288,0.134-0.351c3.966-2.096,8.042-4.45,10.509-8.136
			c0.011-0.015,0.021-0.033,0.029-0.049c0.146-0.31,0.436-0.323,0.523-0.323c0.086,0.009,0.376,0.042,0.498,0.358l5.746,15.416
			c0.003,0.002,0,0,0.003,0.002C-2134.96-1590.97-2135-1590.72-2135.159-1590.526L-2135.159-1590.526z"/>
	</g>
</g>
<g>
	<g>
		<path fill="#27B78A" d="M-2149.532-1582.006c-1.082,0-2.064-0.675-2.445-1.679l-1.281-3.439c-0.178,0.062-0.355,0.125-0.529,0.188
			c-0.971,0.352-2.092,0.071-2.783-0.65l-0.153,0.058c-0.662,0.239-1.366,0.205-1.988-0.078c-0.625-0.282-1.104-0.794-1.349-1.443
			l-1.09-2.924c-0.184-0.496-0.212-1.024-0.081-1.528c0.125-0.489,0.394-0.93,0.777-1.271c0.112-0.105,0.254-0.183,0.407-0.217
			c0.064-0.034,0.378-0.059,0.593,0.01c-0.037-0.438,0.04-0.879,0.23-1.289c0.292-0.628,0.811-1.104,1.463-1.341
			c1.234-0.449,2.435-0.956,3.569-1.509c0.213-0.099,0.436-0.154,0.658-0.167c0.141-0.171,0.313-0.314,0.513-0.421
			c3.8-2.01,7.698-4.256,9.985-7.657c0.291-0.598,0.963-1.013,1.714-1.013c0.882,0.028,1.576,0.526,1.853,1.27l1.607,4.313
			c0.658,0.026,1.305,0.208,1.88,0.53c0.405,0.224,0.773,0.523,1.092,0.885c0.322,0.373,0.571,0.793,0.743,1.251
			c0.22,0.585,0.299,1.195,0.235,1.813c-0.057,0.582-0.247,1.161-0.548,1.672c-0.11,0.199-0.306,0.36-0.542,0.44
			c-0.084,0.035-0.208,0.058-0.334,0.058l0,0c-0.016,0-0.031,0-0.047-0.001l1.663,4.457c0.263,0.703,0.136,1.468-0.34,2.046
			c-0.233,0.291-0.551,0.518-0.916,0.653c-0.321,0.116-0.659,0.153-1.004,0.113c-4.095-0.539-8.221-0.402-12.247,0.395l0.402,1.079
			c0.784,0.227,1.421,0.806,1.71,1.579c0.239,0.639,0.213,1.333-0.074,1.954c-0.291,0.631-0.812,1.109-1.468,1.348l-0.985,0.36
			C-2148.93-1582.059-2149.229-1582.006-2149.532-1582.006z M-2151.315-1587.737l1.248,3.345c0.103,0.276,0.436,0.43,0.723,0.323
			l0.989-0.355c0.14-0.051,0.25-0.151,0.313-0.284c0.061-0.132,0.067-0.279,0.018-0.414c-0.081-0.218-0.294-0.363-0.53-0.363
			c-0.445,0-0.828-0.265-0.974-0.658l-0.703-1.889c-0.054,0.014-0.101,0.025-0.147,0.039l-0.595,0.159l-0.351-0.547l0.167,0.6
			L-2151.315-1587.737z M-2152.876-1589.382l0.247,0.578l-0.12-0.618c0.403-0.126,0.774-0.237,1.147-0.34
			c0.228-0.063,0.445-0.121,0.659-0.177l-2.265-6.079c-0.096-0.249-0.086-0.526,0.027-0.774c0.013-0.029,0.028-0.058,0.044-0.086
			c-0.167-0.057-0.316-0.156-0.432-0.288c-1.1,0.525-2.274,1.017-3.492,1.459c-0.143,0.052-0.254,0.153-0.315,0.287
			c-0.061,0.13-0.066,0.275-0.017,0.408l2.179,5.845c0.104,0.277,0.439,0.436,0.727,0.328c0.493-0.179,1.001-0.35,1.514-0.512
			l0.002,0.007L-2152.876-1589.382z M-2158.967-1593.405c-0.037,0.049-0.079,0.094-0.125,0.136
			c-0.173,0.155-0.231,0.376-0.152,0.582l1.091,2.932c0.097,0.258,0.399,0.415,0.677,0.339L-2158.967-1593.405z M-2151.918-1597.328
			c0.282,0.098,0.512,0.317,0.618,0.604l2.355,6.316c4.35-0.895,8.829-1.058,13.223-0.481l0.675-0.318l-0.584,0.218l-5.693-15.275
			l-0.003,0.005c-2.493,3.724-6.525,6.103-10.479,8.201c0.05,0.219,0.026,0.445-0.07,0.65
			C-2151.89-1597.38-2151.904-1597.354-2151.918-1597.328z M-2137.013-1600.516l0.949,2.543c0.179-0.459,0.186-0.974,0.011-1.452
			C-2136.23-1599.898-2136.577-1600.281-2137.013-1600.516z"/>
	</g>
</g>
<g>
	
		<text transform="matrix(-4.371138e-008 1 -1 -4.371138e-008 -2151.4966 -1571.8269)" fill="#27B78A" font-family="'Montserrat-Bold'" font-size="9.9698" letter-spacing="1">ANNOUNCEMENT</text>
</g>
<g opacity="0.3">
	<image overflow="visible" width="117" height="238" xlink:href="1649B096.png"  transform="matrix(1 0 0 1 -2415.5 -1653.4934)">
	</image>
</g>
<g>
	<path fill="#FFFFFF" d="M-2343.001-1461.958c0,6.608-6.47,11.965-14.449,11.965l0,0c-7.98,0-14.449-5.356-14.449-11.965v-136.446
		c0-6.607,6.469-11.965,14.449-11.965l0,0c7.979,0,14.449,5.357,14.449,11.965V-1461.958z"/>
	<circle fill="#FFFFFF" cx="-2357.45" cy="-1594.844" r="22.017"/>
</g>
<g>
	<g>
		<path fill="#27B78A" d="M-2345.358-1600.969c-0.266-0.302-0.575-0.557-0.928-0.753c-0.608-0.341-1.307-0.495-2.005-0.442
			l-1.762-4.727c-0.19-0.513-0.654-0.844-1.204-0.862c-0.542-0.024-1.022,0.254-1.261,0.736c-2.367,3.52-6.337,5.811-10.208,7.859
			c-0.221,0.119-0.384,0.302-0.479,0.519c-0.239-0.055-0.491-0.024-0.712,0.079c-1.18,0.576-2.394,1.086-3.629,1.535
			c-1.017,0.369-1.545,1.49-1.172,2.502l2.047,5.48l-0.543,0.197c-0.613,0.221-1.296-0.089-1.522-0.692l-1.09-2.927
			c-0.17-0.447-0.045-0.944,0.316-1.266c0.16-0.145,0.173-0.394,0.027-0.551c-0.106-0.119-0.279-0.154-0.429-0.1
			c-0.047,0.011-0.089,0.038-0.128,0.075c-0.287,0.254-0.493,0.589-0.587,0.962c-0.101,0.383-0.077,0.779,0.062,1.152l1.089,2.922
			c0.185,0.488,0.544,0.879,1.024,1.096c0.477,0.217,1.017,0.239,1.512,0.062l0.579-0.216c0.481,0.774,1.468,1.131,2.361,0.808
			c0.363-0.133,0.738-0.261,1.117-0.388l1.491,4.003c0.38,1.004,1.515,1.527,2.538,1.157l0.987-0.361
			c1.021-0.371,1.548-1.492,1.172-2.498c-0.258-0.688-0.876-1.163-1.592-1.26l-0.774-2.078c4.333-0.945,8.753-1.13,13.157-0.552
			c0.248,0.029,0.49,0.002,0.715-0.078c0.251-0.093,0.477-0.248,0.65-0.465c0.333-0.404,0.42-0.944,0.238-1.433l-3.703-9.925
			c1.13,0.008,2.147,0.714,2.538,1.757c0.277,0.755,0.207,1.589-0.208,2.286c-0.053,0.088-0.071,0.193-0.04,0.292
			c0.024,0.102,0.092,0.182,0.181,0.237c0.102,0.06,0.226,0.072,0.336,0.029c0.085-0.029,0.16-0.086,0.203-0.166l0,0
			c0.258-0.437,0.417-0.922,0.465-1.42c0.054-0.521-0.014-1.037-0.199-1.529
			C-2344.876-1600.299-2345.088-1600.656-2345.358-1600.969L-2345.358-1600.969z M-2357.441-1585.34
			c0.226,0.603-0.087,1.282-0.702,1.501l-0.986,0.355c-0.614,0.225-1.295-0.087-1.521-0.691l-1.481-3.969
			c0.075-0.027,0.148-0.051,0.223-0.07c0.069-0.019,0.14-0.041,0.207-0.06c0.123-0.04,0.251-0.073,0.377-0.108
			c0.065-0.021,0.128-0.036,0.192-0.055c0.12-0.032,0.244-0.067,0.367-0.1c0.076-0.018,0.143-0.035,0.215-0.055
			c0.108-0.031,0.219-0.058,0.329-0.084c0.089-0.022,0.173-0.04,0.261-0.068c0.04-0.002,0.082-0.016,0.12-0.027l0.896,2.412
			c0.058,0.154,0.208,0.254,0.376,0.251C-2358.066-1586.113-2357.613-1585.804-2357.441-1585.34L-2357.441-1585.34z
			 M-2345.159-1590.526c-0.152,0.192-0.397,0.29-0.645,0.254c-4.527-0.593-9.082-0.393-13.538,0.586l-2.544-6.823
			c-0.073-0.199-0.303-0.304-0.507-0.229c-0.202,0.073-0.309,0.299-0.231,0.502l2.509,6.733c-0.031,0.006-0.06,0.011-0.088,0.02
			l-0.101,0.027c-0.37,0.088-0.735,0.186-1.102,0.285l-0.03,0.009c-0.366,0.101-0.731,0.21-1.098,0.325
			c-0.031,0.011-0.062,0.018-0.095,0.033c-0.047,0.011-0.09,0.027-0.139,0.035c-0.007,0.005-0.008,0.01-0.018,0.012
			c-0.504,0.159-1.004,0.327-1.49,0.503c-0.612,0.221-1.295-0.088-1.521-0.696l-2.18-5.845c-0.226-0.604,0.089-1.277,0.703-1.499
			c1.254-0.456,2.501-0.977,3.705-1.566c0.097-0.046,0.19-0.026,0.232-0.008c0.078,0.031,0.138,0.086,0.164,0.17
			c0.077,0.2,0.303,0.3,0.509,0.226c0.203-0.07,0.311-0.296,0.234-0.5l0,0c-0.012-0.032-0.024-0.063-0.04-0.095
			c-0.004-0.016-0.011-0.042-0.018-0.058c-0.049-0.133,0.006-0.288,0.134-0.351c3.966-2.096,8.042-4.45,10.509-8.136
			c0.011-0.015,0.021-0.033,0.029-0.049c0.146-0.31,0.436-0.323,0.523-0.323c0.086,0.009,0.376,0.042,0.498,0.358l5.746,15.416
			c0.003,0.002,0,0,0.003,0.002C-2344.96-1590.97-2345-1590.72-2345.159-1590.526L-2345.159-1590.526z"/>
	</g>
</g>
<g>
	<g>
		<path fill="#27B78A" d="M-2359.532-1582.006c-1.082,0-2.064-0.675-2.445-1.679l-1.281-3.439c-0.178,0.062-0.355,0.125-0.529,0.188
			c-0.971,0.352-2.092,0.071-2.783-0.65l-0.153,0.058c-0.662,0.239-1.366,0.205-1.988-0.078c-0.625-0.282-1.104-0.794-1.349-1.443
			l-1.09-2.924c-0.184-0.496-0.212-1.024-0.081-1.528c0.125-0.489,0.394-0.93,0.777-1.271c0.112-0.105,0.254-0.183,0.407-0.217
			c0.064-0.034,0.378-0.059,0.593,0.01c-0.037-0.438,0.04-0.879,0.23-1.289c0.292-0.628,0.811-1.104,1.463-1.341
			c1.234-0.449,2.435-0.956,3.569-1.509c0.213-0.099,0.436-0.154,0.658-0.167c0.141-0.171,0.313-0.314,0.513-0.421
			c3.8-2.01,7.698-4.256,9.985-7.657c0.291-0.598,0.963-1.013,1.714-1.013c0.882,0.028,1.576,0.526,1.853,1.27l1.607,4.313
			c0.658,0.026,1.305,0.208,1.88,0.53c0.405,0.224,0.773,0.523,1.092,0.885c0.322,0.373,0.571,0.793,0.743,1.251
			c0.22,0.585,0.299,1.195,0.235,1.813c-0.057,0.582-0.247,1.161-0.548,1.672c-0.11,0.199-0.306,0.36-0.542,0.44
			c-0.084,0.035-0.208,0.058-0.334,0.058l0,0c-0.016,0-0.031,0-0.047-0.001l1.663,4.457c0.263,0.703,0.136,1.468-0.34,2.046
			c-0.233,0.291-0.551,0.518-0.916,0.653c-0.321,0.116-0.659,0.153-1.004,0.113c-4.095-0.539-8.221-0.402-12.247,0.395l0.402,1.079
			c0.784,0.227,1.421,0.806,1.71,1.579c0.239,0.639,0.213,1.333-0.074,1.954c-0.291,0.631-0.812,1.109-1.468,1.348l-0.985,0.36
			C-2358.93-1582.059-2359.229-1582.006-2359.532-1582.006z M-2361.315-1587.737l1.248,3.345c0.103,0.276,0.436,0.43,0.723,0.323
			l0.989-0.355c0.14-0.051,0.25-0.151,0.313-0.284c0.061-0.132,0.067-0.279,0.018-0.414c-0.081-0.218-0.294-0.363-0.53-0.363
			c-0.445,0-0.828-0.265-0.974-0.658l-0.703-1.889c-0.054,0.014-0.101,0.025-0.147,0.039l-0.595,0.159l-0.351-0.547l0.167,0.6
			L-2361.315-1587.737z M-2362.876-1589.382l0.247,0.578l-0.12-0.618c0.403-0.126,0.774-0.237,1.147-0.34
			c0.228-0.063,0.445-0.121,0.659-0.177l-2.265-6.079c-0.096-0.249-0.086-0.526,0.027-0.774c0.013-0.029,0.028-0.058,0.044-0.086
			c-0.167-0.057-0.316-0.156-0.432-0.288c-1.1,0.525-2.274,1.017-3.492,1.459c-0.143,0.052-0.254,0.153-0.315,0.287
			c-0.061,0.13-0.066,0.275-0.017,0.408l2.179,5.845c0.104,0.277,0.439,0.436,0.727,0.328c0.493-0.179,1.001-0.35,1.514-0.512
			l0.002,0.007L-2362.876-1589.382z M-2368.967-1593.405c-0.037,0.049-0.079,0.094-0.125,0.136
			c-0.173,0.155-0.231,0.376-0.152,0.582l1.091,2.932c0.097,0.258,0.399,0.415,0.677,0.339L-2368.967-1593.405z M-2361.918-1597.328
			c0.282,0.098,0.512,0.317,0.618,0.604l2.355,6.316c4.35-0.895,8.829-1.058,13.223-0.481l0.675-0.318l-0.584,0.218l-5.693-15.275
			l-0.003,0.005c-2.493,3.724-6.525,6.103-10.479,8.201c0.05,0.219,0.026,0.445-0.07,0.65
			C-2361.89-1597.38-2361.904-1597.354-2361.918-1597.328z M-2347.013-1600.516l0.949,2.543c0.179-0.459,0.186-0.974,0.011-1.452
			C-2346.23-1599.898-2346.577-1600.281-2347.013-1600.516z"/>
	</g>
</g>
<g>
	<g>
		<path fill="#27B78A" d="M-2361.497-1571.917l6.979,3.111v1.595l-6.979,3.121v-1.695l6.161-2.552v0.638l-6.161-2.562V-1571.917z
			 M-2360.001-1570.362l1.226,0.429v3.589l-1.226,0.438V-1570.362z"/>
		<path fill="#27B78A" d="M-2361.497-1561.767h6.979v1.336l-5.025,4.117v-0.648h5.025v1.595h-6.979v-1.326l5.025-4.128v0.648h-5.025
			V-1561.767z"/>
		<path fill="#27B78A" d="M-2361.497-1552.116h6.979v1.336l-5.025,4.117v-0.648h5.025v1.595h-6.979v-1.326l5.025-4.128v0.648h-5.025
			V-1552.116z"/>
		<path fill="#27B78A" d="M-2361.616-1539.076c0-0.552,0.09-1.062,0.269-1.53c0.18-0.469,0.432-0.874,0.758-1.216
			c0.326-0.343,0.708-0.608,1.146-0.798c0.439-0.189,0.917-0.284,1.436-0.284c0.519,0,0.997,0.095,1.436,0.284
			c0.438,0.189,0.821,0.457,1.146,0.803c0.325,0.346,0.578,0.751,0.758,1.216c0.179,0.465,0.269,0.97,0.269,1.516
			c0,0.551-0.09,1.058-0.269,1.52c-0.18,0.462-0.433,0.864-0.758,1.207c-0.326,0.342-0.707,0.61-1.142,0.803
			c-0.436,0.192-0.916,0.289-1.441,0.289c-0.518,0-0.999-0.097-1.44-0.289c-0.442-0.193-0.824-0.46-1.146-0.803
			c-0.323-0.342-0.573-0.745-0.753-1.207C-2361.526-1538.028-2361.616-1538.531-2361.616-1539.076z M-2360.24-1539.086
			c0,0.312,0.053,0.6,0.159,0.862c0.106,0.262,0.259,0.493,0.459,0.693c0.199,0.199,0.435,0.354,0.708,0.463
			c0.272,0.11,0.575,0.165,0.907,0.165c0.333,0,0.635-0.055,0.907-0.165c0.272-0.109,0.509-0.263,0.708-0.458
			c0.2-0.196,0.352-0.427,0.458-0.693c0.106-0.266,0.16-0.555,0.16-0.867c0-0.313-0.053-0.6-0.16-0.863s-0.259-0.493-0.458-0.693
			c-0.199-0.199-0.436-0.354-0.708-0.463c-0.272-0.11-0.575-0.165-0.907-0.165c-0.326,0-0.626,0.055-0.902,0.165
			c-0.276,0.109-0.514,0.262-0.713,0.458c-0.2,0.196-0.353,0.427-0.459,0.693S-2360.24-1539.398-2360.24-1539.086z"/>
		<path fill="#27B78A" d="M-2361.616-1529.355c0-0.991,0.276-1.765,0.828-2.323c0.551-0.558,1.339-0.837,2.363-0.837h3.908v1.615
			h-3.849c-0.665,0-1.143,0.136-1.436,0.409s-0.438,0.655-0.438,1.146s0.146,0.874,0.438,1.146s0.771,0.409,1.436,0.409h3.849v1.595
			h-3.908c-1.024,0-1.812-0.279-2.363-0.837C-2361.34-1527.591-2361.616-1528.365-2361.616-1529.355z"/>
		<path fill="#27B78A" d="M-2361.497-1523.005h6.979v1.336l-5.025,4.117v-0.648h5.025v1.595h-6.979v-1.326l5.025-4.128v0.648h-5.025
			V-1523.005z"/>
		<path fill="#27B78A" d="M-2361.616-1510.014c0-0.539,0.088-1.039,0.264-1.5c0.176-0.462,0.427-0.862,0.753-1.202
			c0.325-0.339,0.708-0.603,1.146-0.792c0.438-0.189,0.92-0.284,1.445-0.284c0.525,0,1.007,0.095,1.446,0.284
			s0.821,0.455,1.146,0.798c0.326,0.342,0.577,0.743,0.753,1.201c0.176,0.458,0.264,0.96,0.264,1.505
			c0,0.605-0.105,1.152-0.314,1.64c-0.209,0.489-0.517,0.899-0.922,1.231l-0.957-1.037c0.272-0.239,0.477-0.505,0.613-0.797
			c0.136-0.292,0.204-0.612,0.204-0.957c0-0.326-0.053-0.625-0.16-0.897s-0.259-0.508-0.458-0.708
			c-0.199-0.199-0.436-0.354-0.708-0.463c-0.272-0.11-0.575-0.165-0.907-0.165c-0.332,0-0.635,0.055-0.907,0.165
			c-0.272,0.109-0.508,0.264-0.708,0.463c-0.2,0.2-0.353,0.436-0.459,0.708s-0.159,0.571-0.159,0.897
			c0,0.345,0.068,0.665,0.204,0.957s0.344,0.558,0.623,0.797l-0.957,1.037c-0.405-0.333-0.714-0.743-0.927-1.231
			C-2361.51-1508.852-2361.616-1509.403-2361.616-1510.014z"/>
		<path fill="#27B78A" d="M-2360.201-1502.846v3.798h-1.296v-5.403h6.979v5.274h-1.296v-3.669H-2360.201z M-2357.329-1502.966v3.36
			h-1.256v-3.36H-2357.329z"/>
		<path fill="#27B78A" d="M-2361.497-1496.166h6.979v1.336l-4.925,2.971v-0.708l4.925,2.921v1.326l-6.979,0.02v-1.516l4.656-0.01
			v0.279l-3.918-2.333v-0.728l3.918-2.383v0.339h-4.656V-1496.166z"/>
		<path fill="#27B78A" d="M-2360.201-1483.445v3.798h-1.296v-5.403h6.979v5.274h-1.296v-3.669H-2360.201z M-2357.329-1483.565v3.36
			h-1.256v-3.36H-2357.329z"/>
		<path fill="#27B78A" d="M-2361.497-1476.765h6.979v1.336l-5.025,4.117v-0.648h5.025v1.595h-6.979v-1.326l5.025-4.128v0.648h-5.025
			V-1476.765z"/>
		<path fill="#27B78A" d="M-2361.497-1465.669h5.663v-2.233h1.316v6.082h-1.316v-2.233h-5.663V-1465.669z"/>
	</g>
</g>
<g>
	<g opacity="0.1">
		<image overflow="visible" width="108" height="205" xlink:href="1649B0BF.png"  transform="matrix(1 0 0 1 -2202.5 -352.3586)">
		</image>
	</g>
	<g>
		<path fill="#FFFFFF" d="M-2136.856-191.429c0,5.302-5.191,9.601-11.594,9.601l0,0c-6.403,0-11.594-4.298-11.594-9.601v-109.487
			c0-5.302,5.19-9.601,11.594-9.601l0,0c6.402,0,11.594,4.299,11.594,9.601V-191.429z"/>
		<circle fill="#FFFFFF" cx="-2148.45" cy="-298.059" r="17.667"/>
	</g>
	<g>
		<g>
			<path fill="#27B78A" d="M-2138.747-303.776c-0.213-0.243-0.461-0.447-0.745-0.604c-0.488-0.273-1.048-0.397-1.609-0.355
				l-1.414-3.792c-0.153-0.412-0.525-0.677-0.966-0.692c-0.435-0.019-0.82,0.204-1.012,0.591c-1.899,2.824-5.085,4.663-8.191,6.306
				c-0.178,0.095-0.308,0.243-0.385,0.417c-0.191-0.044-0.394-0.019-0.572,0.063c-0.947,0.462-1.921,0.872-2.912,1.231
				c-0.816,0.296-1.24,1.196-0.94,2.008l1.643,4.397l-0.436,0.158c-0.492,0.177-1.04-0.071-1.221-0.556l-0.875-2.349
				c-0.137-0.358-0.037-0.757,0.254-1.016c0.128-0.116,0.139-0.315,0.021-0.442c-0.085-0.095-0.224-0.124-0.344-0.08
				c-0.038,0.008-0.071,0.03-0.103,0.06c-0.23,0.204-0.396,0.473-0.471,0.772c-0.081,0.307-0.062,0.625,0.049,0.924l0.874,2.345
				c0.148,0.392,0.437,0.706,0.822,0.879c0.383,0.174,0.816,0.192,1.213,0.049l0.464-0.173c0.387,0.621,1.178,0.908,1.895,0.648
				c0.291-0.106,0.592-0.209,0.896-0.311l1.196,3.212c0.305,0.805,1.216,1.226,2.037,0.928l0.792-0.29
				c0.819-0.298,1.242-1.197,0.94-2.004c-0.207-0.552-0.703-0.933-1.277-1.011l-0.621-1.667c3.477-0.758,7.024-0.907,10.558-0.442
				c0.199,0.023,0.394,0.002,0.573-0.063c0.202-0.075,0.383-0.199,0.522-0.373c0.267-0.324,0.337-0.758,0.19-1.15l-2.971-7.964
				c0.907,0.007,1.724,0.573,2.037,1.41c0.223,0.606,0.167,1.275-0.167,1.834c-0.042,0.071-0.057,0.155-0.032,0.235
				c0.019,0.082,0.074,0.146,0.145,0.19c0.082,0.047,0.181,0.058,0.27,0.023c0.068-0.023,0.128-0.069,0.163-0.133l0,0
				c0.207-0.35,0.334-0.74,0.373-1.139c0.043-0.418-0.011-0.832-0.16-1.228C-2138.36-303.239-2138.531-303.526-2138.747-303.776
				L-2138.747-303.776z M-2148.443-291.235c0.181,0.484-0.07,1.029-0.563,1.205l-0.792,0.285c-0.493,0.181-1.04-0.069-1.22-0.555
				l-1.188-3.185c0.06-0.021,0.119-0.041,0.179-0.057c0.055-0.015,0.112-0.032,0.166-0.048c0.099-0.032,0.202-0.059,0.303-0.087
				c0.052-0.016,0.103-0.028,0.154-0.044c0.096-0.025,0.196-0.054,0.294-0.081c0.061-0.014,0.114-0.028,0.173-0.044
				c0.087-0.025,0.176-0.046,0.264-0.067c0.071-0.018,0.138-0.032,0.209-0.055c0.032-0.002,0.066-0.013,0.096-0.021l0.72,1.935
				c0.046,0.124,0.167,0.204,0.302,0.202C-2148.944-291.856-2148.581-291.608-2148.443-291.235L-2148.443-291.235z
				 M-2138.587-295.397c-0.123,0.154-0.319,0.232-0.518,0.204c-3.633-0.476-7.287-0.315-10.863,0.47l-2.042-5.475
				c-0.059-0.16-0.243-0.244-0.407-0.183c-0.162,0.059-0.248,0.24-0.186,0.403l2.013,5.403c-0.025,0.005-0.047,0.009-0.071,0.016
				l-0.081,0.021c-0.297,0.071-0.59,0.149-0.884,0.229l-0.024,0.007c-0.293,0.081-0.586,0.168-0.881,0.261
				c-0.025,0.009-0.049,0.014-0.077,0.026c-0.037,0.009-0.072,0.021-0.111,0.028c-0.006,0.004-0.007,0.007-0.014,0.009
				c-0.405,0.127-0.806,0.262-1.195,0.404c-0.492,0.178-1.04-0.071-1.221-0.558l-1.749-4.69c-0.181-0.484,0.071-1.025,0.564-1.203
				c1.006-0.366,2.007-0.784,2.973-1.256c0.078-0.037,0.152-0.021,0.186-0.007c0.062,0.025,0.11,0.069,0.131,0.137
				c0.062,0.16,0.243,0.241,0.408,0.181c0.163-0.057,0.25-0.238,0.188-0.401l0,0c-0.01-0.025-0.02-0.05-0.032-0.076
				c-0.003-0.013-0.009-0.034-0.014-0.046c-0.04-0.106,0.005-0.231,0.107-0.282c3.183-1.682,6.454-3.571,8.433-6.528
				c0.008-0.012,0.017-0.027,0.023-0.04c0.117-0.248,0.35-0.259,0.42-0.259c0.069,0.007,0.302,0.034,0.399,0.288l4.61,12.37
				c0.003,0.002,0,0,0.003,0.002C-2138.428-295.753-2138.459-295.552-2138.587-295.397L-2138.587-295.397z"/>
		</g>
	</g>
	<g>
		<g>
			<path fill="#27B78A" d="M-2150.121-288.56c-0.868,0-1.656-0.542-1.961-1.347l-1.028-2.76c-0.143,0.05-0.285,0.1-0.425,0.151
				c-0.779,0.282-1.678,0.057-2.233-0.522l-0.123,0.046c-0.532,0.192-1.097,0.165-1.595-0.063c-0.501-0.226-0.886-0.637-1.083-1.158
				l-0.875-2.347c-0.148-0.398-0.17-0.822-0.064-1.226c0.1-0.393,0.315-0.747,0.624-1.02c0.09-0.085,0.204-0.146,0.327-0.174
				c0.052-0.028,0.304-0.047,0.476,0.008c-0.03-0.351,0.032-0.706,0.185-1.035c0.234-0.504,0.651-0.886,1.174-1.076
				c0.99-0.36,1.954-0.767,2.864-1.211c0.171-0.08,0.35-0.124,0.528-0.134c0.113-0.138,0.251-0.252,0.412-0.338
				c3.049-1.613,6.177-3.415,8.012-6.144c0.233-0.48,0.773-0.813,1.375-0.813c0.708,0.022,1.265,0.422,1.486,1.019l1.29,3.46
				c0.528,0.021,1.047,0.167,1.508,0.425c0.325,0.18,0.621,0.42,0.876,0.71c0.259,0.299,0.458,0.636,0.597,1.004
				c0.176,0.47,0.24,0.959,0.189,1.455c-0.046,0.467-0.198,0.932-0.44,1.342c-0.088,0.16-0.245,0.289-0.435,0.353
				c-0.068,0.028-0.167,0.046-0.269,0.046l0,0c-0.013,0-0.025,0-0.038,0l1.334,3.576c0.211,0.564,0.109,1.178-0.272,1.642
				c-0.187,0.233-0.442,0.416-0.735,0.524c-0.258,0.093-0.528,0.123-0.806,0.091c-3.286-0.432-6.597-0.323-9.827,0.317l0.322,0.865
				c0.629,0.182,1.141,0.647,1.373,1.267c0.192,0.513,0.17,1.069-0.06,1.568c-0.233,0.506-0.652,0.89-1.178,1.081l-0.791,0.29
				C-2149.638-288.603-2149.877-288.56-2150.121-288.56z M-2151.551-293.158l1.001,2.684c0.083,0.222,0.35,0.345,0.58,0.26
				l0.794-0.286c0.112-0.041,0.201-0.121,0.25-0.228c0.049-0.106,0.054-0.224,0.014-0.332c-0.065-0.174-0.236-0.291-0.425-0.291
				c-0.357,0-0.665-0.212-0.781-0.528l-0.564-1.516c-0.043,0.011-0.081,0.021-0.119,0.031l-0.478,0.127l-0.281-0.439l0.134,0.481
				L-2151.551-293.158z M-2152.804-294.479l0.198,0.464l-0.096-0.496c0.323-0.102,0.622-0.19,0.92-0.273
				c0.183-0.05,0.357-0.097,0.529-0.142l-1.818-4.878c-0.077-0.2-0.069-0.422,0.022-0.622c0.011-0.023,0.022-0.046,0.036-0.069
				c-0.134-0.045-0.253-0.125-0.347-0.231c-0.882,0.421-1.825,0.815-2.802,1.17c-0.114,0.042-0.204,0.123-0.253,0.23
				c-0.048,0.104-0.053,0.221-0.013,0.328l1.749,4.69c0.083,0.222,0.352,0.349,0.583,0.263c0.396-0.144,0.803-0.281,1.215-0.411
				l0.002,0.006L-2152.804-294.479z M-2157.691-297.707c-0.03,0.039-0.063,0.075-0.101,0.109c-0.139,0.125-0.185,0.302-0.122,0.467
				l0.876,2.353c0.078,0.207,0.32,0.333,0.543,0.272L-2157.691-297.707z M-2152.036-300.855c0.226,0.079,0.411,0.254,0.496,0.484
				l1.89,5.069c3.49-0.718,7.084-0.849,10.61-0.387l0.542-0.255l-0.469,0.175l-4.568-12.257l-0.002,0.004
				c-2,2.988-5.236,4.896-8.409,6.581c0.041,0.176,0.021,0.357-0.056,0.522C-2152.013-300.897-2152.024-300.876-2152.036-300.855z
				 M-2140.075-303.413l0.761,2.041c0.144-0.369,0.149-0.781,0.009-1.165C-2139.447-302.917-2139.726-303.224-2140.075-303.413z"/>
		</g>
	</g>
	<g>
		
			<text transform="matrix(-4.371139e-008 1 -1 -4.371139e-008 -2151.6968 -280.3928)" fill="#27B78A" font-family="'Montserrat-Bold'" font-size="8" letter-spacing="1">ANNOUNCEMENT</text>
	</g>
</g>
</svg>
