<?xml version="1.0" encoding="utf-8"?>
<!-- Generator: Adobe Illustrator 16.0.0, SVG Export Plug-In . SVG Version: 6.00 Build 0)  -->
<!DOCTYPE svg PUBLIC "-//W3C//DTD SVG 1.0//EN" "http://www.w3.org/TR/2001/REC-SVG-20010904/DTD/svg10.dtd">
<svg version="1.0" id="Layer_1" xmlns="http://www.w3.org/2000/svg" xmlns:xlink="http://www.w3.org/1999/xlink" x="0px" y="0px"
	 width="133.559px" height="134.811px" viewBox="0 0 133.559 134.811" enable-background="new 0 0 133.559 134.811"
	 xml:space="preserve">
<path fill="#22B78A" d="M-152.454,57.607c-0.678-0.789-1.483-1.456-2.388-1.973c-1.573-0.896-3.376-1.3-5.18-1.166l-4.544-12.352
	c-0.491-1.339-1.686-2.209-3.11-2.264c-1.398-0.058-2.634,0.68-3.245,1.93c-6.106,9.213-16.358,15.204-26.338,20.551
	c-0.573,0.308-0.997,0.796-1.239,1.361c-0.619-0.14-1.268-0.063-1.836,0.216c-3.05,1.498-6.175,2.837-9.361,4.011
	c-2.635,0.971-3.991,3.901-3.021,6.538l5.274,14.338l-1.402,0.517c-1.581,0.577-3.338-0.235-3.923-1.813l-2.813-7.646
	c-0.433-1.176-0.113-2.476,0.817-3.32c0.415-0.377,0.447-1.023,0.07-1.438c-0.278-0.31-0.718-0.416-1.105-0.272
	c-0.123,0.045-0.236,0.113-0.334,0.202c-0.741,0.673-1.271,1.549-1.517,2.52c-0.254,0.998-0.2,2.041,0.157,3.014l2.813,7.646
	c0.469,1.277,1.407,2.295,2.642,2.865c1.235,0.57,2.619,0.625,3.896,0.155l1.496-0.551c1.247,2.018,3.783,2.949,6.093,2.103
	c0.943-0.348,1.906-0.685,2.883-1.008l3.854,10.467c0.968,2.636,3.9,3.991,6.536,3.021l2.548-0.938
	c2.636-0.968,3.993-3.902,3.021-6.538c-0.656-1.787-2.254-3.039-4.104-3.289l-2.001-5.439c11.18-2.466,22.595-2.949,33.95-1.443
	c0.638,0.085,1.269,0.012,1.845-0.201c0.648-0.237,1.229-0.65,1.679-1.214c0.855-1.066,1.082-2.468,0.612-3.749l-9.55-25.963
	c2.908,0.023,5.535,1.87,6.538,4.601c0.727,1.977,0.533,4.154-0.532,5.977c-0.138,0.231-0.176,0.511-0.105,0.771
	c0.068,0.265,0.235,0.484,0.472,0.623c0.263,0.153,0.579,0.181,0.866,0.074c0.221-0.08,0.408-0.236,0.525-0.439
	c0,0,0.002-0.002,0-0.003c0.662-1.125,1.077-2.405,1.202-3.705c0.134-1.36-0.039-2.709-0.517-3.999
	C-151.209,59.357-151.755,58.425-152.454,57.607L-152.454,57.607z M-183.623,98.485c0.582,1.58-0.23,3.342-1.813,3.922l-2.548,0.938
	c-1.582,0.582-3.343-0.23-3.923-1.813l-3.82-10.385c0.192-0.059,0.385-0.119,0.577-0.179c0.18-0.053,0.354-0.105,0.532-0.158
	c0.323-0.099,0.65-0.191,0.977-0.284c0.162-0.046,0.326-0.092,0.49-0.138c0.314-0.09,0.634-0.178,0.948-0.264
	c0.187-0.05,0.37-0.1,0.556-0.147c0.284-0.074,0.565-0.146,0.852-0.22c0.222-0.057,0.445-0.112,0.671-0.168
	c0.104-0.025,0.206-0.051,0.312-0.074l2.314,6.302c0.148,0.404,0.537,0.671,0.971,0.666
	C-185.237,96.467-184.07,97.272-183.623,98.485L-183.623,98.485z M-151.933,84.919c-0.402,0.504-1.025,0.756-1.667,0.67
	c-11.684-1.552-23.429-1.033-34.927,1.534l-6.564-17.848c-0.192-0.526-0.78-0.8-1.308-0.604c-0.528,0.192-0.798,0.781-0.604,1.309
	l6.479,17.611c-0.076,0.019-0.154,0.038-0.231,0.058l-0.266,0.065c-0.948,0.238-1.893,0.489-2.832,0.754l-0.073,0.021
	c-0.948,0.268-1.894,0.549-2.832,0.846c-0.086,0.027-0.17,0.053-0.254,0.081c-0.118,0.036-0.234,0.071-0.352,0.11
	c-0.016,0.004-0.031,0.012-0.05,0.018c-1.302,0.419-2.591,0.859-3.844,1.32c-1.58,0.581-3.34-0.232-3.922-1.813l-5.625-15.294
	c-0.582-1.582,0.229-3.341,1.812-3.923c3.237-1.189,6.452-2.566,9.558-4.093c0.257-0.127,0.487-0.07,0.604-0.022
	c0.194,0.078,0.351,0.235,0.423,0.436c0.193,0.528,0.779,0.8,1.308,0.604c0.527-0.193,0.801-0.778,0.604-1.308l0,0
	c-0.029-0.085-0.064-0.168-0.104-0.251c-0.011-0.052-0.024-0.103-0.045-0.154c-0.125-0.347,0.022-0.739,0.352-0.916
	c10.229-5.48,20.749-11.64,27.112-21.28c0.029-0.041,0.054-0.087,0.075-0.134c0.372-0.803,1.129-0.835,1.353-0.825
	c0.222,0.01,0.974,0.103,1.28,0.932l14.826,40.313c0.008,0.017,0.002-0.002,0.006,0.015
	C-151.421,83.754-151.528,84.415-151.933,84.919L-151.933,84.919z"/>
<g>
	<path fill="#22B78A" d="M-52.144,76.514c0,27.06-21.939,48.998-48.999,48.998V27.499C-74.083,27.499-52.144,49.438-52.144,76.514z"
		/>
	<path fill="#313535" d="M-34.105,61.402c-0.679-0.789-1.484-1.456-2.389-1.972c-1.572-0.896-3.376-1.301-5.18-1.166l-4.544-12.353
		c-0.491-1.339-1.685-2.209-3.11-2.264c-1.397-0.058-2.634,0.68-3.244,1.93c-6.108,9.214-16.36,15.205-26.339,20.552
		c-0.572,0.308-0.997,0.796-1.238,1.361c-0.619-0.14-1.269-0.062-1.836,0.216c-3.051,1.498-6.176,2.837-9.362,4.011
		c-2.634,0.971-3.991,3.901-3.021,6.538l5.274,14.338l-1.402,0.517c-1.581,0.577-3.338-0.235-3.923-1.813l-2.813-7.646
		c-0.434-1.175-0.114-2.476,0.816-3.32c0.415-0.377,0.447-1.022,0.07-1.438c-0.278-0.31-0.717-0.416-1.105-0.272
		c-0.123,0.045-0.235,0.113-0.334,0.202c-0.74,0.673-1.271,1.549-1.517,2.52c-0.254,0.998-0.2,2.041,0.158,3.014l2.812,7.646
		c0.47,1.277,1.407,2.295,2.643,2.865c1.234,0.57,2.619,0.625,3.896,0.155l1.496-0.55c1.247,2.017,3.783,2.948,6.093,2.102
		c0.943-0.348,1.906-0.684,2.884-1.008l3.853,10.467c0.968,2.636,3.901,3.991,6.536,3.021l2.548-0.938
		c2.636-0.968,3.993-3.902,3.021-6.538c-0.656-1.787-2.255-3.039-4.104-3.289l-2.001-5.438c11.18-2.467,22.595-2.95,33.951-1.444
		c0.637,0.085,1.268,0.012,1.844-0.201c0.649-0.237,1.229-0.649,1.679-1.214c0.855-1.066,1.082-2.468,0.612-3.749l-9.55-25.963
		c2.909,0.023,5.536,1.87,6.539,4.601c0.726,1.977,0.533,4.154-0.533,5.977c-0.137,0.231-0.175,0.511-0.104,0.771
		c0.067,0.266,0.234,0.484,0.472,0.623c0.262,0.153,0.579,0.182,0.866,0.074c0.22-0.08,0.407-0.236,0.524-0.439
		c0,0,0.002-0.002,0-0.003c0.662-1.125,1.077-2.405,1.202-3.705c0.134-1.36-0.039-2.709-0.516-3.999
		C-32.86,63.152-33.406,62.219-34.105,61.402L-34.105,61.402z M-65.274,102.28c0.582,1.58-0.231,3.342-1.813,3.922l-2.548,0.938
		c-1.582,0.582-3.342-0.231-3.922-1.813l-3.821-10.385c0.193-0.059,0.385-0.119,0.577-0.178c0.18-0.054,0.355-0.106,0.533-0.159
		c0.323-0.099,0.649-0.191,0.976-0.284c0.162-0.046,0.326-0.092,0.49-0.138c0.315-0.09,0.634-0.178,0.949-0.264
		c0.186-0.05,0.37-0.1,0.555-0.147c0.284-0.074,0.566-0.146,0.853-0.22c0.222-0.057,0.444-0.112,0.671-0.168
		c0.104-0.025,0.206-0.051,0.311-0.074l2.315,6.302c0.147,0.404,0.537,0.671,0.97,0.666
		C-66.889,100.262-65.722,101.067-65.274,102.28L-65.274,102.28z M-33.584,88.714c-0.401,0.504-1.024,0.756-1.667,0.67
		c-11.683-1.552-23.429-1.033-34.927,1.534l-6.564-17.848c-0.191-0.526-0.779-0.8-1.308-0.604c-0.528,0.192-0.798,0.781-0.604,1.309
		l6.478,17.611c-0.076,0.019-0.154,0.038-0.231,0.058l-0.266,0.065c-0.948,0.238-1.892,0.489-2.832,0.755l-0.073,0.021
		c-0.947,0.268-1.894,0.549-2.832,0.846c-0.086,0.027-0.17,0.053-0.254,0.081c-0.118,0.036-0.233,0.071-0.351,0.11
		c-0.016,0.004-0.032,0.012-0.05,0.018c-1.303,0.419-2.591,0.859-3.845,1.32c-1.579,0.581-3.34-0.232-3.922-1.813l-5.625-15.295
		c-0.582-1.582,0.229-3.341,1.813-3.923c3.236-1.189,6.452-2.566,9.557-4.093c0.257-0.127,0.488-0.07,0.604-0.021
		c0.193,0.077,0.35,0.234,0.423,0.435c0.192,0.528,0.778,0.8,1.307,0.604c0.528-0.193,0.801-0.778,0.604-1.308l0,0
		c-0.03-0.085-0.065-0.168-0.105-0.251c-0.011-0.052-0.023-0.103-0.045-0.154c-0.125-0.347,0.023-0.739,0.353-0.916
		c10.229-5.48,20.748-11.64,27.111-21.28c0.029-0.041,0.054-0.086,0.075-0.134c0.372-0.803,1.129-0.835,1.353-0.825
		c0.223,0.01,0.975,0.103,1.28,0.932l14.826,40.313c0.008,0.017,0.002-0.002,0.006,0.015C-33.072,87.549-33.18,88.21-33.584,88.714
		L-33.584,88.714z"/>
</g>
<path fill="#22B78A" d="M-170.492,72.719c0,27.061-21.938,48.998-48.999,48.998V23.704
	C-192.432,23.704-170.492,45.644-170.492,72.719z"/>
<path fill="#FFFFFF" d="M-172.013,84.869c-5.538,0.293-11.054,1.034-16.513,2.254l-6.564-17.848c-0.192-0.526-0.78-0.8-1.308-0.604
	c-0.528,0.192-0.798,0.781-0.604,1.309l6.479,17.611c-0.076,0.019-0.154,0.038-0.231,0.058l-0.266,0.065
	c-0.948,0.238-1.893,0.489-2.832,0.754l-0.073,0.021c-0.948,0.268-1.894,0.549-2.832,0.846c-0.086,0.027-0.17,0.053-0.254,0.081
	c-0.118,0.036-0.234,0.071-0.351,0.11c-0.017,0.004-0.032,0.012-0.051,0.018c-1.302,0.419-2.591,0.859-3.844,1.32
	c-1.58,0.581-3.34-0.232-3.922-1.813l-5.625-15.294c-0.582-1.582,0.229-3.341,1.812-3.923c3.237-1.189,6.452-2.566,9.558-4.093
	c0.257-0.127,0.488-0.07,0.604-0.022c0.194,0.078,0.351,0.235,0.423,0.436c0.193,0.528,0.779,0.8,1.308,0.604
	c0.528-0.193,0.801-0.778,0.604-1.308c-0.029-0.085-0.064-0.168-0.104-0.251c-0.011-0.052-0.024-0.103-0.045-0.154
	c-0.125-0.347,0.022-0.739,0.352-0.916c7.21-3.862,14.559-8.068,20.499-13.588c-0.318-0.629-0.649-1.25-0.996-1.861
	c-5.842,5.546-13.221,9.773-20.465,13.654c-0.573,0.308-0.997,0.796-1.239,1.361c-0.618-0.14-1.268-0.063-1.836,0.216
	c-3.05,1.498-6.175,2.837-9.361,4.011c-2.635,0.971-3.991,3.901-3.021,6.538l5.274,14.338l-1.402,0.517
	c-1.581,0.577-3.338-0.235-3.923-1.813l-2.813-7.646c-0.433-1.176-0.113-2.476,0.817-3.32c0.415-0.377,0.447-1.023,0.07-1.438
	c-0.278-0.31-0.718-0.416-1.105-0.272c-0.123,0.045-0.235,0.113-0.334,0.202c-0.741,0.673-1.271,1.549-1.517,2.52
	c-0.254,0.998-0.2,2.041,0.158,3.014l2.812,7.646c0.469,1.277,1.407,2.295,2.642,2.865c1.235,0.57,2.619,0.625,3.896,0.155
	l1.496-0.551c1.247,2.018,3.783,2.949,6.093,2.103c0.943-0.348,1.906-0.685,2.883-1.008l3.854,10.467
	c0.968,2.636,3.9,3.991,6.536,3.021l2.548-0.938c2.636-0.968,3.993-3.902,3.021-6.538c-0.655-1.787-2.254-3.039-4.104-3.289
	l-2.001-5.439c5.034-1.109,10.116-1.797,15.219-2.103C-172.39,86.262-172.192,85.569-172.013,84.869z M-187.499,95.817
	c0.148,0.404,0.537,0.671,0.971,0.666c1.292-0.018,2.459,0.789,2.905,2.002c0.582,1.58-0.23,3.342-1.813,3.922l-2.548,0.938
	c-1.582,0.582-3.343-0.23-3.922-1.813l-3.821-10.385c0.192-0.059,0.385-0.119,0.577-0.179c0.18-0.053,0.354-0.105,0.532-0.158
	c0.323-0.099,0.65-0.191,0.977-0.284c0.162-0.046,0.326-0.092,0.49-0.138c0.314-0.09,0.634-0.178,0.948-0.264
	c0.187-0.05,0.37-0.1,0.556-0.147c0.284-0.074,0.565-0.146,0.852-0.22c0.223-0.057,0.445-0.112,0.671-0.168
	c0.104-0.025,0.206-0.051,0.312-0.074L-187.499,95.817z"/>
<circle fill="none" stroke="#22B78A" stroke-miterlimit="10" cx="-192.485" cy="72.711" r="49.006"/>
<g>
	<polygon fill="#C2C1C1" points="83.313,69.271 62.105,84.369 104.048,81.107 	"/>
	<polygon fill="#A09F9F" points="97.137,81.639 103.954,81.107 83.219,69.271 69.149,79.354 	"/>
</g>
<g>
	<g>
		<g>
			<polygon fill="#313535" points="17.843,66.639 103.971,81.097 119.06,61.052 			"/>
		</g>
		<g>
			<polygon fill="#181919" points="119.06,61.052 17.843,66.639 112.211,70.073 			"/>
		</g>
	</g>
</g>
<polygon fill="#E2E2E2" points="20.728,16.717 17.843,66.639 133.558,60.236 129.807,11 "/>
<path fill="#22B78A" d="M25.308,129.934c-1.734-3.835-3.724-7.194-6.069-9.879l-3.41,1.792l-2.915,1.531l0.001,0.001l-0.264,0.14
	c1.959,4.104,4.351,7.254,6.926,9.996c0.15,0.559,0.421,1.314,0.789,1.295c0.744-0.038,4.799-1.718,5.327-2.047
	c0.365-0.229,1.025-0.794,1.075-1.221C26.817,131.085,25.763,130.309,25.308,129.934z"/>
<path fill="#1D895E" d="M25.692,132.763c0.365-0.229,1.025-0.794,1.075-1.221c0.05-0.458-1.005-1.233-1.46-1.608
	c-1.734-3.835-3.724-7.194-6.069-9.879l-1.305,0.687c2.862,3.542,4.81,6.904,6.262,10.173
	C24.963,131.567,25.438,132.18,25.692,132.763L25.692,132.763z"/>
<g>
	<path fill="#454949" d="M18.071,120.504c0.553,0.779,0.938,1.193,1.833,2.511c0.461-0.096,1.769-0.635,1.334-1.229
		c-0.794-1.093-0.997-2.119-1.313-2.475C19.664,119.016,17.753,120.058,18.071,120.504L18.071,120.504z"/>
	<path fill="#313535" d="M18.071,120.504c0.54,0.764,0.922,1.177,1.774,2.427c0.414-0.121,1.083-0.388,0.98-0.541
		c-0.47-0.726-1.203-2.364-1.558-3.005C18.646,119.635,17.858,120.203,18.071,120.504L18.071,120.504z"/>
</g>
<g>
	<path fill="#EAEAEA" d="M26.2,89.752c-2.327,6.478-10.883,13.101-15.029,15.282c-2.319,3.417,2.646,12.856,6.779,12.88
		c4.349-2.289,15.665-5.472,22.068-2.963c-0.021-0.013-0.044-0.028-0.065-0.04c-3.727-1.537-7.752-5.535-10.604-11.008
		C26.704,98.836,25.66,93.645,26.2,89.752L26.2,89.752z"/>
	<path fill="#DEDDDD" d="M39.953,114.911c-0.133-0.055-0.267-0.114-0.401-0.176c-0.03-0.016-0.062-0.029-0.093-0.043
		c-0.105-0.049-0.212-0.102-0.316-0.153c-0.034-0.018-0.064-0.034-0.101-0.051c-0.108-0.057-0.22-0.115-0.329-0.176
		c-0.025-0.014-0.051-0.026-0.075-0.04c-0.417-0.233-0.839-0.493-1.258-0.783c-0.015-0.009-0.027-0.021-0.042-0.028
		c-0.127-0.088-0.253-0.178-0.379-0.27c-0.018-0.014-0.034-0.026-0.052-0.038c-0.134-0.101-0.267-0.2-0.399-0.303
		c-0.003-0.006-0.008-0.009-0.013-0.012c-0.285-0.224-0.57-0.459-0.854-0.707c-0.003-0.003-0.007-0.006-0.01-0.009
		c-0.132-0.115-0.264-0.232-0.396-0.354c-0.02-0.019-0.037-0.034-0.057-0.054c-0.121-0.11-0.241-0.226-0.361-0.342
		c-0.019-0.017-0.033-0.032-0.05-0.048c-0.412-0.399-0.818-0.826-1.22-1.275c-0.013-0.015-0.026-0.029-0.04-0.044
		c-0.118-0.136-0.237-0.272-0.356-0.412c-1.39-1.633-2.688-3.549-3.805-5.691c-0.155-0.3-0.307-0.599-0.451-0.9
		c-0.921-1.904-1.619-3.816-2.089-5.659c-4.79,4.641-9.999,8.571-15.593,11.878c0.372,1.275,0.821,2.437,1.331,3.467
		c-0.002,0.002-0.003,0.002-0.005,0.002c0.352,0.837,0.937,1.782,1.646,2.639l0,0c0.004,0.007,0.01,0.012,0.016,0.02
		c0.062,0.07,0.121,0.145,0.185,0.216c0.003,0.002,0.006,0.005,0.008,0.009c0.066,0.076,0.137,0.152,0.206,0.228
		c0.01,0.013,0.021,0.021,0.03,0.034c0.058,0.06,0.112,0.119,0.17,0.179c0.021,0.02,0.043,0.041,0.063,0.062
		c0.05,0.05,0.099,0.098,0.147,0.146c0.021,0.021,0.047,0.045,0.068,0.066c0.05,0.046,0.099,0.091,0.147,0.136
		c0.021,0.021,0.046,0.042,0.067,0.063c0.061,0.053,0.119,0.104,0.181,0.155c0.012,0.011,0.024,0.022,0.037,0.031
		c0.071,0.061,0.144,0.117,0.216,0.175c0.023,0.02,0.049,0.039,0.072,0.055c0.05,0.038,0.099,0.077,0.147,0.111
		c0.03,0.021,0.06,0.043,0.089,0.063c0.046,0.033,0.09,0.064,0.136,0.093c0.03,0.022,0.063,0.042,0.095,0.063
		c0.045,0.03,0.092,0.058,0.138,0.086c0.029,0.018,0.059,0.035,0.089,0.053c0.058,0.034,0.115,0.066,0.175,0.097
		c0.019,0.013,0.036,0.021,0.057,0.031c0.07,0.038,0.145,0.073,0.218,0.107c0.027,0.012,0.055,0.022,0.083,0.035
		c0.049,0.021,0.098,0.042,0.146,0.062c0.029,0.012,0.062,0.023,0.093,0.034c0.047,0.018,0.094,0.035,0.14,0.05
		c0.03,0.009,0.061,0.02,0.091,0.027c0.05,0.016,0.101,0.026,0.15,0.041c0.025,0.006,0.052,0.014,0.078,0.02
		c0.075,0.018,0.149,0.032,0.227,0.043c4.349-2.289,15.665-5.472,22.068-2.963C39.997,114.938,39.975,114.923,39.953,114.911z"/>
</g>
<g>
	<path fill="#FFFFFF" d="M5.337,122.109c-4.085-0.339-6.548-5.615-4.729-9.397c0.049,1.54,0.496,3.415,1.453,5.231
		C2.996,119.719,4.169,121.168,5.337,122.109L5.337,122.109z"/>
	<path fill="#EAEAEA" d="M2.282,120.743c0.097,0.088,0.198,0.171,0.301,0.254c0.037,0.028,0.073,0.06,0.109,0.087
		c0.141,0.105,0.284,0.203,0.433,0.293c0.041,0.025,0.082,0.045,0.123,0.068c0.112,0.064,0.227,0.127,0.343,0.183
		c0.059,0.028,0.115,0.054,0.176,0.078c0.104,0.046,0.212,0.089,0.318,0.127c0.063,0.022,0.127,0.044,0.189,0.063
		c0.115,0.036,0.23,0.065,0.35,0.093c0.059,0.015,0.114,0.03,0.174,0.042c0.177,0.034,0.355,0.063,0.539,0.078
		c-1.168-0.941-2.341-2.391-3.275-4.166c-0.103-0.192-0.196-0.386-0.287-0.58c-0.027-0.061-0.052-0.118-0.078-0.179
		c-0.058-0.127-0.115-0.257-0.167-0.385c-0.451-1.1-0.729-2.191-0.85-3.188H0.677c-0.427,1.969-0.123,4.048,0.771,6.219
		c0.169,0.227,0.354,0.434,0.547,0.632c0.003,0.005,0.004,0.013,0.006,0.018c0.046,0.046,0.097,0.089,0.144,0.134
		C2.189,120.657,2.235,120.701,2.282,120.743z"/>
	<path fill="#DEDDDD" d="M5.337,122.109c-1.086-0.091-2.055-0.53-2.86-1.195c0.461-0.037,0.938-0.109,1.424-0.224
		C4.366,121.24,4.852,121.719,5.337,122.109L5.337,122.109z"/>
</g>
<g>
	<g>
		<path fill="#1D895E" d="M1.717,109.38c1.437-0.754,8.235-4.226,9.308-4.79c0.374-0.196,0.805-0.253,1.267-0.185
			c-0.369,0.221-0.743,0.43-1.119,0.629c-2.319,3.417,2.646,12.856,6.779,12.88c0.375-0.196,0.76-0.386,1.151-0.566
			c-0.208,0.422-0.496,0.742-0.87,0.938c-1.07,0.563-8.235,4.229-9.308,4.792c-1.801,0.947-4.874-1.352-6.863-5.135
			C0.071,114.162,0.282,110.135,1.717,109.38L1.717,109.38z"/>
		<path fill="#22B78A" d="M5.114,107.629c2.415-1.239,5.25-2.691,5.909-3.039c0.374-0.196,0.805-0.253,1.267-0.185
			c-0.369,0.221-0.743,0.43-1.119,0.629c-2.319,3.417,2.646,12.856,6.779,12.88c0.375-0.196,0.76-0.386,1.151-0.566
			c-0.208,0.422-0.496,0.742-0.87,0.938c-1.07,0.563-8.235,4.229-9.308,4.792c-1.124,0.591-2.742-0.083-4.285-1.592l0,0
			c-2.842-4.257-3.68-8.459-2.909-11.42L5.114,107.629z"/>
		<path fill="#1D895E" d="M17.95,117.914c-0.08,0-0.159-0.006-0.239-0.013c-0.025-0.002-0.054-0.007-0.08-0.01
			c-0.053-0.008-0.105-0.014-0.159-0.023c-0.032-0.005-0.065-0.012-0.097-0.019c-0.05-0.011-0.098-0.021-0.146-0.032
			c-0.034-0.009-0.066-0.02-0.102-0.027c-0.048-0.014-0.096-0.027-0.143-0.044c-0.034-0.011-0.069-0.021-0.104-0.035
			c-0.047-0.018-0.095-0.035-0.143-0.055c-0.034-0.014-0.067-0.027-0.103-0.042c-0.05-0.021-0.097-0.044-0.146-0.067
			c-0.032-0.015-0.064-0.028-0.097-0.046c-0.055-0.026-0.107-0.057-0.161-0.085c-0.027-0.015-0.056-0.03-0.082-0.046
			c-0.081-0.045-0.161-0.093-0.241-0.145c-0.003-0.002-0.008-0.007-0.014-0.01c-0.075-0.049-0.151-0.1-0.229-0.151
			c-0.024-0.02-0.052-0.038-0.077-0.059c-0.055-0.04-0.108-0.079-0.163-0.121c-0.029-0.021-0.059-0.046-0.088-0.067
			c-0.051-0.041-0.102-0.081-0.15-0.124c-0.03-0.025-0.063-0.05-0.091-0.076c-0.051-0.042-0.102-0.088-0.15-0.132
			c-0.028-0.025-0.056-0.052-0.085-0.077c-0.052-0.048-0.104-0.098-0.156-0.148c-0.024-0.022-0.051-0.048-0.076-0.072
			c-0.058-0.057-0.113-0.114-0.172-0.176c-0.019-0.019-0.037-0.036-0.056-0.056c-0.074-0.077-0.146-0.156-0.219-0.236
			c-0.003-0.002-0.006-0.004-0.008-0.007c-0.077-0.088-0.154-0.177-0.232-0.268h-0.001c-0.962-1.136-1.81-2.55-2.411-3.998
			l-1.063-0.327l-8.315,4.422c0.516,1.685,1.137,3.078,1.857,4.193l0,0c0.004,0.006,0.008,0.011,0.01,0.015
			c0.076,0.117,0.152,0.23,0.23,0.341c0.005,0.008,0.01,0.015,0.016,0.021c0.166,0.234,0.337,0.455,0.514,0.661
			c0.002,0.003,0.005,0.006,0.007,0.009c0.083,0.097,0.168,0.191,0.254,0.283c0.009,0.009,0.019,0.02,0.028,0.027
			c0.268,0.283,0.546,0.536,0.835,0.761c0.012,0.009,0.022,0.017,0.034,0.024c0.088,0.066,0.176,0.13,0.265,0.191
			c0.011,0.006,0.021,0.013,0.03,0.021c0.197,0.134,0.399,0.253,0.606,0.361c0.014,0.005,0.025,0.012,0.038,0.018
			c0.088,0.046,0.179,0.089,0.27,0.13c0.02,0.009,0.039,0.017,0.059,0.025c0.096,0.041,0.189,0.079,0.285,0.114
			c0.01,0.004,0.02,0.007,0.028,0.011c0.107,0.04,0.217,0.077,0.327,0.108c0.012,0.004,0.023,0.007,0.036,0.012
			c0.095,0.027,0.188,0.052,0.281,0.074c0.03,0.007,0.061,0.015,0.091,0.02c0.08,0.02,0.163,0.035,0.246,0.051
			c0.029,0.006,0.061,0.011,0.09,0.017c0.109,0.019,0.222,0.035,0.333,0.048c1.071-0.563,8.236-4.229,9.308-4.792
			c0.374-0.196,0.662-0.518,0.87-0.938C18.71,117.528,18.325,117.718,17.95,117.914z"/>
		<path fill="#1D895E" d="M11.023,104.59c0.374-0.196,0.805-0.253,1.267-0.185c-0.369,0.221-0.743,0.43-1.119,0.629
			c-2.319,3.417,2.646,12.856,6.779,12.88c0.375-0.196,0.76-0.386,1.151-0.566c-0.208,0.422-0.496,0.742-0.87,0.938
			c-1.801,0.949-4.873-1.351-6.865-5.133C9.377,109.372,9.223,105.537,11.023,104.59L11.023,104.59z"/>
	</g>
</g>
<g>
	<path fill="#1D895E" d="M1.729,110.066l8.278-4.189l0.607,0.782c0.943-0.499,2.07-1.263,2.438-1.586
		c-0.091-1.17,0.569-1.486,0.816-1.688c-0.839-0.965-2.216-1.451-2.931-1.084l-8.102,4.173
		C1.894,106.958,1.258,108.439,1.729,110.066L1.729,110.066z"/>
	<path fill="#22B78A" d="M13.054,105.073c-0.091-1.17,0.569-1.486,0.816-1.688c-0.839-0.965-2.216-1.45-2.931-1.084l-0.745,0.384
		C11.049,102.863,12.168,103.628,13.054,105.073L13.054,105.073z"/>
</g>
<path fill="#22B78A" d="M8.734,122.93l8.136-4.475l-0.255-0.85c0.9-0.525,2.002-1.035,2.483-1.124
	c0.864,0.795,1.057,0.383,1.368,0.313c0.498,1.427,0.388,2.41-0.305,2.773l-8.348,4.388C10.875,124.451,9.784,123.889,8.734,122.93
	L8.734,122.93z"/>
<g>
	<g>
		<path fill="#313535" d="M29.553,84.025c4.571-2.429,11.68,2.722,16.139,11.269c4.458,8.548,4.579,17.259,0.006,19.688
			c-4.57,2.431-11.891-2.529-16.35-11.078C24.89,95.354,24.981,86.457,29.553,84.025L29.553,84.025z"/>
		<path fill="#DEDDDD" d="M29.553,84.025c4.571-2.429,11.892,2.532,16.351,11.079c3.577,6.857,4.227,13.939,1.979,17.728
			c-0.495,0.673-1.103,1.212-1.815,1.592c-4.573,2.431-11.894-2.529-16.352-11.079c-3.577-6.856-4.226-13.938-1.98-17.728
			C28.231,84.946,28.836,84.407,29.553,84.025L29.553,84.025z"/>
	</g>
	<g>
		<path fill="#22B78A" d="M30.474,84.823c4.087-2.174,10.78,2.546,14.948,10.536c4.168,7.993,4.234,16.232,0.147,18.405
			c-4.089,2.172-10.781-2.547-14.951-10.537C26.451,95.234,26.386,86.995,30.474,84.823L30.474,84.823z"/>
		<path fill="#1D895E" d="M38.76,98.672c-3.115-5.975-8.05-9.591-11.242-8.341c-0.163,1.674-0.021,3.6,0.426,5.649c0,0,0,0-0.001,0
			c0.026,0.121,0.055,0.241,0.083,0.362c0.003,0.015,0.007,0.027,0.01,0.041c0.021,0.08,0.039,0.161,0.059,0.241
			c0.017,0.065,0.031,0.131,0.051,0.196c0.016,0.062,0.03,0.124,0.048,0.186c0.021,0.085,0.044,0.168,0.066,0.253
			c0.016,0.056,0.03,0.108,0.046,0.162c0.024,0.093,0.052,0.186,0.078,0.276c0.016,0.053,0.03,0.104,0.047,0.157
			c0.027,0.094,0.057,0.188,0.086,0.283c0.016,0.052,0.032,0.104,0.049,0.156c0.029,0.096,0.06,0.188,0.091,0.284
			c0.019,0.054,0.036,0.107,0.055,0.163c0.03,0.092,0.063,0.184,0.095,0.275c0.02,0.058,0.039,0.114,0.06,0.173
			c0.032,0.09,0.063,0.178,0.097,0.267c0.021,0.063,0.044,0.122,0.066,0.186c0.032,0.084,0.063,0.17,0.096,0.255
			c0.026,0.064,0.051,0.131,0.076,0.195c0.031,0.081,0.063,0.162,0.096,0.243c0.028,0.069,0.057,0.139,0.084,0.207
			c0.031,0.078,0.064,0.155,0.097,0.232c0.029,0.073,0.062,0.146,0.092,0.219c0.031,0.073,0.063,0.146,0.097,0.221
			c0.031,0.076,0.065,0.152,0.1,0.229c0.031,0.071,0.063,0.142,0.097,0.214c0.036,0.078,0.071,0.155,0.106,0.234
			c0.033,0.068,0.065,0.14,0.1,0.209c0.038,0.079,0.074,0.157,0.113,0.237c0.033,0.074,0.071,0.147,0.107,0.222
			c0.037,0.073,0.072,0.147,0.11,0.224c0.074,0.148,0.148,0.295,0.226,0.442c0.146,0.276,0.294,0.552,0.444,0.82
			c0.01,0.02,0.02,0.034,0.029,0.052c0.143,0.254,0.285,0.504,0.434,0.75c0.017,0.025,0.032,0.053,0.048,0.078
			c0.144,0.236,0.287,0.471,0.435,0.698c0.019,0.029,0.038,0.061,0.058,0.089c0.145,0.227,0.292,0.448,0.441,0.667
			c0.019,0.027,0.037,0.057,0.057,0.084c0.152,0.22,0.304,0.436,0.457,0.646c0.018,0.022,0.035,0.046,0.052,0.07
			c0.157,0.215,0.317,0.427,0.479,0.634c0.014,0.018,0.025,0.033,0.037,0.051c0.166,0.212,0.335,0.42,0.503,0.624
			c0.01,0.011,0.019,0.021,0.025,0.03c0.174,0.21,0.35,0.414,0.525,0.612c0.002,0.002,0.004,0.004,0.006,0.007l0,0
			c1.407,1.588,2.894,2.859,4.354,3.74C42.044,111.091,41.95,104.789,38.76,98.672z"/>
	</g>
	<g>
		<g>
			<path fill="#22B78A" d="M28.807,99.034c3.303-0.526,8.902-2.22,10.258-2.933c1.59,0.146,2.934,2.7,2.152,4.094
				c-1.36,0.717-5.969,4.408-8.26,6.833c-0.838-1.159-1.625-2.434-2.339-3.801C29.889,101.825,29.285,100.416,28.807,99.034
				L28.807,99.034z"/>
			<path fill="#313535" d="M31.563,104.903c0.445,0.742,0.911,1.455,1.396,2.125c2.291-2.425,6.898-6.116,8.26-6.833
				c0.048-0.082,0.086-0.171,0.117-0.262L31.563,104.903z"/>
		</g>
		<g>
			<path fill="#1D895E" d="M39.064,96.102c0.75-0.395,1.842,0.202,2.436,1.333s0.468,2.364-0.282,2.761
				c-0.75,0.396-1.84-0.202-2.435-1.332S38.315,96.497,39.064,96.102L39.064,96.102z"/>
			<path fill="#313535" d="M39.55,96.463c0.554-0.289,1.357,0.149,1.798,0.984c0.438,0.834,0.345,1.747-0.207,2.038
				c-0.554,0.292-1.359-0.147-1.8-0.983C38.903,97.668,38.995,96.754,39.55,96.463L39.55,96.463z"/>
			<path fill="#313535" d="M39.816,96.723c0.439-0.231,1.08,0.116,1.431,0.78c0.35,0.664,0.274,1.392-0.166,1.621
				c-0.439,0.232-1.08-0.117-1.429-0.782C39.302,97.68,39.376,96.955,39.816,96.723L39.816,96.723z"/>
		</g>
	</g>
</g>
<path fill="#175E44" d="M20.552,117.069c-0.036-0.09-0.083-0.177-0.133-0.26c-0.285,0.097-0.501,0.426-1.319-0.327
	c-0.481,0.089-1.583,0.599-2.483,1.124l0.255,0.85l-8.136,4.475c0.459,0.419,0.926,0.763,1.384,0.976l7.918-4.04l-0.537-1.069
	l3.063-1.693C20.559,117.092,20.555,117.08,20.552,117.069z"/>
<path fill="#175E44" d="M19.099,116.482c0.611,0.561,1.114,0.4,1.368,0.313c0.531,1.412,0.407,2.401-0.305,2.773l-0.291,0.154
	C20.098,119.329,20.279,118.612,19.099,116.482L19.099,116.482z"/>
<g>
	<g>
		<g>
			<g>
				<g>
					<g>
						<path fill="#22B78A" d="M41.453,78.44c-0.07,0.034-0.133,0.064-0.206,0.092c-0.162,0.056-0.251,0.152-0.353,0.282
							c-0.155,0.195-0.313,0.39-0.471,0.585c-0.154,0.191-0.313,0.386-0.459,0.588c-0.125,0.175-0.274,0.348-0.271,0.571
							c0.002,0.098,0.079,0.174,0.176,0.176c0.199,0.003,0.342-0.11,0.498-0.217c0.205-0.143,0.396-0.3,0.59-0.453
							c0.195-0.157,0.391-0.315,0.586-0.471c0.107-0.086,0.23-0.161,0.303-0.283c0.06-0.102,0.093-0.227,0.146-0.333
							C42.167,78.617,41.814,78.265,41.453,78.44z"/>
					</g>
					<g>
						<path fill="#22B78A" d="M51.335,90.438c0.43-0.235,0.868-0.461,1.319-0.65c0.228-0.096,0.459-0.182,0.692-0.261
							c0.231-0.081,0.479-0.129,0.709-0.22c0.272-0.108,0.462-0.356,0.377-0.664c-0.074-0.273-0.385-0.471-0.664-0.376
							c-0.502,0.165-0.989,0.474-1.438,0.749c-0.472,0.291-0.918,0.617-1.335,0.98C50.748,90.214,51.064,90.586,51.335,90.438z"/>
					</g>
					<g>
						<path fill="#22B78A" d="M57.686,102.999c-0.269,0.047-0.534,0.115-0.8,0.175c-0.266,0.062-0.529,0.127-0.796,0.191
							c-0.286,0.07-0.603,0.126-0.86,0.277c-0.242,0.144-0.213,0.559,0.081,0.623c0.512,0.107,1.106-0.013,1.625-0.06
							c0.494-0.045,1.556,0.031,1.556-0.688C58.491,103.085,58.04,102.938,57.686,102.999z"/>
					</g>
				</g>
			</g>
			<g>
				<path fill="#C2C1C1" d="M51.868,100.335c-0.146-0.157-0.41-0.146-0.557,0c-0.147,0.147-0.158,0.412,0,0.559l0.069,0.065
					c0.077,0.07,0.17,0.115,0.276,0.115c0.104,0,0.203-0.043,0.275-0.115c0.072-0.071,0.115-0.173,0.115-0.275
					c0-0.105-0.043-0.198-0.115-0.276C51.912,100.383,51.892,100.359,51.868,100.335z"/>
			</g>
			<g>
				<g>
					<path fill="#22B78A" d="M36.357,79.947c-0.096-0.146-0.178-0.243-0.328-0.33c-0.084-0.05-0.164-0.085-0.255-0.101
						c-0.157-0.042-0.313-0.042-0.471,0c-0.223,0.062-0.414,0.209-0.529,0.406c-0.201,0.345-0.145,0.794,0.139,1.073
						c0.179,0.179,0.417,0.3,0.676,0.289l0.037-0.001c0.192-0.008,0.283-0.035,0.454-0.122c0.128-0.075,0.229-0.177,0.306-0.306
						c0.028-0.066,0.058-0.137,0.086-0.203c0.041-0.15,0.041-0.302,0-0.452C36.457,80.107,36.407,80.025,36.357,79.947z"/>
					<g>
						<path fill="#22B78A" d="M50.205,86.448c-0.137-0.036-0.271-0.036-0.41,0c-0.197,0.055-0.354,0.184-0.462,0.356
							c0,0-0.002,0.001-0.002,0.004c-0.141,0.225-0.141,0.547,0,0.771c0,0.001,0.002,0.003,0.002,0.003
							c0.069,0.117,0.161,0.209,0.277,0.278c0.179,0.104,0.396,0.133,0.595,0.078c0.331-0.092,0.568-0.401,0.568-0.746
							C50.773,86.85,50.536,86.54,50.205,86.448z"/>
					</g>
					<path fill="#22B78A" d="M47.536,85.396c-0.265,0-0.486,0.222-0.486,0.485c0,0.268,0.223,0.488,0.486,0.488
						c0.266,0,0.487-0.222,0.487-0.488C48.023,85.617,47.802,85.396,47.536,85.396z"/>
					<g>
						<path fill="#22B78A" d="M52.961,97.966c0-0.194-0.078-0.385-0.216-0.522c-0.14-0.137-0.328-0.217-0.524-0.217
							c-0.195,0-0.386,0.08-0.523,0.217c-0.137,0.139-0.217,0.328-0.217,0.522c0,0.195,0.08,0.387,0.217,0.524
							c0.139,0.138,0.328,0.217,0.523,0.217c0.196,0,0.386-0.079,0.524-0.217C52.883,98.352,52.961,98.161,52.961,97.966z"/>
					</g>
					<g>
						<path fill="#22B78A" d="M53.259,112.239c-0.161,0-0.32,0.066-0.438,0.182c-0.115,0.115-0.181,0.276-0.181,0.438
							c0,0.165,0.064,0.323,0.181,0.438c0.116,0.116,0.275,0.183,0.438,0.183c0.166,0,0.324-0.065,0.439-0.183
							c0.116-0.115,0.182-0.273,0.182-0.438c0-0.162-0.064-0.323-0.182-0.438C53.583,112.306,53.425,112.239,53.259,112.239z"/>
					</g>
					<g>
						<path fill="#C2C1C1" d="M37.693,82.111c-0.034-0.018-0.073-0.038-0.107-0.048c-0.048-0.015-0.097-0.015-0.144,0
							c-0.023,0.007-0.05,0.02-0.073,0.03c-0.009,0.004-0.017,0.008-0.025,0.014c-0.084,0.04-0.146,0.128-0.171,0.216
							c-0.052,0.186,0.062,0.384,0.247,0.435c0.153,0.043,0.32-0.024,0.4-0.161c0.048-0.081,0.061-0.183,0.034-0.272
							C37.833,82.24,37.772,82.149,37.693,82.111z"/>
					</g>
					<g>
						<path fill="#C2C1C1" d="M51.645,114.56c-0.031-0.03-0.066-0.052-0.108-0.063c-0.036-0.015-0.072-0.025-0.107-0.039
							c-0.063-0.022-0.14,0.003-0.186,0.048c-0.044,0.045-0.07,0.122-0.048,0.186c0.013,0.037,0.026,0.07,0.039,0.107
							c0.012,0.042,0.033,0.078,0.063,0.107c0.031,0.031,0.067,0.053,0.109,0.063c0.084,0.024,0.176-0.001,0.238-0.063
							c0.062-0.063,0.086-0.154,0.063-0.238C51.695,114.627,51.675,114.59,51.645,114.56z"/>
					</g>
				</g>
			</g>
		</g>
	</g>
	<g>
		<g>
			<g>
				<path fill="#22B78A" d="M32.624,78.548c-0.48-0.532-0.969-1.063-1.469-1.579l-0.792-0.815l-0.313,1.014
					c-0.261,0.848-1.183,4.748-1.242,5.197c0.248-0.379,1.783-3.261,2.003-3.729c0.424,0.533,0.853,1.061,1.296,1.575l0.605,0.703
					c0,0,4.97-7.688,5.273-8.39C37.403,73.021,33.336,77.602,32.624,78.548z"/>
			</g>
			<path fill="#22B78A" d="M32.591,79.92l-1.878-2.229l-1.877,4.505c-0.014,0.072-0.024,0.133-0.028,0.167
				c0.248-0.379,1.783-3.261,2.003-3.729c0.424,0.533,0.853,1.061,1.296,1.575l0.605,0.703c0,0,4.97-7.688,5.273-8.39L32.591,79.92z
				"/>
		</g>
	</g>
	<g>
		<path fill="#C2C1C1" d="M50.285,81.846c-0.279-1.031-0.571-2.06-0.889-3.078l-0.501-1.614L47.8,78.288
			c-0.912,0.947-4.753,5.5-5.135,6.056c0.584-0.337,4.554-3.127,5.156-3.599c0.205,0.989,0.42,1.978,0.661,2.957l0.332,1.339
			c0,0,11.743-6.855,12.618-7.585C60.328,77.726,51.864,81.069,50.285,81.846z"/>
		<path fill="#C2C1C1" d="M49.321,83.642l-0.995-4.213l-5.509,4.712c-0.067,0.088-0.123,0.159-0.152,0.202
			c0.584-0.337,4.554-3.127,5.156-3.599c0.205,0.989,0.42,1.978,0.661,2.957l0.332,1.339c0,0,11.743-6.855,12.618-7.585
			L49.321,83.642z"/>
	</g>
	<g>
		<path fill="#C2C1C1" d="M59.506,109.888c0.515-0.938,1.017-1.88,1.495-2.834l0.758-1.512l-1.575,0.06
			c-1.315,0.049-7.239,0.668-7.899,0.804c0.654,0.162,5.449,0.904,6.211,0.981c-0.539,0.854-1.068,1.715-1.574,2.59l-0.688,1.194
			c0,0,13.217,3.2,14.351,3.282C69.6,113.883,61.183,110.424,59.506,109.888z"/>
		<path fill="#C2C1C1" d="M57.565,110.514l2.205-3.727l-7.237-0.424c-0.108,0.016-0.199,0.03-0.25,0.041
			c0.654,0.162,5.449,0.904,6.211,0.98c-0.539,0.855-1.068,1.716-1.574,2.591l-0.688,1.194c0,0,13.217,3.2,14.351,3.282
			L57.565,110.514z"/>
	</g>
	<g>
		<g>
			<g>
				<path fill="#22B78A" d="M58.41,95.969c-0.059-1.123-0.131-2.247-0.229-3.37l-0.157-1.774l-1.382,0.925
					c-1.152,0.773-6.124,4.611-6.643,5.099c0.677-0.217,5.392-2.207,6.117-2.562c-0.01,1.066-0.008,2.132,0.022,3.196l0.044,1.454
					c0,0,13.631-4.452,14.694-5.008C69.678,93.961,60.21,95.522,58.41,95.969z"/>
			</g>
			<g>
				<path fill="#22B78A" d="M57.016,97.607l-0.086-4.564l-6.729,3.63c-0.088,0.074-0.162,0.138-0.201,0.175
					c0.677-0.217,5.392-2.207,6.117-2.562c-0.01,1.066-0.008,2.132,0.022,3.196l0.044,1.454c0,0,13.631-4.452,14.694-5.009
					L57.016,97.607z"/>
			</g>
		</g>
	</g>
</g>
<g>
	<g>
		<path fill="#313535" d="M179.418,34.208l-0.429,2.945l-1.968-0.168l2-12.729l2.599-0.262l2.229,13.567l-1.985-0.166l-0.473-3.106
			L179.418,34.208z M180.341,27.135l-0.647,5.173l1.398,0.021L180.341,27.135z"/>
		<path fill="#313535" d="M187.141,23.418l2.594,9.744l-0.087-10.004l1.89-0.197l0.13,15.245l-2.028-0.166l-2.684-9.43l0.083,9.217
			l-1.89-0.156l-0.13-14.033L187.141,23.418z"/>
		<path fill="#313535" d="M194.958,22.602l2.594,10.713l-0.087-10.979l1.891-0.202l0.13,16.697l-2.029-0.159l-2.683-10.354
			l0.083,10.146l-1.891-0.151l-0.13-15.486L194.958,22.602z"/>
		<path fill="#313535" d="M203.641,21.462c0.833-0.093,1.544,0.243,2.134,1.017c0.589,0.785,0.888,1.773,0.896,2.963l0.071,9.848
			c0.009,1.201-0.277,2.205-0.858,3.004c-0.579,0.789-1.283,1.148-2.109,1.083c-0.833-0.065-1.542-0.526-2.127-1.371
			c-0.586-0.836-0.884-1.809-0.893-2.927l-0.07-9.24c-0.009-1.125,0.277-2.105,0.857-2.952
			C202.121,22.028,202.821,21.551,203.641,21.462z M204.701,25.516c-0.003-0.423-0.111-0.773-0.323-1.054
			c-0.212-0.277-0.469-0.402-0.769-0.379c-0.3,0.024-0.555,0.19-0.767,0.498c-0.212,0.309-0.314,0.666-0.313,1.079l0.07,9.455
			c0.004,0.414,0.111,0.771,0.329,1.069c0.215,0.302,0.473,0.461,0.771,0.477s0.554-0.12,0.762-0.405
			c0.207-0.285,0.312-0.642,0.308-1.063L204.701,25.516z"/>
		<path fill="#313535" d="M211.061,39.932c-0.833-0.065-1.542-0.551-2.128-1.446c-0.586-0.888-0.884-1.932-0.893-3.138
			l-0.101-14.133l1.85-0.201l0.102,14.365c0.003,0.446,0.11,0.83,0.327,1.151c0.216,0.323,0.474,0.493,0.772,0.509
			c0.3,0.016,0.554-0.133,0.762-0.44c0.207-0.31,0.312-0.692,0.309-1.147l-0.102-14.678l1.97-0.219l0.101,14.99
			c0.009,1.302-0.277,2.379-0.858,3.228C212.591,39.611,211.887,39.995,211.061,39.932z"/>
		<path fill="#313535" d="M217.35,20.156l2.594,13.491l-0.087-13.775l1.889-0.215l0.13,20.858l-2.027-0.146l-2.684-13.003
			l0.083,12.813l-1.89-0.14l-0.13-19.646L217.35,20.156z"/>
		<path fill="#313535" d="M226.175,41.099c-0.833-0.063-1.545-0.611-2.134-1.643c-0.589-1.021-0.888-2.224-0.896-3.615l-0.07-11.51
			c-0.009-1.4,0.277-2.619,0.857-3.664c0.581-1.054,1.283-1.631,2.109-1.727c0.834-0.1,1.543,0.328,2.129,1.294
			c0.585,0.975,0.884,2.198,0.893,3.661l0.015,2.531l-1.959,0.104l-0.016-2.56c-0.003-0.522-0.112-0.963-0.328-1.314
			c-0.215-0.353-0.474-0.514-0.772-0.487c-0.299,0.027-0.554,0.232-0.762,0.617c-0.208,0.384-0.311,0.831-0.308,1.344l0.07,11.731
			c0.003,0.515,0.111,0.955,0.323,1.322c0.212,0.368,0.468,0.56,0.768,0.572c0.301,0.014,0.557-0.155,0.768-0.513
			c0.212-0.355,0.314-0.797,0.313-1.321l-0.019-3.017l1.959,0.004l0.019,3.104c0.01,1.477-0.276,2.714-0.857,3.704
			C227.694,40.701,226.995,41.158,226.175,41.099z"/>
		<path fill="#313535" d="M230.462,41.12l-0.13-22.453l5.379-0.632l0.021,3.549l-3.489,0.313l0.035,6.218l2.55-0.1l0.021,3.526
			l-2.551,0.027l0.035,6.223l3.489,0.141l0.02,3.557L230.462,41.12z"/>
		<path fill="#313535" d="M239.028,41.703l-1.889-0.126l-0.131-23.694l2.711-0.322l1.854,17.398l1.598-17.813l2.604-0.314
			l0.13,25.323l-1.89-0.122l-0.082-15.7l-1.558,15.593l-1.52-0.101l-1.911-15.198L239.028,41.703z"/>
		<path fill="#313535" d="M247.206,42.236l-0.13-25.564l5.379-0.658l0.021,4.02l-3.489,0.331l0.035,7.065l2.55-0.112l0.021,3.999
			l-2.55,0.04l0.035,7.07l3.489,0.122l0.02,4.028L247.206,42.236z"/>
		<path fill="#313535" d="M255.876,15.589l2.593,18.274l-0.087-18.586l1.891-0.237l0.13,28.018l-2.029-0.123l-2.682-17.558
			l0.083,17.396l-1.891-0.116l-0.13-26.806L255.876,15.589z"/>
		<path fill="#313535" d="M263.6,18.976l-2.011,0.198l-0.02-4.276l5.897-0.75l0.021,4.442l-1.999,0.2l0.11,24.574l-1.891-0.113
			L263.6,18.976z"/>
	</g>
</g>
<g>
	<g>
		<path fill="#313535" d="M150.377-52.792l-0.429,2.945l-1.968-0.168l2-12.729l2.599-0.262l2.229,13.567l-1.985-0.166l-0.473-3.106
			L150.377-52.792z M151.3-59.865l-0.647,5.173l1.398,0.021L151.3-59.865z"/>
		<path fill="#313535" d="M158.1-63.582l2.594,9.744l-0.087-10.004l1.89-0.197l0.13,15.245l-2.028-0.166l-2.684-9.43l0.083,9.217
			l-1.89-0.156l-0.13-14.033L158.1-63.582z"/>
		<path fill="#313535" d="M165.917-64.398l2.594,10.713l-0.087-10.979l1.891-0.202l0.13,16.697l-2.029-0.159l-2.683-10.354
			l0.083,10.146l-1.891-0.151l-0.13-15.486L165.917-64.398z"/>
		<path fill="#313535" d="M174.6-65.538c0.833-0.093,1.544,0.243,2.134,1.017c0.589,0.785,0.888,1.773,0.896,2.963l0.071,9.848
			c0.009,1.201-0.277,2.205-0.858,3.004c-0.579,0.789-1.283,1.148-2.109,1.083c-0.833-0.064-1.542-0.526-2.127-1.371
			c-0.586-0.836-0.884-1.809-0.893-2.927l-0.07-9.24c-0.009-1.125,0.277-2.105,0.857-2.952
			C173.08-64.972,173.78-65.449,174.6-65.538z M175.66-61.484c-0.003-0.423-0.111-0.773-0.323-1.054
			c-0.212-0.277-0.469-0.402-0.769-0.379c-0.3,0.024-0.555,0.19-0.767,0.498c-0.212,0.309-0.314,0.666-0.313,1.079l0.07,9.456
			c0.004,0.413,0.111,0.771,0.329,1.068c0.215,0.302,0.473,0.461,0.771,0.477s0.554-0.12,0.762-0.405
			c0.207-0.285,0.312-0.642,0.308-1.063L175.66-61.484z"/>
		<path fill="#313535" d="M182.02-47.068c-0.833-0.065-1.542-0.551-2.128-1.446c-0.586-0.888-0.884-1.932-0.893-3.138l-0.101-14.133
			l1.85-0.201l0.102,14.365c0.003,0.446,0.11,0.83,0.328,1.151c0.215,0.323,0.473,0.493,0.771,0.509
			c0.3,0.016,0.554-0.133,0.762-0.44c0.207-0.31,0.312-0.692,0.309-1.147l-0.102-14.678l1.97-0.219l0.101,14.99
			c0.009,1.302-0.277,2.379-0.858,3.228C183.55-47.389,182.846-47.005,182.02-47.068z"/>
		<path fill="#313535" d="M188.309-66.844l2.594,13.491l-0.087-13.775l1.889-0.215l0.13,20.858l-2.027-0.146l-2.684-13.003
			l0.083,12.813l-1.89-0.14l-0.13-19.646L188.309-66.844z"/>
		<path fill="#313535" d="M197.134-45.901c-0.833-0.063-1.545-0.611-2.134-1.643c-0.589-1.021-0.888-2.224-0.896-3.615l-0.07-11.51
			c-0.009-1.4,0.277-2.619,0.857-3.664c0.581-1.054,1.283-1.631,2.109-1.727c0.834-0.1,1.543,0.328,2.129,1.294
			c0.585,0.975,0.884,2.198,0.893,3.661l0.015,2.531l-1.959,0.104l-0.016-2.56c-0.003-0.522-0.112-0.963-0.328-1.314
			c-0.215-0.353-0.474-0.514-0.772-0.487c-0.299,0.027-0.554,0.232-0.762,0.617c-0.208,0.384-0.311,0.831-0.308,1.344l0.07,11.731
			c0.003,0.515,0.111,0.955,0.323,1.322c0.212,0.368,0.468,0.56,0.769,0.572c0.3,0.014,0.556-0.155,0.767-0.513
			c0.212-0.355,0.314-0.797,0.313-1.321l-0.019-3.017l1.959,0.004l0.019,3.104c0.01,1.477-0.276,2.714-0.857,3.704
			C198.653-46.299,197.954-45.842,197.134-45.901z"/>
		<path fill="#313535" d="M201.421-45.88l-0.13-22.453l5.379-0.632l0.021,3.549l-3.489,0.313l0.035,6.218l2.55-0.1l0.021,3.526
			l-2.551,0.027l0.035,6.223l3.489,0.141l0.02,3.557L201.421-45.88z"/>
		<path fill="#313535" d="M209.987-45.297l-1.889-0.126l-0.131-23.694l2.712-0.322l1.854,17.398l1.598-17.813l2.604-0.314
			l0.13,25.323l-1.89-0.122l-0.082-15.7l-1.558,15.593l-1.52-0.101l-1.911-15.198L209.987-45.297z"/>
		<path fill="#313535" d="M218.165-44.764l-0.13-25.564l5.379-0.658l0.021,4.02l-3.489,0.331l0.035,7.065l2.55-0.112l0.021,3.999
			l-2.55,0.04l0.035,7.07l3.489,0.122l0.02,4.028L218.165-44.764z"/>
		<path fill="#313535" d="M226.835-71.411l2.594,18.274l-0.088-18.586l1.891-0.237l0.13,28.018l-2.029-0.123l-2.682-17.558
			l0.083,17.396l-1.891-0.116l-0.13-26.806L226.835-71.411z"/>
		<path fill="#313535" d="M234.559-68.024l-2.011,0.198l-0.02-4.276l5.897-0.75l0.021,4.442l-1.999,0.2l0.11,24.574l-1.891-0.113
			L234.559-68.024z"/>
	</g>
</g>
<g>
	<g>
		<path fill="#313535" d="M16.918-54.96l-0.449,2.484l-1.925-0.09l2.083-10.776l2.543-0.118l2.054,11.206l-1.942-0.09l-0.434-2.567
			L16.918-54.96z M17.888-60.884l-0.685,4.326l1.369,0.017L17.888-60.884z"/>
		<path fill="#313535" d="M24.57-63.721l2.453,7.852v-7.967l1.849-0.086v12.026l-1.985-0.094l-2.542-7.549v7.432l-1.849-0.087
			v-11.431L24.57-63.721z"/>
		<path fill="#313535" d="M32.218-64.08l2.453,8.333v-8.446l1.848-0.088v12.742l-1.984-0.093l-2.542-8.007v7.888l-1.85-0.086
			v-12.145L32.218-64.08z"/>
		<path fill="#313535" d="M40.714-64.635c0.814-0.039,1.508,0.238,2.078,0.836c0.569,0.604,0.855,1.348,0.855,2.231v7.313
			c0,0.891-0.287,1.637-0.86,2.235c-0.573,0.594-1.266,0.87-2.073,0.832c-0.814-0.039-1.506-0.376-2.073-1.008
			c-0.566-0.626-0.851-1.361-0.851-2.209v-7.015c0-0.854,0.287-1.591,0.859-2.214C39.224-64.26,39.913-64.595,40.714-64.635z
			 M41.721-61.56c0-0.315-0.103-0.582-0.309-0.797c-0.205-0.216-0.454-0.316-0.748-0.307c-0.293,0.011-0.544,0.127-0.753,0.354
			c-0.209,0.225-0.313,0.493-0.313,0.804v7.128c0,0.313,0.104,0.581,0.313,0.806c0.209,0.226,0.46,0.344,0.753,0.354
			c0.294,0.01,0.543-0.092,0.748-0.307c0.206-0.215,0.309-0.48,0.309-0.799V-61.56z"/>
		<path fill="#313535" d="M47.844-50.855c-0.814-0.039-1.506-0.389-2.073-1.042c-0.566-0.65-0.851-1.42-0.851-2.313v-10.452
			l1.81-0.084v10.563c0,0.327,0.104,0.607,0.313,0.846c0.209,0.236,0.46,0.36,0.753,0.37c0.294,0.01,0.543-0.099,0.748-0.324
			c0.206-0.227,0.309-0.506,0.309-0.838v-10.716l1.927-0.09v10.875c0,0.943-0.286,1.726-0.86,2.346
			C49.344-51.102,48.652-50.816,47.844-50.855z"/>
		<path fill="#313535" d="M54.124-65.103l2.453,9.709v-9.824l1.848-0.086v14.79l-1.985-0.093l-2.542-9.318v9.199l-1.849-0.086
			v-14.195L54.124-65.103z"/>
		<path fill="#313535" d="M62.63-50.125c-0.814-0.039-1.508-0.423-2.078-1.146c-0.57-0.719-0.855-1.566-0.855-2.55v-8.133
			c0-0.989,0.287-1.844,0.86-2.563c0.574-0.724,1.265-1.105,2.073-1.145c0.814-0.039,1.507,0.286,2.073,0.979
			c0.566,0.699,0.852,1.559,0.852,2.578v1.763l-1.917,0.028v-1.791c0-0.366-0.104-0.676-0.313-0.93
			c-0.208-0.252-0.459-0.373-0.754-0.362c-0.293,0.01-0.543,0.146-0.747,0.411c-0.205,0.263-0.309,0.573-0.309,0.936v8.249
			c0,0.36,0.104,0.67,0.309,0.929c0.204,0.262,0.454,0.396,0.747,0.404c0.295,0.01,0.546-0.108,0.754-0.358
			c0.209-0.248,0.313-0.555,0.313-0.921v-2.106l1.917,0.022v2.157c0,1.027-0.287,1.887-0.861,2.577
			C64.121-50.408,63.431-50.087,62.63-50.125z"/>
		<path fill="#313535" d="M66.827-50.123v-15.576l5.262-0.245v2.435l-3.413,0.111v4.295l2.493-0.019v2.421l-2.493-0.018v4.296
			l3.413,0.111v2.434L66.827-50.123z"/>
		<path fill="#313535" d="M75.207-49.73l-1.85-0.087v-16.188l2.652-0.124l1.723,11.842l1.653-12l2.549-0.119v16.988l-1.849-0.086
			v-10.565l-1.604,10.49l-1.485-0.068l-1.79-10.338L75.207-49.73L75.207-49.73z"/>
		<path fill="#313535" d="M85.173-63.924l-1.966,0.064v-2.593l5.771-0.27v2.673l-1.956,0.064v14.804l-1.849-0.087V-63.924z"/>
		<path fill="#313535" d="M92.324-66.891l2.452,12.107v-12.223l1.849-0.086v18.361l-1.985-0.094l-2.542-11.604v11.486l-1.849-0.087
			v-17.765L92.324-66.891z"/>
		<path fill="#313535" d="M99.861-64.4l-1.966,0.063v-2.8l5.771-0.271v2.883l-1.956,0.063v15.968l-1.85-0.086V-64.4z"/>
	</g>
</g>
<text transform="matrix(0.4915 -0.0288 0.0586 0.9983 21.658 56.6838)" fill="#313535" font-family="'Bebas'" font-size="32.8579">announcement</text>
</svg>
