<?xml version="1.0" encoding="utf-8"?>
<!-- Generator: Adobe Illustrator 16.0.0, SVG Export Plug-In . SVG Version: 6.00 Build 0)  -->
<!DOCTYPE svg PUBLIC "-//W3C//DTD SVG 1.0//EN" "http://www.w3.org/TR/2001/REC-SVG-20010904/DTD/svg10.dtd">
<svg version="1.0" id="Layer_1" xmlns="http://www.w3.org/2000/svg" xmlns:xlink="http://www.w3.org/1999/xlink" x="0px" y="0px"
	 width="434px" height="105.902px" viewBox="0 0 434 105.902" enable-background="new 0 0 434 105.902" xml:space="preserve">
<g>
	<path fill="#17313B" d="M55.73,46.163h9.658v59.739H55.73V46.163z"/>
	<path fill="#17313B" d="M98.978,86.97c0,9.254-7.56,10.099-10.08,10.099c-5.873,0-6.716-5.471-6.716-8.415V65.516h-9.658v22.718
		c0,5.471,1.683,10.517,5.042,13.462c2.938,2.946,6.716,4.207,11.332,4.207c3.363,0,7.56-0.844,10.08-3.367v3.367h9.66V65.516h-9.66
		V86.97z"/>
	<path fill="#17313B" d="M127.528,50.79h-9.658v14.726h-7.133v9.254h7.133v31.133h9.658V74.77h7.137v-9.254h-7.137V50.79z"/>
	<path fill="#17313B" d="M164.898,93.704c-2.098,1.681-5.038,2.944-7.975,2.944c-6.721,0-11.341-5.051-11.341-11.783
		c0-6.73,4.62-11.357,11.341-11.357c2.937,0,5.877,0.841,7.975,2.945l1.26,1.263l6.722-6.313l-1.681-1.259
		c-3.78-3.367-8.818-5.472-14.275-5.472c-11.757,0-20.575,8.836-20.575,20.617c0,11.779,8.818,20.613,20.575,20.613
		c5.457,0,10.495-2.104,14.275-5.471l1.681-1.262l-6.722-6.729L164.898,93.704z"/>
	<path fill="#17313B" d="M206.888,68.88c-2.938-2.941-5.879-4.208-10.496-4.208c-3.36,0-6.719,0.844-9.236,3.368V46.163h-9.661
		v59.739h9.661V83.605c0-9.257,6.295-10.098,8.817-10.098c5.879,0,5.457,5.469,5.457,8.416v23.561h9.659V82.342
		C211.089,76.873,209.827,71.824,206.888,68.88z"/>
	<path fill="#EF4436" d="M156.503,78.56c3.708,0,6.716,3.014,6.716,6.729c0,3.715-3.008,6.731-6.716,6.731
		c-3.712,0-6.72-3.017-6.72-6.731C149.783,81.573,152.791,78.56,156.503,78.56z"/>
	<path fill="#17313B" d="M42.296,91.178c-3.361,3.367-8.402,5.471-13.861,5.471c-10.494,0-18.054-8.415-18.054-19.775
		c0-11.357,7.56-19.771,18.475-19.771c5.038,0,10.079,2.102,13.858,5.886l1.259,1.264l6.298-6.31l-1.262-1.263
		c-5.457-5.469-12.595-8.413-20.153-8.413c-15.954-0.423-27.711,12.2-27.711,28.606c0,16.408,11.757,29.029,27.29,29.029
		c7.557,0,15.117-2.947,20.156-8.413l1.261-1.266l-6.3-6.307L42.296,91.178z"/>
</g>
<g>
	<path fill="#17313B" d="M2.033,4.646C3.21,4.402,4.895,4.268,6.5,4.268c2.487,0,4.093,0.459,5.216,1.484
		c0.909,0.81,1.418,2.052,1.418,3.455c0,2.402-1.498,3.995-3.397,4.643v0.081c1.392,0.486,2.221,1.782,2.648,3.671
		c0.588,2.538,1.017,4.292,1.391,4.994h-2.407c-0.294-0.513-0.695-2.078-1.204-4.346c-0.534-2.511-1.497-3.455-3.61-3.536H4.36
		v7.882H2.033V4.646z M4.36,12.933h2.38c2.488,0,4.066-1.377,4.066-3.455c0-2.349-1.686-3.374-4.146-3.401
		c-1.123,0-1.926,0.107-2.3,0.216V12.933z"/>
	<path fill="#17313B" d="M31.107,14.066H24.1v6.559h7.811v1.971H21.772V4.402h9.736v1.971H24.1v5.749h7.008V14.066z"/>
	<path fill="#17313B" d="M44.479,22.596L38.596,4.402h2.514l2.809,8.962c0.776,2.456,1.444,4.67,1.926,6.802h0.054
		c0.509-2.105,1.258-4.399,2.06-6.774l3.05-8.989h2.487l-6.446,18.193H44.479z"/>
	<path fill="#17313B" d="M63.123,4.402v18.193h-2.327V4.402H63.123z"/>
	<path fill="#17313B" d="M81.872,14.066h-7.008v6.559h7.811v1.971H72.537V4.402h9.736v1.971h-7.409v5.749h7.008V14.066z"/>
	<path fill="#17313B" d="M94.229,22.596L89.654,4.402h2.461l2.14,9.205c0.535,2.267,1.017,4.534,1.338,6.289h0.053
		c0.295-1.809,0.856-3.968,1.472-6.316l2.407-9.178h2.435l2.193,9.231c0.508,2.16,0.989,4.319,1.257,6.235h0.054
		c0.374-1.997,0.883-4.021,1.444-6.289l2.381-9.178h2.38l-5.108,18.193h-2.435l-2.273-9.475c-0.562-2.321-0.937-4.103-1.177-5.938
		h-0.054c-0.321,1.809-0.723,3.59-1.391,5.938l-2.568,9.475H94.229z"/>
	<path fill="#17313B" d="M128.599,14.066h-7.008v6.559h7.811v1.971h-10.138V4.402H129v1.971h-7.409v5.749h7.008V14.066z"/>
	<path fill="#17313B" d="M137.772,4.646c1.417-0.216,3.103-0.378,4.948-0.378c3.344,0,5.725,0.783,7.303,2.268
		c1.604,1.484,2.541,3.59,2.541,6.532c0,2.969-0.91,5.398-2.595,7.072c-1.686,1.7-4.467,2.618-7.972,2.618
		c-1.658,0-3.049-0.081-4.226-0.216V4.646z M140.1,20.733c0.588,0.107,1.444,0.135,2.354,0.135c4.976,0,7.677-2.808,7.677-7.72
		c0.027-4.292-2.381-7.019-7.302-7.019c-1.204,0-2.113,0.108-2.729,0.243V20.733z"/>
	<path fill="#17313B" d="M187.361,13.311c0,6.262-3.771,9.582-8.373,9.582c-4.761,0-8.104-3.725-8.104-9.231
		c0-5.776,3.558-9.556,8.372-9.556C184.178,4.105,187.361,7.912,187.361,13.311z M173.371,13.607c0,3.887,2.087,7.369,5.751,7.369
		c3.691,0,5.778-3.429,5.778-7.559c0-3.617-1.873-7.396-5.751-7.396C175.298,6.022,173.371,9.612,173.371,13.607z"/>
	<path fill="#17313B" d="M195.732,22.596V4.402h2.541l5.777,9.205c1.338,2.132,2.381,4.049,3.236,5.911l0.054-0.027
		c-0.214-2.429-0.268-4.643-0.268-7.477V4.402h2.193v18.193h-2.354l-5.725-9.231c-1.257-2.024-2.461-4.103-3.37-6.073l-0.08,0.026
		c0.134,2.295,0.188,4.481,0.188,7.505v7.773H195.732z"/>
</g>
<g>
	<path fill="#17313B" d="M247.285,67.584h-0.057l-3.211,1.749l-0.482-1.921l4.034-2.18h2.131v18.637h-2.415V67.584z"/>
	<path fill="#17313B" d="M267.539,67.584h-0.057l-3.211,1.749l-0.482-1.921l4.034-2.18h2.131v18.637h-2.415V67.584z"/>
	<path fill="#17313B" d="M294.949,64.803c1.25-0.258,3.04-0.401,4.745-0.401c2.643,0,4.347,0.487,5.54,1.577
		c0.966,0.86,1.506,2.179,1.506,3.67c0,2.552-1.591,4.243-3.608,4.932v0.086c1.478,0.516,2.358,1.892,2.813,3.899
		c0.625,2.694,1.08,4.559,1.478,5.304h-2.557c-0.313-0.545-0.739-2.208-1.278-4.616c-0.568-2.666-1.592-3.67-3.836-3.756h-2.33
		v8.372h-2.472V64.803z M297.421,73.604h2.529c2.642,0,4.318-1.462,4.318-3.67c0-2.494-1.79-3.584-4.404-3.612
		c-1.193,0-2.045,0.115-2.443,0.229V73.604z"/>
	<path fill="#17313B" d="M325.83,74.809h-7.444v6.968h8.297v2.093h-10.769V64.545h10.342v2.093h-7.87v6.107h7.444V74.809z"/>
	<path fill="#17313B" d="M340.031,83.869l-6.251-19.324h2.671l2.983,9.519c0.824,2.609,1.534,4.96,2.046,7.226h0.057
		c0.54-2.236,1.335-4.674,2.188-7.197l3.239-9.547h2.643l-6.848,19.324H340.031z"/>
	<path fill="#17313B" d="M359.83,64.545v19.324h-2.472V64.545H359.83z"/>
	<path fill="#17313B" d="M379.745,74.809h-7.444v6.968h8.297v2.093h-10.769V64.545h10.342v2.093h-7.87v6.107h7.444V74.809z"/>
	<path fill="#17313B" d="M392.866,83.869l-4.858-19.324h2.614l2.273,9.776c0.567,2.409,1.079,4.817,1.42,6.681h0.057
		c0.313-1.921,0.909-4.215,1.563-6.709l2.557-9.748h2.586l2.329,9.806c0.54,2.293,1.052,4.587,1.336,6.623h0.057
		c0.397-2.122,0.938-4.272,1.534-6.681l2.528-9.748h2.529l-5.427,19.324h-2.586l-2.415-10.063c-0.597-2.466-0.994-4.358-1.25-6.308
		h-0.057c-0.341,1.921-0.768,3.813-1.478,6.308l-2.728,10.063H392.866z"/>
	<path fill="#17313B" d="M419.113,80.83c1.108,0.688,2.728,1.262,4.433,1.262c2.528,0,4.006-1.348,4.006-3.298
		c0-1.806-1.023-2.838-3.608-3.842c-3.125-1.118-5.058-2.752-5.058-5.476c0-3.011,2.472-5.247,6.194-5.247
		c1.96,0,3.381,0.459,4.233,0.946l-0.683,2.035c-0.625-0.344-1.903-0.917-3.637-0.917c-2.613,0-3.608,1.576-3.608,2.896
		c0,1.807,1.165,2.695,3.808,3.728c3.239,1.262,4.887,2.838,4.887,5.677c0,2.981-2.188,5.563-6.705,5.563
		c-1.847,0-3.864-0.545-4.887-1.233L419.113,80.83z"/>
</g>
<polygon fill="#EF4436" points="261.48,3.934 266.005,16.814 279.542,17.18 268.805,25.505 272.64,38.612 261.48,30.874 
	250.32,38.612 254.157,25.505 243.418,17.18 256.956,16.814 "/>
<polygon fill="#EF4436" points="299.535,3.934 304.059,16.814 317.597,17.18 306.858,25.505 310.695,38.612 299.535,30.874 
	288.376,38.612 292.211,25.505 281.474,17.18 295.011,16.814 "/>
<polygon fill="#EF4436" points="337.589,3.934 342.114,16.814 355.651,17.18 344.914,25.505 348.749,38.612 337.589,30.874 
	326.43,38.612 330.266,25.505 319.527,17.18 333.065,16.814 "/>
<polygon fill="#EF4436" points="375.645,3.934 380.168,16.814 393.706,17.18 382.968,25.505 386.803,38.612 375.645,30.874 
	364.484,38.612 368.32,25.505 357.581,17.18 371.119,16.814 "/>
<polygon fill="#EF4436" points="413.698,3.934 418.222,16.814 431.761,17.18 421.021,25.505 424.858,38.612 413.698,30.874 
	402.538,38.612 406.375,25.505 395.637,17.18 409.175,16.814 "/>
</svg>
