<?xml version="1.0" encoding="utf-8"?>
<!-- Generator: Adobe Illustrator 16.0.0, SVG Export Plug-In . SVG Version: 6.00 Build 0)  -->
<!DOCTYPE svg PUBLIC "-//W3C//DTD SVG 1.0//EN" "http://www.w3.org/TR/2001/REC-SVG-20010904/DTD/svg10.dtd">
<svg version="1.0" id="Layer_1" xmlns="http://www.w3.org/2000/svg" xmlns:xlink="http://www.w3.org/1999/xlink" x="0px" y="0px"
	 width="103.086px" height="103.236px" viewBox="1107.063 1019.715 103.086 103.236"
	 enable-background="new 1107.063 1019.715 103.086 103.236" xml:space="preserve">
<g>
	<g>
		<g>
			<g>
				<path fill="#0054A5" d="M1198.834,1065.067c-0.784-2.056-2.393-3.891-4.35-5.211c-5.648-3.588-14.257-3.845-20.075-0.603
					c-3.174,1.619-5.26,4.824-5.91,8.119c-1.177,5.419-0.875,11.866,3.3,15.926c4.869,4.268,11.952,5.211,18.252,3.459
					c0.298-0.057,1.248-0.296,1.902-0.644l0.187-0.079c1.955-0.813,3.821-2.138,5.213-3.933
					C1200.569,1077.404,1200.789,1070.359,1198.834,1065.067z M1188.575,1077.233c-0.218,1.026-0.912,2.093-2.001,2.479
					c-1.738,0.765-4.083,0.552-5.691-0.341c-1.348-0.942-1.521-2.52-1.695-4.015c-0.131-2.943-0.345-6.061,0.48-8.755
					c0.646-1.669,2.43-2.096,4.042-2.221c1.693,0,3.342,0.258,4.389,1.624c0.65,0.98,0.609,2.262,0.737,3.415
					C1188.79,1071.853,1189.01,1074.755,1188.575,1077.233z"/>
				<path fill="#0054A5" d="M1137.076,1079.886c-1.435-0.086-3.043,0.039-4.431-0.131l0.041-14.992l0.087-0.124l4.303-0.042
					c0.046-2.433,0.087-5.044-0.045-7.262l-16.38-0.046l-2.698,0.046c-0.041,2.263-0.041,4.907,0,7.216
					c1.479,0.046,2.869,0,4.302,0.133v14.518l-0.042,0.599l-4.301,0.086c-0.092,2.387-0.092,4.697,0,7.046h19.164V1079.886z"/>
				<path fill="#0054A5" d="M1185.313,1090.132c-1.824,2.607-4.128,5.128-6.644,7.087c-0.091,0.131-0.353,0.083-0.436-0.042
					c-1.089-0.681-2.263-1.236-3.308-1.917c1.394-1.665,2.74-3.33,3.783-5.173h-1.35c-1.083,1.586-2.213,3.25-3.648,4.657
					c-1.913-0.768-3.65-1.451-5.605-1.968l-0.216-0.161c0.303-0.863,0.865-1.673,1.039-2.528h-1.173l-1.172,2.308
					c-2.561-0.556-5.388-0.854-7.995-1.025c-0.132-0.382,0.042-0.938-0.132-1.282h-1.129c-0.091,0.515,0.128,0.9-0.132,1.329
					c-2.693,0.124-5.301,0.423-7.821,0.941l-1.177-2.271c-0.432,0-0.912-0.084-1.215,0.045l1.086,2.521l-0.129,0.124
					c-1.959,0.561-3.867,1.246-5.734,2.01l-0.175-0.087c-1.219-1.324-2.392-2.77-3.348-4.223c-0.217-0.729-1.088-0.303-1.563-0.39
					c1.039,1.88,2.433,3.545,3.82,5.256c-1.173,0.685-2.342,1.447-3.564,2.007c-2.605-1.966-5.034-4.528-6.862-7.218
					c-0.523-0.083-0.868-0.045-1.393,0c3.129,4.871,7.999,9.138,13.084,11.658c0,0,0-0.039,0.045-0.039
					c0.037,0,0.125,0.079,0.037,0.125c3.437,1.665,7.087,2.86,10.954,3.376c13.342,1.748,26.076-3.927,33.463-15.12
					C1186.321,1090.087,1185.749,1090.087,1185.313,1090.132z M1167.193,1093.977l0.129-0.087c1.873,0.427,3.651,1.024,5.305,1.835
					c-1.392,1.577-3.175,2.948-4.823,4.099c-1,0.597-2.004,1.243-3.047,1.75l-1.865-0.809l0.129-0.296
					C1164.587,1098.378,1165.979,1096.239,1167.193,1093.977z M1158.632,1092.694c2.478,0.045,4.956,0.302,7.257,0.854l0.045,0.129
					c-1.214,2.304-2.737,4.528-4.391,6.617c-0.739,0.086-1.432-0.207-2.17-0.252l-0.741-0.089
					C1158.545,1097.435,1158.5,1095.215,1158.632,1092.694z M1150.246,1093.461c2.26-0.427,4.605-0.767,7.038-0.767l0.045,7.223
					c-0.916,0.208-1.914,0.208-2.783,0.429c-1.784-2.103-3.259-4.364-4.52-6.714L1150.246,1093.461z M1143.247,1095.77
					c1.699-0.813,3.478-1.414,5.301-1.88l0.178,0.044c1.256,2.351,2.822,4.567,4.386,6.789c-0.605,0.344-1.348,0.551-1.953,0.896
					c-2.867-1.409-5.607-3.376-7.911-5.725V1095.77z M1148.855,1103.072c-3.652-0.943-7.043-2.564-10.171-4.783v-0.133
					c1.043-0.636,2.087-1.318,3.216-1.792c2.479,2.439,5.039,4.275,7.822,6.023
					C1149.505,1102.644,1149.157,1102.901,1148.855,1103.072z M1164.977,1103.625c-4.604,0.986-9.735,1.025-14.341-0.084
					c-0.085-0.212,0.216-0.256,0.349-0.381c4.041-2.606,10.341-2.606,14.298,0.207
					C1165.412,1103.625,1165.063,1103.541,1164.977,1103.625z M1169.149,1102.434l-2.043,0.639c-0.348-0.171-0.65-0.429-0.957-0.685
					l0.087-0.129c2.78-1.619,5.301-3.586,7.693-5.937c1.173,0.468,2.303,1.112,3.348,1.834
					C1174.844,1100.088,1172.019,1101.362,1169.149,1102.434z"/>
				<path fill="#0054A5" d="M1130.428,1054.044c1.044-1.453,2.218-2.86,3.52-4.227c1.128-1.066,2.172-2.092,3.39-2.864
					c1.131,0.728,2.391,1.332,3.477,2.013c-1.347,1.657-2.734,3.33-3.737,5.12c0.302,0.132,0.87,0.091,1.306,0
					c1.085-1.577,2.259-3.16,3.65-4.568c1.864,0.687,3.693,1.408,5.607,1.923l0.17,0.171l-1.085,2.475
					c0.48,0.091,0.783,0.045,1.259,0c0.391-0.723,0.693-1.533,1.128-2.263c2.523,0.56,5.177,0.854,7.871,0.938
					c0.347,0.303,0.086,0.942,0.215,1.325h1.171c0.132-0.421-0.04-0.896,0.132-1.275c2.521-0.133,5.17-0.391,7.611-0.987
					l0.213,0.045l1.173,2.218c0.394,0,0.91,0.091,1.218-0.087l-1.091-2.471l0.091-0.088c1.995-0.515,3.867-1.282,5.778-2.046
					c1.351,1.407,2.606,3.071,3.743,4.691c0.477,0,0.953,0.045,1.301-0.087c-0.523-0.936-1.177-1.872-1.869-2.691
					c-0.568-0.811-1.174-1.531-1.915-2.299v-0.22l3.042-1.749l0.439-0.17c2.648,2.005,4.994,4.438,6.863,7.129
					c0.521,0,0.958,0.178,1.393-0.038c-5.826-8.709-15.431-14.311-25.812-15.116l-0.046,0.084l-0.086-0.084
					c-1.174-0.126-2.612-0.174-3.872-0.05c-0.476-0.037-1.04,0-1.608,0.05c-10.428,0.806-20.03,6.149-26.031,15.241
					C1129.471,1054.044,1129.992,1054.218,1130.428,1054.044z M1148.465,1050.291l-0.174,0.037
					c-1.782-0.466-3.522-1.025-5.174-1.749l0.084-0.256c2.393-2.263,4.912-4.145,7.692-5.594c0.654,0.259,1.307,0.47,1.957,0.773
					l-0.13,0.333C1151.067,1045.891,1149.767,1048.107,1148.465,1050.291z M1157.11,1051.44c-1.214,0.171-2.301-0.038-3.522-0.133
					c-1.169-0.169-2.649-0.296-3.821-0.685c1.259-2.338,2.739-4.604,4.521-6.692l2.78,0.378
					C1157.197,1046.524,1157.11,1049.092,1157.11,1051.44z M1158.458,1051.486c-0.09-2.271-0.042-4.786,0-7.137
					c0.869-0.125,1.822-0.258,2.693-0.382c1.694,2.131,3.349,4.317,4.479,6.655
					C1163.282,1051.184,1160.89,1051.486,1158.458,1051.486z M1172.324,1048.492c-1.698,0.724-3.438,1.408-5.305,1.799
					c-1.347-2.263-2.822-4.526-4.481-6.714c0.609-0.332,1.353-0.589,2.004-0.929c2.83,1.406,5.565,3.412,7.865,5.712
					L1172.324,1048.492z M1166.759,1041.19c3.65,0.942,7.082,2.562,10.212,4.783l-0.087,0.169l-2.996,1.666h-0.22
					c-2.301-2.3-4.994-4.306-7.734-5.891C1166.02,1041.618,1166.456,1041.403,1166.759,1041.19z M1165.021,1040.763v0.088
					c-3.783,2.727-9.909,2.985-13.905,0.466c-0.223-0.172-0.653-0.255-0.7-0.554
					C1155.025,1039.7,1160.455,1039.614,1165.021,1040.763z M1138.51,1046.061c2.739-2.006,5.782-3.499,8.998-4.525
					c0.132-0.132,0.215-0.257,0.389-0.257v0.085c0.349,0.084,0.609-0.302,0.912-0.047c0.262,0.219,0.567,0.389,0.783,0.602
					c-2.693,1.659-5.346,3.627-7.779,6.015c-1.172-0.42-2.258-1.063-3.303-1.79V1046.061z"/>
				<path fill="#0054A5" d="M1157.155,1080.219c-4.087,1.111-8.521,0.266-11.476-2.814c-0.345-0.428-0.563-0.935-0.911-1.363
					l-5.865,0.044c-0.091,3.456-0.132,7.429,0,10.847l6.515-0.041l0.087-2.052c0.742,0.341,1.479,0.769,2.218,1.148
					c4.521,1.882,10.34,2.311,14.815,0c3.262-1.787,5.003-5.246,4.522-8.971c-0.476-3.623-3.953-6.915-7.473-7.808l-10.518-3.034
					l-0.779-0.387c-0.35-0.296-0.568-0.678-0.481-1.149c0.825-1.408,2.741-0.98,4.173-0.944c3.043,0.429,6.172,1.455,7.954,4.231
					c1.911,0,4.128,0.039,6.213-0.045c0.087-3.5-0.038-6.573-0.088-10.118c-1.954-0.046-4.347-0.046-6.3,0.046
					c-0.087,0.507,0.084,1.229-0.132,1.744l-1.998-1.066c-4.781-2.005-11.476-2.218-15.819,0.901
					c-2.826,2.046-3.693,5.723-2.954,8.966c0.563,3.073,3.519,5.335,6.345,6.401c3.867,1.366,7.908,2.354,11.823,3.674
					c0.39,0.174,0.908,0.561,0.825,1.028C1157.852,1079.838,1157.457,1080.057,1157.155,1080.219z"/>
			</g>
			<g>
				<path fill="#0054A5" d="M1116.073,1090.056l0.211,0.488c0.039,0.091-0.011,0.197-0.108,0.24l-6.264,2.704
					c-0.089,0.037-0.194,0.013-0.238-0.087l-0.211-0.487c-0.038-0.093,0-0.194,0.099-0.234l6.265-2.706
					C1115.913,1089.935,1116.032,1089.958,1116.073,1090.056z"/>
				<path fill="#0054A5" d="M1114.219,1084.998l0.148,0.438c0.033,0.103-0.02,0.213-0.122,0.246l-3.027,1.023
					c-0.926,0.313-1.104,0.722-0.87,1.423c0.129,0.385,0.424,0.767,0.775,1.119l3.883-1.31c0.09-0.034,0.211,0.02,0.245,0.121
					l0.152,0.451c0.029,0.09-0.023,0.2-0.125,0.233l-4.688,1.587c-0.102,0.032-0.208-0.013-0.242-0.115l-0.154-0.458
					c-0.034-0.102,0.021-0.203,0.124-0.238l0.175-0.06c-0.458-0.408-0.734-0.774-0.916-1.317c-0.373-1.105,0.147-1.831,1.369-2.247
					l3.028-1.018C1114.071,1084.843,1114.185,1084.896,1114.219,1084.998z"/>
				<path fill="#0054A5" d="M1113.36,1081.377c0.071,0.181,0.151,0.424,0.192,0.602c0.204,0.869,0.079,1.335-0.956,1.585
					l-3.292,0.783l0.113,0.938c0.015,0.107-0.023,0.197-0.129,0.221l-0.254,0.062c-0.103,0.025-0.186-0.036-0.213-0.138
					l-0.219-0.915l-0.923,0.221c-0.095,0.021-0.186-0.028-0.227-0.127l-0.194-0.474c-0.002-0.006-0.002-0.017-0.006-0.024
					c-0.019-0.076,0.032-0.159,0.128-0.182l1.024-0.243l-0.24-1.021c-0.023-0.103,0.04-0.207,0.144-0.232l0.32-0.074
					c0.104-0.027,0.209,0.036,0.235,0.144l0.241,1.019l3.289-0.788c0.519-0.12,0.563-0.271,0.472-0.649l-0.124-0.527
					c-0.03-0.133-0.009-0.207,0.087-0.23l0.33-0.079C1113.244,1081.226,1113.311,1081.258,1113.36,1081.377z"/>
				<path fill="#0054A5" d="M1110.257,1077.017l0.443,3.218l0.136-0.019c1.143-0.159,1.502-0.664,1.38-1.551
					c-0.074-0.558-0.215-1.265-0.339-1.696c-0.004-0.019-0.008-0.031-0.008-0.048c-0.012-0.075,0.014-0.16,0.113-0.171l0.326-0.047
					c0.124-0.018,0.195,0.011,0.245,0.16c0.181,0.533,0.313,1.055,0.404,1.698c0.151,1.104-0.219,2.251-2.004,2.502l-0.867,0.115
					c-1.374,0.194-2.35-0.444-2.542-1.819c-0.193-1.403,0.59-2.235,1.955-2.426l0.519-0.07
					C1110.143,1076.849,1110.238,1076.901,1110.257,1077.017z M1109.618,1077.79c-1.086,0.151-1.449,0.621-1.332,1.467
					c0.113,0.827,0.646,1.224,1.684,1.08l0.087-0.011l-0.352-2.548L1109.618,1077.79z"/>
				<path fill="#0054A5" d="M1107.801,1073.672c0.023,0.447,0.159,0.846,0.474,1.314l4.053-0.211c0.095-0.005,0.197,0.078,0.2,0.184
					l0.026,0.474c0.003,0.099-0.079,0.188-0.185,0.193l-4.931,0.258c-0.106,0.003-0.197-0.068-0.201-0.174l-0.022-0.455
					c-0.007-0.104,0.076-0.188,0.182-0.194l0.204-0.01c-0.363-0.466-0.514-0.904-0.537-1.339c-0.003-0.137,0.049-0.205,0.168-0.213
					l0.393-0.017C1107.729,1073.474,1107.794,1073.538,1107.801,1073.672z"/>
				<path fill="#0054A5" d="M1112.565,1068.626l-0.019,0.465c-0.004,0.105-0.095,0.189-0.201,0.185l-3.183-0.127
					c-0.976-0.038-1.29,0.279-1.315,1.015c-0.02,0.403,0.117,0.864,0.324,1.318l4.08,0.163c0.094,0.004,0.188,0.096,0.186,0.201
					l-0.021,0.473c-0.003,0.1-0.093,0.182-0.201,0.175l-4.93-0.193c-0.104-0.003-0.188-0.087-0.183-0.193l0.017-0.485
					c0.005-0.104,0.095-0.176,0.201-0.172l0.181,0.007c-0.275-0.544-0.404-0.984-0.382-1.555c0.046-1.162,0.791-1.653,2.079-1.602
					l3.176,0.126C1112.486,1068.43,1112.569,1068.52,1112.565,1068.626z"/>
				<path fill="#0054A5" d="M1113.198,1063.885l-0.069,0.443c-0.016,0.106-0.113,0.178-0.22,0.162l-0.211-0.03
					c0.2,0.499,0.332,1.007,0.252,1.545c-0.12,0.813-0.585,1.505-1.78,1.33l-0.119-0.018c-1.032-0.15-1.459-0.833-1.21-2.539
					l0.106-0.708l-0.383-0.058c-0.805-0.116-1.123,0.117-1.233,0.863c-0.093,0.625-0.12,1.09-0.139,1.48
					c-0.005,0.019-0.005,0.026-0.009,0.044c-0.015,0.088-0.057,0.171-0.178,0.152l-0.337-0.05c-0.105-0.015-0.15-0.091-0.15-0.227
					c-0.013-0.406-0.005-0.855,0.095-1.505c0.196-1.329,0.944-1.768,2.076-1.601l3.341,0.494
					C1113.137,1063.681,1113.212,1063.779,1113.198,1063.885z M1110.553,1064.162l-0.106,0.707
					c-0.171,1.158,0.042,1.502,0.724,1.603l0.111,0.017c0.689,0.102,0.92-0.193,1.004-0.749c0.064-0.442-0.012-0.854-0.192-1.351
					L1110.553,1064.162z"/>
				<path fill="#0054A5" d="M1114.049,1060.31c-0.016,0.193-0.057,0.443-0.099,0.623c-0.209,0.867-0.533,1.227-1.57,0.98
					l-3.292-0.782l-0.322,0.89c-0.032,0.102-0.104,0.162-0.21,0.139l-0.254-0.061c-0.106-0.027-0.151-0.117-0.13-0.219l0.221-0.916
					l-0.924-0.219c-0.096-0.023-0.155-0.111-0.147-0.216l0.038-0.508c0.004-0.01,0.008-0.019,0.008-0.029
					c0.019-0.076,0.102-0.126,0.193-0.103l1.028,0.241l0.242-1.017c0.026-0.102,0.132-0.167,0.235-0.144l0.321,0.078
					c0.103,0.024,0.166,0.13,0.144,0.231l-0.242,1.019l3.287,0.786c0.52,0.121,0.628,0.007,0.716-0.371l0.128-0.525
					c0.03-0.132,0.084-0.189,0.178-0.167l0.33,0.08C1114.014,1060.121,1114.061,1060.181,1114.049,1060.31z"/>
				<path fill="#0054A5" d="M1108.619,1056.901l-0.145,0.472c-0.033,0.103-0.141,0.16-0.241,0.13l-0.742-0.228
					c-0.101-0.03-0.159-0.141-0.128-0.242l0.143-0.474c0.035-0.103,0.141-0.158,0.244-0.128l0.74,0.228
					C1108.593,1056.691,1108.648,1056.798,1108.619,1056.901z M1114.515,1058.731l-0.136,0.443
					c-0.031,0.102-0.142,0.159-0.242,0.128l-4.719-1.445c-0.104-0.034-0.159-0.141-0.129-0.242l0.136-0.446
					c0.034-0.103,0.14-0.159,0.243-0.128l4.717,1.449C1114.487,1058.52,1114.548,1058.63,1114.515,1058.731z"/>
				<path fill="#0054A5" d="M1115.706,1055.58c-0.526,1.321-1.665,1.645-2.986,1.12l-0.681-0.269
					c-1.323-0.525-1.925-1.549-1.399-2.868c0.526-1.32,1.669-1.658,2.988-1.131l0.686,0.271
					C1115.634,1053.229,1116.231,1054.259,1115.706,1055.58z M1113.314,1053.223c-0.916-0.367-1.646-0.23-1.982,0.613
					c-0.333,0.836,0.094,1.434,1.021,1.804l0.681,0.27c0.916,0.367,1.646,0.238,1.982-0.604c0.33-0.836-0.095-1.442-1.021-1.81
					L1113.314,1053.223z"/>
				<path fill="#0054A5" d="M1118.669,1049.308l-0.22,0.408c-0.049,0.095-0.171,0.129-0.263,0.079l-2.811-1.506
					c-0.861-0.467-1.281-0.314-1.63,0.334c-0.193,0.359-0.273,0.835-0.287,1.331l3.604,1.934c0.083,0.044,0.129,0.169,0.08,0.263
					l-0.228,0.418c-0.045,0.087-0.162,0.121-0.258,0.073l-4.353-2.34c-0.096-0.048-0.138-0.158-0.084-0.253l0.227-0.427
					c0.053-0.092,0.167-0.123,0.257-0.069l0.162,0.087c-0.01-0.613,0.068-1.066,0.337-1.57c0.55-1.025,1.438-1.143,2.573-0.533
					l2.811,1.506C1118.684,1049.095,1118.717,1049.212,1118.669,1049.308z"/>
				<path fill="#0054A5" d="M1121.283,1045.363l-0.254,0.368c-0.06,0.087-0.182,0.109-0.27,0.049l-0.173-0.117
					c-0.038,0.533-0.145,1.048-0.45,1.494c-0.465,0.683-1.189,1.103-2.188,0.417l-0.095-0.065c-0.862-0.589-0.95-1.389,0.026-2.811
					l0.405-0.59l-0.322-0.221c-0.668-0.457-1.06-0.385-1.485,0.238c-0.355,0.52-0.587,0.925-0.772,1.264
					c-0.012,0.016-0.016,0.023-0.027,0.039c-0.048,0.071-0.125,0.129-0.227,0.057l-0.28-0.188c-0.087-0.062-0.098-0.152-0.037-0.273
					c0.169-0.367,0.374-0.764,0.745-1.31c0.76-1.107,1.623-1.172,2.565-0.525l2.788,1.906
					C1121.32,1045.156,1121.344,1045.277,1121.283,1045.363z M1118.785,1044.452l-0.403,0.591c-0.66,0.964-0.622,1.369-0.054,1.76
					l0.095,0.063c0.575,0.393,0.911,0.228,1.229-0.239c0.254-0.366,0.367-0.768,0.42-1.293L1118.785,1044.452z"/>
				<path fill="#0054A5" d="M1122.574,1043.745l-0.319,0.393c-0.06,0.077-0.174,0.084-0.258,0.016l-5.396-4.32
					c-0.075-0.061-0.102-0.167-0.036-0.25l0.317-0.395c0.061-0.075,0.165-0.086,0.249-0.021l5.396,4.32
					C1122.603,1043.549,1122.638,1043.661,1122.574,1043.745z"/>
				<path fill="#0054A5" d="M1126.8,1039.311c-1.11,1.037-2.523,1.143-3.993-0.425l-0.854-0.911
					c-1.472-1.569-1.275-2.975-0.167-4.014c1.112-1.041,2.52-1.14,3.987,0.431l0.855,0.912
					C1128.097,1036.871,1127.907,1038.27,1126.8,1039.311z M1125.124,1035c-1.112-1.188-2.019-1.188-2.792-0.461
					c-0.773,0.724-0.842,1.639,0.271,2.826l0.853,0.912c1.112,1.185,2.024,1.182,2.804,0.45c0.769-0.719,0.833-1.629-0.28-2.815
					L1125.124,1035z"/>
				<path fill="#0054A5" d="M1128.39,1031.849c-0.356,0.272-0.606,0.609-0.815,1.135l2.464,3.221
					c0.061,0.076,0.049,0.208-0.034,0.272l-0.379,0.286c-0.074,0.061-0.196,0.042-0.265-0.04l-2.997-3.92
					c-0.068-0.084-0.056-0.201,0.027-0.264l0.359-0.277c0.087-0.064,0.201-0.046,0.265,0.041l0.124,0.159
					c0.178-0.561,0.454-0.931,0.804-1.194c0.105-0.085,0.196-0.08,0.265,0.013l0.242,0.315
					C1128.513,1031.679,1128.494,1031.766,1128.39,1031.849z"/>
				<path fill="#0054A5" d="M1132.781,1028.932l-0.256,0.242c0.245,0.063,0.528,0.223,0.813,0.666l0.042,0.063
					c0.571,0.897,0.332,1.749-0.924,2.552c-0.431,0.275-0.754,0.386-1.051,0.438c-0.096,0.155-0.104,0.288-0.027,0.41
					c0.091,0.14,0.201,0.171,0.42,0.098l1.415-0.461c0.927-0.307,1.842-0.568,2.33,0.201l0.043,0.063
					c0.498,0.783,0.283,1.596-1.056,2.447c-1.288,0.825-2.195,0.701-2.703-0.1l-0.048-0.074c-0.292-0.455-0.284-0.988-0.145-1.362
					l-0.075,0.011c-0.334,0.054-0.617-0.143-0.779-0.397l-0.004-0.007c-0.144-0.22-0.186-0.526-0.041-0.802
					c-0.405-0.071-0.716-0.287-0.98-0.704l-0.042-0.067c-0.462-0.727-0.512-1.704,0.893-2.601l1.786-1.138
					c0.099-0.062,0.238-0.038,0.303,0.061l0.132,0.212C1132.895,1028.787,1132.861,1028.856,1132.781,1028.932z M1132.626,1030.29
					c-0.31-0.488-0.774-0.729-1.657-0.171c-0.915,0.584-0.835,1.121-0.544,1.578l0.041,0.064c0.227,0.359,0.692,0.728,1.632,0.129
					c0.88-0.56,0.884-1.045,0.569-1.532L1132.626,1030.29z M1134.823,1033.597c-0.203-0.322-0.548-0.282-1.399-0.003l-1.074,0.35
					c-0.105,0.357-0.141,0.665,0.134,1.088l0.044,0.075c0.291,0.454,0.741,0.568,1.649-0.007c0.932-0.593,0.978-0.992,0.688-1.438
					L1134.823,1033.597z"/>
				<path fill="#0054A5" d="M1139.24,1030.896l-0.401,0.196c-0.095,0.045-0.212,0.009-0.259-0.09l-0.093-0.189
					c-0.3,0.446-0.644,0.844-1.132,1.085c-0.738,0.364-1.573,0.375-2.107-0.71l-0.053-0.102c-0.462-0.939-0.147-1.682,1.398-2.441
					l0.645-0.318l-0.171-0.348c-0.362-0.729-0.737-0.859-1.415-0.522c-0.563,0.275-0.963,0.519-1.293,0.724
					c-0.019,0.01-0.027,0.015-0.045,0.021c-0.08,0.039-0.171,0.054-0.225-0.061l-0.15-0.306c-0.05-0.095-0.012-0.179,0.103-0.254
					c0.325-0.239,0.699-0.487,1.29-0.778c1.206-0.595,1.993-0.227,2.5,0.797l1.494,3.035
					C1139.377,1030.729,1139.334,1030.846,1139.24,1030.896z M1137.506,1028.875l-0.643,0.314c-1.052,0.518-1.211,0.892-0.907,1.51
					l0.053,0.102c0.306,0.629,0.685,0.647,1.188,0.396c0.4-0.195,0.697-0.494,1.003-0.926L1137.506,1028.875z"/>
				<path fill="#0054A5" d="M1144.049,1029.049l-0.439,0.159c-0.097,0.033-0.21-0.015-0.246-0.117l-1.089-2.992
					c-0.333-0.92-0.745-1.091-1.438-0.841c-0.381,0.14-0.756,0.443-1.1,0.802l1.396,3.844c0.032,0.092-0.016,0.213-0.115,0.247
					l-0.446,0.162c-0.09,0.034-0.204-0.019-0.238-0.117l-1.69-4.646c-0.035-0.099,0.006-0.207,0.105-0.242l0.457-0.167
					c0.1-0.037,0.201,0.021,0.24,0.118l0.063,0.175c0.397-0.466,0.757-0.751,1.294-0.946c1.094-0.397,1.831,0.109,2.273,1.321
					l1.091,2.992C1144.2,1028.902,1144.147,1029.011,1144.049,1029.049z"/>
				<path fill="#0054A5" d="M1144.446,1022.546l-0.478,0.128c-0.101,0.027-0.211-0.035-0.237-0.137l-0.205-0.748
					c-0.026-0.104,0.035-0.209,0.137-0.235l0.477-0.133c0.103-0.026,0.212,0.034,0.239,0.137l0.204,0.749
					C1144.609,1022.408,1144.549,1022.515,1144.446,1022.546z M1146.051,1028.508l-0.45,0.12c-0.102,0.031-0.21-0.032-0.238-0.135
					l-1.294-4.764c-0.031-0.104,0.029-0.208,0.135-0.239l0.447-0.12c0.103-0.027,0.209,0.034,0.238,0.137l1.294,4.763
					C1146.214,1028.372,1146.152,1028.481,1146.051,1028.508z"/>
				<path fill="#0054A5" d="M1150.679,1027.497l-2.875,0.564c-0.41,0.079-0.633-0.145-0.687-0.413l-0.033-0.182
					c-0.054-0.265-0.023-0.42,0.097-0.658l1.858-3.537c0.012-0.03,0.027-0.064,0.022-0.092c-0.008-0.041-0.033-0.064-0.108-0.047
					l-2.313,0.449c-0.105,0.021-0.208-0.045-0.23-0.152l-0.06-0.325c-0.024-0.102,0.048-0.203,0.15-0.227l2.8-0.546
					c0.39-0.077,0.566,0.076,0.624,0.36l0.046,0.231c0.038,0.196,0,0.355-0.117,0.563l-1.893,3.62
					c-0.029,0.046-0.034,0.088-0.027,0.117c0.008,0.046,0.025,0.072,0.093,0.06l2.512-0.49c0.105-0.022,0.208,0.049,0.228,0.152
					l0.063,0.324C1150.849,1027.374,1150.779,1027.479,1150.679,1027.497z"/>
				<path fill="#0054A5" d="M1155.211,1027.021l-0.446,0.042c-0.106,0.007-0.2-0.071-0.209-0.177l-0.019-0.213
					c-0.438,0.314-0.9,0.561-1.441,0.609c-0.821,0.074-1.604-0.213-1.713-1.415l-0.012-0.118c-0.096-1.04,0.461-1.614,2.178-1.773
					l0.713-0.063l-0.035-0.387c-0.076-0.811-0.378-1.063-1.131-0.996c-0.628,0.058-1.087,0.14-1.468,0.212
					c-0.021,0.005-0.03,0.005-0.05,0.009c-0.087,0.007-0.174-0.016-0.186-0.141l-0.03-0.337c-0.01-0.106,0.05-0.169,0.186-0.2
					c0.387-0.106,0.825-0.204,1.479-0.265c1.339-0.122,1.94,0.502,2.047,1.638l0.311,3.363
					C1155.394,1026.915,1155.316,1027.01,1155.211,1027.021z M1154.318,1024.518l-0.712,0.067c-1.169,0.105-1.453,0.394-1.388,1.079
					l0.01,0.116c0.064,0.692,0.409,0.844,0.967,0.796c0.441-0.044,0.827-0.214,1.267-0.509L1154.318,1024.518z"/>
				<path fill="#0054A5" d="M1158.922,1026.979c-0.196,0.031-0.445,0.058-0.632,0.058c-0.893,0.015-1.32-0.213-1.339-1.279
					l-0.05-3.382l-0.942-0.091c-0.105-0.012-0.184-0.067-0.188-0.174l-0.004-0.262c0-0.105,0.075-0.175,0.181-0.178l0.943-0.016
					l-0.016-0.949c0-0.096,0.063-0.174,0.17-0.196l0.502-0.082c0.013,0,0.023,0,0.032,0c0.079-0.005,0.146,0.063,0.146,0.161
					l0.017,1.056l1.047-0.015c0.106-0.004,0.197,0.083,0.197,0.188l0.007,0.33c0,0.107-0.087,0.197-0.191,0.197l-1.049,0.019
					l0.053,3.382c0.008,0.533,0.143,0.609,0.533,0.603l0.541-0.007c0.136-0.005,0.204,0.033,0.207,0.132l0.005,0.341
					C1159.093,1026.9,1159.047,1026.957,1158.922,1026.979z"/>
				<path fill="#0054A5" d="M1160.609,1027.069l-0.464-0.03c-0.107-0.003-0.187-0.097-0.184-0.203l0.288-4.931
					c0.01-0.105,0.099-0.184,0.205-0.181l0.466,0.026c0.104,0.007,0.186,0.098,0.18,0.207l-0.287,4.928
					C1160.808,1026.994,1160.716,1027.074,1160.609,1027.069z M1160.988,1020.902l-0.496-0.029c-0.104-0.004-0.185-0.099-0.18-0.205
					l0.044-0.771c0.008-0.107,0.099-0.189,0.204-0.183l0.496,0.026c0.107,0.008,0.186,0.099,0.182,0.204l-0.046,0.775
					C1161.185,1020.827,1161.095,1020.91,1160.988,1020.902z"/>
				<path fill="#0054A5" d="M1163.947,1027.464c-1.416-0.193-2.009-1.223-1.816-2.633l0.098-0.731
					c0.189-1.41,1.037-2.246,2.449-2.055c1.416,0.193,2.016,1.222,1.827,2.635l-0.099,0.729
					C1166.214,1026.82,1165.358,1027.656,1163.947,1027.464z M1165.656,1024.564c0.135-0.979-0.172-1.656-1.078-1.781
					c-0.892-0.117-1.369,0.442-1.504,1.432l-0.099,0.729c-0.134,0.98,0.165,1.657,1.069,1.783c0.894,0.115,1.382-0.444,1.514-1.432
					L1165.656,1024.564z"/>
				<path fill="#0054A5" d="M1170.742,1028.83l-0.448-0.114c-0.108-0.026-0.167-0.132-0.142-0.239l0.787-3.091
					c0.241-0.949-0.004-1.319-0.72-1.505c-0.393-0.099-0.873-0.06-1.362,0.045l-1.008,3.966c-0.023,0.094-0.135,0.166-0.236,0.139
					l-0.461-0.116c-0.095-0.022-0.155-0.129-0.133-0.23l1.222-4.794c0.028-0.106,0.126-0.171,0.229-0.144l0.468,0.12
					c0.107,0.023,0.16,0.13,0.133,0.23l-0.044,0.179c0.588-0.16,1.046-0.192,1.603-0.05c1.13,0.288,1.457,1.12,1.139,2.372
					l-0.79,3.092C1170.951,1028.791,1170.845,1028.856,1170.742,1028.83z"/>
				<path fill="#0054A5" d="M1178.953,1024.762l-0.432-0.177c-0.421-0.176-0.598-0.103-0.798,0.39l-0.268,0.646l0.94,0.387
					c0.1,0.04,0.141,0.144,0.104,0.233l-0.146,0.349c-0.037,0.091-0.132,0.12-0.229,0.083l-0.942-0.39l-1.685,4.086
					c-0.038,0.088-0.154,0.145-0.246,0.106l-0.438-0.182c-0.099-0.037-0.142-0.163-0.105-0.25l1.687-4.086l-0.828-0.458
					c-0.095-0.05-0.14-0.139-0.107-0.23l0.104-0.242c0.037-0.088,0.137-0.129,0.235-0.091l0.869,0.359l0.265-0.644
					c0.396-0.96,0.979-1.056,1.767-0.729c0.243,0.102,0.374,0.186,0.481,0.261c0.088,0.067,0.145,0.133,0.112,0.216l-0.124,0.294
					C1179.13,1024.792,1179.052,1024.801,1178.953,1024.762z"/>
				<path fill="#0054A5" d="M1178.715,1032.186c-1.259-0.662-1.468-1.83-0.806-3.092l0.34-0.65c0.663-1.26,1.74-1.756,3.001-1.093
					c1.26,0.658,1.476,1.831,0.813,3.091l-0.342,0.654C1181.061,1032.356,1179.975,1032.845,1178.715,1032.186z M1181.311,1030.049
					c0.459-0.875,0.397-1.616-0.409-2.04c-0.793-0.416-1.433-0.054-1.899,0.828l-0.34,0.655c-0.458,0.874-0.406,1.612,0.4,2.031
					c0.795,0.42,1.443,0.057,1.907-0.824L1181.311,1030.049z"/>
				<path fill="#0054A5" d="M1185.783,1030.903c-0.375-0.238-0.776-0.363-1.34-0.38l-2.195,3.406
					c-0.053,0.079-0.177,0.118-0.266,0.058l-0.399-0.254c-0.079-0.054-0.106-0.174-0.05-0.265l2.669-4.145
					c0.059-0.091,0.169-0.119,0.261-0.063l0.38,0.246c0.093,0.057,0.108,0.175,0.052,0.26l-0.111,0.172
					c0.59-0.023,1.033,0.114,1.396,0.348c0.113,0.072,0.142,0.158,0.08,0.258l-0.216,0.333
					C1185.987,1030.968,1185.895,1030.979,1185.783,1030.903z"/>
				<path fill="#0054A5" d="M1187.1,1037.854c-0.511-0.444-0.849-0.826-1.128-1.155c-0.104-0.128-0.094-0.17-0.025-0.253
					l0.253-0.292c0.071-0.079,0.159-0.067,0.226-0.012c0.009,0.008,0.016,0.016,0.023,0.02c0.309,0.322,0.833,0.799,1.17,1.09
					c0.882,0.761,1.418,0.609,1.861,0.094c0.318-0.362,0.279-0.752-0.03-1.74l-0.341-1.044c-0.318-0.995-0.333-1.657,0.175-2.244
					c0.764-0.888,1.754-0.748,2.871,0.213c0.431,0.374,0.957,0.903,1.199,1.188c0.061,0.079,0.08,0.159,0.016,0.234l-0.273,0.314
					c-0.061,0.072-0.15,0.072-0.224,0.012c-0.007-0.008-0.007-0.008-0.013-0.016c-0.308-0.298-0.8-0.763-1.223-1.131
					c-0.757-0.65-1.219-0.769-1.68-0.233c-0.3,0.348-0.236,0.76,0.033,1.576l0.326,0.987c0.411,1.237,0.366,1.899-0.142,2.486
					C1189.57,1038.652,1188.545,1039.099,1187.1,1037.854z"/>
				<path fill="#0054A5" d="M1191.179,1041.683c-0.155-0.117-0.345-0.283-0.475-0.415c-0.623-0.638-0.751-1.103,0.008-1.848
					l2.415-2.365l-0.582-0.745c-0.068-0.08-0.081-0.178-0.005-0.254l0.188-0.181c0.076-0.076,0.179-0.064,0.25,0.011l0.659,0.671
					l0.678-0.663c0.067-0.068,0.174-0.075,0.261-0.011l0.408,0.307c0.004,0.004,0.011,0.011,0.019,0.018
					c0.054,0.059,0.054,0.15-0.015,0.221l-0.758,0.736l0.735,0.746c0.072,0.075,0.072,0.2-0.004,0.276l-0.234,0.229
					c-0.077,0.072-0.2,0.072-0.276-0.003l-0.73-0.749l-2.413,2.365c-0.378,0.371-0.341,0.522-0.068,0.799l0.379,0.385
					c0.094,0.099,0.112,0.174,0.044,0.243l-0.242,0.237C1191.355,1041.755,1191.279,1041.759,1191.179,1041.683z"/>
				<path fill="#0054A5" d="M1193.989,1045.02l-0.28-0.349c-0.067-0.082-0.057-0.203,0.027-0.272l0.167-0.133
					c-0.506-0.188-0.97-0.438-1.31-0.856c-0.522-0.638-0.723-1.45,0.216-2.214l0.091-0.077c0.812-0.657,1.604-0.518,2.689,0.821
					l0.453,0.557l0.305-0.246c0.626-0.514,0.669-0.907,0.192-1.494c-0.398-0.488-0.722-0.824-0.999-1.101
					c-0.011-0.015-0.017-0.023-0.03-0.037c-0.054-0.07-0.088-0.152,0.01-0.231l0.263-0.217c0.083-0.067,0.17-0.053,0.271,0.042
					c0.304,0.265,0.634,0.575,1.05,1.083c0.848,1.044,0.665,1.896-0.219,2.613l-2.623,2.138
					C1194.179,1045.114,1194.058,1045.099,1193.989,1045.02z M1195.571,1042.879l-0.455-0.554c-0.737-0.911-1.138-0.982-1.667-0.552
					l-0.093,0.076c-0.54,0.438-0.477,0.809-0.12,1.249c0.281,0.343,0.636,0.566,1.128,0.767L1195.571,1042.879z"/>
				<path fill="#0054A5" d="M1196.818,1049.243l-0.248-0.391c-0.063-0.087-0.035-0.208,0.057-0.27l2.676-1.729
					c0.82-0.534,0.893-0.972,0.49-1.589c-0.218-0.34-0.597-0.64-1.023-0.892l-3.433,2.221c-0.08,0.053-0.209,0.032-0.271-0.058
					l-0.256-0.397c-0.053-0.083-0.026-0.204,0.065-0.262l4.142-2.682c0.09-0.057,0.208-0.042,0.266,0.049l0.26,0.404
					c0.062,0.092,0.026,0.206-0.061,0.261l-0.155,0.1c0.542,0.283,0.901,0.571,1.212,1.052c0.633,0.976,0.307,1.809-0.775,2.509
					l-2.675,1.732C1197.002,1049.358,1196.881,1049.332,1196.818,1049.243z"/>
				<path fill="#0054A5" d="M1199.196,1053.616c-0.372-0.483-0.678-0.992-0.943-1.521c-0.643-1.29-0.098-2.306,1.201-2.956
					l0.623-0.311c1.357-0.675,2.434-0.432,3.061,0.833c0.137,0.27,0.314,0.688,0.422,1.057l1.61-0.803
					c0.088-0.043,0.199-0.012,0.246,0.084l0.219,0.442c0.047,0.082,0.009,0.188-0.087,0.234l-6.06,3.022
					C1199.374,1053.757,1199.303,1053.76,1199.196,1053.616z M1202.919,1051.039c-0.09-0.314-0.307-0.767-0.446-1.043
					c-0.425-0.853-1.091-0.863-2.019-0.401l-0.62,0.31c-0.944,0.47-1.339,1.003-0.91,1.857c0.143,0.295,0.381,0.708,0.555,0.987
					L1202.919,1051.039z"/>
				<path fill="#0054A5" d="M1200.854,1058.135l-0.156-0.418c-0.038-0.102,0.017-0.21,0.114-0.249l0.201-0.075
					c-0.417-0.34-0.775-0.723-0.966-1.23c-0.283-0.771-0.213-1.604,0.924-2.028l0.109-0.037c0.979-0.367,1.68,0.022,2.281,1.639
					l0.25,0.674l0.363-0.137c0.76-0.283,0.928-0.644,0.663-1.351c-0.221-0.591-0.416-1.01-0.587-1.363
					c-0.009-0.019-0.013-0.025-0.021-0.045c-0.028-0.079-0.028-0.174,0.089-0.216l0.317-0.116c0.098-0.039,0.177,0.003,0.242,0.125
					c0.2,0.347,0.412,0.744,0.64,1.361c0.47,1.263,0.021,2.006-1.049,2.402l-3.167,1.177
					C1201.005,1058.285,1200.892,1058.231,1200.854,1058.135z M1203.041,1056.619l-0.25-0.673c-0.408-1.097-0.761-1.294-1.409-1.055
					l-0.104,0.038c-0.657,0.245-0.712,0.617-0.52,1.143c0.156,0.419,0.42,0.742,0.819,1.089L1203.041,1056.619z"/>
				<path fill="#0054A5" d="M1206.275,1060.199c-0.122-0.427-0.341-0.79-0.748-1.18l-3.913,1.078
					c-0.096,0.026-0.212-0.034-0.238-0.136l-0.129-0.458c-0.023-0.095,0.037-0.201,0.14-0.228l4.764-1.313
					c0.103-0.029,0.207,0.021,0.234,0.125l0.123,0.438c0.028,0.103-0.036,0.2-0.14,0.231l-0.195,0.053
					c0.454,0.378,0.697,0.771,0.81,1.191c0.037,0.133,0,0.213-0.112,0.246l-0.384,0.102
					C1206.385,1060.382,1206.309,1060.331,1206.275,1060.199z"/>
				<path fill="#0054A5" d="M1202.729,1065.697c-0.222-0.566-0.377-1.139-0.487-1.722c-0.264-1.418,0.538-2.247,1.965-2.513
					l0.688-0.128c1.494-0.275,2.459,0.254,2.717,1.642c0.055,0.297,0.109,0.746,0.113,1.132l1.771-0.329
					c0.094-0.019,0.193,0.042,0.211,0.148l0.092,0.484c0.019,0.094-0.041,0.185-0.148,0.203l-6.663,1.24
					C1202.861,1065.879,1202.791,1065.864,1202.729,1065.697z M1207.02,1064.24c-0.003-0.325-0.088-0.824-0.143-1.126
					c-0.175-0.936-0.811-1.133-1.828-0.939l-0.685,0.124c-1.04,0.194-1.563,0.599-1.39,1.54c0.062,0.326,0.174,0.788,0.267,1.106
					L1207.02,1064.24z"/>
				<path fill="#0054A5" d="M1202.843,1067.74l-0.046-0.466c-0.01-0.105,0.064-0.201,0.172-0.211l4.912-0.511
					c0.108-0.012,0.201,0.063,0.214,0.171l0.049,0.464c0.012,0.107-0.067,0.202-0.175,0.213l-4.91,0.51
					C1202.953,1067.923,1202.854,1067.847,1202.843,1067.74z M1208.996,1067.116l-0.054-0.491c-0.012-0.105,0.067-0.201,0.174-0.213
					l0.772-0.078c0.104-0.013,0.201,0.063,0.212,0.169l0.048,0.492c0.011,0.105-0.063,0.204-0.169,0.216l-0.771,0.08
					C1209.101,1067.301,1209.006,1067.221,1208.996,1067.116z"/>
				<path fill="#0054A5" d="M1203.093,1072.489l-0.087-2.925c-0.015-0.42,0.242-0.602,0.516-0.609l0.184-0.004
					c0.27-0.011,0.417,0.045,0.636,0.202l3.19,2.404c0.03,0.021,0.057,0.04,0.086,0.04c0.039,0,0.069-0.023,0.065-0.1l-0.071-2.357
					c-0.005-0.106,0.082-0.196,0.189-0.2l0.329-0.009c0.104-0.004,0.195,0.081,0.2,0.185l0.087,2.854
					c0.011,0.396-0.167,0.549-0.459,0.556l-0.233,0.009c-0.205,0.006-0.353-0.058-0.538-0.209l-3.268-2.451
					c-0.043-0.038-0.081-0.046-0.11-0.046c-0.046,0-0.076,0.013-0.076,0.08l0.08,2.561c0.004,0.107-0.08,0.197-0.189,0.201
					l-0.329,0.008C1203.188,1072.681,1203.096,1072.6,1203.093,1072.489z"/>
				<path fill="#0054A5" d="M1202.84,1077.109l0.033-0.446c0.009-0.108,0.099-0.187,0.205-0.18l0.212,0.017
					c-0.235-0.484-0.405-0.981-0.366-1.521c0.056-0.825,0.468-1.55,1.675-1.468l0.117,0.007c1.044,0.074,1.521,0.72,1.399,2.442
					l-0.049,0.714l0.386,0.027c0.813,0.055,1.113-0.201,1.165-0.959c0.045-0.628,0.039-1.093,0.029-1.481
					c0.002-0.021,0.002-0.031,0.002-0.05c0.008-0.089,0.042-0.171,0.166-0.163l0.341,0.022c0.106,0.007,0.159,0.079,0.167,0.221
					c0.041,0.399,0.067,0.847,0.021,1.503c-0.094,1.345-0.809,1.838-1.951,1.759l-3.373-0.235
					C1202.916,1077.31,1202.832,1077.215,1202.84,1077.109z M1205.458,1076.632l0.049-0.715c0.083-1.169-0.156-1.497-0.84-1.549
					l-0.117-0.007c-0.696-0.047-0.904,0.27-0.941,0.828c-0.031,0.443,0.074,0.852,0.295,1.333L1205.458,1076.632z"/>
				<path fill="#0054A5" d="M1202.275,1080.76c0.003-0.196,0.023-0.45,0.053-0.632c0.138-0.882,0.436-1.267,1.488-1.101l3.341,0.527
					l0.252-0.914c0.027-0.102,0.095-0.17,0.202-0.155l0.256,0.04c0.106,0.019,0.164,0.104,0.146,0.211l-0.146,0.929l0.938,0.149
					c0.096,0.015,0.164,0.095,0.164,0.201v0.509c-0.004,0.014-0.004,0.021-0.004,0.032c-0.014,0.076-0.091,0.133-0.186,0.116
					l-1.044-0.163l-0.163,1.033c-0.019,0.107-0.116,0.179-0.225,0.163l-0.323-0.053c-0.106-0.016-0.179-0.118-0.161-0.224
					l0.161-1.034l-3.342-0.525c-0.524-0.083-0.624,0.039-0.685,0.424l-0.082,0.533c-0.024,0.137-0.073,0.197-0.166,0.182
					l-0.338-0.054C1202.328,1080.942,1202.275,1080.884,1202.275,1080.76z"/>
				<path fill="#0054A5" d="M1201.939,1082.397l0.098-0.455c0.022-0.104,0.128-0.168,0.23-0.146l4.824,1.071
					c0.105,0.022,0.17,0.124,0.149,0.23l-0.101,0.454c-0.021,0.102-0.128,0.17-0.229,0.147l-4.825-1.072
					C1201.98,1082.607,1201.915,1082.501,1201.939,1082.397z M1207.969,1083.757l0.107-0.484c0.021-0.103,0.125-0.17,0.231-0.147
					l0.756,0.17c0.103,0.023,0.17,0.126,0.147,0.23l-0.105,0.482c-0.022,0.104-0.13,0.168-0.231,0.146l-0.757-0.168
					C1208.013,1083.966,1207.947,1083.859,1207.969,1083.757z"/>
				<path fill="#0054A5" d="M1201.017,1085.604c0.415-1.362,1.524-1.778,2.887-1.362l0.702,0.216
					c1.36,0.416,2.045,1.384,1.628,2.746c-0.416,1.359-1.532,1.787-2.891,1.37l-0.704-0.215
					C1201.279,1087.94,1200.596,1086.961,1201.017,1085.604z M1203.592,1087.759c0.942,0.288,1.661,0.096,1.932-0.774
					c0.259-0.862-0.213-1.422-1.167-1.715l-0.703-0.215c-0.945-0.292-1.661-0.103-1.926,0.765c-0.266,0.861,0.208,1.429,1.16,1.726
					L1203.592,1087.759z"/>
				<path fill="#0054A5" d="M1198.578,1092.051l0.187-0.424c0.044-0.1,0.159-0.145,0.257-0.1l2.918,1.271
					c0.896,0.396,1.302,0.214,1.597-0.46c0.163-0.375,0.2-0.852,0.178-1.351l-3.746-1.634c-0.088-0.038-0.141-0.156-0.099-0.253
					l0.189-0.437c0.038-0.087,0.154-0.133,0.253-0.091l4.521,1.976c0.098,0.04,0.148,0.147,0.102,0.245l-0.191,0.442
					c-0.042,0.099-0.151,0.138-0.25,0.092l-0.171-0.072c0.064,0.605,0.022,1.063-0.208,1.589c-0.461,1.064-1.339,1.253-2.517,0.737
					l-2.915-1.273C1198.582,1092.265,1198.537,1092.15,1198.578,1092.051z"/>
			</g>
			<g>
				<g>
					<path fill="#0054A5" d="M1146.856,1122.951c-1.111,0-1.926-0.125-2.433-0.245c-0.196-0.05-0.272-0.126-0.272-0.273v-1.073
						c0-0.175,0.087-0.261,0.223-0.261c0.023,0,0.038,0,0.061,0c0.595,0.098,1.521,0.174,2.251,0.174
						c1.087,0,1.544-0.432,1.544-1.806v-0.087c-0.321,0.065-0.938,0.152-1.46,0.152c-1.665,0-3.049-0.707-3.049-2.76v-0.087
						c0-1.878,1.134-3.137,3.261-3.137c1.989,0,3.311,1.173,3.311,3.633v1.893
						C1150.292,1121.865,1148.957,1122.951,1146.856,1122.951z M1148.229,1117.182c0-1.679-0.533-2.024-1.248-2.024
						c-0.681,0-1.2,0.319-1.2,1.528v0.087c0,1.015,0.596,1.286,1.325,1.286c0.316,0,0.84-0.075,1.123-0.123V1117.182z"/>
					<path fill="#0054A5" d="M1154.84,1122.951c-2.1,0-3.326-1.199-3.326-4.162v-1.063c0-2.966,1.227-4.178,3.326-4.178
						s3.334,1.212,3.334,4.178v1.063C1158.174,1121.752,1156.939,1122.951,1154.84,1122.951z M1156.063,1117.727
						c0-1.953-0.53-2.423-1.223-2.423s-1.21,0.47-1.21,2.423v1.063c0,1.954,0.518,2.407,1.21,2.407s1.223-0.453,1.223-2.407
						V1117.727z"/>
					<path fill="#0054A5" d="M1162.682,1122.951c-2.1,0-3.32-1.199-3.32-4.162v-1.063c0-2.966,1.221-4.178,3.32-4.178
						c2.107,0,3.338,1.212,3.338,4.178v1.063C1166.02,1121.752,1164.789,1122.951,1162.682,1122.951z M1163.909,1117.727
						c0-1.953-0.533-2.423-1.228-2.423c-0.686,0-1.209,0.47-1.209,2.423v1.063c0,1.954,0.523,2.407,1.209,2.407
						c0.694,0,1.228-0.453,1.228-2.407V1117.727z"/>
					<path fill="#0054A5" d="M1169.69,1121.086v-5.313l-1.608,0.693c-0.06,0.023-0.109,0.033-0.146,0.033
						c-0.086,0-0.137-0.061-0.137-0.158v-1.408c0-0.087,0.039-0.136,0.124-0.173l2.236-1.053c0.09-0.034,0.159-0.05,0.284-0.05
						h1.113c0.136,0,0.233,0.104,0.233,0.236v7.191h1.644c0.136,0,0.248,0.099,0.248,0.234v1.271c0,0.137-0.112,0.251-0.248,0.251
						h-5.384c-0.138,0-0.251-0.114-0.251-0.251v-1.271c0-0.136,0.113-0.234,0.251-0.234H1169.69z"/>
				</g>
			</g>
		</g>
	</g>
</g>
</svg>
