<?xml version="1.0" encoding="utf-8"?>
<!-- Generator: Adobe Illustrator 16.0.0, SVG Export Plug-In . SVG Version: 6.00 Build 0)  -->
<!DOCTYPE svg PUBLIC "-//W3C//DTD SVG 1.0//EN" "http://www.w3.org/TR/2001/REC-SVG-20010904/DTD/svg10.dtd">
<svg version="1.0" id="Layer_1" xmlns="http://www.w3.org/2000/svg" xmlns:xlink="http://www.w3.org/1999/xlink" x="0px" y="0px"
	 width="543.095px" height="103px" viewBox="0 0 543.095 103" enable-background="new 0 0 543.095 103" xml:space="preserve">
<g>
	<g>
		<g>
			<rect x="258.482" y="0.206" fill="#13B57A" width="52.911" height="53.765"/>
			<polygon fill="#FFFFFF" points="284.949,35.801 291.58,30.985 302.323,23.192 289.038,23.192 284.949,10.562 280.835,23.192 
				267.551,23.169 278.294,30.985 274.181,43.616 284.924,35.801 295.668,43.616 292.505,33.842 			"/>
		</g>
		<g>
			<rect x="316.408" y="0.206" fill="#13B57A" width="52.91" height="53.765"/>
			<polygon fill="#FFFFFF" points="342.875,35.801 349.505,30.985 360.248,23.192 346.963,23.192 342.875,10.562 338.761,23.192 
				325.476,23.169 336.22,30.985 332.107,43.616 342.849,35.801 353.593,43.616 350.43,33.842 			"/>
		</g>
		<g>
			<rect x="374.333" y="0.206" fill="#13B57A" width="52.911" height="53.765"/>
			<polygon fill="#FFFFFF" points="400.8,35.801 407.43,30.985 418.173,23.192 404.888,23.192 400.8,10.562 396.686,23.192 
				383.402,23.169 394.146,30.985 390.033,43.616 400.775,35.801 411.519,43.616 408.355,33.842 			"/>
		</g>
		<g>
			<rect x="432.259" y="0.206" fill="#13B57A" width="52.909" height="53.765"/>
			<polygon fill="#FFFFFF" points="458.726,35.801 465.357,30.985 476.099,23.192 462.814,23.192 458.726,10.562 454.613,23.192 
				441.328,23.169 452.072,30.985 447.958,43.616 458.701,35.801 469.446,43.616 466.282,33.842 			"/>
		</g>
		<rect x="490.184" y="0.206" fill="#DDDFE5" width="52.911" height="53.765"/>
		<rect x="490.184" y="0.206" fill="#13B57A" width="34.444" height="53.765"/>
		<polygon fill="#FFFFFF" points="516.65,35.801 523.281,30.985 534.025,23.192 520.74,23.192 516.65,10.562 512.537,23.192 
			499.251,23.169 509.996,30.985 505.882,43.616 516.626,35.801 527.371,43.616 524.207,33.842 		"/>
	</g>
	<g>
		<path fill="#010101" d="M33.882,94.614V76.281h-6.588v-2.537h16.024v2.537H36.73v18.333H33.882z"/>
		<path fill="#010101" d="M47.494,94.614V79.44h2.466v2.721c0.406-1.021,0.956-1.783,1.65-2.289
			c0.694-0.505,1.546-0.758,2.557-0.758c0.189,0,0.326,0.002,0.411,0.007c0.085,0.005,0.17,0.017,0.255,0.035v2.692
			c-0.066-0.01-0.142-0.017-0.227-0.021c-0.084-0.004-0.212-0.007-0.382-0.007c-1.36,0-2.396,0.371-3.11,1.112
			c-0.713,0.742-1.07,1.82-1.07,3.237v8.444H47.494z"/>
		<path fill="#010101" d="M63.712,79.44v9.309c0,1.492,0.234,2.529,0.701,3.109c0.468,0.581,1.259,0.871,2.374,0.871
			c1.473,0,2.587-0.432,3.343-1.297c0.756-0.863,1.134-2.137,1.134-3.817V79.44h2.55v15.174h-2.437v-2.268
			c-0.529,0.879-1.213,1.54-2.054,1.983c-0.841,0.445-1.828,0.667-2.961,0.667c-1.058,0-1.979-0.18-2.763-0.539
			c-0.784-0.358-1.384-0.868-1.799-1.53c-0.236-0.368-0.406-0.8-0.51-1.297c-0.104-0.495-0.155-1.281-0.155-2.358v-0.722v-9.11
			H63.712z"/>
		<path fill="#010101" d="M80.71,89.684h2.451c0.095,1.03,0.465,1.81,1.113,2.338c0.646,0.528,1.565,0.794,2.755,0.794
			c1.095,0,1.96-0.216,2.593-0.646c0.632-0.43,0.95-1.018,0.95-1.764c0-0.558-0.159-0.984-0.475-1.282
			c-0.317-0.298-0.933-0.555-1.849-0.771l-2.848-0.737c-1.605-0.387-2.723-0.9-3.351-1.537c-0.628-0.638-0.942-1.547-0.942-2.728
			c0-1.341,0.508-2.405,1.523-3.195c1.015-0.788,2.406-1.183,4.172-1.183c1.804,0,3.239,0.421,4.307,1.261
			c1.067,0.841,1.601,1.97,1.601,3.386v0.058h-2.479c-0.057-0.804-0.385-1.425-0.985-1.863c-0.6-0.439-1.415-0.658-2.444-0.658
			c-1.03,0-1.812,0.18-2.345,0.537c-0.534,0.359-0.801,0.884-0.801,1.572c0,0.492,0.167,0.877,0.503,1.155
			c0.335,0.279,0.96,0.522,1.877,0.729l2.465,0.581c1.757,0.416,2.966,0.947,3.627,1.594c0.661,0.647,0.992,1.57,0.992,2.771
			c0,1.577-0.555,2.803-1.665,3.677c-1.11,0.873-2.662,1.31-4.654,1.31c-1.946,0-3.441-0.462-4.484-1.388
			C81.274,92.768,80.738,91.431,80.71,89.684z"/>
		<path fill="#010101" d="M103.205,90.789c0,0.68,0.097,1.133,0.291,1.359c0.193,0.227,0.55,0.341,1.069,0.341
			c0.151,0,0.333-0.005,0.545-0.015c0.212-0.009,0.489-0.028,0.829-0.056v2.167c-0.425,0.075-0.806,0.132-1.141,0.17
			c-0.336,0.038-0.636,0.057-0.9,0.057c-1.2,0-2.04-0.231-2.521-0.694c-0.482-0.463-0.723-1.284-0.723-2.465V81.466h-2.267V79.44
			h2.267v-4.236h2.551v4.236h2.734v2.025h-2.734V90.789z"/>
		<path fill="#010101" d="M111.376,89.684h2.451c0.095,1.03,0.465,1.81,1.112,2.338s1.565,0.794,2.756,0.794
			c1.095,0,1.96-0.216,2.592-0.646c0.633-0.43,0.95-1.018,0.95-1.764c0-0.558-0.159-0.984-0.475-1.282s-0.933-0.555-1.849-0.771
			l-2.848-0.737c-1.606-0.387-2.723-0.9-3.351-1.537c-0.628-0.638-0.942-1.547-0.942-2.728c0-1.341,0.508-2.405,1.523-3.195
			c1.015-0.788,2.406-1.183,4.172-1.183c1.804,0,3.24,0.421,4.308,1.261c1.067,0.841,1.601,1.97,1.601,3.386v0.058h-2.479
			c-0.057-0.804-0.385-1.425-0.985-1.863c-0.6-0.439-1.414-0.658-2.444-0.658c-1.029,0-1.811,0.18-2.345,0.537
			c-0.534,0.359-0.8,0.884-0.8,1.572c0,0.492,0.167,0.877,0.503,1.155c0.335,0.279,0.961,0.522,1.877,0.729l2.465,0.581
			c1.757,0.416,2.966,0.947,3.627,1.594c0.661,0.647,0.992,1.57,0.992,2.771c0,1.577-0.555,2.803-1.665,3.677
			c-1.11,0.873-2.661,1.31-4.654,1.31c-1.946,0-3.44-0.462-4.484-1.388C111.94,92.768,111.404,91.431,111.376,89.684z"/>
		<path fill="#010101" d="M140.955,84.484c-0.076-1.04-0.451-1.84-1.126-2.402c-0.676-0.562-1.599-0.843-2.77-0.843
			c-1.379,0-2.444,0.496-3.195,1.488c-0.751,0.991-1.126,2.408-1.126,4.25c0,1.852,0.361,3.277,1.084,4.279
			c0.722,1.001,1.745,1.501,3.067,1.501c1.19,0,2.142-0.307,2.855-0.92c0.713-0.615,1.154-1.507,1.324-2.679h2.437
			c-0.132,1.86-0.789,3.313-1.969,4.356c-1.181,1.045-2.768,1.565-4.761,1.565c-2.078,0-3.709-0.712-4.895-2.139
			c-1.186-1.426-1.779-3.381-1.779-5.865c0-2.541,0.619-4.531,1.856-5.973c1.238-1.439,2.938-2.16,5.101-2.16
			c1.908,0,3.436,0.498,4.583,1.495c1.148,0.996,1.759,2.345,1.835,4.045H140.955z"/>
		<path fill="#010101" d="M149.395,87.006c0-2.54,0.635-4.52,1.905-5.937c1.271-1.416,3.054-2.125,5.349-2.125
			c2.304,0,4.094,0.706,5.37,2.118c1.275,1.412,1.912,3.394,1.912,5.943c0,2.551-0.635,4.534-1.905,5.95
			c-1.271,1.418-3.053,2.125-5.348,2.125c-2.305,0-4.095-0.705-5.37-2.118C150.032,91.552,149.395,89.565,149.395,87.006z
			 M152.001,87.006c0,1.879,0.404,3.318,1.211,4.314s1.962,1.495,3.464,1.495c1.492,0,2.635-0.499,3.428-1.495
			c0.793-0.996,1.19-2.436,1.19-4.314c0-1.87-0.396-3.303-1.19-4.3c-0.793-0.997-1.936-1.495-3.428-1.495
			c-1.512,0-2.669,0.496-3.472,1.488S152.001,85.126,152.001,87.006z"/>
		<path fill="#010101" d="M171.096,94.614V79.44h2.466v2.721c0.406-1.021,0.956-1.783,1.65-2.289
			c0.694-0.505,1.546-0.758,2.557-0.758c0.189,0,0.326,0.002,0.411,0.007c0.085,0.005,0.17,0.017,0.255,0.035v2.692
			c-0.066-0.01-0.142-0.017-0.227-0.021c-0.084-0.004-0.212-0.007-0.382-0.007c-1.36,0-2.397,0.371-3.11,1.112
			c-0.713,0.742-1.07,1.82-1.07,3.237v8.444H171.096z"/>
		<path fill="#010101" d="M195.008,89.712h2.522c-0.274,1.672-1.001,2.989-2.182,3.953c-1.181,0.963-2.669,1.444-4.463,1.444
			c-2.106,0-3.769-0.708-4.987-2.125c-1.219-1.417-1.828-3.348-1.828-5.794c0-2.589,0.604-4.609,1.813-6.064
			c1.209-1.454,2.876-2.182,5.001-2.182c2.182,0,3.871,0.671,5.065,2.013c1.194,1.34,1.792,3.234,1.792,5.681
			c0,0.312-0.002,0.544-0.007,0.693c-0.005,0.151-0.017,0.298-0.035,0.44h-10.952c0.029,1.596,0.425,2.831,1.19,3.705
			c0.765,0.873,1.828,1.31,3.188,1.31c1.039,0,1.896-0.267,2.572-0.801C194.373,91.453,194.809,90.694,195.008,89.712z
			 M186.733,85.646h8.331c-0.009-1.418-0.368-2.511-1.077-3.28s-1.714-1.155-3.018-1.155c-1.256,0-2.246,0.378-2.969,1.134
			C187.279,83.101,186.856,84.2,186.733,85.646z"/>
		<path fill="#010101" d="M224.342,94.614v-4.987h-8.827v-2.55l8.799-12.171h2.635v12.396h2.876v2.324h-2.876v4.987H224.342z
			 M217.952,87.303h6.39v-9.024L217.952,87.303z"/>
		<path fill="#010101" d="M237.302,94.614v-3.159h2.904v3.159H237.302z"/>
		<path fill="#010101" d="M251.168,83.762c-0.897-0.406-1.565-0.959-2.004-1.658c-0.439-0.698-0.659-1.559-0.659-2.578
			c0-1.55,0.572-2.803,1.714-3.762s2.649-1.438,4.52-1.438c1.879,0,3.396,0.482,4.548,1.445c1.152,0.964,1.729,2.215,1.729,3.755
			c0,1.02-0.223,1.88-0.666,2.578c-0.444,0.699-1.115,1.252-2.012,1.658c1.114,0.434,1.955,1.079,2.522,1.934s0.85,1.901,0.85,3.138
			c0,1.937-0.63,3.481-1.892,4.634c-1.261,1.152-2.954,1.729-5.079,1.729c-2.125,0-3.811-0.576-5.058-1.729
			c-1.247-1.152-1.87-2.697-1.87-4.634c0-1.236,0.283-2.283,0.85-3.138C249.227,84.841,250.063,84.195,251.168,83.762z
			 M250.616,88.777c0,1.237,0.368,2.21,1.105,2.918s1.743,1.063,3.018,1.063c1.284,0,2.298-0.356,3.039-1.069
			c0.742-0.713,1.112-1.684,1.112-2.911c0-1.144-0.371-2.048-1.112-2.714c-0.741-0.666-1.755-0.998-3.039-0.998
			c-1.285,0-2.293,0.33-3.025,0.991S250.616,87.625,250.616,88.777z M251.225,79.752c0,0.963,0.321,1.737,0.964,2.323
			c0.642,0.586,1.492,0.879,2.55,0.879s1.908-0.293,2.55-0.879s0.963-1.36,0.963-2.323c0-0.973-0.31-1.733-0.928-2.28
			c-0.619-0.548-1.481-0.823-2.586-0.823c-1.096,0-1.955,0.275-2.578,0.823C251.537,78.019,251.225,78.779,251.225,79.752z"/>
		<path fill="#010101" d="M287.119,72.441v29.016h-2.126V72.441H287.119z"/>
		<path fill="#010101" d="M310.035,88.295h2.635c0.037,1.427,0.43,2.526,1.176,3.301c0.746,0.775,1.8,1.162,3.16,1.162
			c1.321,0,2.363-0.354,3.123-1.063c0.761-0.708,1.141-1.681,1.141-2.918c0-1.134-0.373-2.013-1.119-2.636s-1.795-0.936-3.145-0.936
			c-0.274,0-0.729,0.02-1.36,0.058l-0.1,0.014l0.015-2.295c0.122,0.009,0.248,0.017,0.375,0.021
			c0.127,0.005,0.291,0.008,0.488,0.008c1.455,0,2.504-0.248,3.146-0.744c0.642-0.495,0.963-1.291,0.963-2.388
			c0-1.02-0.307-1.804-0.921-2.352s-1.493-0.821-2.636-0.821c-1.284,0-2.255,0.361-2.911,1.083c-0.656,0.723-0.985,1.793-0.985,3.21
			h-2.578v-0.142c0-1.993,0.572-3.58,1.715-4.761c1.143-1.182,2.678-1.771,4.604-1.771c2.059,0,3.657,0.478,4.796,1.432
			c1.138,0.954,1.707,2.286,1.707,3.995c0,0.982-0.213,1.816-0.638,2.5c-0.425,0.686-1.054,1.207-1.884,1.565
			c1.076,0.397,1.891,1.015,2.443,1.85c0.553,0.836,0.829,1.872,0.829,3.11c0,1.945-0.657,3.502-1.97,4.668
			c-1.313,1.167-3.074,1.75-5.284,1.75c-2.068,0-3.717-0.611-4.944-1.836c-1.229-1.223-1.842-2.863-1.842-4.923V88.295z"/>
		<path fill="#010101" d="M330.248,94.614v-0.17c0-1.955,0.475-3.602,1.424-4.938c0.95-1.336,2.605-2.651,4.967-3.946l1.715-0.936
			c1.02-0.556,1.768-1.185,2.245-1.884c0.476-0.699,0.715-1.511,0.715-2.437c0-1.077-0.364-1.941-1.091-2.593
			c-0.728-0.651-1.7-0.978-2.918-0.978c-1.238,0-2.209,0.415-2.912,1.246c-0.703,0.832-1.055,1.975-1.055,3.429v0.241h-2.65v-0.354
			c0-2.153,0.604-3.854,1.813-5.101c1.21-1.246,2.849-1.87,4.917-1.87c2.002,0,3.609,0.553,4.824,1.658
			c1.213,1.105,1.82,2.555,1.82,4.349c0,1.399-0.354,2.615-1.063,3.648c-0.709,1.034-1.805,1.939-3.287,2.714l-1.715,0.864
			c-1.549,0.813-2.685,1.565-3.406,2.26c-0.724,0.694-1.203,1.462-1.439,2.302h10.91v2.494H330.248z"/>
		<path fill="#010101" d="M350.236,94.614v-0.17c0-1.955,0.475-3.602,1.423-4.938c0.95-1.336,2.604-2.651,4.966-3.946l1.715-0.936
			c1.02-0.556,1.768-1.185,2.246-1.884c0.477-0.699,0.715-1.511,0.715-2.437c0-1.077-0.363-1.941-1.092-2.593
			c-0.727-0.651-1.699-0.978-2.918-0.978c-1.236,0-2.207,0.415-2.912,1.246c-0.703,0.832-1.055,1.975-1.055,3.429v0.241h-2.649
			v-0.354c0-2.153,0.604-3.854,1.813-5.101c1.209-1.246,2.848-1.87,4.916-1.87c2.002,0,3.611,0.553,4.824,1.658
			c1.214,1.105,1.82,2.555,1.82,4.349c0,1.399-0.354,2.615-1.063,3.648c-0.707,1.034-1.804,1.939-3.287,2.714l-1.713,0.864
			c-1.55,0.813-2.686,1.565-3.408,2.26s-1.202,1.462-1.438,2.302h10.908v2.494H350.236z"/>
		<path fill="#010101" d="M383.281,94.614V79.44h2.465v2.721c0.406-1.021,0.957-1.783,1.65-2.289
			c0.695-0.505,1.547-0.758,2.559-0.758c0.188,0,0.325,0.002,0.41,0.007c0.086,0.005,0.17,0.017,0.255,0.035v2.692
			c-0.065-0.01-0.142-0.017-0.227-0.021c-0.085-0.004-0.212-0.007-0.382-0.007c-1.361,0-2.396,0.371-3.11,1.112
			c-0.714,0.742-1.069,1.82-1.069,3.237v8.444H383.281z"/>
		<path fill="#010101" d="M407.193,89.712h2.521c-0.274,1.672-1.002,2.989-2.182,3.953c-1.182,0.963-2.669,1.444-4.463,1.444
			c-2.107,0-3.77-0.708-4.988-2.125c-1.218-1.417-1.827-3.348-1.827-5.794c0-2.589,0.604-4.609,1.813-6.064
			c1.209-1.454,2.877-2.182,5.002-2.182c2.182,0,3.869,0.671,5.064,2.013c1.195,1.34,1.793,3.234,1.793,5.681
			c0,0.312-0.003,0.544-0.008,0.693c-0.005,0.151-0.017,0.298-0.035,0.44h-10.952c0.028,1.596,0.425,2.831,1.19,3.705
			c0.765,0.873,1.828,1.31,3.188,1.31c1.039,0,1.896-0.267,2.572-0.801C406.556,91.453,406.994,90.694,407.193,89.712z
			 M398.917,85.646h8.332c-0.01-1.418-0.369-2.511-1.078-3.28c-0.708-0.77-1.713-1.155-3.018-1.155
			c-1.256,0-2.245,0.378-2.968,1.134S399.041,84.2,398.917,85.646z"/>
		<path fill="#010101" d="M420.591,94.614l-5.596-15.174h2.734l4.236,12.155l4.137-12.155h2.734l-5.539,15.174H420.591z"/>
		<path fill="#010101" d="M434.925,76.648v-2.904h2.551v2.904H434.925z M434.925,94.614V79.44h2.551v15.174H434.925z"/>
		<path fill="#010101" d="M455.65,89.712h2.521c-0.274,1.672-1.002,2.989-2.182,3.953c-1.182,0.963-2.669,1.444-4.464,1.444
			c-2.106,0-3.769-0.708-4.987-2.125s-1.827-3.348-1.827-5.794c0-2.589,0.604-4.609,1.813-6.064
			c1.209-1.454,2.876-2.182,5.001-2.182c2.183,0,3.87,0.671,5.065,2.013c1.195,1.34,1.793,3.234,1.793,5.681
			c0,0.312-0.003,0.544-0.008,0.693c-0.005,0.151-0.017,0.298-0.035,0.44h-10.952c0.028,1.596,0.425,2.831,1.19,3.705
			c0.765,0.873,1.828,1.31,3.188,1.31c1.039,0,1.896-0.267,2.571-0.801C455.013,91.453,455.451,90.694,455.65,89.712z
			 M447.375,85.646h8.331c-0.009-1.418-0.368-2.511-1.077-3.28c-0.708-0.77-1.713-1.155-3.018-1.155
			c-1.256,0-2.245,0.378-2.968,1.134S447.498,84.2,447.375,85.646z"/>
		<path fill="#010101" d="M468.156,94.614l-4.533-15.174h2.648l3.217,11.603l2.989-11.603h2.961l2.962,11.603l3.328-11.603h2.621
			l-4.617,15.174h-2.58l-3.201-11.688l-3.217,11.688H468.156z"/>
		<path fill="#010101" d="M489.503,89.684h2.45c0.095,1.03,0.466,1.81,1.112,2.338s1.566,0.794,2.756,0.794
			c1.096,0,1.96-0.216,2.593-0.646c0.632-0.43,0.95-1.018,0.95-1.764c0-0.558-0.159-0.984-0.476-1.282
			c-0.317-0.298-0.933-0.555-1.849-0.771l-2.848-0.737c-1.605-0.387-2.723-0.9-3.352-1.537c-0.628-0.638-0.941-1.547-0.941-2.728
			c0-1.341,0.508-2.405,1.523-3.195c1.014-0.788,2.406-1.183,4.172-1.183c1.804,0,3.239,0.421,4.307,1.261
			c1.067,0.841,1.602,1.97,1.602,3.386v0.058h-2.479c-0.058-0.804-0.386-1.425-0.985-1.863c-0.6-0.439-1.414-0.658-2.443-0.658
			s-1.812,0.18-2.345,0.537c-0.534,0.359-0.801,0.884-0.801,1.572c0,0.492,0.167,0.877,0.503,1.155
			c0.336,0.279,0.961,0.522,1.877,0.729l2.465,0.581c1.758,0.416,2.967,0.947,3.628,1.594c0.661,0.647,0.991,1.57,0.991,2.771
			c0,1.577-0.555,2.803-1.664,3.677c-1.11,0.873-2.662,1.31-4.654,1.31c-1.945,0-3.441-0.462-4.484-1.388
			S489.531,91.431,489.503,89.684z"/>
	</g>
	<g>
		<path fill="#010101" d="M59.302,19.63h21.68v4.037h-8.536v22.752h-4.679V23.667h-8.5L59.302,19.63z M80.054,27.024h4v3.751h0.071
			c0.143-0.537,0.393-1.036,0.75-1.537s0.786-0.964,1.322-1.358c0.5-0.429,1.071-0.747,1.713-0.998
			c0.607-0.25,1.25-0.393,1.894-0.393c0.501,0,0.857,0.034,1.035,0.034c0.179,0.036,0.394,0.072,0.572,0.072v4.107
			c-0.286-0.07-0.607-0.107-0.928-0.143c-0.322-0.036-0.608-0.072-0.929-0.072c-0.714,0-1.393,0.145-2.037,0.43
			c-0.642,0.286-1.177,0.712-1.678,1.249c-0.465,0.571-0.856,1.25-1.143,2.071c-0.286,0.823-0.429,1.785-0.429,2.857v9.217h-4.285
			L80.054,27.024z M111.054,46.419h-4.212v-2.716h-0.072c-0.536,0.999-1.323,1.75-2.357,2.357c-1.037,0.608-2.108,0.895-3.18,0.895
			c-2.536,0-4.393-0.609-5.536-1.894c-1.142-1.25-1.713-3.179-1.713-5.714V27.024h4.286v11.895c0,1.714,0.321,2.926,0.999,3.605
			c0.644,0.715,1.573,1.072,2.751,1.072c0.894,0,1.643-0.145,2.25-0.429c0.607-0.283,1.106-0.644,1.464-1.107
			c0.393-0.464,0.643-1.035,0.822-1.68c0.179-0.642,0.25-1.355,0.25-2.105V27.024h4.286v19.395H111.054z M118.341,40.202
			c0.143,1.252,0.609,2.108,1.428,2.645c0.823,0.499,1.822,0.75,2.966,0.75c0.393,0,0.855-0.035,1.356-0.108
			c0.5-0.069,1.001-0.179,1.428-0.356c0.465-0.179,0.822-0.429,1.108-0.785c0.287-0.357,0.429-0.788,0.393-1.321
			c-0.036-0.537-0.214-1-0.608-1.358c-0.393-0.355-0.858-0.606-1.428-0.854c-0.573-0.215-1.251-0.396-2-0.537
			c-0.751-0.145-1.502-0.322-2.286-0.502c-0.787-0.179-1.572-0.392-2.322-0.641c-0.75-0.251-1.393-0.572-2-1.038
			c-0.572-0.427-1.072-0.962-1.393-1.643c-0.357-0.679-0.535-1.464-0.535-2.463c0-1.071,0.25-1.93,0.783-2.645
			c0.501-0.714,1.18-1.285,1.965-1.712c0.787-0.429,1.68-0.751,2.644-0.93c0.965-0.18,1.893-0.251,2.75-0.251
			c0.999,0,1.964,0.107,2.858,0.322c0.892,0.213,1.75,0.535,2.463,1.035c0.751,0.465,1.357,1.106,1.821,1.855
			c0.501,0.753,0.787,1.68,0.93,2.752h-4.465c-0.214-1.036-0.679-1.714-1.392-2.07c-0.75-0.358-1.571-0.537-2.536-0.537
			c-0.286,0-0.679,0.034-1.071,0.07c-0.43,0.072-0.787,0.145-1.18,0.287c-0.357,0.142-0.679,0.357-0.93,0.608
			c-0.249,0.25-0.391,0.605-0.391,1.034c0,0.537,0.179,0.929,0.534,1.251c0.358,0.32,0.823,0.569,1.43,0.821
			c0.571,0.214,1.25,0.394,2,0.535c0.749,0.143,1.537,0.322,2.322,0.501c0.784,0.179,1.536,0.393,2.286,0.644
			c0.749,0.247,1.428,0.57,1.999,1.035c0.571,0.43,1.072,0.963,1.43,1.606c0.356,0.642,0.534,1.464,0.534,2.394
			c0,1.141-0.248,2.106-0.784,2.928c-0.536,0.786-1.213,1.464-2.036,1.967c-0.822,0.499-1.786,0.854-2.786,1.104
			c-1.036,0.216-2.037,0.359-3.036,0.359c-1.215,0-2.357-0.144-3.393-0.43c-1.037-0.287-1.964-0.716-2.714-1.249
			c-0.751-0.574-1.356-1.251-1.786-2.108c-0.429-0.821-0.679-1.823-0.716-2.999h4.323v0.033H118.341z M132.45,27.024h3.249v-5.857
			h4.286v5.82h3.857v3.18h-3.857v10.358c0,0.466,0.036,0.819,0.071,1.178c0.036,0.322,0.143,0.607,0.25,0.821
			c0.143,0.215,0.357,0.393,0.609,0.502c0.286,0.105,0.641,0.178,1.141,0.178c0.286,0,0.609,0,0.895-0.036s0.605-0.07,0.891-0.142
			v3.319c-0.465,0.073-0.928,0.107-1.392,0.144c-0.465,0.072-0.894,0.072-1.394,0.072c-1.143,0-2.036-0.108-2.714-0.323
			c-0.679-0.214-1.213-0.535-1.606-0.928c-0.393-0.429-0.644-0.928-0.787-1.536c-0.143-0.606-0.215-1.356-0.25-2.144V30.203h-3.249
			v-3.252V27.024z M146.844,27.024h4.035v2.641h0.073c0.607-1.141,1.428-1.926,2.5-2.429c1.071-0.498,2.212-0.747,3.5-0.747
			c1.535,0,2.856,0.249,4,0.82c1.142,0.536,2.071,1.251,2.822,2.215c0.749,0.93,1.32,2.035,1.679,3.286
			c0.357,1.249,0.569,2.607,0.569,4c0,1.32-0.178,2.569-0.498,3.786c-0.357,1.215-0.858,2.32-1.538,3.25
			c-0.677,0.929-1.535,1.677-2.605,2.25c-1.073,0.572-2.287,0.858-3.716,0.858c-0.606,0-1.25-0.073-1.857-0.18
			c-0.606-0.106-1.214-0.286-1.785-0.537c-0.571-0.248-1.107-0.57-1.573-0.962c-0.5-0.395-0.891-0.858-1.213-1.358h-0.071v9.68
			h-4.286V27.024H146.844z M161.81,36.74c0-0.858-0.106-1.716-0.357-2.537c-0.214-0.822-0.572-1.535-1.038-2.179
			c-0.463-0.644-1.034-1.143-1.678-1.536c-0.679-0.393-1.463-0.571-2.321-0.571c-1.786,0-3.143,0.607-4.072,1.855
			c-0.892,1.252-1.357,2.932-1.357,5.002c0,0.999,0.106,1.894,0.358,2.715c0.249,0.821,0.57,1.536,1.07,2.142
			c0.465,0.607,1.037,1.072,1.715,1.431c0.678,0.357,1.428,0.535,2.321,0.535c1.001,0,1.785-0.214,2.465-0.607
			c0.679-0.393,1.212-0.929,1.678-1.535c0.429-0.645,0.75-1.358,0.929-2.179C161.703,38.416,161.81,37.595,161.81,36.74z
			 M169.346,19.63h4.286v4.037h-4.286V19.63z M169.346,27.024h4.286v19.395h-4.286V27.024z M177.454,19.63h4.285v26.789h-4.285
			V19.63z M194.811,46.955c-1.535,0-2.928-0.25-4.143-0.787c-1.214-0.538-2.215-1.212-3.071-2.108
			c-0.821-0.892-1.465-1.999-1.893-3.25c-0.429-1.25-0.679-2.642-0.679-4.105s0.215-2.822,0.679-4.072
			c0.427-1.251,1.071-2.323,1.893-3.251c0.821-0.893,1.857-1.607,3.071-2.106c1.215-0.5,2.608-0.785,4.143-0.785
			c1.538,0,2.93,0.249,4.144,0.785c1.213,0.499,2.215,1.214,3.073,2.106c0.821,0.892,1.463,2,1.893,3.251
			c0.426,1.25,0.678,2.608,0.678,4.072c0,1.499-0.214,2.855-0.678,4.105c-0.465,1.251-1.072,2.322-1.893,3.25
			c-0.822,0.896-1.859,1.608-3.073,2.108C197.741,46.669,196.382,46.955,194.811,46.955z M194.811,43.562
			c0.931,0,1.787-0.216,2.465-0.608c0.715-0.393,1.25-0.928,1.714-1.57c0.465-0.644,0.787-1.395,1.002-2.178
			c0.214-0.822,0.319-1.646,0.319-2.501c0-0.822-0.105-1.643-0.319-2.466c-0.215-0.821-0.537-1.536-1.002-2.178
			c-0.464-0.645-1.034-1.143-1.714-1.536c-0.715-0.393-1.535-0.607-2.465-0.607c-0.927,0-1.784,0.215-2.464,0.607
			c-0.713,0.394-1.25,0.93-1.714,1.536c-0.466,0.642-0.786,1.356-1,2.178c-0.214,0.823-0.322,1.644-0.322,2.466
			c0,0.855,0.107,1.679,0.322,2.501c0.214,0.82,0.534,1.534,1,2.178c0.465,0.643,1.036,1.178,1.714,1.57
			C193.061,43.383,193.883,43.562,194.811,43.562z M205.884,27.024h3.249v-5.857h4.287v5.82h3.857v3.18h-3.857v10.358
			c0,0.466,0.036,0.819,0.072,1.178c0.035,0.322,0.143,0.607,0.249,0.821c0.144,0.215,0.358,0.393,0.606,0.502
			c0.286,0.105,0.644,0.178,1.144,0.178c0.286,0,0.607,0,0.893-0.036c0.285-0.036,0.606-0.07,0.893-0.142v3.319
			c-0.465,0.073-0.928,0.107-1.393,0.144c-0.465,0.072-0.894,0.072-1.394,0.072c-1.143,0-2.037-0.108-2.714-0.323
			c-0.68-0.214-1.216-0.535-1.608-0.928c-0.392-0.429-0.642-0.928-0.786-1.536c-0.143-0.606-0.214-1.356-0.25-2.144V30.203h-3.249
			v-3.252V27.024z"/>
		<path fill="#13B57A" d="M54.04,19.63H33.394L27.04,0l-6.395,19.63L0,19.594L16.696,31.74l-6.393,19.629L27,39.224l16.697,12.146
			L37.343,31.74L54.04,19.63z"/>
		<path fill="#055229" d="M38.771,34.753l-1.428-4.437L27.04,37.799L38.771,34.753z"/>
	</g>
	<rect x="307.126" y="101.507" fill="#010101" width="198.017" height="1.493"/>
</g>
</svg>
